%TF.GenerationSoftware,KiCad,Pcbnew,7.0.8*%
%TF.CreationDate,2024-06-23T14:42:54-04:00*%
%TF.ProjectId,rugby64,72756762-7936-4342-9e6b-696361645f70,rev?*%
%TF.SameCoordinates,Original*%
%TF.FileFunction,Copper,L1,Top*%
%TF.FilePolarity,Positive*%
%FSLAX46Y46*%
G04 Gerber Fmt 4.6, Leading zero omitted, Abs format (unit mm)*
G04 Created by KiCad (PCBNEW 7.0.8) date 2024-06-23 14:42:54*
%MOMM*%
%LPD*%
G01*
G04 APERTURE LIST*
G04 Aperture macros list*
%AMRoundRect*
0 Rectangle with rounded corners*
0 $1 Rounding radius*
0 $2 $3 $4 $5 $6 $7 $8 $9 X,Y pos of 4 corners*
0 Add a 4 corners polygon primitive as box body*
4,1,4,$2,$3,$4,$5,$6,$7,$8,$9,$2,$3,0*
0 Add four circle primitives for the rounded corners*
1,1,$1+$1,$2,$3*
1,1,$1+$1,$4,$5*
1,1,$1+$1,$6,$7*
1,1,$1+$1,$8,$9*
0 Add four rect primitives between the rounded corners*
20,1,$1+$1,$2,$3,$4,$5,0*
20,1,$1+$1,$4,$5,$6,$7,0*
20,1,$1+$1,$6,$7,$8,$9,0*
20,1,$1+$1,$8,$9,$2,$3,0*%
G04 Aperture macros list end*
%TA.AperFunction,SMDPad,CuDef*%
%ADD10RoundRect,0.200000X-0.275000X0.200000X-0.275000X-0.200000X0.275000X-0.200000X0.275000X0.200000X0*%
%TD*%
%TA.AperFunction,SMDPad,CuDef*%
%ADD11RoundRect,0.250000X-0.475000X0.250000X-0.475000X-0.250000X0.475000X-0.250000X0.475000X0.250000X0*%
%TD*%
%TA.AperFunction,SMDPad,CuDef*%
%ADD12R,0.800000X0.500000*%
%TD*%
%TA.AperFunction,SMDPad,CuDef*%
%ADD13R,0.800000X0.400000*%
%TD*%
%TA.AperFunction,SMDPad,CuDef*%
%ADD14RoundRect,0.250000X0.650000X-0.325000X0.650000X0.325000X-0.650000X0.325000X-0.650000X-0.325000X0*%
%TD*%
%TA.AperFunction,SMDPad,CuDef*%
%ADD15RoundRect,0.250000X0.250000X0.475000X-0.250000X0.475000X-0.250000X-0.475000X0.250000X-0.475000X0*%
%TD*%
%TA.AperFunction,SMDPad,CuDef*%
%ADD16R,1.676400X0.279400*%
%TD*%
%TA.AperFunction,SMDPad,CuDef*%
%ADD17R,0.650000X0.400000*%
%TD*%
%TA.AperFunction,SMDPad,CuDef*%
%ADD18RoundRect,0.100000X-0.100000X0.637500X-0.100000X-0.637500X0.100000X-0.637500X0.100000X0.637500X0*%
%TD*%
%TA.AperFunction,SMDPad,CuDef*%
%ADD19R,2.350000X0.850000*%
%TD*%
%TA.AperFunction,SMDPad,CuDef*%
%ADD20RoundRect,0.225000X0.250000X-0.225000X0.250000X0.225000X-0.250000X0.225000X-0.250000X-0.225000X0*%
%TD*%
%TA.AperFunction,SMDPad,CuDef*%
%ADD21RoundRect,0.200000X0.200000X0.275000X-0.200000X0.275000X-0.200000X-0.275000X0.200000X-0.275000X0*%
%TD*%
%TA.AperFunction,SMDPad,CuDef*%
%ADD22R,1.000000X0.400000*%
%TD*%
%TA.AperFunction,SMDPad,CuDef*%
%ADD23R,1.300000X2.000000*%
%TD*%
%TA.AperFunction,SMDPad,CuDef*%
%ADD24RoundRect,0.218750X-0.218750X-0.256250X0.218750X-0.256250X0.218750X0.256250X-0.218750X0.256250X0*%
%TD*%
%TA.AperFunction,ViaPad*%
%ADD25C,0.800000*%
%TD*%
%TA.AperFunction,Conductor*%
%ADD26C,0.250000*%
%TD*%
%TA.AperFunction,Conductor*%
%ADD27C,0.500000*%
%TD*%
%TA.AperFunction,Conductor*%
%ADD28C,0.200000*%
%TD*%
G04 APERTURE END LIST*
D10*
%TO.P,R3,1*%
%TO.N,BLUE*%
X18866450Y-42529295D03*
%TO.P,R3,2*%
%TO.N,GND*%
X18866450Y-44179295D03*
%TD*%
D11*
%TO.P,CB2,1*%
%TO.N,+3V3*%
X43174250Y-43574695D03*
%TO.P,CB2,2*%
%TO.N,GND*%
X43174250Y-45474695D03*
%TD*%
D12*
%TO.P,RN12,1,R1.1*%
%TO.N,Net-(RN11-R4.1)*%
X17504499Y-37005696D03*
D13*
%TO.P,RN12,2,R2.1*%
%TO.N,Net-(RN12-R2.1)*%
X17504499Y-36205696D03*
%TO.P,RN12,3,R3.1*%
X17504499Y-35405696D03*
D12*
%TO.P,RN12,4,R4.1*%
%TO.N,GREEN*%
X17504499Y-34605696D03*
%TO.P,RN12,5,R4.2*%
%TO.N,Net-(RN12-R3.2)*%
X15704499Y-34605696D03*
D13*
%TO.P,RN12,6,R3.2*%
X15704499Y-35405696D03*
%TO.P,RN12,7,R2.2*%
%TO.N,Net-(RN12-R1.2)*%
X15704499Y-36205696D03*
D12*
%TO.P,RN12,8,R1.2*%
X15704499Y-37005696D03*
%TD*%
D14*
%TO.P,CC1,1*%
%TO.N,+3V3*%
X43833299Y-38169696D03*
%TO.P,CC1,2*%
%TO.N,GND*%
X43833299Y-35219696D03*
%TD*%
D15*
%TO.P,CB1,1*%
%TO.N,+3V3*%
X30254050Y-47887695D03*
%TO.P,CB1,2*%
%TO.N,GND*%
X28354050Y-47887695D03*
%TD*%
D12*
%TO.P,RN4,1,R1.1*%
%TO.N,R2*%
X20650699Y-29398496D03*
D13*
%TO.P,RN4,2,R2.1*%
%TO.N,R1*%
X20650699Y-28598496D03*
%TO.P,RN4,3,R3.1*%
%TO.N,R0*%
X20650699Y-27798496D03*
D12*
%TO.P,RN4,4,R4.1*%
%TO.N,GND*%
X20650699Y-26998496D03*
%TO.P,RN4,5,R4.2*%
%TO.N,Net-(RN10-R2.1)*%
X18850699Y-26998496D03*
D13*
%TO.P,RN4,6,R3.2*%
X18850699Y-27798496D03*
%TO.P,RN4,7,R2.2*%
%TO.N,Net-(RN10-R1.2)*%
X18850699Y-28598496D03*
D12*
%TO.P,RN4,8,R1.2*%
%TO.N,Net-(RN10-R1.1)*%
X18850699Y-29398496D03*
%TD*%
%TO.P,RN2,1,R1.1*%
%TO.N,B2*%
X29431499Y-42278296D03*
D13*
%TO.P,RN2,2,R2.1*%
%TO.N,B1*%
X29431499Y-41478296D03*
%TO.P,RN2,3,R3.1*%
%TO.N,B0*%
X29431499Y-40678296D03*
D12*
%TO.P,RN2,4,R4.1*%
%TO.N,GND*%
X29431499Y-39878296D03*
%TO.P,RN2,5,R4.2*%
%TO.N,Net-(RN2-R3.2)*%
X27631499Y-39878296D03*
D13*
%TO.P,RN2,6,R3.2*%
X27631499Y-40678296D03*
%TO.P,RN2,7,R2.2*%
%TO.N,Net-(RN2-R2.2)*%
X27631499Y-41478296D03*
D12*
%TO.P,RN2,8,R1.2*%
%TO.N,Net-(RN2-R1.2)*%
X27631499Y-42278296D03*
%TD*%
D10*
%TO.P,R2,1*%
%TO.N,GREEN*%
X17342450Y-42541495D03*
%TO.P,R2,2*%
%TO.N,GND*%
X17342450Y-44191495D03*
%TD*%
D16*
%TO.P,U4,1,\u002A1OE*%
%TO.N,{slash}ACTIVE_DISPLAY*%
X32867600Y-40046201D03*
%TO.P,U4,2,1Q1*%
%TO.N,GND*%
X32867600Y-40546200D03*
%TO.P,U4,3,1Q2*%
%TO.N,B0*%
X32867600Y-41046199D03*
%TO.P,U4,4,GND*%
%TO.N,GND*%
X32867600Y-41546201D03*
%TO.P,U4,5,1Q3*%
%TO.N,B1*%
X32867600Y-42046200D03*
%TO.P,U4,6,1Q4*%
%TO.N,B2*%
X32867600Y-42546199D03*
%TO.P,U4,7,VCC*%
%TO.N,+3V3*%
X32867600Y-43046200D03*
%TO.P,U4,8,1Q5*%
%TO.N,B3*%
X32867600Y-43546199D03*
%TO.P,U4,9,1Q6*%
%TO.N,B4*%
X32867600Y-44046201D03*
%TO.P,U4,10,GND*%
%TO.N,GND*%
X32867600Y-44546200D03*
%TO.P,U4,11,1Q7*%
%TO.N,B5*%
X32867600Y-45046199D03*
%TO.P,U4,12,1Q8*%
%TO.N,B6*%
X32867600Y-45546200D03*
%TO.P,U4,13,2Q1*%
%TO.N,GND*%
X32867600Y-46046200D03*
%TO.P,U4,14,2Q2*%
%TO.N,S6*%
X32867600Y-46546201D03*
%TO.P,U4,15,GND*%
%TO.N,GND*%
X32867600Y-47046200D03*
%TO.P,U4,16,2Q3*%
%TO.N,S5*%
X32867600Y-47546199D03*
%TO.P,U4,17,2Q4*%
%TO.N,S4*%
X32867600Y-48046201D03*
%TO.P,U4,18,VCC*%
%TO.N,+3V3*%
X32867600Y-48546200D03*
%TO.P,U4,19,2Q5*%
%TO.N,{slash}VSYNC*%
X32867600Y-49046201D03*
%TO.P,U4,20,2Q6*%
%TO.N,{slash}CLAMP*%
X32867600Y-49546200D03*
%TO.P,U4,21,GND*%
%TO.N,GND*%
X32867600Y-50046199D03*
%TO.P,U4,22,2Q7*%
%TO.N,{slash}HSYNC*%
X32867600Y-50546201D03*
%TO.P,U4,23,2Q8*%
%TO.N,{slash}CSYNC*%
X32867600Y-51046200D03*
%TO.P,U4,24,\u002A2OE*%
%TO.N,GND*%
X32867600Y-51546201D03*
%TO.P,U4,25,2CLK*%
%TO.N,LATCHING_SYNC*%
X40208200Y-51546199D03*
%TO.P,U4,26,2D8*%
%TO.N,SDAC_D0*%
X40208200Y-51046200D03*
%TO.P,U4,27,2D7*%
%TO.N,SDAC_D1*%
X40208200Y-50546201D03*
%TO.P,U4,28,GND*%
%TO.N,GND*%
X40208200Y-50046199D03*
%TO.P,U4,29,2D6*%
%TO.N,SDAC_D2*%
X40208200Y-49546200D03*
%TO.P,U4,30,2D5*%
%TO.N,SDAC_D3*%
X40208200Y-49046199D03*
%TO.P,U4,31,VCC*%
%TO.N,+3V3*%
X40208200Y-48546200D03*
%TO.P,U4,32,2D4*%
%TO.N,SDAC_D4*%
X40208200Y-48046201D03*
%TO.P,U4,33,2D3*%
%TO.N,SDAC_D5*%
X40208200Y-47546199D03*
%TO.P,U4,34,GND*%
%TO.N,GND*%
X40208200Y-47046200D03*
%TO.P,U4,35,2D2*%
%TO.N,SDAC_D6*%
X40208200Y-46546198D03*
%TO.P,U4,36,2D1*%
%TO.N,GND*%
X40208200Y-46046200D03*
%TO.P,U4,37,1D8*%
%TO.N,SDAC_D6*%
X40208200Y-45546200D03*
%TO.P,U4,38,1D7*%
%TO.N,SDAC_D5*%
X40208200Y-45046199D03*
%TO.P,U4,39,GND*%
%TO.N,GND*%
X40208200Y-44546200D03*
%TO.P,U4,40,1D6*%
%TO.N,SDAC_D4*%
X40208200Y-44046201D03*
%TO.P,U4,41,1D5*%
%TO.N,SDAC_D3*%
X40208200Y-43546199D03*
%TO.P,U4,42,VCC*%
%TO.N,+3V3*%
X40208200Y-43046200D03*
%TO.P,U4,43,1D4*%
%TO.N,SDAC_D2*%
X40208200Y-42546199D03*
%TO.P,U4,44,1D3*%
%TO.N,SDAC_D1*%
X40208200Y-42046200D03*
%TO.P,U4,45,GND*%
%TO.N,GND*%
X40208200Y-41546201D03*
%TO.P,U4,46,1D2*%
%TO.N,SDAC_D0*%
X40208200Y-41046199D03*
%TO.P,U4,47,1D1*%
%TO.N,GND*%
X40208200Y-40546200D03*
%TO.P,U4,48,1CLK*%
%TO.N,LATCHING_B*%
X40208200Y-40046199D03*
%TD*%
D17*
%TO.P,U2,1*%
%TO.N,{slash}DRESET*%
X44323000Y-41101800D03*
%TO.P,U2,2,GND*%
%TO.N,GND*%
X44323000Y-40451800D03*
%TO.P,U2,3*%
%TO.N,CLK*%
X44323000Y-39801800D03*
%TO.P,U2,4*%
%TO.N,{slash}CLK*%
X42423000Y-39801800D03*
%TO.P,U2,5,VCC*%
%TO.N,+3V3*%
X42423000Y-40451800D03*
%TO.P,U2,6*%
%TO.N,DRESET*%
X42423000Y-41101800D03*
%TD*%
D12*
%TO.P,RN1,1,R1.1*%
%TO.N,B6*%
X29442499Y-46037496D03*
D13*
%TO.P,RN1,2,R2.1*%
%TO.N,B5*%
X29442499Y-45237496D03*
%TO.P,RN1,3,R3.1*%
%TO.N,B4*%
X29442499Y-44437496D03*
D12*
%TO.P,RN1,4,R4.1*%
%TO.N,B3*%
X29442499Y-43637496D03*
%TO.P,RN1,5,R4.2*%
%TO.N,Net-(RN1-R4.2)*%
X27642499Y-43637496D03*
D13*
%TO.P,RN1,6,R3.2*%
%TO.N,Net-(RN1-R3.2)*%
X27642499Y-44437496D03*
%TO.P,RN1,7,R2.2*%
%TO.N,Net-(RN1-R2.2)*%
X27642499Y-45237496D03*
D12*
%TO.P,RN1,8,R1.2*%
%TO.N,BLUE*%
X27642499Y-46037496D03*
%TD*%
D18*
%TO.P,U3,1,A*%
%TO.N,DRESET*%
X49714499Y-28414296D03*
%TO.P,U3,2,B*%
X49064499Y-28414296D03*
%TO.P,U3,3,QA*%
%TO.N,LATCHING_SYNC*%
X48414499Y-28414296D03*
%TO.P,U3,4,QB*%
%TO.N,LATCHING_R*%
X47764499Y-28414296D03*
%TO.P,U3,5,QC*%
%TO.N,LATCHING_G*%
X47114499Y-28414296D03*
%TO.P,U3,6,QD*%
%TO.N,LATCHING_B*%
X46464499Y-28414296D03*
%TO.P,U3,7,GND*%
%TO.N,GND*%
X45814499Y-28414296D03*
%TO.P,U3,8,CLK*%
%TO.N,{slash}CLK*%
X45814499Y-34139296D03*
%TO.P,U3,9,CLR_N*%
%TO.N,+3V3*%
X46464499Y-34139296D03*
%TO.P,U3,10,QE*%
%TO.N,unconnected-(U3-QE-Pad10)*%
X47114499Y-34139296D03*
%TO.P,U3,11,QF*%
%TO.N,unconnected-(U3-QF-Pad11)*%
X47764499Y-34139296D03*
%TO.P,U3,12,QG*%
%TO.N,unconnected-(U3-QG-Pad12)*%
X48414499Y-34139296D03*
%TO.P,U3,13,QH*%
%TO.N,unconnected-(U3-QH-Pad13)*%
X49064499Y-34139296D03*
%TO.P,U3,14,VCC*%
%TO.N,+3V3*%
X49714499Y-34139296D03*
%TD*%
D12*
%TO.P,RN11,1,R1.1*%
%TO.N,unconnected-(RN11-R1.1-Pad1)*%
X17501099Y-40777496D03*
D13*
%TO.P,RN11,2,R2.1*%
%TO.N,Net-(RN11-R2.1)*%
X17501099Y-39977496D03*
%TO.P,RN11,3,R3.1*%
X17501099Y-39177496D03*
D12*
%TO.P,RN11,4,R4.1*%
%TO.N,Net-(RN11-R4.1)*%
X17501099Y-38377496D03*
%TO.P,RN11,5,R4.2*%
%TO.N,Net-(RN11-R3.2)*%
X15701099Y-38377496D03*
D13*
%TO.P,RN11,6,R3.2*%
X15701099Y-39177496D03*
%TO.P,RN11,7,R2.2*%
%TO.N,unconnected-(RN11-R2.2-Pad7)*%
X15701099Y-39977496D03*
D12*
%TO.P,RN11,8,R1.2*%
%TO.N,unconnected-(RN11-R1.2-Pad8)*%
X15701099Y-40777496D03*
%TD*%
D17*
%TO.P,U1,1*%
%TO.N,{slash}CSYNC*%
X31026699Y-51172696D03*
%TO.P,U1,2,GND*%
%TO.N,GND*%
X31026699Y-50522696D03*
%TO.P,U1,3*%
X31026699Y-49872696D03*
%TO.P,U1,4*%
%TO.N,unconnected-(U1-Pad4)*%
X29126699Y-49872696D03*
%TO.P,U1,5,VCC*%
%TO.N,+3V3*%
X29126699Y-50522696D03*
%TO.P,U1,6*%
%TO.N,{slash}ACTIVE_DISPLAY*%
X29126699Y-51172696D03*
%TD*%
D15*
%TO.P,CB3,1*%
%TO.N,+3V3*%
X32668850Y-24926095D03*
%TO.P,CB3,2*%
%TO.N,GND*%
X30768850Y-24926095D03*
%TD*%
D12*
%TO.P,RN3,1,R1.1*%
%TO.N,R6*%
X20650699Y-33144696D03*
D13*
%TO.P,RN3,2,R2.1*%
%TO.N,R5*%
X20650699Y-32344696D03*
%TO.P,RN3,3,R3.1*%
%TO.N,R4*%
X20650699Y-31544696D03*
D12*
%TO.P,RN3,4,R4.1*%
%TO.N,R3*%
X20650699Y-30744696D03*
%TO.P,RN3,5,R4.2*%
%TO.N,Net-(RN3-R4.2)*%
X18850699Y-30744696D03*
D13*
%TO.P,RN3,6,R3.2*%
%TO.N,Net-(RN3-R3.2)*%
X18850699Y-31544696D03*
%TO.P,RN3,7,R2.2*%
%TO.N,Net-(RN3-R2.2)*%
X18850699Y-32344696D03*
D12*
%TO.P,RN3,8,R1.2*%
%TO.N,RED*%
X18850699Y-33144696D03*
%TD*%
%TO.P,RN7,1,R1.1*%
%TO.N,BLUE*%
X26256499Y-46037496D03*
D13*
%TO.P,RN7,2,R2.1*%
%TO.N,Net-(RN1-R3.2)*%
X26256499Y-45237496D03*
%TO.P,RN7,3,R3.1*%
X26256499Y-44437496D03*
D12*
%TO.P,RN7,4,R4.1*%
%TO.N,Net-(RN2-R1.2)*%
X26256499Y-43637496D03*
%TO.P,RN7,5,R4.2*%
%TO.N,Net-(RN1-R4.2)*%
X24456499Y-43637496D03*
D13*
%TO.P,RN7,6,R3.2*%
X24456499Y-44437496D03*
%TO.P,RN7,7,R2.2*%
%TO.N,Net-(RN1-R2.2)*%
X24456499Y-45237496D03*
D12*
%TO.P,RN7,8,R1.2*%
X24456499Y-46037496D03*
%TD*%
D10*
%TO.P,R1,1*%
%TO.N,RED*%
X15818450Y-42554695D03*
%TO.P,R1,2*%
%TO.N,GND*%
X15818450Y-44204695D03*
%TD*%
D16*
%TO.P,U6,1,\u002A1OE*%
%TO.N,GND*%
X33248600Y-26797000D03*
%TO.P,U6,2,1Q1*%
X33248600Y-27296999D03*
%TO.P,U6,3,1Q2*%
%TO.N,Net-(U5-1D2)*%
X33248600Y-27796998D03*
%TO.P,U6,4,GND*%
%TO.N,GND*%
X33248600Y-28297000D03*
%TO.P,U6,5,1Q3*%
%TO.N,Net-(U5-1D3)*%
X33248600Y-28796999D03*
%TO.P,U6,6,1Q4*%
%TO.N,Net-(U5-1D4)*%
X33248600Y-29296998D03*
%TO.P,U6,7,VCC*%
%TO.N,+3V3*%
X33248600Y-29796999D03*
%TO.P,U6,8,1Q5*%
%TO.N,Net-(U5-1D5)*%
X33248600Y-30296998D03*
%TO.P,U6,9,1Q6*%
%TO.N,Net-(U5-1D6)*%
X33248600Y-30797000D03*
%TO.P,U6,10,GND*%
%TO.N,GND*%
X33248600Y-31296999D03*
%TO.P,U6,11,1Q7*%
%TO.N,Net-(U5-1D7)*%
X33248600Y-31796998D03*
%TO.P,U6,12,1Q8*%
%TO.N,Net-(U5-1D8)*%
X33248600Y-32296999D03*
%TO.P,U6,13,2Q1*%
%TO.N,GND*%
X33248600Y-32796999D03*
%TO.P,U6,14,2Q2*%
%TO.N,Net-(U5-2D2)*%
X33248600Y-33297000D03*
%TO.P,U6,15,GND*%
%TO.N,GND*%
X33248600Y-33796999D03*
%TO.P,U6,16,2Q3*%
%TO.N,Net-(U5-2D3)*%
X33248600Y-34296998D03*
%TO.P,U6,17,2Q4*%
%TO.N,Net-(U5-2D4)*%
X33248600Y-34797000D03*
%TO.P,U6,18,VCC*%
%TO.N,+3V3*%
X33248600Y-35296999D03*
%TO.P,U6,19,2Q5*%
%TO.N,Net-(U5-2D5)*%
X33248600Y-35797000D03*
%TO.P,U6,20,2Q6*%
%TO.N,Net-(U5-2D6)*%
X33248600Y-36296999D03*
%TO.P,U6,21,GND*%
%TO.N,GND*%
X33248600Y-36796998D03*
%TO.P,U6,22,2Q7*%
%TO.N,Net-(U5-2D7)*%
X33248600Y-37297000D03*
%TO.P,U6,23,2Q8*%
%TO.N,Net-(U5-2D8)*%
X33248600Y-37796999D03*
%TO.P,U6,24,\u002A2OE*%
%TO.N,GND*%
X33248600Y-38297000D03*
%TO.P,U6,25,2CLK*%
%TO.N,LATCHING_G*%
X40589200Y-38296998D03*
%TO.P,U6,26,2D8*%
%TO.N,SDAC_D0*%
X40589200Y-37796999D03*
%TO.P,U6,27,2D7*%
%TO.N,SDAC_D1*%
X40589200Y-37297000D03*
%TO.P,U6,28,GND*%
%TO.N,GND*%
X40589200Y-36796998D03*
%TO.P,U6,29,2D6*%
%TO.N,SDAC_D2*%
X40589200Y-36296999D03*
%TO.P,U6,30,2D5*%
%TO.N,SDAC_D3*%
X40589200Y-35796998D03*
%TO.P,U6,31,VCC*%
%TO.N,+3V3*%
X40589200Y-35296999D03*
%TO.P,U6,32,2D4*%
%TO.N,SDAC_D4*%
X40589200Y-34797000D03*
%TO.P,U6,33,2D3*%
%TO.N,SDAC_D5*%
X40589200Y-34296998D03*
%TO.P,U6,34,GND*%
%TO.N,GND*%
X40589200Y-33796999D03*
%TO.P,U6,35,2D2*%
%TO.N,SDAC_D6*%
X40589200Y-33296997D03*
%TO.P,U6,36,2D1*%
%TO.N,GND*%
X40589200Y-32796999D03*
%TO.P,U6,37,1D8*%
%TO.N,SDAC_D6*%
X40589200Y-32296999D03*
%TO.P,U6,38,1D7*%
%TO.N,SDAC_D5*%
X40589200Y-31796998D03*
%TO.P,U6,39,GND*%
%TO.N,GND*%
X40589200Y-31296999D03*
%TO.P,U6,40,1D6*%
%TO.N,SDAC_D4*%
X40589200Y-30797000D03*
%TO.P,U6,41,1D5*%
%TO.N,SDAC_D3*%
X40589200Y-30296998D03*
%TO.P,U6,42,VCC*%
%TO.N,+3V3*%
X40589200Y-29796999D03*
%TO.P,U6,43,1D4*%
%TO.N,SDAC_D2*%
X40589200Y-29296998D03*
%TO.P,U6,44,1D3*%
%TO.N,SDAC_D1*%
X40589200Y-28796999D03*
%TO.P,U6,45,GND*%
%TO.N,GND*%
X40589200Y-28297000D03*
%TO.P,U6,46,1D2*%
%TO.N,SDAC_D0*%
X40589200Y-27796998D03*
%TO.P,U6,47,1D1*%
%TO.N,GND*%
X40589200Y-27296999D03*
%TO.P,U6,48,1CLK*%
%TO.N,LATCHING_R*%
X40589200Y-26796998D03*
%TD*%
D12*
%TO.P,RN5,1,R1.1*%
%TO.N,GND*%
X20654099Y-40777296D03*
D13*
%TO.P,RN5,2,R2.1*%
%TO.N,G0*%
X20654099Y-39977296D03*
%TO.P,RN5,3,R3.1*%
%TO.N,G1*%
X20654099Y-39177296D03*
D12*
%TO.P,RN5,4,R4.1*%
%TO.N,G2*%
X20654099Y-38377296D03*
%TO.P,RN5,5,R4.2*%
%TO.N,Net-(RN11-R4.1)*%
X18854099Y-38377296D03*
D13*
%TO.P,RN5,6,R3.2*%
%TO.N,Net-(RN11-R3.2)*%
X18854099Y-39177296D03*
%TO.P,RN5,7,R2.2*%
%TO.N,Net-(RN11-R2.1)*%
X18854099Y-39977296D03*
D12*
%TO.P,RN5,8,R1.2*%
X18854099Y-40777296D03*
%TD*%
D19*
%TO.P,J2,1,Pin_1*%
%TO.N,RED*%
X17906499Y-46713695D03*
%TO.P,J2,2,Pin_2*%
%TO.N,GREEN*%
X15556499Y-48713695D03*
%TO.P,J2,3,Pin_3*%
%TO.N,BLUE*%
X17906499Y-50713695D03*
%TO.P,J2,4,Pin_4*%
%TO.N,{slash}CSYNC*%
X15556499Y-52713695D03*
%TD*%
D20*
%TO.P,C1,1*%
%TO.N,+3V3*%
X51300899Y-34421696D03*
%TO.P,C1,2*%
%TO.N,GND*%
X51300899Y-32871696D03*
%TD*%
D21*
%TO.P,R4,1*%
%TO.N,+3V3*%
X25525800Y-24866600D03*
%TO.P,R4,2*%
%TO.N,Net-(D1-A)*%
X23875800Y-24866600D03*
%TD*%
D12*
%TO.P,RN9,1,R1.1*%
%TO.N,RED*%
X17490099Y-33151296D03*
D13*
%TO.P,RN9,2,R2.1*%
%TO.N,Net-(RN3-R3.2)*%
X17490099Y-32351296D03*
%TO.P,RN9,3,R3.1*%
X17490099Y-31551296D03*
D12*
%TO.P,RN9,4,R4.1*%
%TO.N,Net-(RN10-R1.1)*%
X17490099Y-30751296D03*
%TO.P,RN9,5,R4.2*%
%TO.N,Net-(RN3-R4.2)*%
X15690099Y-30751296D03*
D13*
%TO.P,RN9,6,R3.2*%
X15690099Y-31551296D03*
%TO.P,RN9,7,R2.2*%
%TO.N,Net-(RN3-R2.2)*%
X15690099Y-32351296D03*
D12*
%TO.P,RN9,8,R1.2*%
X15690099Y-33151296D03*
%TD*%
D22*
%TO.P,J1,1,Pin_1*%
%TO.N,GND*%
X46003299Y-50496096D03*
%TO.P,J1,2,Pin_2*%
%TO.N,SDAC_D0*%
X46003299Y-49496096D03*
%TO.P,J1,3,Pin_3*%
%TO.N,SDAC_D1*%
X46003299Y-48496096D03*
%TO.P,J1,4,Pin_4*%
%TO.N,SDAC_D2*%
X46003299Y-47496096D03*
%TO.P,J1,5,Pin_5*%
%TO.N,SDAC_D3*%
X46003299Y-46496096D03*
%TO.P,J1,6,Pin_6*%
%TO.N,SDAC_D4*%
X46003299Y-45496096D03*
%TO.P,J1,7,Pin_7*%
%TO.N,SDAC_D5*%
X46003299Y-44496096D03*
%TO.P,J1,8,Pin_8*%
%TO.N,SDAC_D6*%
X46003299Y-43496096D03*
%TO.P,J1,9,Pin_9*%
%TO.N,+3V3*%
X46003299Y-42496096D03*
%TO.P,J1,10,Pin_10*%
%TO.N,{slash}DRESET*%
X46003299Y-41496096D03*
%TO.P,J1,11,Pin_11*%
%TO.N,GND*%
X46003299Y-40496096D03*
%TO.P,J1,12,Pin_12*%
%TO.N,CLK*%
X46003299Y-39496096D03*
D23*
%TO.P,J1,MP*%
%TO.N,N/C*%
X48703299Y-53296096D03*
X48703299Y-36696096D03*
%TD*%
D12*
%TO.P,RN10,1,R1.1*%
%TO.N,Net-(RN10-R1.1)*%
X17490099Y-29392096D03*
D13*
%TO.P,RN10,2,R2.1*%
%TO.N,Net-(RN10-R2.1)*%
X17490099Y-28592096D03*
%TO.P,RN10,3,R3.1*%
X17490099Y-27792096D03*
D12*
%TO.P,RN10,4,R4.1*%
%TO.N,unconnected-(RN10-R4.1-Pad4)*%
X17490099Y-26992096D03*
%TO.P,RN10,5,R4.2*%
%TO.N,unconnected-(RN10-R4.2-Pad5)*%
X15690099Y-26992096D03*
D13*
%TO.P,RN10,6,R3.2*%
%TO.N,unconnected-(RN10-R3.2-Pad6)*%
X15690099Y-27792096D03*
%TO.P,RN10,7,R2.2*%
%TO.N,Net-(RN10-R1.2)*%
X15690099Y-28592096D03*
D12*
%TO.P,RN10,8,R1.2*%
X15690099Y-29392096D03*
%TD*%
%TO.P,RN6,1,R1.1*%
%TO.N,G3*%
X20654099Y-37005696D03*
D13*
%TO.P,RN6,2,R2.1*%
%TO.N,G4*%
X20654099Y-36205696D03*
%TO.P,RN6,3,R3.1*%
%TO.N,G5*%
X20654099Y-35405696D03*
D12*
%TO.P,RN6,4,R4.1*%
%TO.N,G6*%
X20654099Y-34605696D03*
%TO.P,RN6,5,R4.2*%
%TO.N,GREEN*%
X18854099Y-34605696D03*
D13*
%TO.P,RN6,6,R3.2*%
%TO.N,Net-(RN12-R3.2)*%
X18854099Y-35405696D03*
%TO.P,RN6,7,R2.2*%
%TO.N,Net-(RN12-R2.1)*%
X18854099Y-36205696D03*
D12*
%TO.P,RN6,8,R1.2*%
%TO.N,Net-(RN12-R1.2)*%
X18854099Y-37005696D03*
%TD*%
%TO.P,RN8,1,R1.1*%
%TO.N,Net-(RN2-R1.2)*%
X26267499Y-42278296D03*
D13*
%TO.P,RN8,2,R2.1*%
%TO.N,Net-(RN2-R3.2)*%
X26267499Y-41478296D03*
%TO.P,RN8,3,R3.1*%
X26267499Y-40678296D03*
D12*
%TO.P,RN8,4,R4.1*%
%TO.N,unconnected-(RN8-R4.1-Pad4)*%
X26267499Y-39878296D03*
%TO.P,RN8,5,R4.2*%
%TO.N,unconnected-(RN8-R4.2-Pad5)*%
X24467499Y-39878296D03*
D13*
%TO.P,RN8,6,R3.2*%
%TO.N,unconnected-(RN8-R3.2-Pad6)*%
X24467499Y-40678296D03*
%TO.P,RN8,7,R2.2*%
%TO.N,Net-(RN2-R2.2)*%
X24467499Y-41478296D03*
D12*
%TO.P,RN8,8,R1.2*%
X24467499Y-42278296D03*
%TD*%
D24*
%TO.P,D1,1,K*%
%TO.N,GND*%
X20904000Y-24866600D03*
%TO.P,D1,2,A*%
%TO.N,Net-(D1-A)*%
X22479000Y-24866600D03*
%TD*%
D16*
%TO.P,U5,1,\u002A1OE*%
%TO.N,{slash}ACTIVE_DISPLAY*%
X23139400Y-26796601D03*
%TO.P,U5,2,1Q1*%
%TO.N,GND*%
X23139400Y-27296600D03*
%TO.P,U5,3,1Q2*%
%TO.N,R0*%
X23139400Y-27796599D03*
%TO.P,U5,4,GND*%
%TO.N,GND*%
X23139400Y-28296601D03*
%TO.P,U5,5,1Q3*%
%TO.N,R1*%
X23139400Y-28796600D03*
%TO.P,U5,6,1Q4*%
%TO.N,R2*%
X23139400Y-29296599D03*
%TO.P,U5,7,VCC*%
%TO.N,+3V3*%
X23139400Y-29796600D03*
%TO.P,U5,8,1Q5*%
%TO.N,R3*%
X23139400Y-30296599D03*
%TO.P,U5,9,1Q6*%
%TO.N,R4*%
X23139400Y-30796601D03*
%TO.P,U5,10,GND*%
%TO.N,GND*%
X23139400Y-31296600D03*
%TO.P,U5,11,1Q7*%
%TO.N,R5*%
X23139400Y-31796599D03*
%TO.P,U5,12,1Q8*%
%TO.N,R6*%
X23139400Y-32296600D03*
%TO.P,U5,13,2Q1*%
%TO.N,GND*%
X23139400Y-32796600D03*
%TO.P,U5,14,2Q2*%
%TO.N,G6*%
X23139400Y-33296601D03*
%TO.P,U5,15,GND*%
%TO.N,GND*%
X23139400Y-33796600D03*
%TO.P,U5,16,2Q3*%
%TO.N,G5*%
X23139400Y-34296599D03*
%TO.P,U5,17,2Q4*%
%TO.N,G4*%
X23139400Y-34796601D03*
%TO.P,U5,18,VCC*%
%TO.N,+3V3*%
X23139400Y-35296600D03*
%TO.P,U5,19,2Q5*%
%TO.N,G3*%
X23139400Y-35796601D03*
%TO.P,U5,20,2Q6*%
%TO.N,G2*%
X23139400Y-36296600D03*
%TO.P,U5,21,GND*%
%TO.N,GND*%
X23139400Y-36796599D03*
%TO.P,U5,22,2Q7*%
%TO.N,G1*%
X23139400Y-37296601D03*
%TO.P,U5,23,2Q8*%
%TO.N,G0*%
X23139400Y-37796600D03*
%TO.P,U5,24,\u002A2OE*%
%TO.N,{slash}ACTIVE_DISPLAY*%
X23139400Y-38296601D03*
%TO.P,U5,25,2CLK*%
%TO.N,LATCHING_B*%
X30480000Y-38296599D03*
%TO.P,U5,26,2D8*%
%TO.N,Net-(U5-2D8)*%
X30480000Y-37796600D03*
%TO.P,U5,27,2D7*%
%TO.N,Net-(U5-2D7)*%
X30480000Y-37296601D03*
%TO.P,U5,28,GND*%
%TO.N,GND*%
X30480000Y-36796599D03*
%TO.P,U5,29,2D6*%
%TO.N,Net-(U5-2D6)*%
X30480000Y-36296600D03*
%TO.P,U5,30,2D5*%
%TO.N,Net-(U5-2D5)*%
X30480000Y-35796599D03*
%TO.P,U5,31,VCC*%
%TO.N,+3V3*%
X30480000Y-35296600D03*
%TO.P,U5,32,2D4*%
%TO.N,Net-(U5-2D4)*%
X30480000Y-34796601D03*
%TO.P,U5,33,2D3*%
%TO.N,Net-(U5-2D3)*%
X30480000Y-34296599D03*
%TO.P,U5,34,GND*%
%TO.N,GND*%
X30480000Y-33796600D03*
%TO.P,U5,35,2D2*%
%TO.N,Net-(U5-2D2)*%
X30480000Y-33296598D03*
%TO.P,U5,36,2D1*%
%TO.N,GND*%
X30480000Y-32796600D03*
%TO.P,U5,37,1D8*%
%TO.N,Net-(U5-1D8)*%
X30480000Y-32296600D03*
%TO.P,U5,38,1D7*%
%TO.N,Net-(U5-1D7)*%
X30480000Y-31796599D03*
%TO.P,U5,39,GND*%
%TO.N,GND*%
X30480000Y-31296600D03*
%TO.P,U5,40,1D6*%
%TO.N,Net-(U5-1D6)*%
X30480000Y-30796601D03*
%TO.P,U5,41,1D5*%
%TO.N,Net-(U5-1D5)*%
X30480000Y-30296599D03*
%TO.P,U5,42,VCC*%
%TO.N,+3V3*%
X30480000Y-29796600D03*
%TO.P,U5,43,1D4*%
%TO.N,Net-(U5-1D4)*%
X30480000Y-29296599D03*
%TO.P,U5,44,1D3*%
%TO.N,Net-(U5-1D3)*%
X30480000Y-28796600D03*
%TO.P,U5,45,GND*%
%TO.N,GND*%
X30480000Y-28296601D03*
%TO.P,U5,46,1D2*%
%TO.N,Net-(U5-1D2)*%
X30480000Y-27796599D03*
%TO.P,U5,47,1D1*%
%TO.N,GND*%
X30480000Y-27296600D03*
%TO.P,U5,48,1CLK*%
%TO.N,LATCHING_B*%
X30480000Y-26796599D03*
%TD*%
D25*
%TO.N,+3V3*%
X26390600Y-24917400D03*
X44114050Y-43214095D03*
X42944910Y-29555045D03*
X32022299Y-24883696D03*
X37611901Y-47986099D03*
X25589999Y-29836696D03*
X25589999Y-35348496D03*
X29761699Y-48048496D03*
%TO.N,DRESET*%
X42680350Y-42039095D03*
X49065699Y-29836696D03*
%TO.N,RED*%
X16326450Y-46643095D03*
X16689749Y-33298251D03*
X14777050Y-42299695D03*
%TO.N,GREEN*%
X17444050Y-41715495D03*
X17063050Y-48344895D03*
%TO.N,BLUE*%
X19526850Y-49970495D03*
X19272850Y-41842495D03*
%TO.N,Net-(RN1-R4.2)*%
X28391450Y-43671295D03*
X25256999Y-43671295D03*
%TO.N,Net-(RN1-R2.2)*%
X28442250Y-45246095D03*
X25241850Y-45220695D03*
%TO.N,Net-(RN2-R2.2)*%
X25267999Y-41495797D03*
X28431999Y-41492282D03*
%TO.N,Net-(RN3-R4.2)*%
X16490599Y-30767472D03*
X19651199Y-30764096D03*
%TO.N,Net-(RN3-R2.2)*%
X19651199Y-32331581D03*
X16489099Y-32319096D03*
%TO.N,Net-(RN10-R1.2)*%
X19651199Y-28608778D03*
X16490599Y-28585696D03*
%TO.N,Net-(RN11-R3.2)*%
X16501599Y-39171083D03*
X19654599Y-39186044D03*
%TO.N,Net-(RN12-R1.2)*%
X19654599Y-37005696D03*
X16504999Y-36993646D03*
%TO.N,LATCHING_G*%
X38785800Y-38176200D03*
X44729400Y-26847800D03*
%TO.N,LATCHING_B*%
X46664099Y-30653501D03*
X39912499Y-39491994D03*
%TO.N,{slash}CLK*%
X41732200Y-39774285D03*
X45694600Y-35585400D03*
%TO.N,LATCHING_SYNC*%
X41630600Y-51739800D03*
X48488600Y-26797000D03*
%TO.N,SDAC_D0*%
X35468076Y-28102638D03*
X35462299Y-41349296D03*
%TO.N,SDAC_D1*%
X36177211Y-28807005D03*
X36171434Y-42053663D03*
%TO.N,SDAC_D2*%
X36677681Y-42915475D03*
X36439102Y-29956739D03*
%TO.N,SDAC_D3*%
X37420732Y-30317494D03*
X36883599Y-43992943D03*
%TO.N,SDAC_D4*%
X37333599Y-44988201D03*
X37586528Y-31303150D03*
%TO.N,SDAC_D5*%
X37783599Y-45901183D03*
X37789376Y-32316848D03*
%TO.N,SDAC_D6*%
X38798378Y-46473628D03*
X38489359Y-33093604D03*
%TO.N,{slash}CSYNC*%
X34233450Y-51062695D03*
X17088450Y-52612095D03*
%TO.N,GND*%
X47111250Y-50478495D03*
X24657650Y-33892295D03*
X28543850Y-25967495D03*
X24657650Y-27923295D03*
X30601250Y-40191495D03*
X47339850Y-31530095D03*
X24632250Y-31326895D03*
X41853450Y-43924106D03*
X47136650Y-40521695D03*
X19804249Y-33919696D03*
X43111103Y-46757748D03*
X21914450Y-40648695D03*
X48875150Y-40462200D03*
X29255050Y-46922495D03*
X45993650Y-51045497D03*
X30652050Y-44769998D03*
X31820450Y-26323095D03*
X28874050Y-33841495D03*
X42132850Y-46236695D03*
X43496900Y-33705800D03*
X28874050Y-31352295D03*
X20593650Y-26297695D03*
X45847000Y-29591000D03*
X28797850Y-28355095D03*
X38272050Y-26881895D03*
X47162050Y-39048495D03*
X51276850Y-31530095D03*
X20593650Y-41740895D03*
X34665250Y-24011695D03*
X42291000Y-28270200D03*
X21609650Y-27059695D03*
X24556050Y-32825495D03*
X36595650Y-49691095D03*
X41677778Y-41806449D03*
X31216600Y-49047400D03*
X29204250Y-24084996D03*
X34423350Y-38565895D03*
X44926850Y-50478495D03*
X23901400Y-49250600D03*
X45677611Y-27333262D03*
X42101900Y-31521400D03*
X30093250Y-51519895D03*
X24581450Y-36813295D03*
X28899450Y-36813295D03*
%TO.N,Net-(RN12-R3.2)*%
X16504999Y-35378555D03*
X19654599Y-35421006D03*
%TD*%
D26*
%TO.N,+3V3*%
X42091802Y-29796999D02*
X40270695Y-29796999D01*
X41224615Y-35280600D02*
X41187720Y-35317495D01*
X32896899Y-48545497D02*
X31808100Y-48545497D01*
X41187720Y-35317495D02*
X40250199Y-35317495D01*
X43174250Y-43574695D02*
X42799161Y-43199606D01*
D27*
X25576600Y-24917400D02*
X25525800Y-24866600D01*
X47527851Y-38169696D02*
X44874699Y-38169696D01*
D26*
X43833299Y-38084646D02*
X43833299Y-38169696D01*
D27*
X44874699Y-38169696D02*
X43833299Y-38169696D01*
D28*
X34460699Y-29811296D02*
X30446199Y-29811296D01*
D26*
X47728299Y-35891446D02*
X47245472Y-36374272D01*
X32896899Y-48545497D02*
X34032848Y-48545497D01*
X46464499Y-34139296D02*
X46464499Y-35186899D01*
D27*
X43174250Y-43574695D02*
X43548000Y-43200945D01*
D28*
X34460699Y-35297696D02*
X34435299Y-35323096D01*
D27*
X43548000Y-39415404D02*
X43833299Y-39130105D01*
D26*
X31808100Y-48545497D02*
X31158699Y-47896096D01*
D28*
X34435299Y-35323096D02*
X29861999Y-35323096D01*
D26*
X30853899Y-47896096D02*
X30194850Y-47896096D01*
D27*
X44606851Y-38169696D02*
X42403800Y-35966645D01*
D28*
X43479249Y-40470696D02*
X42421899Y-40470696D01*
D27*
X42400904Y-30090696D02*
X42385499Y-30090696D01*
D26*
X34032848Y-48545497D02*
X34233450Y-48344895D01*
X41220376Y-43045497D02*
X40237499Y-43045497D01*
X44351345Y-37566600D02*
X43833299Y-38084646D01*
D27*
X47727649Y-42496096D02*
X48025650Y-42198095D01*
X42403800Y-35966645D02*
X42403800Y-33400200D01*
D26*
X31158699Y-47896096D02*
X30853899Y-47896096D01*
X30093249Y-48048496D02*
X30254050Y-47887695D01*
X42385499Y-30090696D02*
X42091802Y-29796999D01*
X43174250Y-43574695D02*
X43534850Y-43214095D01*
X34233450Y-48344895D02*
X34233450Y-43444527D01*
X46464499Y-35186899D02*
X47245472Y-35967872D01*
D27*
X46003299Y-42496096D02*
X47727649Y-42496096D01*
X43833299Y-39130105D02*
X43833299Y-38169696D01*
D26*
X30194850Y-50105896D02*
X29763050Y-50537696D01*
X47245472Y-35967872D02*
X47245472Y-36374272D01*
X30254050Y-47887695D02*
X30845498Y-47887695D01*
X41374485Y-43199606D02*
X41220376Y-43045497D01*
D28*
X34486099Y-29785896D02*
X34460699Y-29811296D01*
D26*
X51300899Y-34655646D02*
X50585449Y-35371096D01*
D28*
X25589999Y-29836696D02*
X23074549Y-29836696D01*
D27*
X42936555Y-29555045D02*
X42400904Y-30090696D01*
X26390600Y-24917400D02*
X25576600Y-24917400D01*
D26*
X50585449Y-35371096D02*
X47918679Y-35371096D01*
D27*
X33038299Y-24883696D02*
X33190699Y-24731296D01*
X34572850Y-29872647D02*
X34486099Y-29785896D01*
D26*
X42302200Y-35280600D02*
X41224615Y-35280600D01*
D27*
X43548000Y-43200945D02*
X43548000Y-39415404D01*
D26*
X46053144Y-37566600D02*
X44351345Y-37566600D01*
D27*
X34460699Y-35297696D02*
X34572850Y-35185545D01*
D26*
X42403800Y-35382200D02*
X42302200Y-35280600D01*
D27*
X34569400Y-29677195D02*
X34486099Y-29760496D01*
D26*
X29763050Y-50537696D02*
X29141899Y-50537696D01*
X38171299Y-48545497D02*
X40237499Y-48545497D01*
X34233450Y-43444527D02*
X33834420Y-43045497D01*
D27*
X44874699Y-38169696D02*
X44606851Y-38169696D01*
X34572850Y-35185545D02*
X34572850Y-29872647D01*
D26*
X49996899Y-34421696D02*
X49714499Y-34139296D01*
D27*
X42944910Y-29555045D02*
X42936555Y-29555045D01*
D26*
X47918679Y-35371096D02*
X47728299Y-35561476D01*
D27*
X48025650Y-38667495D02*
X47527851Y-38169696D01*
X48025650Y-42198095D02*
X48025650Y-38667495D01*
D26*
X29761699Y-48048496D02*
X30093249Y-48048496D01*
D28*
X43529850Y-40420095D02*
X43479249Y-40470696D01*
D27*
X33190699Y-24731296D02*
X34569400Y-26109997D01*
D26*
X30845498Y-47887695D02*
X30853899Y-47896096D01*
D27*
X42951400Y-32852600D02*
X42951400Y-30656597D01*
D26*
X47728299Y-35561476D02*
X47728299Y-35891446D01*
X51300899Y-34421696D02*
X51300899Y-34655646D01*
X29141899Y-50537696D02*
X29116499Y-50512296D01*
D27*
X32022299Y-24883696D02*
X33038299Y-24883696D01*
D26*
X37611901Y-47986099D02*
X38171299Y-48545497D01*
X47245472Y-36374272D02*
X46053144Y-37566600D01*
X43534850Y-43214095D02*
X44114050Y-43214095D01*
X30194850Y-47896096D02*
X30194850Y-50105896D01*
X42799161Y-43199606D02*
X41374485Y-43199606D01*
D27*
X42951400Y-30656597D02*
X42385499Y-30090696D01*
D28*
X25539199Y-35297696D02*
X23118399Y-35297696D01*
D26*
X51300899Y-34421696D02*
X49996899Y-34421696D01*
X33834420Y-43045497D02*
X32896899Y-43045497D01*
D28*
X25589999Y-35348496D02*
X25539199Y-35297696D01*
D27*
X34569400Y-26109997D02*
X34569400Y-29677195D01*
X42403800Y-33400200D02*
X42951400Y-32852600D01*
D26*
%TO.N,{slash}DRESET*%
X44321899Y-41120696D02*
X44702899Y-41501696D01*
X44702899Y-41501696D02*
X45997699Y-41501696D01*
X45997699Y-41501696D02*
X46003299Y-41496096D01*
%TO.N,DRESET*%
X42680350Y-42039095D02*
X42680350Y-41379147D01*
X49065699Y-28415496D02*
X49064499Y-28414296D01*
X49065699Y-29836696D02*
X49065699Y-28415496D01*
X42680350Y-41379147D02*
X42421899Y-41120696D01*
X49714499Y-28414296D02*
X49064499Y-28414296D01*
D28*
%TO.N,RED*%
X15032050Y-42554695D02*
X15818450Y-42554695D01*
X14777050Y-42299695D02*
X15032050Y-42554695D01*
D26*
X17490099Y-33151296D02*
X18844099Y-33151296D01*
X16326450Y-46643095D02*
X16397050Y-46713695D01*
D28*
X16689749Y-33298251D02*
X16689749Y-33180446D01*
D26*
X18844099Y-33151296D02*
X18850699Y-33144696D01*
D28*
X16718899Y-33151296D02*
X17490099Y-33151296D01*
D26*
X16397050Y-46713695D02*
X17906499Y-46713695D01*
D28*
X16689749Y-33180446D02*
X16718899Y-33151296D01*
X16689749Y-33298251D02*
X16631794Y-33240296D01*
%TO.N,GREEN*%
X15609100Y-48344895D02*
X15556499Y-48397496D01*
X17444050Y-41715495D02*
X17669874Y-41941319D01*
X16590149Y-41571496D02*
X15420835Y-41571496D01*
X17444050Y-41715495D02*
X16734148Y-41715495D01*
X15001099Y-34234832D02*
X15208235Y-34027696D01*
X17504499Y-34114896D02*
X17504499Y-34605696D01*
D26*
X18854099Y-34605696D02*
X17504499Y-34605696D01*
D28*
X17669874Y-41941319D02*
X17669874Y-42429471D01*
X15420835Y-41571496D02*
X15001099Y-41151760D01*
X17063050Y-48344895D02*
X15609100Y-48344895D01*
X16734148Y-41715495D02*
X16590149Y-41571496D01*
X17417299Y-34027696D02*
X17504499Y-34114896D01*
X15001099Y-41151760D02*
X15001099Y-34234832D01*
X15208235Y-34027696D02*
X17417299Y-34027696D01*
%TO.N,BLUE*%
X19272850Y-42122895D02*
X18866450Y-42529295D01*
X26059449Y-46587496D02*
X26256499Y-46390446D01*
X22884098Y-42440895D02*
X23411699Y-42968496D01*
X23411699Y-46102316D02*
X23896879Y-46587496D01*
X19272850Y-41842495D02*
X19095050Y-42020295D01*
X19411100Y-49970495D02*
X18977699Y-50403896D01*
D26*
X27642499Y-46037496D02*
X26256499Y-46037496D01*
D28*
X19272850Y-41842495D02*
X19871250Y-42440895D01*
X23411699Y-42968496D02*
X23411699Y-46102316D01*
X23896879Y-46587496D02*
X26059449Y-46587496D01*
X19272850Y-41842495D02*
X19272850Y-42122895D01*
X19526850Y-49970495D02*
X19411100Y-49970495D01*
X19095050Y-42020295D02*
X19095050Y-42545145D01*
X19871250Y-42440895D02*
X22884098Y-42440895D01*
X26256499Y-46390446D02*
X26256499Y-46037496D01*
D26*
%TO.N,R6*%
X23105199Y-32310896D02*
X21962339Y-32310896D01*
X21962339Y-32310896D02*
X21128539Y-33144696D01*
X21128539Y-33144696D02*
X20650699Y-33144696D01*
D28*
%TO.N,R5*%
X23105199Y-31810895D02*
X21681505Y-31810895D01*
X21147704Y-32344696D02*
X20650699Y-32344696D01*
X21681505Y-31810895D02*
X21147704Y-32344696D01*
%TO.N,R4*%
X21134904Y-31544696D02*
X20650699Y-31544696D01*
X23105199Y-30810897D02*
X21868703Y-30810897D01*
X21868703Y-30810897D02*
X21134904Y-31544696D01*
%TO.N,R3*%
X20918904Y-30744696D02*
X20650699Y-30744696D01*
D26*
X20929719Y-30764096D02*
X20650699Y-30764096D01*
D28*
X23105199Y-30310895D02*
X21352705Y-30310895D01*
X21352705Y-30310895D02*
X20918904Y-30744696D01*
D26*
%TO.N,Net-(RN1-R4.2)*%
X24490298Y-43671295D02*
X24456499Y-43637496D01*
X28357651Y-43637496D02*
X28391450Y-43671295D01*
X25256999Y-43671295D02*
X24490298Y-43671295D01*
X24456499Y-44467096D02*
X24456499Y-43667096D01*
X27642499Y-43637496D02*
X28357651Y-43637496D01*
%TO.N,Net-(RN1-R3.2)*%
X26256499Y-44467096D02*
X27636099Y-44467096D01*
X26256499Y-45267096D02*
X26256499Y-44467096D01*
%TO.N,Net-(RN1-R2.2)*%
X24456499Y-46067096D02*
X24456499Y-45267096D01*
X27642499Y-45237496D02*
X28433651Y-45237496D01*
X25241850Y-45220695D02*
X24473300Y-45220695D01*
X28433651Y-45237496D02*
X28442250Y-45246095D01*
X24473300Y-45220695D02*
X24456499Y-45237496D01*
%TO.N,R2*%
X20738300Y-29310895D02*
X20650699Y-29398496D01*
D28*
X23105199Y-29310895D02*
X20738300Y-29310895D01*
%TO.N,R1*%
X20650699Y-28598496D02*
X21593899Y-28598496D01*
X21806299Y-28810896D02*
X23105199Y-28810896D01*
X21593899Y-28598496D02*
X21806299Y-28810896D01*
D26*
%TO.N,R0*%
X20663098Y-27810895D02*
X20650699Y-27798496D01*
D28*
X23105199Y-27810895D02*
X20663098Y-27810895D01*
D26*
%TO.N,Net-(RN2-R3.2)*%
X27631499Y-40688896D02*
X27631499Y-39888896D01*
X26267499Y-41488896D02*
X26267499Y-40688896D01*
X27631499Y-40688896D02*
X26267499Y-40688896D01*
%TO.N,Net-(RN2-R2.2)*%
X25261098Y-41488896D02*
X25267999Y-41495797D01*
X28431999Y-41492282D02*
X27634885Y-41492282D01*
X24467499Y-42288896D02*
X24467499Y-41488896D01*
X27634885Y-41492282D02*
X27631499Y-41488896D01*
X24467499Y-41488896D02*
X25261098Y-41488896D01*
%TO.N,Net-(RN2-R1.2)*%
X26256499Y-42299896D02*
X26267499Y-42288896D01*
X27631499Y-42288896D02*
X26267499Y-42288896D01*
X26256499Y-43667096D02*
X26256499Y-42299896D01*
%TO.N,G6*%
X21948898Y-33310897D02*
X20654099Y-34605696D01*
X23105199Y-33310897D02*
X21948898Y-33310897D01*
D28*
%TO.N,G5*%
X21354099Y-34578696D02*
X21354099Y-34979960D01*
X21354099Y-34979960D02*
X21339899Y-34994160D01*
X21339899Y-34994160D02*
X21339899Y-35029516D01*
X21621900Y-34310895D02*
X21354099Y-34578696D01*
X21339899Y-35029516D02*
X20963719Y-35405696D01*
D26*
X20963719Y-35405696D02*
X20654099Y-35405696D01*
D28*
X23105199Y-34310895D02*
X21621900Y-34310895D01*
%TO.N,G4*%
X21354099Y-35729960D02*
X21354099Y-35616357D01*
X20764760Y-36205696D02*
X21064760Y-35905696D01*
D26*
X22167678Y-34810897D02*
X23105199Y-34810897D01*
D28*
X21064760Y-35905696D02*
X21178363Y-35905696D01*
X20654099Y-36205696D02*
X20764760Y-36205696D01*
X21754099Y-35216357D02*
X21754099Y-34864496D01*
X21754099Y-34864496D02*
X21807698Y-34810897D01*
X21807698Y-34810897D02*
X22167678Y-34810897D01*
X21178363Y-35905696D02*
X21354099Y-35729960D01*
X21354099Y-35616357D02*
X21754099Y-35216357D01*
%TO.N,G3*%
X22057713Y-35796601D02*
X21332812Y-36521502D01*
X23139400Y-35796601D02*
X22057713Y-35796601D01*
X21332812Y-36551247D02*
X20878363Y-37005696D01*
X21332812Y-36521502D02*
X21332812Y-36551247D01*
D26*
X20913719Y-37005696D02*
X20654099Y-37005696D01*
D28*
X20878363Y-37005696D02*
X20654099Y-37005696D01*
D26*
%TO.N,Net-(RN3-R4.2)*%
X16474423Y-30751296D02*
X15664699Y-30751296D01*
X15690099Y-30751296D02*
X15690099Y-31551296D01*
X18850699Y-30764096D02*
X19682899Y-30764096D01*
X16490599Y-30767472D02*
X16474423Y-30751296D01*
X19682899Y-30764096D02*
X19651199Y-30764096D01*
%TO.N,Net-(RN3-R3.2)*%
X18844099Y-31551296D02*
X18850699Y-31544696D01*
X17490099Y-31551296D02*
X18844099Y-31551296D01*
X17490099Y-32351296D02*
X17490099Y-31551296D01*
%TO.N,Net-(RN3-R2.2)*%
X16489099Y-32319096D02*
X15722299Y-32319096D01*
X19638084Y-32344696D02*
X19651199Y-32331581D01*
X18850699Y-32344696D02*
X19638084Y-32344696D01*
X15690099Y-32351296D02*
X15690099Y-33151296D01*
X15722299Y-32319096D02*
X15690099Y-32351296D01*
D28*
%TO.N,G2*%
X21732812Y-36910897D02*
X21365299Y-37278410D01*
X21732812Y-36687188D02*
X21732812Y-36910897D01*
X22109104Y-36310896D02*
X21732812Y-36687188D01*
X21365299Y-37398524D02*
X21208127Y-37555696D01*
X21018699Y-37555696D02*
X20654099Y-37920296D01*
X21208127Y-37555696D02*
X21018699Y-37555696D01*
X20654099Y-37920296D02*
X20654099Y-38377296D01*
X22167678Y-36310896D02*
X22109104Y-36310896D01*
D26*
X23105199Y-36310896D02*
X22167678Y-36310896D01*
D28*
X21365299Y-37278410D02*
X21365299Y-37398524D01*
%TO.N,G1*%
X21238800Y-39177296D02*
X20654099Y-39177296D01*
X21765299Y-37564210D02*
X21354099Y-37975410D01*
X21898498Y-37310897D02*
X21765299Y-37444096D01*
X21354099Y-37975410D02*
X21354099Y-39061997D01*
X23105199Y-37310897D02*
X21898498Y-37310897D01*
X21765299Y-37444096D02*
X21765299Y-37564210D01*
X21354099Y-39061997D02*
X21238800Y-39177296D01*
%TO.N,G0*%
X21039840Y-39977296D02*
X21111699Y-39977296D01*
D26*
X20654099Y-39977296D02*
X21039840Y-39977296D01*
D28*
X21111699Y-39977296D02*
X21754099Y-39334896D01*
X22084299Y-37810896D02*
X23105199Y-37810896D01*
X21754099Y-38141096D02*
X22084299Y-37810896D01*
X21754099Y-39334896D02*
X21754099Y-38141096D01*
D26*
%TO.N,Net-(RN10-R2.1)*%
X18850699Y-27798296D02*
X18850699Y-26998296D01*
X17496299Y-27798296D02*
X17490099Y-27792096D01*
X17490099Y-28592096D02*
X17490099Y-27792096D01*
X18850699Y-27798296D02*
X17496299Y-27798296D01*
%TO.N,Net-(RN10-R1.2)*%
X18861181Y-28608778D02*
X18850699Y-28598296D01*
X15690099Y-28592096D02*
X16507499Y-28592096D01*
X16513899Y-28585696D02*
X16490599Y-28585696D01*
X15690099Y-29392096D02*
X15690099Y-28592096D01*
X16507499Y-28592096D02*
X16513899Y-28585696D01*
X19651199Y-28608778D02*
X18861181Y-28608778D01*
%TO.N,Net-(RN10-R1.1)*%
X18850699Y-29398296D02*
X17496299Y-29398296D01*
X17496299Y-29398296D02*
X17490099Y-29392096D01*
X17490099Y-29392096D02*
X17490099Y-30725896D01*
X17490099Y-30725896D02*
X17464699Y-30751296D01*
%TO.N,B6*%
X31822984Y-45545497D02*
X32896899Y-45545497D01*
X29534997Y-45944998D02*
X31423483Y-45944998D01*
X31423483Y-45944998D02*
X31822984Y-45545497D01*
X29442499Y-46037496D02*
X29534997Y-45944998D01*
%TO.N,B5*%
X29752119Y-45237496D02*
X29442499Y-45237496D01*
X31237087Y-45494998D02*
X30009621Y-45494998D01*
X31686589Y-45045496D02*
X31237087Y-45494998D01*
X30009621Y-45494998D02*
X29752119Y-45237496D01*
X32896899Y-45045496D02*
X31686589Y-45045496D01*
%TO.N,B4*%
X29752119Y-44437496D02*
X29442499Y-44437496D01*
X30144117Y-44045498D02*
X29752119Y-44437496D01*
X32896899Y-44045498D02*
X30144117Y-44045498D01*
%TO.N,B3*%
X29442499Y-43637496D02*
X29534499Y-43545496D01*
X29534499Y-43545496D02*
X32896899Y-43545496D01*
%TO.N,Net-(RN11-R3.2)*%
X19654599Y-39186044D02*
X19645851Y-39177296D01*
X15701099Y-39177496D02*
X16495186Y-39177496D01*
X19645851Y-39177296D02*
X18854099Y-39177296D01*
X15701099Y-39177496D02*
X15701099Y-38377496D01*
X16495186Y-39177496D02*
X16501599Y-39171083D01*
%TO.N,Net-(RN11-R2.1)*%
X18854099Y-40777296D02*
X18854099Y-39977296D01*
X17501099Y-39977496D02*
X17501099Y-39177496D01*
X17501099Y-39977496D02*
X18853899Y-39977496D01*
X18853899Y-39977496D02*
X18854099Y-39977296D01*
%TO.N,B2*%
X29698699Y-42545496D02*
X29431499Y-42278296D01*
X32896899Y-42545496D02*
X29698699Y-42545496D01*
%TO.N,B1*%
X30398700Y-42045497D02*
X32896899Y-42045497D01*
X29431499Y-41478296D02*
X29831499Y-41478296D01*
X29831499Y-41478296D02*
X30398700Y-42045497D01*
%TO.N,B0*%
X32896899Y-41045496D02*
X30058319Y-41045496D01*
X29691119Y-40678296D02*
X29431499Y-40678296D01*
X30058319Y-41045496D02*
X29691119Y-40678296D01*
%TO.N,Net-(RN12-R2.1)*%
X17504499Y-35405696D02*
X17504499Y-36205696D01*
X17504499Y-36205696D02*
X18854099Y-36205696D01*
%TO.N,Net-(RN12-R1.2)*%
X16492949Y-37005696D02*
X16504999Y-36993646D01*
X15704499Y-37005696D02*
X15704499Y-36205696D01*
X18854099Y-37005696D02*
X19654599Y-37005696D01*
X15704499Y-37005696D02*
X16492949Y-37005696D01*
%TO.N,Net-(RN11-R4.1)*%
X17501099Y-38377496D02*
X17501099Y-37009096D01*
X17501099Y-37009096D02*
X17504499Y-37005696D01*
X17501099Y-38377496D02*
X18853899Y-38377496D01*
X18853899Y-38377496D02*
X18854099Y-38377296D01*
%TO.N,LATCHING_R*%
X47764499Y-28414296D02*
X47764499Y-27038099D01*
X41325800Y-25882600D02*
X40390906Y-26817494D01*
X47764499Y-27038099D02*
X46609000Y-25882600D01*
X46609000Y-25882600D02*
X41325800Y-25882600D01*
%TO.N,LATCHING_G*%
X44678600Y-26847800D02*
X44729400Y-26797000D01*
X44729400Y-26847800D02*
X44678600Y-26847800D01*
X44917638Y-26608762D02*
X44729400Y-26797000D01*
X40589200Y-38296998D02*
X38906598Y-38296998D01*
X44729400Y-26797000D02*
X44729400Y-26847800D01*
X47114499Y-27556499D02*
X46166762Y-26608762D01*
X47114499Y-28414296D02*
X47114499Y-27556499D01*
X46166762Y-26608762D02*
X44917638Y-26608762D01*
X38906598Y-38296998D02*
X38785800Y-38176200D01*
%TO.N,LATCHING_B*%
X40208200Y-39395400D02*
X40157400Y-39547800D01*
X32549983Y-39395400D02*
X40208200Y-39395400D01*
X28510305Y-26810895D02*
X30445799Y-26810895D01*
X46664099Y-30653501D02*
X46710600Y-30607000D01*
X28811295Y-38310895D02*
X28072850Y-37572450D01*
X30445799Y-38310895D02*
X28811295Y-38310895D01*
X46464499Y-29151796D02*
X46464499Y-28414296D01*
X40237499Y-39816994D02*
X40237499Y-40045496D01*
X28072850Y-27248350D02*
X28510305Y-26810895D01*
X39912499Y-39491994D02*
X40237499Y-39816994D01*
X46710600Y-29397897D02*
X46464499Y-29151796D01*
X30445799Y-38310895D02*
X31465478Y-38310895D01*
X46710600Y-30607000D02*
X46710600Y-29397897D01*
X28072850Y-37572450D02*
X28072850Y-27248350D01*
X39912499Y-39491994D02*
X40111606Y-39491994D01*
X31465478Y-38310895D02*
X32549983Y-39395400D01*
%TO.N,{slash}CLK*%
X45814499Y-35465501D02*
X45694600Y-35585400D01*
X41778611Y-39820696D02*
X42421899Y-39820696D01*
X45814499Y-34139296D02*
X45814499Y-35465501D01*
X41732200Y-39774285D02*
X41778611Y-39820696D01*
%TO.N,Net-(D1-A)*%
X23875800Y-24866600D02*
X22479000Y-24866600D01*
%TO.N,CLK*%
X44321899Y-39820696D02*
X44672899Y-39469696D01*
X44672899Y-39469696D02*
X45976899Y-39469696D01*
X45976899Y-39469696D02*
X46003299Y-39496096D01*
%TO.N,LATCHING_SYNC*%
X48414499Y-26871101D02*
X48488600Y-26797000D01*
X41436296Y-51545496D02*
X41630600Y-51739800D01*
X40237499Y-51545496D02*
X41436296Y-51545496D01*
X48414499Y-28414296D02*
X48414499Y-26871101D01*
%TO.N,SDAC_D0*%
X35462299Y-41349296D02*
X35259099Y-41552496D01*
X40250199Y-27817494D02*
X35774138Y-27817494D01*
X42436890Y-49845498D02*
X44230638Y-49845498D01*
X36154849Y-51053694D02*
X40250199Y-51053694D01*
X35147850Y-28422864D02*
X35147850Y-34676061D01*
X40237499Y-51045497D02*
X41311414Y-51045497D01*
X39535781Y-37817495D02*
X40250199Y-37817495D01*
X44230638Y-49845498D02*
X44580040Y-49496096D01*
X35774138Y-27817494D02*
X35763679Y-27807035D01*
X35147850Y-34676061D02*
X37689284Y-37217495D01*
X41850699Y-50506212D02*
X41850699Y-50431689D01*
X41850699Y-50431689D02*
X42436890Y-49845498D01*
X35259099Y-50157944D02*
X36154849Y-51053694D01*
X35259099Y-41552496D02*
X35259099Y-50157944D01*
X35468076Y-28102638D02*
X35147850Y-28422864D01*
X41311414Y-51045497D02*
X41850699Y-50506212D01*
X35468076Y-28102638D02*
X35763679Y-27807035D01*
X38935781Y-37217495D02*
X39535781Y-37817495D01*
X44580040Y-49496096D02*
X46003299Y-49496096D01*
X37689284Y-37217495D02*
X38935781Y-37217495D01*
X35462299Y-41349296D02*
X35757902Y-41053693D01*
X35757902Y-41053693D02*
X40250199Y-41053693D01*
%TO.N,SDAC_D1*%
X35597850Y-29386366D02*
X35597850Y-34489665D01*
X36177211Y-28807005D02*
X36187701Y-28817495D01*
X36796703Y-42053694D02*
X40250199Y-42053694D01*
X39672178Y-37317496D02*
X40250199Y-37317496D01*
X36171434Y-42053663D02*
X36796672Y-42053663D01*
X37875680Y-36767495D02*
X39155095Y-36767495D01*
X42250494Y-49395498D02*
X41400699Y-50245293D01*
X41175017Y-50545498D02*
X40237499Y-50545498D01*
X35709099Y-49971548D02*
X36291246Y-50553695D01*
X39426000Y-37071318D02*
X39672178Y-37317496D01*
X36291246Y-50553695D02*
X40250199Y-50553695D01*
X36171434Y-42053663D02*
X35709099Y-42515998D01*
X36796672Y-42053663D02*
X36796703Y-42053694D01*
X44943644Y-48496096D02*
X44044242Y-49395498D01*
X44044242Y-49395498D02*
X42250494Y-49395498D01*
X39155095Y-36767495D02*
X39426000Y-37038400D01*
X36187701Y-28817495D02*
X40250199Y-28817495D01*
X46003299Y-48496096D02*
X44943644Y-48496096D01*
X41400699Y-50319816D02*
X41175017Y-50545498D01*
X41400699Y-50245293D02*
X41400699Y-50319816D01*
X36177211Y-28807005D02*
X35597850Y-29386366D01*
X39426000Y-37038400D02*
X39426000Y-37071318D01*
X35597850Y-34489665D02*
X37875680Y-36767495D01*
X35709099Y-42515998D02*
X35709099Y-49971548D01*
%TO.N,SDAC_D2*%
X36113050Y-34368469D02*
X38062076Y-36317495D01*
X36159099Y-48194292D02*
X37518501Y-49553694D01*
X46003299Y-47496096D02*
X45967300Y-47532095D01*
X42064098Y-48945498D02*
X41464099Y-49545497D01*
X36677681Y-42915475D02*
X36159099Y-43434057D01*
X37109641Y-29286200D02*
X40218905Y-29286200D01*
X36159099Y-43434057D02*
X36159099Y-48194292D01*
X36439102Y-29956739D02*
X36113050Y-30282791D01*
X45967300Y-47532095D02*
X45271249Y-47532095D01*
X37518501Y-49553694D02*
X40250199Y-49553694D01*
X45271249Y-47532095D02*
X43857846Y-48945498D01*
X38062076Y-36317495D02*
X40250199Y-36317495D01*
X40218905Y-29286200D02*
X40250199Y-29317494D01*
X36677681Y-42915475D02*
X37039463Y-42553693D01*
X43857846Y-48945498D02*
X42064098Y-48945498D01*
X36113050Y-30282791D02*
X36113050Y-34368469D01*
X36439102Y-29956739D02*
X37109641Y-29286200D01*
X37039463Y-42553693D02*
X40250199Y-42553693D01*
X41464099Y-49545497D02*
X40237499Y-49545497D01*
%TO.N,SDAC_D3*%
X41327704Y-49045496D02*
X40237499Y-49045496D01*
X37654896Y-49053693D02*
X40250199Y-49053693D01*
X44736103Y-46876464D02*
X44736103Y-47430845D01*
X37411291Y-30317494D02*
X36614876Y-31113909D01*
X36883599Y-43941196D02*
X37271102Y-43553693D01*
X37420732Y-30317494D02*
X37411291Y-30317494D01*
X45116471Y-46496096D02*
X44736103Y-46876464D01*
X36609099Y-44267443D02*
X36609099Y-48007896D01*
X36609099Y-48007896D02*
X37654896Y-49053693D01*
X37271102Y-43553693D02*
X40250199Y-43553693D01*
X36614876Y-34233899D02*
X38198471Y-35817494D01*
X37420732Y-30317494D02*
X40250199Y-30317494D01*
X36883599Y-43992943D02*
X36883599Y-43941196D01*
X36614876Y-31113909D02*
X36614876Y-34233899D01*
X43671450Y-48495498D02*
X41877702Y-48495498D01*
X38198471Y-35817494D02*
X40250199Y-35817494D01*
X46003299Y-46496096D02*
X45116471Y-46496096D01*
X41877702Y-48495498D02*
X41327704Y-49045496D01*
X36883599Y-43992943D02*
X36609099Y-44267443D01*
X44736103Y-47430845D02*
X43671450Y-48495498D01*
%TO.N,SDAC_D4*%
X37064376Y-34047003D02*
X37834869Y-34817496D01*
X37059099Y-46395344D02*
X38717450Y-48053695D01*
X37059099Y-45262701D02*
X37059099Y-46395344D01*
X38717450Y-48053695D02*
X40250199Y-48053695D01*
X46003299Y-45496096D02*
X45480075Y-45496096D01*
X38072182Y-30817496D02*
X40250199Y-30817496D01*
X37064376Y-31825302D02*
X37064376Y-34047003D01*
X37586528Y-31303150D02*
X38072182Y-30817496D01*
X37586528Y-31303150D02*
X37064376Y-31825302D01*
X44286103Y-46690068D02*
X44286103Y-47244449D01*
X37834869Y-34817496D02*
X40250199Y-34817496D01*
X43485054Y-48045498D02*
X40237499Y-48045498D01*
X44286103Y-47244449D02*
X43485054Y-48045498D01*
X38244300Y-44053695D02*
X40250199Y-44053695D01*
X45480075Y-45496096D02*
X44286103Y-46690068D01*
X37333599Y-44988201D02*
X37333599Y-44964396D01*
X37333599Y-44964396D02*
X38244300Y-44053695D01*
X37333599Y-44988201D02*
X37059099Y-45262701D01*
%TO.N,SDAC_D5*%
X38064376Y-32041848D02*
X38064376Y-32034138D01*
X38853844Y-47553693D02*
X40250199Y-47553693D01*
X37789376Y-32316848D02*
X38064376Y-32041848D01*
X38291479Y-31807035D02*
X38301938Y-31817494D01*
X38064376Y-32034138D02*
X38291479Y-31807035D01*
X43836103Y-46503672D02*
X43836103Y-47058053D01*
X43836103Y-47058053D02*
X43348660Y-47545496D01*
X38058599Y-45280796D02*
X38285702Y-45053693D01*
X37514376Y-32591848D02*
X37514376Y-33860607D01*
X38058599Y-45288506D02*
X38058599Y-45280796D01*
X37514376Y-33860607D02*
X37971263Y-34317494D01*
X37783599Y-45901183D02*
X37783599Y-45563506D01*
X37971263Y-34317494D02*
X40250199Y-34317494D01*
X38285702Y-45053693D02*
X40250199Y-45053693D01*
X45843679Y-44496096D02*
X43836103Y-46503672D01*
X37789376Y-32316848D02*
X37514376Y-32591848D01*
X37783599Y-45563506D02*
X38058599Y-45288506D01*
X37783599Y-45901183D02*
X37783599Y-46483448D01*
X37783599Y-46483448D02*
X38853844Y-47553693D01*
X46003299Y-44496096D02*
X45843679Y-44496096D01*
X38301938Y-31817494D02*
X40250199Y-31817494D01*
X43348660Y-47545496D02*
X40237499Y-47545496D01*
%TO.N,SDAC_D6*%
X38926706Y-45553694D02*
X40250199Y-45553694D01*
X38713248Y-33317493D02*
X40250199Y-33317493D01*
X38798378Y-46473628D02*
X38904428Y-46473628D01*
X40237499Y-45545497D02*
X41465148Y-45545497D01*
X41465148Y-45545497D02*
X41930699Y-45079946D01*
X38798378Y-45682022D02*
X38926706Y-45553694D01*
X38798378Y-46473628D02*
X38798378Y-45682022D01*
X38489359Y-32633586D02*
X38805450Y-32317495D01*
X41930699Y-45079946D02*
X41930699Y-44986521D01*
X38904428Y-46473628D02*
X38984492Y-46553692D01*
X45843679Y-43496096D02*
X46003299Y-43496096D01*
X38805450Y-32317495D02*
X40250199Y-32317495D01*
X42382325Y-44534895D02*
X44804880Y-44534895D01*
X38489359Y-33093604D02*
X38713248Y-33317493D01*
X44804880Y-44534895D02*
X45843679Y-43496096D01*
X38489359Y-33093604D02*
X38489359Y-32633586D01*
X38984492Y-46553692D02*
X40250199Y-46553692D01*
X41930699Y-44986521D02*
X42382325Y-44534895D01*
%TO.N,{slash}CSYNC*%
X17088450Y-52612095D02*
X15771098Y-52612095D01*
X31488518Y-51045497D02*
X34216252Y-51045497D01*
X34216252Y-51045497D02*
X34233450Y-51062695D01*
X31369720Y-51164295D02*
X31488518Y-51045497D01*
X31018498Y-51164295D02*
X31369720Y-51164295D01*
%TO.N,GND*%
X21769100Y-40631696D02*
X21914450Y-40648695D01*
X30445799Y-27310896D02*
X28953049Y-27310896D01*
X24556050Y-32825495D02*
X24556050Y-31453895D01*
X36950051Y-50045496D02*
X36595650Y-49691095D01*
X40237499Y-41545498D02*
X41175017Y-41545498D01*
X30601250Y-40191495D02*
X30955252Y-40545497D01*
X24581450Y-31428495D02*
X24632250Y-31479295D01*
X30728250Y-23876095D02*
X30651955Y-23799800D01*
X41897995Y-31317495D02*
X40250199Y-31317495D01*
X42101900Y-32223186D02*
X41686086Y-32639000D01*
X30651955Y-23799800D02*
X29489446Y-23799800D01*
X40237499Y-46045497D02*
X41941652Y-46045497D01*
X30768850Y-26160495D02*
X30779050Y-26170695D01*
X24451651Y-27310896D02*
X24657650Y-27516895D01*
X20711898Y-27059695D02*
X20650699Y-26998496D01*
X31668050Y-26170695D02*
X31820450Y-26323095D01*
D28*
X31935448Y-46045497D02*
X32896899Y-46045497D01*
D26*
X30955252Y-40545497D02*
X32896899Y-40545497D01*
X33834420Y-40545497D02*
X34081050Y-40792127D01*
X24632250Y-31479295D02*
X24632250Y-31326895D01*
D28*
X31510913Y-46470032D02*
X31935448Y-46045497D01*
D26*
X39433788Y-38945400D02*
X34802855Y-38945400D01*
X29229650Y-24926095D02*
X29204250Y-24900695D01*
X21914450Y-40648695D02*
X21803098Y-40631696D01*
X32909599Y-27317495D02*
X30452398Y-27317495D01*
X31510913Y-46597032D02*
X31510913Y-46470032D01*
X30779050Y-26170695D02*
X31668050Y-26170695D01*
X41187717Y-33817495D02*
X40250199Y-33817495D01*
X45677611Y-27333262D02*
X45814499Y-27470150D01*
X41314935Y-41405580D02*
X41400699Y-41319816D01*
D27*
X43764200Y-34569400D02*
X43496900Y-34302100D01*
D26*
X32909599Y-28317496D02*
X28835449Y-28317496D01*
X41686086Y-32639000D02*
X41783000Y-32735914D01*
X24378250Y-33892295D02*
X24459649Y-33810896D01*
X34379895Y-36767495D02*
X28945250Y-36767495D01*
X34802855Y-38945400D02*
X34423350Y-38565895D01*
X41686086Y-32639000D02*
X41507591Y-32817495D01*
X41324048Y-47045497D02*
X40237499Y-47045497D01*
X32909599Y-26817496D02*
X32314851Y-26817496D01*
X41783000Y-32735914D02*
X41783000Y-33756600D01*
D27*
X43496900Y-33705800D02*
X43103800Y-34098900D01*
D26*
X46516095Y-31530095D02*
X47339850Y-31530095D01*
D27*
X43103800Y-34490197D02*
X43833299Y-35219696D01*
D26*
X34453355Y-23799800D02*
X30804545Y-23799800D01*
X32896899Y-40545497D02*
X33834420Y-40545497D01*
X21803098Y-40631696D02*
X21786099Y-40631696D01*
D27*
X43496900Y-34302100D02*
X43496900Y-33705800D01*
D26*
X45806195Y-29550195D02*
X45806195Y-28422600D01*
X28797850Y-27466095D02*
X28797850Y-28355095D01*
X45814499Y-28414296D02*
X45814499Y-30107994D01*
X40250199Y-36817494D02*
X41630600Y-36817494D01*
X42132850Y-45754095D02*
X42412250Y-45474695D01*
X24556050Y-33714495D02*
X24657650Y-33612895D01*
X34081050Y-41298865D02*
X33834417Y-41545498D01*
X41630600Y-36817494D02*
X42608799Y-37795693D01*
X24657650Y-33612895D02*
X24657650Y-33892295D01*
X42101900Y-31521400D02*
X42101900Y-32223186D01*
X28736850Y-26160495D02*
X28543850Y-25967495D01*
X41400699Y-41319816D02*
X41400699Y-40771176D01*
X24657650Y-27923295D02*
X24657650Y-28075695D01*
X31725026Y-47045497D02*
X31510913Y-46831384D01*
X32909599Y-26817496D02*
X32909599Y-27317495D01*
X32896899Y-47045497D02*
X31725026Y-47045497D01*
X38272050Y-26881895D02*
X38707650Y-27317495D01*
X28945250Y-36767495D02*
X28899450Y-36813295D01*
X41583494Y-39049785D02*
X41300703Y-38766994D01*
X41677778Y-41768423D02*
X41314935Y-41405580D01*
X42608799Y-37795693D02*
X42608799Y-38625090D01*
X30804545Y-23799800D02*
X30728250Y-23876095D01*
X42608799Y-38625090D02*
X42184104Y-39049785D01*
X34081050Y-40792127D02*
X34081050Y-41298865D01*
X32744701Y-51697696D02*
X30271051Y-51697696D01*
X24556050Y-32825495D02*
X24556050Y-33714495D01*
X34423350Y-38565895D02*
X34569400Y-38419845D01*
X28874050Y-33008309D02*
X28874050Y-33841495D01*
X45847000Y-29591000D02*
X45806195Y-29550195D01*
X42291000Y-27863800D02*
X42291000Y-28270200D01*
X45911600Y-30205095D02*
X45911600Y-30925600D01*
X42101900Y-31521400D02*
X41897995Y-31317495D01*
X24541451Y-32810896D02*
X24556050Y-32825495D01*
X30288051Y-39878296D02*
X30601250Y-40191495D01*
X28908850Y-31317495D02*
X28874050Y-31352295D01*
X46028898Y-40521695D02*
X46003299Y-40496096D01*
X30093250Y-51519895D02*
X30093250Y-51121525D01*
X41941652Y-46045497D02*
X42132850Y-46236695D01*
X21609650Y-27059695D02*
X20711898Y-27059695D01*
X32909599Y-31317495D02*
X28908850Y-31317495D01*
X24579050Y-36810895D02*
X24581450Y-36813295D01*
X23105199Y-27310896D02*
X24451651Y-27310896D01*
X31026699Y-50522696D02*
X31026699Y-49872696D01*
X42243704Y-28317496D02*
X40250199Y-28317496D01*
X42132850Y-46236695D02*
X42132850Y-45754095D01*
X24459649Y-33810896D02*
X23105199Y-33810896D01*
X20841499Y-26807696D02*
X20650699Y-26998496D01*
X29064864Y-32817495D02*
X28874050Y-33008309D01*
X30768850Y-23916695D02*
X30728250Y-23876095D01*
X30692079Y-50522696D02*
X31026699Y-50522696D01*
X40589200Y-33796999D02*
X41742601Y-33796999D01*
X32896899Y-51545498D02*
X32744701Y-51697696D01*
X30452398Y-27317495D02*
X30445799Y-27310896D01*
X32314851Y-26817496D02*
X31820450Y-26323095D01*
X34423350Y-38565895D02*
X34174951Y-38317496D01*
X32896899Y-44545497D02*
X30876551Y-44545497D01*
X40237499Y-50045496D02*
X36950051Y-50045496D01*
X34665250Y-24011695D02*
X34453355Y-23799800D01*
X24556050Y-31453895D02*
X24581450Y-31428495D01*
X32909599Y-32817495D02*
X29064864Y-32817495D01*
X42132850Y-46236695D02*
X41324048Y-47045497D01*
X28953049Y-27310896D02*
X28797850Y-27466095D01*
X41175020Y-40545497D02*
X40237499Y-40545497D01*
X24657650Y-27516895D02*
X24657650Y-27923295D01*
X24479850Y-31326895D02*
X24463851Y-31310896D01*
X41853450Y-44179295D02*
X41487248Y-44545497D01*
X29489446Y-23799800D02*
X29204250Y-24084996D01*
X45977899Y-40470696D02*
X46003299Y-40496096D01*
X29565049Y-46612496D02*
X31495449Y-46612496D01*
X44321899Y-40470696D02*
X45977899Y-40470696D01*
X41507591Y-32817495D02*
X40250199Y-32817495D01*
X39612194Y-38766994D02*
X39433788Y-38945400D01*
X30876551Y-44545497D02*
X30652050Y-44769998D01*
X34569400Y-38419845D02*
X34569400Y-36957000D01*
X28898050Y-33817495D02*
X28874050Y-33841495D01*
X45806195Y-28422600D02*
X45814499Y-28414296D01*
X23105199Y-36810895D02*
X24579050Y-36810895D01*
X20799699Y-40631696D02*
X21769100Y-40631696D01*
X30768850Y-24926095D02*
X30768850Y-26160495D01*
X41742601Y-33796999D02*
X41783000Y-33756600D01*
X42291000Y-28270200D02*
X42243704Y-28317496D01*
X24422448Y-28310897D02*
X23105199Y-28310897D01*
X31026699Y-49872696D02*
X31199499Y-50045496D01*
X20654099Y-40777296D02*
X20799699Y-40631696D01*
X34174951Y-38317496D02*
X32909599Y-38317496D01*
X30768850Y-24926095D02*
X30768850Y-23916695D01*
X41300703Y-38766994D02*
X39612194Y-38766994D01*
X21860851Y-27310896D02*
X21609650Y-27059695D01*
X41400699Y-40771176D02*
X41175020Y-40545497D01*
X45814499Y-27470150D02*
X45814499Y-28414296D01*
X42184104Y-39049785D02*
X41583494Y-39049785D01*
X41677778Y-41806449D02*
X41677778Y-41768423D01*
X28835449Y-28317496D02*
X28797850Y-28355095D01*
D27*
X43103800Y-34098900D02*
X43103800Y-34490197D01*
D26*
X38707650Y-27317495D02*
X41744695Y-27317495D01*
X33834417Y-41545498D02*
X32896899Y-41545498D01*
X41853450Y-43924106D02*
X41853450Y-44179295D01*
X31510913Y-46831384D02*
X31510913Y-46597032D01*
X24657650Y-33892295D02*
X24378250Y-33892295D01*
X30768850Y-26160495D02*
X28736850Y-26160495D01*
X47136650Y-40521695D02*
X46028898Y-40521695D01*
X32909599Y-33817495D02*
X28898050Y-33817495D01*
X29255050Y-46922495D02*
X29565049Y-46612496D01*
X30768850Y-24926095D02*
X29229650Y-24926095D01*
X29204250Y-24900695D02*
X29204250Y-24084996D01*
X34569400Y-36957000D02*
X34379895Y-36767495D01*
X31495449Y-46612496D02*
X31510913Y-46597032D01*
X23105199Y-32810896D02*
X24541451Y-32810896D01*
X30093250Y-51121525D02*
X30692079Y-50522696D01*
X45911600Y-30925600D02*
X46516095Y-31530095D01*
X24657650Y-28075695D02*
X24422448Y-28310897D01*
X42412250Y-45474695D02*
X43174250Y-45474695D01*
X31199499Y-50045496D02*
X32896899Y-50045496D01*
X34665250Y-24011695D02*
X39645095Y-24011695D01*
X41487248Y-44545497D02*
X40237499Y-44545497D01*
X30271051Y-51697696D02*
X30093250Y-51519895D01*
X29431499Y-39878296D02*
X30288051Y-39878296D01*
X24463851Y-31310896D02*
X23105199Y-31310896D01*
X41175017Y-41545498D02*
X41314935Y-41405580D01*
X45814499Y-30107994D02*
X45911600Y-30205095D01*
X41744695Y-27317495D02*
X42291000Y-27863800D01*
X24632250Y-31326895D02*
X24479850Y-31326895D01*
X23105199Y-27310896D02*
X21860851Y-27310896D01*
%TO.N,Net-(RN12-R3.2)*%
X19704409Y-35421006D02*
X19654599Y-35421006D01*
X15704499Y-35405696D02*
X16477858Y-35405696D01*
X15704499Y-34605696D02*
X15704499Y-35405696D01*
X19689099Y-35405696D02*
X19704409Y-35421006D01*
X16477858Y-35405696D02*
X16504999Y-35378555D01*
X18854099Y-35405696D02*
X19689099Y-35405696D01*
%TO.N,{slash}ACTIVE_DISPLAY*%
X26829904Y-38310897D02*
X26314499Y-37795492D01*
X34995450Y-52231095D02*
X34995450Y-50530691D01*
X26314499Y-26999096D02*
X26126300Y-26810897D01*
X28483604Y-38802896D02*
X27991605Y-38310897D01*
X34893850Y-52332695D02*
X34995450Y-52231095D01*
X24895899Y-38310897D02*
X26829904Y-38310897D01*
X34737299Y-40288944D02*
X34493853Y-40045498D01*
X31572853Y-40045498D02*
X30330251Y-38802896D01*
X26314499Y-37795492D02*
X26314499Y-26999096D01*
X34737299Y-50272540D02*
X34737299Y-40288944D01*
X26126300Y-26810897D02*
X23105199Y-26810897D01*
X34493853Y-40045498D02*
X32896899Y-40045498D01*
X34995450Y-50530691D02*
X34737299Y-50272540D01*
X27991605Y-38310897D02*
X24895899Y-38310897D01*
X32896899Y-40045498D02*
X31572853Y-40045498D01*
X29116499Y-51863944D02*
X29585250Y-52332695D01*
X29585250Y-52332695D02*
X34893850Y-52332695D01*
X30330251Y-38802896D02*
X28483604Y-38802896D01*
X29116499Y-51162296D02*
X29116499Y-51863944D01*
X24895899Y-38310897D02*
X23105199Y-38310897D01*
%TO.N,Net-(U5-2D8)*%
X32903000Y-37810896D02*
X32909599Y-37817495D01*
X30445799Y-37810896D02*
X32903000Y-37810896D01*
%TO.N,Net-(U5-2D7)*%
X32909599Y-37317496D02*
X30452398Y-37317496D01*
%TO.N,Net-(U5-2D6)*%
X30445799Y-36310896D02*
X32903000Y-36310896D01*
X32903000Y-36310896D02*
X32909599Y-36317495D01*
%TO.N,Net-(U5-2D5)*%
X32909599Y-35817496D02*
X30452400Y-35817496D01*
%TO.N,Net-(U5-2D4)*%
X30445799Y-34810897D02*
X32903000Y-34810897D01*
X32903000Y-34810897D02*
X32909599Y-34817496D01*
%TO.N,Net-(U5-2D3)*%
X30445799Y-34310895D02*
X32903000Y-34310895D01*
X32903000Y-34310895D02*
X32909599Y-34317494D01*
%TO.N,Net-(U5-2D2)*%
X32909599Y-33317496D02*
X30452401Y-33317496D01*
%TO.N,Net-(U5-1D8)*%
X32903000Y-32310896D02*
X32909599Y-32317495D01*
X30445799Y-32310896D02*
X32903000Y-32310896D01*
%TO.N,Net-(U5-1D7)*%
X32909599Y-31817494D02*
X30452398Y-31817494D01*
%TO.N,Net-(U5-1D6)*%
X32903000Y-30810897D02*
X32909599Y-30817496D01*
X30445799Y-30810897D02*
X32903000Y-30810897D01*
%TO.N,Net-(U5-1D5)*%
X30445799Y-30310895D02*
X32903000Y-30310895D01*
X32903000Y-30310895D02*
X32909599Y-30317494D01*
D28*
%TO.N,Net-(U5-1D4)*%
X32909599Y-29317494D02*
X30452398Y-29317494D01*
D26*
%TO.N,Net-(U5-1D3)*%
X30445799Y-28810896D02*
X32903000Y-28810896D01*
X32903000Y-28810896D02*
X32909599Y-28817495D01*
%TO.N,Net-(U5-1D2)*%
X32909599Y-27817494D02*
X30452398Y-27817494D01*
%TD*%
%TA.AperFunction,Conductor*%
%TO.N,GND*%
G36*
X52186284Y-35139837D02*
G01*
X52242217Y-35181709D01*
X52266634Y-35247173D01*
X52266950Y-35256019D01*
X52266950Y-54647095D01*
X52247265Y-54714134D01*
X52194461Y-54759889D01*
X52142950Y-54771095D01*
X49870642Y-54771095D01*
X49803603Y-54751410D01*
X49757848Y-54698606D01*
X49747904Y-54629448D01*
X49771376Y-54572784D01*
X49797092Y-54538431D01*
X49797091Y-54538431D01*
X49797095Y-54538427D01*
X49847390Y-54403579D01*
X49853799Y-54343969D01*
X49853798Y-52248224D01*
X49847390Y-52188613D01*
X49846564Y-52186399D01*
X49797096Y-52053767D01*
X49797092Y-52053760D01*
X49710846Y-51938551D01*
X49710843Y-51938548D01*
X49595634Y-51852302D01*
X49595627Y-51852298D01*
X49460781Y-51802004D01*
X49460782Y-51802004D01*
X49401182Y-51795597D01*
X49401180Y-51795596D01*
X49401172Y-51795596D01*
X49401163Y-51795596D01*
X48005428Y-51795596D01*
X48005422Y-51795597D01*
X47945815Y-51802004D01*
X47810970Y-51852298D01*
X47810963Y-51852302D01*
X47695754Y-51938548D01*
X47695751Y-51938551D01*
X47609505Y-52053760D01*
X47609501Y-52053767D01*
X47559207Y-52188613D01*
X47552800Y-52248212D01*
X47552800Y-52248219D01*
X47552799Y-52248231D01*
X47552799Y-54343966D01*
X47552800Y-54343972D01*
X47559207Y-54403579D01*
X47609501Y-54538424D01*
X47609505Y-54538431D01*
X47635222Y-54572784D01*
X47659640Y-54638248D01*
X47644789Y-54706521D01*
X47595384Y-54755927D01*
X47535956Y-54771095D01*
X29677164Y-54771095D01*
X29610125Y-54751410D01*
X29589483Y-54734776D01*
X28041274Y-53186567D01*
X26452986Y-51598278D01*
X26441783Y-51587018D01*
X26441783Y-51587017D01*
X26441781Y-51587016D01*
X26441780Y-51587015D01*
X26441684Y-51586975D01*
X26441402Y-51586857D01*
X26416734Y-51586861D01*
X26416545Y-51586900D01*
X20294501Y-51586900D01*
X20294319Y-51586975D01*
X20294217Y-51587017D01*
X20276801Y-51604424D01*
X20276668Y-51604623D01*
X17146516Y-54734776D01*
X17085193Y-54768261D01*
X17058835Y-54771095D01*
X14241150Y-54771095D01*
X14174111Y-54751410D01*
X14128356Y-54698606D01*
X14117150Y-54647095D01*
X14117150Y-53752434D01*
X14136835Y-53685395D01*
X14189639Y-53639640D01*
X14258797Y-53629696D01*
X14269671Y-53631759D01*
X14274012Y-53632784D01*
X14274016Y-53632786D01*
X14333626Y-53639195D01*
X16779371Y-53639194D01*
X16838982Y-53632786D01*
X16973830Y-53582491D01*
X17034160Y-53537328D01*
X17099624Y-53512911D01*
X17108471Y-53512595D01*
X17183094Y-53512595D01*
X17183096Y-53512595D01*
X17368253Y-53473239D01*
X17541180Y-53396246D01*
X17694321Y-53284983D01*
X17820983Y-53144311D01*
X17915629Y-52980379D01*
X17974124Y-52800351D01*
X17993910Y-52612095D01*
X17974124Y-52423839D01*
X17915629Y-52243811D01*
X17820983Y-52079879D01*
X17694321Y-51939207D01*
X17679218Y-51928234D01*
X17590136Y-51863512D01*
X17547470Y-51808182D01*
X17541491Y-51738569D01*
X17574097Y-51676774D01*
X17634935Y-51642417D01*
X17663015Y-51639194D01*
X19129371Y-51639194D01*
X19188982Y-51632786D01*
X19323830Y-51582491D01*
X19439045Y-51496241D01*
X19525295Y-51381026D01*
X19575590Y-51246178D01*
X19581999Y-51186568D01*
X19581999Y-50979803D01*
X19601684Y-50912764D01*
X19654488Y-50867009D01*
X19680217Y-50858513D01*
X19806653Y-50831639D01*
X19979580Y-50754646D01*
X20132721Y-50643383D01*
X20259383Y-50502711D01*
X20354029Y-50338779D01*
X20412524Y-50158751D01*
X20432310Y-49970495D01*
X20412524Y-49782239D01*
X20354029Y-49602211D01*
X20259383Y-49438279D01*
X20132721Y-49297607D01*
X20132720Y-49297606D01*
X19979584Y-49186346D01*
X19979579Y-49186343D01*
X19806657Y-49109352D01*
X19806652Y-49109350D01*
X19660851Y-49078360D01*
X19621496Y-49069995D01*
X19432204Y-49069995D01*
X19413931Y-49073879D01*
X19247047Y-49109350D01*
X19247042Y-49109352D01*
X19074120Y-49186343D01*
X19074115Y-49186346D01*
X18920979Y-49297606D01*
X18794316Y-49438280D01*
X18699671Y-49602210D01*
X18699669Y-49602214D01*
X18667080Y-49702514D01*
X18627642Y-49760189D01*
X18563283Y-49787387D01*
X18549149Y-49788195D01*
X17071600Y-49788195D01*
X17004561Y-49768510D01*
X16958806Y-49715706D01*
X16948862Y-49646548D01*
X16977887Y-49582992D01*
X16997285Y-49564932D01*
X17089045Y-49496241D01*
X17175295Y-49381026D01*
X17207957Y-49293453D01*
X17249827Y-49237520D01*
X17298356Y-49215496D01*
X17342853Y-49206039D01*
X17342857Y-49206037D01*
X17342858Y-49206037D01*
X17463077Y-49152511D01*
X17515780Y-49129046D01*
X17668921Y-49017783D01*
X17795583Y-48877111D01*
X17890229Y-48713179D01*
X17948724Y-48533151D01*
X17968510Y-48344895D01*
X17948724Y-48156639D01*
X17942569Y-48137695D01*
X27354051Y-48137695D01*
X27354051Y-48412681D01*
X27364544Y-48515392D01*
X27419691Y-48681814D01*
X27419693Y-48681819D01*
X27511734Y-48831040D01*
X27635704Y-48955010D01*
X27784925Y-49047051D01*
X27784930Y-49047053D01*
X27951352Y-49102200D01*
X27951359Y-49102201D01*
X28054069Y-49112694D01*
X28104049Y-49112693D01*
X28104050Y-49112693D01*
X28104050Y-48137695D01*
X27354051Y-48137695D01*
X17942569Y-48137695D01*
X17890229Y-47976611D01*
X17849088Y-47905353D01*
X17802809Y-47825194D01*
X17786336Y-47757293D01*
X17809189Y-47691266D01*
X17864110Y-47648076D01*
X17910196Y-47639194D01*
X19129370Y-47639194D01*
X19129371Y-47639194D01*
X19188982Y-47632786D01*
X19323830Y-47582491D01*
X19439045Y-47496241D01*
X19525295Y-47381026D01*
X19575590Y-47246178D01*
X19581999Y-47186568D01*
X19581998Y-46240823D01*
X19575590Y-46181212D01*
X19570251Y-46166898D01*
X19525296Y-46046366D01*
X19525292Y-46046359D01*
X19439046Y-45931150D01*
X19439043Y-45931147D01*
X19323834Y-45844901D01*
X19323827Y-45844897D01*
X19188981Y-45794603D01*
X19188982Y-45794603D01*
X19129382Y-45788196D01*
X19129380Y-45788195D01*
X19129372Y-45788195D01*
X19129363Y-45788195D01*
X16683629Y-45788195D01*
X16683620Y-45788196D01*
X16665790Y-45790113D01*
X16613129Y-45781838D01*
X16612440Y-45783961D01*
X16606252Y-45781950D01*
X16460451Y-45750960D01*
X16421096Y-45742595D01*
X16231804Y-45742595D01*
X16199347Y-45749493D01*
X16046647Y-45781950D01*
X16046642Y-45781952D01*
X15873720Y-45858943D01*
X15873715Y-45858946D01*
X15720579Y-45970206D01*
X15593916Y-46110880D01*
X15499271Y-46274810D01*
X15499268Y-46274817D01*
X15444074Y-46444688D01*
X15440776Y-46454839D01*
X15420990Y-46643095D01*
X15440776Y-46831351D01*
X15440777Y-46831354D01*
X15499268Y-47011372D01*
X15499271Y-47011379D01*
X15593917Y-47175311D01*
X15697776Y-47290658D01*
X15720579Y-47315983D01*
X15873715Y-47427243D01*
X15873720Y-47427246D01*
X16052584Y-47506883D01*
X16051431Y-47509470D01*
X16098862Y-47541905D01*
X16126057Y-47606265D01*
X16114140Y-47675111D01*
X16066894Y-47726585D01*
X16002865Y-47744395D01*
X15652528Y-47744395D01*
X15644429Y-47743864D01*
X15609100Y-47739213D01*
X15569739Y-47744395D01*
X15452334Y-47759851D01*
X15406695Y-47778756D01*
X15359243Y-47788195D01*
X14333628Y-47788195D01*
X14333622Y-47788196D01*
X14274017Y-47794603D01*
X14269666Y-47795632D01*
X14199897Y-47791892D01*
X14143225Y-47751025D01*
X14117643Y-47686007D01*
X14117150Y-47674955D01*
X14117150Y-44454695D01*
X14843451Y-44454695D01*
X14843451Y-44461277D01*
X14849858Y-44531797D01*
X14849859Y-44531802D01*
X14900431Y-44694091D01*
X14988377Y-44839572D01*
X15108572Y-44959767D01*
X15254054Y-45047714D01*
X15254053Y-45047714D01*
X15416344Y-45098285D01*
X15416342Y-45098285D01*
X15486868Y-45104694D01*
X16068450Y-45104694D01*
X16150031Y-45104694D01*
X16220552Y-45098286D01*
X16220557Y-45098285D01*
X16382846Y-45047713D01*
X16527217Y-44960438D01*
X16594771Y-44942602D01*
X16655517Y-44960438D01*
X16778054Y-45034514D01*
X16778053Y-45034514D01*
X16940344Y-45085085D01*
X16940342Y-45085085D01*
X17010868Y-45091494D01*
X17592450Y-45091494D01*
X17674031Y-45091494D01*
X17744552Y-45085086D01*
X17744557Y-45085085D01*
X17906846Y-45034513D01*
X18050390Y-44947738D01*
X18117944Y-44929902D01*
X18178690Y-44947738D01*
X18302054Y-45022314D01*
X18302053Y-45022314D01*
X18464344Y-45072885D01*
X18464342Y-45072885D01*
X18534868Y-45079294D01*
X18616449Y-45079293D01*
X18616450Y-45079293D01*
X18616450Y-44429295D01*
X19116450Y-44429295D01*
X19116450Y-45079294D01*
X19198031Y-45079294D01*
X19268552Y-45072886D01*
X19268557Y-45072885D01*
X19430846Y-45022313D01*
X19576327Y-44934367D01*
X19696522Y-44814172D01*
X19784469Y-44668690D01*
X19835040Y-44506401D01*
X19841450Y-44435867D01*
X19841450Y-44429295D01*
X19116450Y-44429295D01*
X18616450Y-44429295D01*
X18337398Y-44429295D01*
X18320246Y-44438661D01*
X18293888Y-44441495D01*
X17592450Y-44441495D01*
X17592450Y-45091494D01*
X17010868Y-45091494D01*
X17092449Y-45091493D01*
X17092450Y-45091493D01*
X17092450Y-44441495D01*
X16814230Y-44441495D01*
X16795246Y-44451861D01*
X16768888Y-44454695D01*
X16068450Y-44454695D01*
X16068450Y-45104694D01*
X15486868Y-45104694D01*
X15568449Y-45104693D01*
X15568450Y-45104693D01*
X15568450Y-44454695D01*
X14843451Y-44454695D01*
X14117150Y-44454695D01*
X14117150Y-43176692D01*
X14136835Y-43109653D01*
X14189639Y-43063898D01*
X14258797Y-43053954D01*
X14314036Y-43076374D01*
X14324320Y-43083846D01*
X14497242Y-43160837D01*
X14497247Y-43160839D01*
X14682404Y-43200195D01*
X14682405Y-43200195D01*
X14871696Y-43200195D01*
X14910245Y-43192001D01*
X14979912Y-43197317D01*
X15023707Y-43225610D01*
X15090465Y-43292368D01*
X15123950Y-43353691D01*
X15118966Y-43423383D01*
X15090465Y-43467730D01*
X14988378Y-43569816D01*
X14988377Y-43569817D01*
X14900430Y-43715299D01*
X14849859Y-43877588D01*
X14843450Y-43948122D01*
X14843450Y-43954695D01*
X16346670Y-43954695D01*
X16365654Y-43944329D01*
X16392012Y-43941495D01*
X17871502Y-43941495D01*
X17888654Y-43932129D01*
X17915012Y-43929295D01*
X19841449Y-43929295D01*
X19841449Y-43922712D01*
X19835041Y-43852192D01*
X19835040Y-43852187D01*
X19784468Y-43689898D01*
X19696522Y-43544417D01*
X19594434Y-43442329D01*
X19560949Y-43381006D01*
X19565933Y-43311314D01*
X19594433Y-43266968D01*
X19696922Y-43164480D01*
X19733860Y-43103377D01*
X19785386Y-43056192D01*
X19854245Y-43044353D01*
X19856068Y-43044578D01*
X19871250Y-43046577D01*
X19906579Y-43041925D01*
X19914678Y-43041395D01*
X22584001Y-43041395D01*
X22651040Y-43061080D01*
X22671682Y-43077714D01*
X22774880Y-43180912D01*
X22808365Y-43242235D01*
X22811199Y-43268593D01*
X22811199Y-46058887D01*
X22810668Y-46066985D01*
X22806017Y-46102316D01*
X22810847Y-46139007D01*
X22811199Y-46141676D01*
X22826654Y-46259076D01*
X22826655Y-46259078D01*
X22875371Y-46376690D01*
X22887163Y-46405157D01*
X22983417Y-46530598D01*
X23011694Y-46552296D01*
X23017784Y-46557636D01*
X23241733Y-46781585D01*
X23441548Y-46981400D01*
X23446899Y-46987501D01*
X23455092Y-46998178D01*
X23465221Y-47011379D01*
X23468597Y-47015778D01*
X23574973Y-47097403D01*
X23594038Y-47112032D01*
X23740117Y-47172540D01*
X23782213Y-47178082D01*
X23896878Y-47193178D01*
X23896879Y-47193178D01*
X23932208Y-47188526D01*
X23940307Y-47187996D01*
X26016021Y-47187996D01*
X26024119Y-47188526D01*
X26059449Y-47193178D01*
X26059450Y-47193178D01*
X26151745Y-47181027D01*
X26216211Y-47172540D01*
X26362290Y-47112032D01*
X26381355Y-47097403D01*
X26487731Y-47015778D01*
X26509432Y-46987495D01*
X26514760Y-46981418D01*
X26650421Y-46845757D01*
X26656498Y-46840429D01*
X26684781Y-46818728D01*
X26684790Y-46818715D01*
X26685915Y-46817592D01*
X26687115Y-46816936D01*
X26691232Y-46813778D01*
X26691724Y-46814419D01*
X26747236Y-46784103D01*
X26760356Y-46781977D01*
X26762841Y-46781709D01*
X26763982Y-46781587D01*
X26865723Y-46743639D01*
X26906166Y-46728556D01*
X26975858Y-46723572D01*
X26992832Y-46728556D01*
X27024947Y-46740534D01*
X27135016Y-46781587D01*
X27194626Y-46787996D01*
X27386000Y-46787995D01*
X27453038Y-46807679D01*
X27498793Y-46860483D01*
X27508737Y-46929641D01*
X27491538Y-46977091D01*
X27419695Y-47093566D01*
X27419691Y-47093575D01*
X27364544Y-47259997D01*
X27364543Y-47260004D01*
X27354050Y-47362708D01*
X27354050Y-47637695D01*
X28480050Y-47637695D01*
X28547089Y-47657380D01*
X28592844Y-47710184D01*
X28604050Y-47761695D01*
X28604050Y-49133381D01*
X28584365Y-49200420D01*
X28554362Y-49232647D01*
X28444151Y-49315151D01*
X28357905Y-49430360D01*
X28357901Y-49430367D01*
X28307714Y-49564928D01*
X28307608Y-49565213D01*
X28301199Y-49624823D01*
X28301199Y-49624830D01*
X28301199Y-49624831D01*
X28301199Y-50120566D01*
X28301200Y-50120575D01*
X28308066Y-50184447D01*
X28308066Y-50210953D01*
X28307608Y-50215212D01*
X28307608Y-50215213D01*
X28301199Y-50274823D01*
X28301199Y-50274828D01*
X28301199Y-50274829D01*
X28301199Y-50770566D01*
X28301200Y-50770575D01*
X28308066Y-50834447D01*
X28308066Y-50860953D01*
X28307608Y-50865212D01*
X28307608Y-50865213D01*
X28301199Y-50924823D01*
X28301199Y-50924828D01*
X28301199Y-50924829D01*
X28301199Y-51420566D01*
X28301200Y-51420572D01*
X28307607Y-51480179D01*
X28357901Y-51615024D01*
X28357902Y-51615025D01*
X28357903Y-51615027D01*
X28406535Y-51679991D01*
X28444155Y-51730245D01*
X28450424Y-51736514D01*
X28448416Y-51738521D01*
X28481623Y-51782877D01*
X28489382Y-51822319D01*
X28490999Y-51873757D01*
X28490999Y-51903287D01*
X28491000Y-51903304D01*
X28491867Y-51910175D01*
X28492325Y-51915994D01*
X28493789Y-51962568D01*
X28493790Y-51962571D01*
X28499379Y-51981811D01*
X28503323Y-52000855D01*
X28505835Y-52020736D01*
X28515982Y-52046364D01*
X28522989Y-52064063D01*
X28524881Y-52069591D01*
X28527870Y-52079880D01*
X28537881Y-52114334D01*
X28546963Y-52129692D01*
X28548079Y-52131578D01*
X28556637Y-52149047D01*
X28564013Y-52167676D01*
X28591397Y-52205367D01*
X28594605Y-52210251D01*
X28618326Y-52250360D01*
X28618332Y-52250368D01*
X28632489Y-52264524D01*
X28645126Y-52279319D01*
X28656905Y-52295531D01*
X28674529Y-52310111D01*
X28692808Y-52325232D01*
X28697119Y-52329154D01*
X28891913Y-52523948D01*
X29084444Y-52716479D01*
X29094267Y-52728740D01*
X29094489Y-52728558D01*
X29099462Y-52734570D01*
X29149886Y-52781922D01*
X29170773Y-52802810D01*
X29170777Y-52802813D01*
X29170779Y-52802815D01*
X29176261Y-52807068D01*
X29180693Y-52810852D01*
X29214668Y-52842757D01*
X29232226Y-52852409D01*
X29248483Y-52863088D01*
X29264314Y-52875368D01*
X29283987Y-52883881D01*
X29307083Y-52893877D01*
X29312327Y-52896445D01*
X29353158Y-52918892D01*
X29365773Y-52922130D01*
X29372555Y-52923872D01*
X29390969Y-52930176D01*
X29409354Y-52938133D01*
X29455407Y-52945427D01*
X29461076Y-52946601D01*
X29506231Y-52958195D01*
X29526266Y-52958195D01*
X29545663Y-52959721D01*
X29565446Y-52962855D01*
X29611834Y-52958470D01*
X29617672Y-52958195D01*
X34811107Y-52958195D01*
X34826727Y-52959919D01*
X34826754Y-52959634D01*
X34834510Y-52960366D01*
X34834517Y-52960368D01*
X34903664Y-52958195D01*
X34933200Y-52958195D01*
X34940078Y-52957325D01*
X34945891Y-52956867D01*
X34992477Y-52955404D01*
X35011719Y-52949812D01*
X35030762Y-52945869D01*
X35050642Y-52943359D01*
X35093972Y-52926202D01*
X35099496Y-52924312D01*
X35103246Y-52923222D01*
X35144240Y-52911313D01*
X35161479Y-52901117D01*
X35178953Y-52892557D01*
X35197579Y-52885182D01*
X35197578Y-52885182D01*
X35197582Y-52885181D01*
X35235289Y-52857784D01*
X35240155Y-52854587D01*
X35280270Y-52830865D01*
X35294433Y-52816702D01*
X35309221Y-52804070D01*
X35325437Y-52792289D01*
X35355133Y-52756391D01*
X35359067Y-52752067D01*
X35379235Y-52731900D01*
X35391496Y-52722078D01*
X35391313Y-52721857D01*
X35397324Y-52716884D01*
X35397704Y-52716479D01*
X35444677Y-52666457D01*
X35465570Y-52645566D01*
X35469821Y-52640084D01*
X35473615Y-52635643D01*
X35505511Y-52601678D01*
X35505512Y-52601677D01*
X35515163Y-52584119D01*
X35525846Y-52567856D01*
X35538123Y-52552031D01*
X35556635Y-52509248D01*
X35559188Y-52504036D01*
X35581647Y-52463187D01*
X35586630Y-52443775D01*
X35592931Y-52425375D01*
X35600887Y-52406991D01*
X35608179Y-52360947D01*
X35609356Y-52355266D01*
X35620950Y-52310114D01*
X35620950Y-52290078D01*
X35622477Y-52270677D01*
X35625610Y-52250899D01*
X35621225Y-52204510D01*
X35620950Y-52198672D01*
X35620950Y-51684291D01*
X35640635Y-51617252D01*
X35693439Y-51571497D01*
X35762597Y-51561553D01*
X35820951Y-51586312D01*
X35823622Y-51588384D01*
X35833913Y-51596367D01*
X35876672Y-51614870D01*
X35881922Y-51617442D01*
X35921487Y-51639193D01*
X35922757Y-51639891D01*
X35922761Y-51639892D01*
X35942160Y-51644873D01*
X35960571Y-51651177D01*
X35978946Y-51659129D01*
X35978949Y-51659129D01*
X35978954Y-51659132D01*
X36024998Y-51666423D01*
X36030681Y-51667600D01*
X36075830Y-51679194D01*
X36095865Y-51679194D01*
X36115262Y-51680720D01*
X36135045Y-51683854D01*
X36181433Y-51679469D01*
X36187271Y-51679194D01*
X38752249Y-51679194D01*
X38819288Y-51698879D01*
X38865043Y-51751683D01*
X38875539Y-51789941D01*
X38875908Y-51793382D01*
X38926202Y-51928227D01*
X38926206Y-51928234D01*
X39012452Y-52043443D01*
X39012455Y-52043446D01*
X39127664Y-52129692D01*
X39127671Y-52129696D01*
X39262517Y-52179990D01*
X39262516Y-52179990D01*
X39269444Y-52180734D01*
X39322127Y-52186399D01*
X40777043Y-52186398D01*
X40844082Y-52206083D01*
X40884429Y-52248396D01*
X40898065Y-52272014D01*
X41024729Y-52412688D01*
X41177865Y-52523948D01*
X41177870Y-52523951D01*
X41350792Y-52600942D01*
X41350797Y-52600944D01*
X41535954Y-52640300D01*
X41535955Y-52640300D01*
X41725244Y-52640300D01*
X41725246Y-52640300D01*
X41910403Y-52600944D01*
X42083330Y-52523951D01*
X42236471Y-52412688D01*
X42363133Y-52272016D01*
X42457779Y-52108084D01*
X42516274Y-51928056D01*
X42536060Y-51739800D01*
X42516274Y-51551544D01*
X42457779Y-51371516D01*
X42363133Y-51207584D01*
X42344209Y-51186567D01*
X42286216Y-51122158D01*
X42255986Y-51059166D01*
X42264612Y-50989831D01*
X42287973Y-50954302D01*
X42299925Y-50941576D01*
X42320819Y-50920683D01*
X42325078Y-50915190D01*
X42328851Y-50910773D01*
X42360761Y-50876794D01*
X42370412Y-50859236D01*
X42381095Y-50842973D01*
X42393372Y-50827148D01*
X42411880Y-50784373D01*
X42414437Y-50779153D01*
X42436896Y-50738304D01*
X42436896Y-50738301D01*
X42438434Y-50735505D01*
X42459407Y-50707570D01*
X42470881Y-50696096D01*
X45003299Y-50696096D01*
X45003299Y-50743940D01*
X45009700Y-50803468D01*
X45009702Y-50803475D01*
X45059944Y-50938182D01*
X45059948Y-50938189D01*
X45146108Y-51053283D01*
X45146111Y-51053286D01*
X45261205Y-51139446D01*
X45261212Y-51139450D01*
X45395919Y-51189692D01*
X45395926Y-51189694D01*
X45455454Y-51196095D01*
X45455471Y-51196096D01*
X45803299Y-51196096D01*
X45803299Y-50696096D01*
X46203299Y-50696096D01*
X46203299Y-51196096D01*
X46551127Y-51196096D01*
X46551143Y-51196095D01*
X46610671Y-51189694D01*
X46610678Y-51189692D01*
X46745385Y-51139450D01*
X46745392Y-51139446D01*
X46860486Y-51053286D01*
X46860489Y-51053283D01*
X46946649Y-50938189D01*
X46946653Y-50938182D01*
X46996895Y-50803475D01*
X46996897Y-50803468D01*
X47003298Y-50743940D01*
X47003299Y-50743923D01*
X47003299Y-50696096D01*
X46203299Y-50696096D01*
X45803299Y-50696096D01*
X45003299Y-50696096D01*
X42470881Y-50696096D01*
X42659663Y-50507314D01*
X42720986Y-50473832D01*
X42747343Y-50470998D01*
X44147895Y-50470998D01*
X44163515Y-50472722D01*
X44163542Y-50472437D01*
X44171298Y-50473169D01*
X44171305Y-50473171D01*
X44240452Y-50470998D01*
X44269988Y-50470998D01*
X44276866Y-50470128D01*
X44282679Y-50469670D01*
X44329265Y-50468207D01*
X44348507Y-50462615D01*
X44367550Y-50458672D01*
X44387430Y-50456162D01*
X44430760Y-50439005D01*
X44436284Y-50437115D01*
X44440034Y-50436025D01*
X44481028Y-50424116D01*
X44498267Y-50413920D01*
X44515741Y-50405360D01*
X44534365Y-50397986D01*
X44534365Y-50397985D01*
X44534370Y-50397984D01*
X44572087Y-50370580D01*
X44576943Y-50367390D01*
X44617058Y-50343668D01*
X44631224Y-50329501D01*
X44646019Y-50316866D01*
X44655055Y-50310300D01*
X44662225Y-50305092D01*
X44691923Y-50269192D01*
X44695844Y-50264881D01*
X44791619Y-50169107D01*
X44852942Y-50135624D01*
X44922633Y-50140608D01*
X44978567Y-50182480D01*
X45002983Y-50247945D01*
X45003299Y-50256790D01*
X45003299Y-50296096D01*
X47003299Y-50296096D01*
X47003299Y-50248268D01*
X47003298Y-50248251D01*
X46996897Y-50188723D01*
X46996896Y-50188719D01*
X46943552Y-50045698D01*
X46945366Y-50045021D01*
X46932915Y-49987770D01*
X46944869Y-49947062D01*
X46943995Y-49946736D01*
X46947093Y-49938429D01*
X46947095Y-49938427D01*
X46997390Y-49803579D01*
X47003799Y-49743969D01*
X47003798Y-49248224D01*
X46997390Y-49188613D01*
X46947095Y-49053765D01*
X46947093Y-49053762D01*
X46943995Y-49045456D01*
X46945725Y-49044810D01*
X46933201Y-48987259D01*
X46944990Y-48947107D01*
X46943995Y-48946736D01*
X46947093Y-48938429D01*
X46947095Y-48938427D01*
X46997390Y-48803579D01*
X47003799Y-48743969D01*
X47003798Y-48248224D01*
X46997390Y-48188613D01*
X46947095Y-48053765D01*
X46947093Y-48053762D01*
X46943995Y-48045456D01*
X46945725Y-48044810D01*
X46933201Y-47987259D01*
X46944990Y-47947107D01*
X46943995Y-47946736D01*
X46947093Y-47938429D01*
X46947095Y-47938427D01*
X46997390Y-47803579D01*
X47003799Y-47743969D01*
X47003798Y-47248224D01*
X46997390Y-47188613D01*
X46947095Y-47053765D01*
X46947093Y-47053762D01*
X46943995Y-47045456D01*
X46945725Y-47044810D01*
X46933201Y-46987259D01*
X46944990Y-46947107D01*
X46943995Y-46946736D01*
X46947093Y-46938429D01*
X46947095Y-46938427D01*
X46997390Y-46803579D01*
X47003799Y-46743969D01*
X47003798Y-46248224D01*
X46997390Y-46188613D01*
X46947095Y-46053765D01*
X46947093Y-46053762D01*
X46943995Y-46045456D01*
X46945725Y-46044810D01*
X46933201Y-45987259D01*
X46944990Y-45947107D01*
X46943995Y-45946736D01*
X46947093Y-45938429D01*
X46947095Y-45938427D01*
X46997390Y-45803579D01*
X47003799Y-45743969D01*
X47003798Y-45248224D01*
X46997390Y-45188613D01*
X46947095Y-45053765D01*
X46947093Y-45053762D01*
X46943995Y-45045456D01*
X46945725Y-45044810D01*
X46933201Y-44987259D01*
X46944990Y-44947107D01*
X46943995Y-44946736D01*
X46947093Y-44938429D01*
X46947095Y-44938427D01*
X46997390Y-44803579D01*
X47003799Y-44743969D01*
X47003798Y-44248224D01*
X46997390Y-44188613D01*
X46947095Y-44053765D01*
X46947093Y-44053762D01*
X46943995Y-44045456D01*
X46945725Y-44044810D01*
X46933201Y-43987259D01*
X46944990Y-43947107D01*
X46943995Y-43946736D01*
X46947093Y-43938429D01*
X46947095Y-43938427D01*
X46997390Y-43803579D01*
X47003799Y-43743969D01*
X47003798Y-43370595D01*
X47023482Y-43303557D01*
X47076286Y-43257802D01*
X47127798Y-43246596D01*
X47663944Y-43246596D01*
X47681914Y-43247905D01*
X47705672Y-43251385D01*
X47757717Y-43246831D01*
X47763119Y-43246596D01*
X47771353Y-43246596D01*
X47771358Y-43246596D01*
X47782976Y-43245237D01*
X47803925Y-43242789D01*
X47816677Y-43241673D01*
X47880446Y-43236095D01*
X47880454Y-43236092D01*
X47887515Y-43234635D01*
X47887527Y-43234694D01*
X47894892Y-43233061D01*
X47894878Y-43233002D01*
X47901895Y-43231337D01*
X47901904Y-43231337D01*
X47974072Y-43205070D01*
X48046983Y-43180910D01*
X48046992Y-43180903D01*
X48053531Y-43177856D01*
X48053557Y-43177912D01*
X48060339Y-43174628D01*
X48060312Y-43174574D01*
X48066755Y-43171336D01*
X48066766Y-43171333D01*
X48130932Y-43129130D01*
X48196305Y-43088808D01*
X48196311Y-43088801D01*
X48201974Y-43084325D01*
X48202012Y-43084373D01*
X48207849Y-43079618D01*
X48207810Y-43079571D01*
X48213345Y-43074926D01*
X48266034Y-43019079D01*
X48373645Y-42911467D01*
X48511298Y-42773813D01*
X48524921Y-42762042D01*
X48544180Y-42747705D01*
X48577751Y-42707696D01*
X48581411Y-42703701D01*
X48587240Y-42697873D01*
X48607591Y-42672134D01*
X48621899Y-42655082D01*
X48656952Y-42613309D01*
X48656956Y-42613300D01*
X48660924Y-42607270D01*
X48660975Y-42607303D01*
X48665022Y-42600951D01*
X48664970Y-42600919D01*
X48668762Y-42594770D01*
X48701225Y-42525153D01*
X48719908Y-42487951D01*
X48735690Y-42456528D01*
X48735692Y-42456516D01*
X48738159Y-42449741D01*
X48738217Y-42449762D01*
X48740693Y-42442641D01*
X48740636Y-42442623D01*
X48742907Y-42435768D01*
X48758442Y-42360529D01*
X48773689Y-42296199D01*
X48776150Y-42285816D01*
X48776150Y-42285805D01*
X48776988Y-42278643D01*
X48777048Y-42278650D01*
X48777814Y-42271150D01*
X48777755Y-42271145D01*
X48778384Y-42263955D01*
X48776150Y-42187178D01*
X48776150Y-38731200D01*
X48777459Y-38713230D01*
X48778164Y-38708416D01*
X48780939Y-38689472D01*
X48780025Y-38679030D01*
X48776386Y-38637434D01*
X48776150Y-38632027D01*
X48776150Y-38623791D01*
X48776150Y-38623786D01*
X48772341Y-38591200D01*
X48765648Y-38514698D01*
X48765645Y-38514689D01*
X48764188Y-38507630D01*
X48764248Y-38507617D01*
X48762616Y-38500259D01*
X48762558Y-38500273D01*
X48760891Y-38493242D01*
X48760891Y-38493240D01*
X48734619Y-38421058D01*
X48721178Y-38380495D01*
X48714254Y-38359598D01*
X48711853Y-38289770D01*
X48747585Y-38229728D01*
X48810105Y-38198536D01*
X48831960Y-38196595D01*
X49401170Y-38196595D01*
X49401171Y-38196595D01*
X49460782Y-38190187D01*
X49595630Y-38139892D01*
X49710845Y-38053642D01*
X49797095Y-37938427D01*
X49847390Y-37803579D01*
X49853799Y-37743969D01*
X49853798Y-36120595D01*
X49873483Y-36053557D01*
X49926286Y-36007802D01*
X49977798Y-35996596D01*
X50502706Y-35996596D01*
X50518326Y-35998320D01*
X50518353Y-35998035D01*
X50526109Y-35998767D01*
X50526116Y-35998769D01*
X50595263Y-35996596D01*
X50624799Y-35996596D01*
X50631677Y-35995726D01*
X50637490Y-35995268D01*
X50684076Y-35993805D01*
X50703318Y-35988213D01*
X50722361Y-35984270D01*
X50742241Y-35981760D01*
X50785571Y-35964603D01*
X50791095Y-35962713D01*
X50794845Y-35961623D01*
X50835839Y-35949714D01*
X50853078Y-35939518D01*
X50870552Y-35930958D01*
X50889176Y-35923584D01*
X50889176Y-35923583D01*
X50889181Y-35923582D01*
X50926898Y-35896178D01*
X50931754Y-35892988D01*
X50971869Y-35869266D01*
X50986038Y-35855095D01*
X51000828Y-35842464D01*
X51017036Y-35830690D01*
X51046748Y-35794772D01*
X51050661Y-35790472D01*
X51432621Y-35408514D01*
X51493944Y-35375029D01*
X51520302Y-35372195D01*
X51599237Y-35372195D01*
X51599243Y-35372195D01*
X51599251Y-35372194D01*
X51599254Y-35372194D01*
X51653659Y-35366636D01*
X51698607Y-35362045D01*
X51859596Y-35308699D01*
X52003943Y-35219664D01*
X52055269Y-35168338D01*
X52116592Y-35134853D01*
X52186284Y-35139837D01*
G37*
%TD.AperFunction*%
%TA.AperFunction,Conductor*%
G36*
X30148064Y-51120912D02*
G01*
X30191827Y-51175378D01*
X30201199Y-51222667D01*
X30201199Y-51420565D01*
X30201200Y-51420572D01*
X30207607Y-51480179D01*
X30229868Y-51539862D01*
X30234852Y-51609554D01*
X30201367Y-51670877D01*
X30140043Y-51704361D01*
X30113686Y-51707195D01*
X30039712Y-51707195D01*
X29972673Y-51687510D01*
X29926918Y-51634706D01*
X29916974Y-51565548D01*
X29923530Y-51539862D01*
X29929515Y-51523814D01*
X29945790Y-51480179D01*
X29952199Y-51420569D01*
X29952198Y-51223259D01*
X29971882Y-51156221D01*
X30013076Y-51116528D01*
X30013435Y-51116315D01*
X30013440Y-51116314D01*
X30014080Y-51115935D01*
X30081801Y-51098753D01*
X30148064Y-51120912D01*
G37*
%TD.AperFunction*%
%TA.AperFunction,Conductor*%
G36*
X31196397Y-48834230D02*
G01*
X31240744Y-48862731D01*
X31307294Y-48929281D01*
X31317119Y-48941545D01*
X31317340Y-48941363D01*
X31322310Y-48947370D01*
X31333952Y-48958303D01*
X31369347Y-49018544D01*
X31366555Y-49088358D01*
X31326461Y-49145580D01*
X31261796Y-49172041D01*
X31249069Y-49172696D01*
X31226699Y-49172696D01*
X31226699Y-50348196D01*
X31207014Y-50415235D01*
X31154210Y-50460990D01*
X31102699Y-50472196D01*
X30950699Y-50472196D01*
X30883660Y-50452511D01*
X30837905Y-50399707D01*
X30826699Y-50348196D01*
X30826699Y-49145927D01*
X30825412Y-49143571D01*
X30826699Y-49125574D01*
X30826699Y-49121334D01*
X30827002Y-49121334D01*
X30830396Y-49073879D01*
X30872268Y-49017946D01*
X30881482Y-49011674D01*
X30921065Y-48987259D01*
X30972706Y-48955407D01*
X31065382Y-48862731D01*
X31126705Y-48829246D01*
X31196397Y-48834230D01*
G37*
%TD.AperFunction*%
%TA.AperFunction,Conductor*%
G36*
X36539802Y-49460031D02*
G01*
X36546280Y-49466063D01*
X36796731Y-49716514D01*
X36830216Y-49777837D01*
X36825232Y-49847529D01*
X36783360Y-49903462D01*
X36717896Y-49927879D01*
X36709050Y-49928195D01*
X36601699Y-49928195D01*
X36534660Y-49908510D01*
X36514018Y-49891876D01*
X36370918Y-49748776D01*
X36337433Y-49687453D01*
X36334599Y-49661095D01*
X36334599Y-49553744D01*
X36354284Y-49486705D01*
X36407088Y-49440950D01*
X36476246Y-49431006D01*
X36539802Y-49460031D01*
G37*
%TD.AperFunction*%
%TA.AperFunction,Conductor*%
G36*
X31356360Y-46572222D02*
G01*
X31356387Y-46571937D01*
X31364144Y-46572669D01*
X31364150Y-46572671D01*
X31401005Y-46571512D01*
X31468628Y-46589080D01*
X31516020Y-46640420D01*
X31528900Y-46695448D01*
X31528900Y-46733769D01*
X31528901Y-46733777D01*
X31534439Y-46785292D01*
X31534439Y-46811799D01*
X31529400Y-46858669D01*
X31529400Y-46906500D01*
X31538601Y-46915701D01*
X31574305Y-46926185D01*
X31606533Y-46956189D01*
X31618286Y-46971889D01*
X31642703Y-47037353D01*
X31627852Y-47105626D01*
X31618286Y-47120511D01*
X31606533Y-47136211D01*
X31550599Y-47178082D01*
X31534272Y-47181027D01*
X31529286Y-47186013D01*
X31509715Y-47252667D01*
X31456911Y-47298422D01*
X31387753Y-47308366D01*
X31374571Y-47305734D01*
X31371394Y-47304918D01*
X31352980Y-47298614D01*
X31334597Y-47290658D01*
X31334591Y-47290656D01*
X31324352Y-47289035D01*
X31261217Y-47259106D01*
X31226045Y-47205567D01*
X31188864Y-47093361D01*
X31096762Y-46944039D01*
X30972706Y-46819983D01*
X30972705Y-46819982D01*
X30940368Y-46800037D01*
X30893643Y-46748090D01*
X30882420Y-46679127D01*
X30910263Y-46615045D01*
X30968332Y-46576188D01*
X31005464Y-46570498D01*
X31340740Y-46570498D01*
X31356360Y-46572222D01*
G37*
%TD.AperFunction*%
%TA.AperFunction,Conductor*%
G36*
X43367289Y-45244380D02*
G01*
X43413044Y-45297184D01*
X43424250Y-45348695D01*
X43424250Y-45979413D01*
X43404565Y-46046452D01*
X43390645Y-46064292D01*
X43386876Y-46068307D01*
X43379913Y-46075269D01*
X43365991Y-46089191D01*
X43365980Y-46089204D01*
X43361724Y-46094689D01*
X43357940Y-46099119D01*
X43326040Y-46133090D01*
X43326039Y-46133092D01*
X43316387Y-46150648D01*
X43305713Y-46166898D01*
X43293432Y-46182733D01*
X43293427Y-46182740D01*
X43274918Y-46225510D01*
X43272348Y-46230756D01*
X43249906Y-46271578D01*
X43244925Y-46290979D01*
X43238624Y-46309382D01*
X43230665Y-46327774D01*
X43230664Y-46327777D01*
X43223374Y-46373799D01*
X43222190Y-46379518D01*
X43210604Y-46424644D01*
X43210603Y-46424654D01*
X43210603Y-46444688D01*
X43209076Y-46464087D01*
X43205943Y-46483866D01*
X43205943Y-46483867D01*
X43210328Y-46530255D01*
X43210603Y-46536093D01*
X43210603Y-46747600D01*
X43190918Y-46814639D01*
X43174284Y-46835281D01*
X43125888Y-46883677D01*
X43064565Y-46917162D01*
X43038207Y-46919996D01*
X41664925Y-46919996D01*
X41597886Y-46900311D01*
X41552131Y-46847507D01*
X41541635Y-46782743D01*
X41545360Y-46748090D01*
X41546900Y-46733771D01*
X41546899Y-46358626D01*
X41541360Y-46307098D01*
X41541361Y-46280595D01*
X41543746Y-46258414D01*
X41570484Y-46193864D01*
X41621389Y-46156378D01*
X41621935Y-46156161D01*
X41621940Y-46156161D01*
X41653166Y-46143797D01*
X41665266Y-46139007D01*
X41670795Y-46137114D01*
X41685729Y-46132775D01*
X41715538Y-46124115D01*
X41732777Y-46113919D01*
X41750251Y-46105359D01*
X41768875Y-46097985D01*
X41768875Y-46097984D01*
X41768880Y-46097983D01*
X41806597Y-46070579D01*
X41811453Y-46067389D01*
X41851568Y-46043667D01*
X41851577Y-46043657D01*
X41852900Y-46042633D01*
X41854138Y-46042146D01*
X41858286Y-46039694D01*
X41858681Y-46040362D01*
X41917936Y-46017096D01*
X41986454Y-46030774D01*
X42034443Y-46075513D01*
X42106934Y-46193040D01*
X42230904Y-46317010D01*
X42380125Y-46409051D01*
X42380130Y-46409053D01*
X42546552Y-46464200D01*
X42546559Y-46464201D01*
X42649269Y-46474694D01*
X42924249Y-46474694D01*
X42924250Y-46474693D01*
X42924250Y-45348695D01*
X42943935Y-45281656D01*
X42996739Y-45235901D01*
X43048250Y-45224695D01*
X43300250Y-45224695D01*
X43367289Y-45244380D01*
G37*
%TD.AperFunction*%
%TA.AperFunction,Conductor*%
G36*
X41898745Y-43844791D02*
G01*
X41944500Y-43897595D01*
X41955064Y-43936504D01*
X41959251Y-43977492D01*
X41960669Y-43984117D01*
X41958704Y-43984537D01*
X41960763Y-44044670D01*
X41936204Y-44092869D01*
X41921036Y-44111203D01*
X41917103Y-44115526D01*
X41758580Y-44274048D01*
X41697257Y-44307533D01*
X41627565Y-44302549D01*
X41571632Y-44260677D01*
X41547215Y-44195213D01*
X41546899Y-44186391D01*
X41546899Y-43949105D01*
X41566584Y-43882067D01*
X41619388Y-43836312D01*
X41670899Y-43825106D01*
X41831706Y-43825106D01*
X41898745Y-43844791D01*
G37*
%TD.AperFunction*%
%TA.AperFunction,Conductor*%
G36*
X41752018Y-42142190D02*
G01*
X41789845Y-42200935D01*
X41794219Y-42223003D01*
X41794676Y-42227352D01*
X41854603Y-42411788D01*
X41856598Y-42481629D01*
X41820518Y-42541462D01*
X41757817Y-42572290D01*
X41736672Y-42574106D01*
X41681234Y-42574106D01*
X41614195Y-42554421D01*
X41596346Y-42540495D01*
X41586011Y-42530789D01*
X41550619Y-42470546D01*
X41546899Y-42440400D01*
X41546899Y-42358628D01*
X41546898Y-42358611D01*
X41541613Y-42309457D01*
X41541613Y-42282945D01*
X41542492Y-42274770D01*
X41546900Y-42233773D01*
X41546899Y-42233761D01*
X41547078Y-42230447D01*
X41548526Y-42230524D01*
X41566524Y-42169030D01*
X41619287Y-42123228D01*
X41688436Y-42113222D01*
X41752018Y-42142190D01*
G37*
%TD.AperFunction*%
%TA.AperFunction,Conductor*%
G36*
X23869030Y-38956485D02*
G01*
X23914785Y-39009289D01*
X23924729Y-39078447D01*
X23895704Y-39142003D01*
X23845324Y-39176982D01*
X23825170Y-39184498D01*
X23825163Y-39184502D01*
X23709954Y-39270748D01*
X23709951Y-39270751D01*
X23623705Y-39385960D01*
X23623701Y-39385967D01*
X23573409Y-39520809D01*
X23573408Y-39520813D01*
X23566999Y-39580423D01*
X23566999Y-39580430D01*
X23566999Y-39580431D01*
X23566999Y-40176166D01*
X23567000Y-40176172D01*
X23573408Y-40235780D01*
X23582428Y-40259966D01*
X23587410Y-40329657D01*
X23582428Y-40346626D01*
X23573409Y-40370808D01*
X23573408Y-40370811D01*
X23573408Y-40370813D01*
X23566999Y-40430423D01*
X23566999Y-40430430D01*
X23566999Y-40430431D01*
X23566999Y-40926166D01*
X23567000Y-40926172D01*
X23573407Y-40985778D01*
X23591752Y-41034962D01*
X23596736Y-41104654D01*
X23591752Y-41121627D01*
X23573409Y-41170807D01*
X23573408Y-41170811D01*
X23573408Y-41170813D01*
X23566999Y-41230423D01*
X23566999Y-41230430D01*
X23566999Y-41230431D01*
X23566999Y-41726166D01*
X23567000Y-41726172D01*
X23573408Y-41785780D01*
X23582428Y-41809966D01*
X23587410Y-41879657D01*
X23582428Y-41896626D01*
X23573408Y-41920811D01*
X23573407Y-41920812D01*
X23566997Y-41980437D01*
X23566915Y-41981966D01*
X23566797Y-41982299D01*
X23566644Y-41983724D01*
X23566307Y-41983687D01*
X23543653Y-42047849D01*
X23488464Y-42090697D01*
X23418871Y-42096906D01*
X23356968Y-42064504D01*
X23355414Y-42062976D01*
X23339426Y-42046988D01*
X23334072Y-42040883D01*
X23312384Y-42012617D01*
X23312381Y-42012615D01*
X23312380Y-42012613D01*
X23186939Y-41916359D01*
X23139299Y-41896626D01*
X23040860Y-41855851D01*
X23040858Y-41855850D01*
X22977169Y-41847466D01*
X22884099Y-41835213D01*
X22884098Y-41835213D01*
X22848768Y-41839864D01*
X22840670Y-41840395D01*
X20289739Y-41840395D01*
X20222700Y-41820710D01*
X20176945Y-41767906D01*
X20166419Y-41729360D01*
X20159576Y-41664253D01*
X20172146Y-41595527D01*
X20219878Y-41544504D01*
X20282897Y-41527296D01*
X20404099Y-41527296D01*
X20404099Y-41027296D01*
X20904099Y-41027296D01*
X20904099Y-41527296D01*
X21101927Y-41527296D01*
X21101943Y-41527295D01*
X21161471Y-41520894D01*
X21161478Y-41520892D01*
X21296185Y-41470650D01*
X21296192Y-41470646D01*
X21411286Y-41384486D01*
X21411289Y-41384483D01*
X21497449Y-41269389D01*
X21497453Y-41269382D01*
X21547695Y-41134675D01*
X21547697Y-41134668D01*
X21554098Y-41075140D01*
X21554099Y-41075123D01*
X21554099Y-41027296D01*
X20904099Y-41027296D01*
X20404099Y-41027296D01*
X20404099Y-40801795D01*
X20423784Y-40734756D01*
X20476588Y-40689001D01*
X20528096Y-40677795D01*
X21101971Y-40677795D01*
X21161582Y-40671387D01*
X21296430Y-40621092D01*
X21388685Y-40552029D01*
X21454149Y-40527612D01*
X21462996Y-40527296D01*
X21554099Y-40527296D01*
X21554099Y-40479468D01*
X21554098Y-40479456D01*
X21551186Y-40452373D01*
X21563590Y-40383613D01*
X21586791Y-40351437D01*
X22148021Y-39790207D01*
X22154098Y-39784879D01*
X22182381Y-39763178D01*
X22278635Y-39637737D01*
X22339143Y-39491658D01*
X22347896Y-39425169D01*
X22359781Y-39334896D01*
X22355129Y-39299565D01*
X22354599Y-39291467D01*
X22354599Y-39060800D01*
X22374284Y-38993761D01*
X22427088Y-38948006D01*
X22478599Y-38936800D01*
X23801991Y-38936800D01*
X23869030Y-38956485D01*
G37*
%TD.AperFunction*%
%TA.AperFunction,Conductor*%
G36*
X47218189Y-38939881D02*
G01*
X47263944Y-38992685D01*
X47275150Y-39044196D01*
X47275150Y-41621596D01*
X47255465Y-41688635D01*
X47202661Y-41734390D01*
X47151150Y-41745596D01*
X47127799Y-41745596D01*
X47060760Y-41725911D01*
X47015005Y-41673107D01*
X47003799Y-41621596D01*
X47003798Y-41248226D01*
X47003797Y-41248219D01*
X46997390Y-41188612D01*
X46943996Y-41045455D01*
X46945565Y-41044869D01*
X46932915Y-40986726D01*
X46944613Y-40946889D01*
X46943552Y-40946494D01*
X46996896Y-40803472D01*
X46996897Y-40803468D01*
X47003298Y-40743940D01*
X47003299Y-40743923D01*
X47003299Y-40696096D01*
X45181285Y-40696096D01*
X45114246Y-40676411D01*
X45082019Y-40646408D01*
X45011367Y-40552030D01*
X45005546Y-40544254D01*
X45005544Y-40544253D01*
X45005544Y-40544252D01*
X45000773Y-40539481D01*
X44967288Y-40478158D01*
X44972272Y-40408466D01*
X45000773Y-40364119D01*
X45005543Y-40359348D01*
X45005542Y-40359348D01*
X45005546Y-40359346D01*
X45024977Y-40333388D01*
X45080910Y-40291519D01*
X45150602Y-40286535D01*
X45168111Y-40296096D01*
X47003299Y-40296096D01*
X47003299Y-40248268D01*
X47003298Y-40248251D01*
X46996897Y-40188723D01*
X46996896Y-40188719D01*
X46943552Y-40045698D01*
X46945366Y-40045021D01*
X46932915Y-39987770D01*
X46944869Y-39947062D01*
X46943995Y-39946736D01*
X46947093Y-39938429D01*
X46947095Y-39938427D01*
X46997390Y-39803579D01*
X47003799Y-39743969D01*
X47003798Y-39248224D01*
X46997390Y-39188613D01*
X46980006Y-39142003D01*
X46959689Y-39087528D01*
X46954705Y-39017837D01*
X46988191Y-38956514D01*
X47049514Y-38923030D01*
X47075871Y-38920196D01*
X47151150Y-38920196D01*
X47218189Y-38939881D01*
G37*
%TD.AperFunction*%
%TA.AperFunction,Conductor*%
G36*
X30173628Y-23574180D02*
G01*
X30219383Y-23626984D01*
X30229327Y-23696142D01*
X30200302Y-23759698D01*
X30171686Y-23784034D01*
X30050504Y-23858779D01*
X29926534Y-23982749D01*
X29834493Y-24131970D01*
X29834491Y-24131975D01*
X29779344Y-24298397D01*
X29779343Y-24298404D01*
X29768850Y-24401108D01*
X29768850Y-24676095D01*
X30894850Y-24676095D01*
X30961889Y-24695780D01*
X31007644Y-24748584D01*
X31018850Y-24800095D01*
X31018850Y-25052095D01*
X30999165Y-25119134D01*
X30946361Y-25164889D01*
X30894850Y-25176095D01*
X29768851Y-25176095D01*
X29768851Y-25451081D01*
X29779344Y-25553792D01*
X29834491Y-25720214D01*
X29834493Y-25720219D01*
X29926534Y-25869440D01*
X30001812Y-25944718D01*
X30035297Y-26006041D01*
X30030313Y-26075733D01*
X29988441Y-26131666D01*
X29922977Y-26156083D01*
X29914131Y-26156399D01*
X29593930Y-26156399D01*
X29593923Y-26156400D01*
X29534316Y-26162807D01*
X29494719Y-26177577D01*
X29451386Y-26185395D01*
X28593048Y-26185395D01*
X28577427Y-26183670D01*
X28577401Y-26183956D01*
X28569639Y-26183222D01*
X28569638Y-26183222D01*
X28500491Y-26185395D01*
X28470954Y-26185395D01*
X28464071Y-26186264D01*
X28458254Y-26186721D01*
X28411678Y-26188185D01*
X28392434Y-26193776D01*
X28373384Y-26197720D01*
X28353516Y-26200229D01*
X28310189Y-26217383D01*
X28304663Y-26219274D01*
X28259919Y-26232274D01*
X28259915Y-26232276D01*
X28242671Y-26242474D01*
X28225210Y-26251028D01*
X28206579Y-26258405D01*
X28206567Y-26258412D01*
X28168875Y-26285797D01*
X28163992Y-26289004D01*
X28123885Y-26312724D01*
X28109719Y-26326890D01*
X28094929Y-26339522D01*
X28078719Y-26351299D01*
X28078716Y-26351302D01*
X28049015Y-26387204D01*
X28045082Y-26391526D01*
X27689061Y-26747547D01*
X27676798Y-26757372D01*
X27676981Y-26757594D01*
X27670971Y-26762565D01*
X27623622Y-26812986D01*
X27602739Y-26833869D01*
X27602727Y-26833882D01*
X27598471Y-26839367D01*
X27594687Y-26843797D01*
X27562787Y-26877768D01*
X27562786Y-26877770D01*
X27553134Y-26895326D01*
X27542460Y-26911576D01*
X27530179Y-26927411D01*
X27530174Y-26927418D01*
X27511665Y-26970188D01*
X27509095Y-26975434D01*
X27486653Y-27016256D01*
X27481672Y-27035657D01*
X27475371Y-27054060D01*
X27467412Y-27072452D01*
X27467411Y-27072455D01*
X27460121Y-27118477D01*
X27458937Y-27124196D01*
X27447351Y-27169322D01*
X27447350Y-27169332D01*
X27447350Y-27189366D01*
X27445823Y-27208765D01*
X27442690Y-27228544D01*
X27442690Y-27228545D01*
X27447075Y-27274933D01*
X27447350Y-27280771D01*
X27447350Y-37489705D01*
X27445625Y-37505322D01*
X27445911Y-37505349D01*
X27445177Y-37513115D01*
X27446572Y-37557502D01*
X27429003Y-37625127D01*
X27377662Y-37672518D01*
X27322633Y-37685397D01*
X27140357Y-37685397D01*
X27073318Y-37665712D01*
X27052675Y-37649078D01*
X26976317Y-37572719D01*
X26942833Y-37511395D01*
X26939999Y-37485038D01*
X26939999Y-27081838D01*
X26941723Y-27066218D01*
X26941438Y-27066191D01*
X26942172Y-27058429D01*
X26939999Y-26989268D01*
X26939999Y-26959752D01*
X26939999Y-26959746D01*
X26939130Y-26952875D01*
X26938672Y-26947048D01*
X26937209Y-26900469D01*
X26931618Y-26881226D01*
X26927672Y-26862174D01*
X26925163Y-26842304D01*
X26908003Y-26798963D01*
X26906123Y-26793475D01*
X26893117Y-26748706D01*
X26882921Y-26731466D01*
X26874360Y-26713990D01*
X26866986Y-26695366D01*
X26866985Y-26695364D01*
X26839578Y-26657641D01*
X26836387Y-26652782D01*
X26834592Y-26649747D01*
X26812669Y-26612676D01*
X26812667Y-26612674D01*
X26812664Y-26612670D01*
X26798505Y-26598511D01*
X26785867Y-26583715D01*
X26774093Y-26567509D01*
X26752704Y-26549815D01*
X26738194Y-26537811D01*
X26733872Y-26533878D01*
X26627100Y-26427106D01*
X26617280Y-26414849D01*
X26617060Y-26415032D01*
X26612088Y-26409022D01*
X26592841Y-26390948D01*
X26561663Y-26361669D01*
X26551293Y-26351299D01*
X26540776Y-26340781D01*
X26535286Y-26336522D01*
X26530861Y-26332744D01*
X26496882Y-26300835D01*
X26496880Y-26300833D01*
X26496877Y-26300832D01*
X26479329Y-26291185D01*
X26463063Y-26280501D01*
X26447236Y-26268224D01*
X26447235Y-26268223D01*
X26447233Y-26268222D01*
X26404468Y-26249715D01*
X26399222Y-26247145D01*
X26358393Y-26224700D01*
X26358392Y-26224699D01*
X26338993Y-26219719D01*
X26320581Y-26213415D01*
X26302198Y-26205459D01*
X26302192Y-26205457D01*
X26256174Y-26198169D01*
X26250452Y-26196984D01*
X26205321Y-26185397D01*
X26205319Y-26185397D01*
X26185284Y-26185397D01*
X26165886Y-26183870D01*
X26158462Y-26182694D01*
X26146105Y-26180737D01*
X26146104Y-26180737D01*
X26099716Y-26185122D01*
X26093878Y-26185397D01*
X24168014Y-26185397D01*
X24124681Y-26177579D01*
X24085082Y-26162809D01*
X24085083Y-26162809D01*
X24025483Y-26156402D01*
X24025481Y-26156401D01*
X24025473Y-26156401D01*
X24025464Y-26156401D01*
X22253329Y-26156401D01*
X22253323Y-26156402D01*
X22193716Y-26162809D01*
X22058871Y-26213103D01*
X22058864Y-26213107D01*
X21943655Y-26299353D01*
X21943652Y-26299356D01*
X21857406Y-26414565D01*
X21857402Y-26414572D01*
X21807110Y-26549414D01*
X21807109Y-26549418D01*
X21800700Y-26609028D01*
X21800700Y-26609035D01*
X21800700Y-26609036D01*
X21800700Y-26984170D01*
X21800701Y-26984177D01*
X21806239Y-27035692D01*
X21806239Y-27062199D01*
X21802213Y-27099649D01*
X21775475Y-27164200D01*
X21718083Y-27204049D01*
X21678923Y-27210395D01*
X21408701Y-27210395D01*
X21341662Y-27190710D01*
X21334390Y-27185662D01*
X21293030Y-27154700D01*
X21293027Y-27154698D01*
X21158181Y-27104404D01*
X21158182Y-27104404D01*
X21098582Y-27097997D01*
X21098580Y-27097996D01*
X21098572Y-27097996D01*
X21098564Y-27097996D01*
X20524699Y-27097996D01*
X20457660Y-27078311D01*
X20411905Y-27025507D01*
X20400699Y-26973996D01*
X20400699Y-26248496D01*
X20900699Y-26248496D01*
X20900699Y-26748496D01*
X21550699Y-26748496D01*
X21550699Y-26700668D01*
X21550698Y-26700651D01*
X21544297Y-26641123D01*
X21544295Y-26641116D01*
X21494053Y-26506409D01*
X21494049Y-26506402D01*
X21407889Y-26391308D01*
X21407886Y-26391305D01*
X21292792Y-26305145D01*
X21292785Y-26305141D01*
X21158078Y-26254899D01*
X21158071Y-26254897D01*
X21098543Y-26248496D01*
X20900699Y-26248496D01*
X20400699Y-26248496D01*
X20202854Y-26248496D01*
X20143326Y-26254897D01*
X20143319Y-26254899D01*
X20008612Y-26305141D01*
X20008605Y-26305145D01*
X19893511Y-26391305D01*
X19850277Y-26449058D01*
X19794343Y-26490928D01*
X19724651Y-26495912D01*
X19663328Y-26462426D01*
X19651745Y-26449058D01*
X19626273Y-26415032D01*
X19608245Y-26390950D01*
X19608243Y-26390949D01*
X19608243Y-26390948D01*
X19493034Y-26304702D01*
X19493027Y-26304698D01*
X19358181Y-26254404D01*
X19358182Y-26254404D01*
X19298582Y-26247997D01*
X19298580Y-26247996D01*
X19298572Y-26247996D01*
X19298563Y-26247996D01*
X18402828Y-26247996D01*
X18402822Y-26247997D01*
X18343215Y-26254404D01*
X18222312Y-26299499D01*
X18152620Y-26304483D01*
X18135646Y-26299499D01*
X17997581Y-26248004D01*
X17997582Y-26248004D01*
X17937982Y-26241597D01*
X17937980Y-26241596D01*
X17937972Y-26241596D01*
X17937963Y-26241596D01*
X17042228Y-26241596D01*
X17042222Y-26241597D01*
X16982615Y-26248004D01*
X16847770Y-26298298D01*
X16847763Y-26298302D01*
X16732554Y-26384548D01*
X16689365Y-26442241D01*
X16633431Y-26484111D01*
X16563739Y-26489095D01*
X16502416Y-26455609D01*
X16490833Y-26442241D01*
X16452704Y-26391308D01*
X16447645Y-26384550D01*
X16447643Y-26384549D01*
X16447643Y-26384548D01*
X16332434Y-26298302D01*
X16332427Y-26298298D01*
X16197581Y-26248004D01*
X16197582Y-26248004D01*
X16137982Y-26241597D01*
X16137980Y-26241596D01*
X16137972Y-26241596D01*
X16137963Y-26241596D01*
X15242228Y-26241596D01*
X15242222Y-26241597D01*
X15182615Y-26248004D01*
X15047770Y-26298298D01*
X15047763Y-26298302D01*
X14932554Y-26384548D01*
X14932551Y-26384551D01*
X14846305Y-26499760D01*
X14846301Y-26499767D01*
X14796945Y-26632100D01*
X14796008Y-26634613D01*
X14789599Y-26694223D01*
X14789599Y-26694230D01*
X14789599Y-26694231D01*
X14789599Y-27289966D01*
X14789600Y-27289972D01*
X14796008Y-27349580D01*
X14805028Y-27373766D01*
X14810010Y-27443457D01*
X14805028Y-27460426D01*
X14796009Y-27484608D01*
X14796008Y-27484611D01*
X14796008Y-27484613D01*
X14789599Y-27544223D01*
X14789599Y-27544230D01*
X14789599Y-27544231D01*
X14789599Y-28039966D01*
X14789600Y-28039972D01*
X14796007Y-28099578D01*
X14814352Y-28148762D01*
X14819336Y-28218454D01*
X14814352Y-28235427D01*
X14796009Y-28284607D01*
X14796008Y-28284611D01*
X14796008Y-28284613D01*
X14789599Y-28344223D01*
X14789599Y-28344230D01*
X14789599Y-28344231D01*
X14789599Y-28839966D01*
X14789600Y-28839972D01*
X14796008Y-28899580D01*
X14805028Y-28923766D01*
X14810010Y-28993457D01*
X14805028Y-29010426D01*
X14796009Y-29034608D01*
X14796008Y-29034611D01*
X14796008Y-29034613D01*
X14789599Y-29094223D01*
X14789599Y-29094230D01*
X14789599Y-29094231D01*
X14789599Y-29689966D01*
X14789600Y-29689972D01*
X14796007Y-29749579D01*
X14846301Y-29884424D01*
X14846305Y-29884431D01*
X14930863Y-29997385D01*
X14955281Y-30062849D01*
X14940430Y-30131122D01*
X14930863Y-30146007D01*
X14846305Y-30258960D01*
X14846301Y-30258967D01*
X14805296Y-30368910D01*
X14796008Y-30393813D01*
X14789599Y-30453423D01*
X14789599Y-30453430D01*
X14789599Y-30453431D01*
X14789599Y-31049166D01*
X14789600Y-31049172D01*
X14796008Y-31108780D01*
X14805028Y-31132966D01*
X14810010Y-31202657D01*
X14805028Y-31219626D01*
X14796009Y-31243808D01*
X14796008Y-31243811D01*
X14796008Y-31243813D01*
X14789599Y-31303423D01*
X14789599Y-31303430D01*
X14789599Y-31303431D01*
X14789599Y-31799166D01*
X14789600Y-31799172D01*
X14796007Y-31858778D01*
X14814352Y-31907962D01*
X14819336Y-31977654D01*
X14814352Y-31994627D01*
X14796009Y-32043807D01*
X14796008Y-32043811D01*
X14796008Y-32043813D01*
X14789599Y-32103423D01*
X14789599Y-32103430D01*
X14789599Y-32103431D01*
X14789599Y-32599166D01*
X14789600Y-32599172D01*
X14796008Y-32658780D01*
X14805028Y-32682966D01*
X14810010Y-32752657D01*
X14805028Y-32769626D01*
X14796009Y-32793808D01*
X14796008Y-32793811D01*
X14796008Y-32793813D01*
X14789599Y-32853423D01*
X14789599Y-32853430D01*
X14789599Y-32853431D01*
X14789599Y-33449166D01*
X14789600Y-33449172D01*
X14796837Y-33516492D01*
X14794424Y-33516751D01*
X14791316Y-33574570D01*
X14772759Y-33608787D01*
X14758255Y-33627689D01*
X14752903Y-33633792D01*
X14607195Y-33779500D01*
X14601093Y-33784851D01*
X14572819Y-33806547D01*
X14491979Y-33911900D01*
X14476563Y-33931989D01*
X14416055Y-34078069D01*
X14416054Y-34078071D01*
X14395417Y-34234830D01*
X14395417Y-34234831D01*
X14400068Y-34270158D01*
X14400599Y-34278260D01*
X14400599Y-41108331D01*
X14400068Y-41116433D01*
X14395417Y-41151759D01*
X14395417Y-41151760D01*
X14408188Y-41248764D01*
X14416054Y-41308520D01*
X14416055Y-41308521D01*
X14427945Y-41337227D01*
X14435413Y-41406696D01*
X14404137Y-41469175D01*
X14363820Y-41497957D01*
X14324317Y-41515545D01*
X14314031Y-41523018D01*
X14248224Y-41546495D01*
X14180171Y-41530667D01*
X14131478Y-41480559D01*
X14117150Y-41422697D01*
X14117150Y-25116600D01*
X19966501Y-25116600D01*
X19966501Y-25170752D01*
X19976556Y-25269183D01*
X20029406Y-25428672D01*
X20029408Y-25428677D01*
X20117614Y-25571680D01*
X20236419Y-25690485D01*
X20379422Y-25778691D01*
X20379427Y-25778693D01*
X20538916Y-25831542D01*
X20637356Y-25841599D01*
X21154000Y-25841599D01*
X21170636Y-25841599D01*
X21170652Y-25841598D01*
X21269083Y-25831543D01*
X21428572Y-25778693D01*
X21428577Y-25778691D01*
X21571580Y-25690485D01*
X21603466Y-25658600D01*
X21664789Y-25625115D01*
X21734481Y-25630099D01*
X21778828Y-25658600D01*
X21811108Y-25690880D01*
X21811112Y-25690883D01*
X21954204Y-25779144D01*
X21954207Y-25779145D01*
X21954213Y-25779149D01*
X22113815Y-25832036D01*
X22212326Y-25842100D01*
X22212331Y-25842100D01*
X22745669Y-25842100D01*
X22745674Y-25842100D01*
X22844185Y-25832036D01*
X23003787Y-25779149D01*
X23123766Y-25705144D01*
X23191157Y-25686704D01*
X23253011Y-25704565D01*
X23386194Y-25785078D01*
X23548604Y-25835686D01*
X23619184Y-25842100D01*
X23619187Y-25842100D01*
X24132413Y-25842100D01*
X24132416Y-25842100D01*
X24202996Y-25835686D01*
X24365406Y-25785078D01*
X24510985Y-25697072D01*
X24560943Y-25647114D01*
X24613119Y-25594939D01*
X24674442Y-25561454D01*
X24744134Y-25566438D01*
X24788481Y-25594939D01*
X24890611Y-25697069D01*
X24890613Y-25697070D01*
X24890615Y-25697072D01*
X25036194Y-25785078D01*
X25198604Y-25835686D01*
X25269184Y-25842100D01*
X25269187Y-25842100D01*
X25782413Y-25842100D01*
X25782416Y-25842100D01*
X25852996Y-25835686D01*
X26015406Y-25785078D01*
X26015410Y-25785075D01*
X26020158Y-25782939D01*
X26089369Y-25773372D01*
X26109372Y-25778081D01*
X26110794Y-25778542D01*
X26110797Y-25778544D01*
X26295954Y-25817900D01*
X26295955Y-25817900D01*
X26485244Y-25817900D01*
X26485246Y-25817900D01*
X26670403Y-25778544D01*
X26843330Y-25701551D01*
X26996471Y-25590288D01*
X27123133Y-25449616D01*
X27217779Y-25285684D01*
X27276274Y-25105656D01*
X27296060Y-24917400D01*
X27276274Y-24729144D01*
X27217779Y-24549116D01*
X27123133Y-24385184D01*
X26996471Y-24244512D01*
X26996470Y-24244511D01*
X26843334Y-24133251D01*
X26843329Y-24133248D01*
X26670407Y-24056257D01*
X26670402Y-24056255D01*
X26517205Y-24023693D01*
X26485246Y-24016900D01*
X26295954Y-24016900D01*
X26295952Y-24016900D01*
X26220525Y-24032931D01*
X26150858Y-24027613D01*
X26130596Y-24017757D01*
X26015406Y-23948122D01*
X25852996Y-23897514D01*
X25852994Y-23897513D01*
X25852992Y-23897513D01*
X25803578Y-23893023D01*
X25782416Y-23891100D01*
X25269184Y-23891100D01*
X25249945Y-23892848D01*
X25198607Y-23897513D01*
X25036193Y-23948122D01*
X24890611Y-24036130D01*
X24890610Y-24036131D01*
X24788481Y-24138261D01*
X24727158Y-24171746D01*
X24657466Y-24166762D01*
X24613119Y-24138261D01*
X24510988Y-24036130D01*
X24505696Y-24032931D01*
X24365406Y-23948122D01*
X24202996Y-23897514D01*
X24202994Y-23897513D01*
X24202992Y-23897513D01*
X24153578Y-23893023D01*
X24132416Y-23891100D01*
X23619184Y-23891100D01*
X23599945Y-23892848D01*
X23548607Y-23897513D01*
X23386191Y-23948123D01*
X23253011Y-24028633D01*
X23185457Y-24046469D01*
X23123765Y-24028054D01*
X23003795Y-23954055D01*
X23003789Y-23954052D01*
X23003787Y-23954051D01*
X22844185Y-23901164D01*
X22844183Y-23901163D01*
X22745681Y-23891100D01*
X22745674Y-23891100D01*
X22212326Y-23891100D01*
X22212318Y-23891100D01*
X22113816Y-23901163D01*
X22113815Y-23901164D01*
X22034719Y-23927373D01*
X21954215Y-23954050D01*
X21954204Y-23954055D01*
X21811112Y-24042316D01*
X21811107Y-24042319D01*
X21778827Y-24074600D01*
X21717503Y-24108085D01*
X21647812Y-24103099D01*
X21603467Y-24074600D01*
X21571580Y-24042714D01*
X21428577Y-23954508D01*
X21428572Y-23954506D01*
X21269083Y-23901657D01*
X21170650Y-23891600D01*
X21154000Y-23891600D01*
X21154000Y-25841599D01*
X20637356Y-25841599D01*
X20654000Y-25841598D01*
X20654000Y-25116600D01*
X19966501Y-25116600D01*
X14117150Y-25116600D01*
X14117150Y-24616600D01*
X19966500Y-24616600D01*
X20654000Y-24616600D01*
X20654000Y-23891599D01*
X20637356Y-23891600D01*
X20538915Y-23901657D01*
X20379427Y-23954506D01*
X20379422Y-23954508D01*
X20236419Y-24042714D01*
X20117614Y-24161519D01*
X20029408Y-24304522D01*
X20029406Y-24304527D01*
X19976557Y-24464016D01*
X19966500Y-24562449D01*
X19966500Y-24616600D01*
X14117150Y-24616600D01*
X14117150Y-23678495D01*
X14136835Y-23611456D01*
X14189639Y-23565701D01*
X14241150Y-23554495D01*
X30106589Y-23554495D01*
X30173628Y-23574180D01*
G37*
%TD.AperFunction*%
%TA.AperFunction,Conductor*%
G36*
X30536702Y-39894383D02*
G01*
X30543180Y-39900415D01*
X30851080Y-40208315D01*
X30884565Y-40269638D01*
X30879581Y-40339330D01*
X30837709Y-40395263D01*
X30772245Y-40419680D01*
X30763399Y-40419996D01*
X30434941Y-40419996D01*
X30367902Y-40400311D01*
X30322147Y-40347507D01*
X30312203Y-40278349D01*
X30318760Y-40252661D01*
X30325096Y-40235671D01*
X30325097Y-40235668D01*
X30331498Y-40176140D01*
X30331499Y-40176123D01*
X30331499Y-39988096D01*
X30351184Y-39921057D01*
X30403988Y-39875302D01*
X30473146Y-39865358D01*
X30536702Y-39894383D01*
G37*
%TD.AperFunction*%
%TA.AperFunction,Conductor*%
G36*
X41978762Y-36660433D02*
G01*
X42023536Y-36663621D01*
X42067923Y-36692136D01*
X42583754Y-37207966D01*
X42617239Y-37269289D01*
X42612255Y-37338980D01*
X42593350Y-37372544D01*
X42590594Y-37376030D01*
X42590589Y-37376037D01*
X42590587Y-37376040D01*
X42545044Y-37449877D01*
X42498486Y-37525359D01*
X42498484Y-37525364D01*
X42473327Y-37601283D01*
X42443300Y-37691899D01*
X42443300Y-37691900D01*
X42443299Y-37691900D01*
X42432799Y-37794679D01*
X42432799Y-38544697D01*
X42432800Y-38544715D01*
X42443299Y-38647492D01*
X42443300Y-38647495D01*
X42494218Y-38801154D01*
X42498485Y-38814030D01*
X42559039Y-38912205D01*
X42577479Y-38979596D01*
X42556556Y-39046259D01*
X42502914Y-39091029D01*
X42453500Y-39101300D01*
X42378227Y-39101300D01*
X42311188Y-39081615D01*
X42305342Y-39077618D01*
X42184934Y-38990136D01*
X42184929Y-38990133D01*
X42012007Y-38913142D01*
X42012002Y-38913140D01*
X41929051Y-38895509D01*
X41867569Y-38862317D01*
X41833793Y-38801154D01*
X41838445Y-38731439D01*
X41855567Y-38699906D01*
X41863381Y-38689469D01*
X41871196Y-38679029D01*
X41921491Y-38544181D01*
X41927900Y-38484571D01*
X41927899Y-38109426D01*
X41927898Y-38109423D01*
X41927898Y-38109410D01*
X41922613Y-38060256D01*
X41922613Y-38033744D01*
X41927900Y-37984572D01*
X41927899Y-37609427D01*
X41927898Y-37609424D01*
X41927898Y-37609411D01*
X41922613Y-37560257D01*
X41922613Y-37533745D01*
X41923514Y-37525364D01*
X41927900Y-37484573D01*
X41927899Y-37109428D01*
X41922360Y-37057900D01*
X41922361Y-37031396D01*
X41927399Y-36984539D01*
X41927400Y-36984525D01*
X41927400Y-36936698D01*
X41918199Y-36927497D01*
X41882493Y-36917013D01*
X41850265Y-36887008D01*
X41838513Y-36871309D01*
X41814096Y-36805844D01*
X41828948Y-36737572D01*
X41838514Y-36722687D01*
X41850268Y-36706986D01*
X41906202Y-36665116D01*
X41949534Y-36657298D01*
X41978762Y-36657298D01*
X41978762Y-36660433D01*
G37*
%TD.AperFunction*%
%TA.AperFunction,Conductor*%
G36*
X35292449Y-35705250D02*
G01*
X36244097Y-36656899D01*
X37188481Y-37601283D01*
X37198306Y-37613546D01*
X37198527Y-37613364D01*
X37203498Y-37619373D01*
X37229501Y-37643790D01*
X37253919Y-37666721D01*
X37274813Y-37687615D01*
X37280295Y-37691868D01*
X37284727Y-37695652D01*
X37318702Y-37727557D01*
X37336260Y-37737209D01*
X37352519Y-37747890D01*
X37368348Y-37760168D01*
X37411122Y-37778677D01*
X37416340Y-37781233D01*
X37457192Y-37803692D01*
X37476600Y-37808675D01*
X37495001Y-37814975D01*
X37513388Y-37822932D01*
X37556772Y-37829803D01*
X37559403Y-37830220D01*
X37565123Y-37831404D01*
X37610265Y-37842995D01*
X37630300Y-37842995D01*
X37649698Y-37844521D01*
X37669478Y-37847654D01*
X37669479Y-37847655D01*
X37669479Y-37847654D01*
X37669480Y-37847655D01*
X37715868Y-37843270D01*
X37721706Y-37842995D01*
X37777809Y-37842995D01*
X37844848Y-37862680D01*
X37890603Y-37915484D01*
X37900081Y-37981404D01*
X37900806Y-37981481D01*
X37900504Y-37984347D01*
X37900547Y-37984642D01*
X37900368Y-37985648D01*
X37900127Y-37987940D01*
X37900126Y-37987944D01*
X37880340Y-38176200D01*
X37900126Y-38364456D01*
X37900127Y-38364459D01*
X37958618Y-38544477D01*
X37958621Y-38544484D01*
X37981378Y-38583900D01*
X37997851Y-38651800D01*
X37974998Y-38717827D01*
X37920077Y-38761018D01*
X37873991Y-38769900D01*
X34674764Y-38769900D01*
X34607725Y-38750215D01*
X34561970Y-38697411D01*
X34552026Y-38628253D01*
X34558582Y-38602566D01*
X34580397Y-38544076D01*
X34580398Y-38544072D01*
X34586799Y-38484544D01*
X34586800Y-38484527D01*
X34586800Y-38436700D01*
X34585426Y-38436700D01*
X34518387Y-38417015D01*
X34472632Y-38364211D01*
X34462688Y-38295053D01*
X34486157Y-38238391D01*
X34509667Y-38206987D01*
X34565599Y-38165118D01*
X34581928Y-38162171D01*
X34586800Y-38157300D01*
X34586800Y-38109472D01*
X34586799Y-38109455D01*
X34581761Y-38062598D01*
X34581761Y-38036086D01*
X34583490Y-38020013D01*
X34587300Y-37984572D01*
X34587299Y-37609427D01*
X34587298Y-37609424D01*
X34587298Y-37609411D01*
X34582013Y-37560257D01*
X34582013Y-37533745D01*
X34582914Y-37525364D01*
X34587300Y-37484573D01*
X34587299Y-37109428D01*
X34581760Y-37057900D01*
X34581761Y-37031396D01*
X34586799Y-36984539D01*
X34586800Y-36984525D01*
X34586800Y-36936698D01*
X34577599Y-36927497D01*
X34541893Y-36917013D01*
X34509665Y-36887008D01*
X34497913Y-36871309D01*
X34473496Y-36805844D01*
X34488348Y-36737572D01*
X34497914Y-36722687D01*
X34509668Y-36706986D01*
X34565602Y-36665116D01*
X34581927Y-36662170D01*
X34586800Y-36657298D01*
X34586800Y-36609470D01*
X34586799Y-36609456D01*
X34581761Y-36562600D01*
X34581761Y-36536087D01*
X34584956Y-36506376D01*
X34587300Y-36484572D01*
X34587299Y-36135915D01*
X34606983Y-36068877D01*
X34659787Y-36023122D01*
X34672280Y-36018215D01*
X34780033Y-35982510D01*
X34929355Y-35890408D01*
X35058494Y-35761267D01*
X35072119Y-35749493D01*
X35091380Y-35735155D01*
X35109779Y-35713227D01*
X35167949Y-35674525D01*
X35237810Y-35673415D01*
X35292449Y-35705250D01*
G37*
%TD.AperFunction*%
%TA.AperFunction,Conductor*%
G36*
X24885039Y-35917881D02*
G01*
X24910150Y-35939224D01*
X24984122Y-36021379D01*
X24984129Y-36021385D01*
X25137264Y-36132644D01*
X25137269Y-36132647D01*
X25310191Y-36209638D01*
X25310196Y-36209640D01*
X25495353Y-36248996D01*
X25495354Y-36248996D01*
X25564999Y-36248996D01*
X25632038Y-36268681D01*
X25677793Y-36321485D01*
X25688999Y-36372996D01*
X25688999Y-37561397D01*
X25669314Y-37628436D01*
X25616510Y-37674191D01*
X25564999Y-37685397D01*
X24597693Y-37685397D01*
X24530654Y-37665712D01*
X24484899Y-37612908D01*
X24474404Y-37574655D01*
X24473876Y-37569742D01*
X24472813Y-37559854D01*
X24472813Y-37533346D01*
X24473671Y-37525364D01*
X24478100Y-37484174D01*
X24478099Y-37109029D01*
X24472560Y-37057501D01*
X24472561Y-37030997D01*
X24477599Y-36984140D01*
X24477600Y-36984126D01*
X24477600Y-36936299D01*
X24468399Y-36927098D01*
X24432693Y-36916614D01*
X24400465Y-36886609D01*
X24388713Y-36870910D01*
X24364296Y-36805445D01*
X24379148Y-36737173D01*
X24388714Y-36722288D01*
X24400468Y-36706587D01*
X24456402Y-36664717D01*
X24472727Y-36661771D01*
X24477600Y-36656899D01*
X24477600Y-36609071D01*
X24477599Y-36609057D01*
X24472561Y-36562201D01*
X24472561Y-36535688D01*
X24478099Y-36484180D01*
X24478100Y-36484173D01*
X24478099Y-36109028D01*
X24478098Y-36109025D01*
X24478098Y-36109012D01*
X24472813Y-36059859D01*
X24472813Y-36033346D01*
X24475438Y-36008936D01*
X24502179Y-35944386D01*
X24559573Y-35904540D01*
X24598727Y-35898196D01*
X24818000Y-35898196D01*
X24885039Y-35917881D01*
G37*
%TD.AperFunction*%
%TA.AperFunction,Conductor*%
G36*
X29088853Y-27456080D02*
G01*
X29134608Y-27508884D01*
X29145103Y-27573647D01*
X29141300Y-27609026D01*
X29141300Y-27609029D01*
X29141300Y-27609032D01*
X29141300Y-27984168D01*
X29141301Y-27984175D01*
X29146839Y-28035693D01*
X29146839Y-28062200D01*
X29141800Y-28109070D01*
X29141800Y-28156901D01*
X29151000Y-28166101D01*
X29186707Y-28176586D01*
X29218936Y-28206592D01*
X29230687Y-28222290D01*
X29255103Y-28287755D01*
X29240250Y-28356028D01*
X29230690Y-28370904D01*
X29218937Y-28386606D01*
X29163006Y-28428480D01*
X29146673Y-28431427D01*
X29141800Y-28436301D01*
X29141800Y-28484131D01*
X29146839Y-28531002D01*
X29146839Y-28557507D01*
X29141300Y-28609027D01*
X29141300Y-28609030D01*
X29141300Y-28609033D01*
X29141300Y-28984169D01*
X29141301Y-28984176D01*
X29146587Y-29033346D01*
X29146587Y-29059851D01*
X29141300Y-29109026D01*
X29141300Y-29109028D01*
X29141300Y-29109032D01*
X29141300Y-29484168D01*
X29141301Y-29484175D01*
X29146587Y-29533346D01*
X29146587Y-29559852D01*
X29141300Y-29609030D01*
X29141300Y-29984169D01*
X29141301Y-29984176D01*
X29146587Y-30033346D01*
X29146587Y-30059851D01*
X29141300Y-30109026D01*
X29141300Y-30109031D01*
X29141300Y-30109032D01*
X29141300Y-30484168D01*
X29141301Y-30484178D01*
X29146587Y-30533350D01*
X29146587Y-30559853D01*
X29141300Y-30609028D01*
X29141300Y-30609031D01*
X29141300Y-30609034D01*
X29141300Y-30984170D01*
X29141301Y-30984177D01*
X29146839Y-31035692D01*
X29146839Y-31062199D01*
X29141800Y-31109069D01*
X29141800Y-31156900D01*
X29151001Y-31166101D01*
X29186705Y-31176585D01*
X29218931Y-31206587D01*
X29228692Y-31219626D01*
X29230686Y-31222289D01*
X29255103Y-31287753D01*
X29240252Y-31356026D01*
X29230686Y-31370911D01*
X29218933Y-31386611D01*
X29162999Y-31428482D01*
X29146672Y-31431427D01*
X29141800Y-31436300D01*
X29141800Y-31484130D01*
X29146839Y-31531001D01*
X29146839Y-31557506D01*
X29141300Y-31609026D01*
X29141300Y-31609029D01*
X29141300Y-31609032D01*
X29141300Y-31984168D01*
X29141301Y-31984175D01*
X29146587Y-32033346D01*
X29146587Y-32059852D01*
X29141300Y-32109030D01*
X29141300Y-32484169D01*
X29141301Y-32484176D01*
X29146839Y-32535693D01*
X29146839Y-32562201D01*
X29141800Y-32609071D01*
X29141800Y-32656900D01*
X29151000Y-32666100D01*
X29186706Y-32676585D01*
X29218935Y-32706591D01*
X29227080Y-32717472D01*
X29230689Y-32722293D01*
X29255102Y-32787759D01*
X29240247Y-32856031D01*
X29230687Y-32870907D01*
X29218934Y-32886608D01*
X29163002Y-32928481D01*
X29146672Y-32931427D01*
X29141800Y-32936300D01*
X29141800Y-32984128D01*
X29146839Y-33030998D01*
X29146839Y-33057506D01*
X29141300Y-33109025D01*
X29141300Y-33109028D01*
X29141300Y-33109030D01*
X29141300Y-33484167D01*
X29141301Y-33484174D01*
X29146839Y-33535692D01*
X29146839Y-33562199D01*
X29141800Y-33609069D01*
X29141800Y-33656900D01*
X29151000Y-33666100D01*
X29186707Y-33676585D01*
X29218936Y-33706591D01*
X29230687Y-33722289D01*
X29255103Y-33787754D01*
X29240250Y-33856027D01*
X29230690Y-33870903D01*
X29218937Y-33886605D01*
X29163006Y-33928479D01*
X29146673Y-33931426D01*
X29141800Y-33936300D01*
X29141800Y-33984130D01*
X29146839Y-34031001D01*
X29146839Y-34057506D01*
X29141300Y-34109026D01*
X29141300Y-34109029D01*
X29141300Y-34109032D01*
X29141300Y-34484168D01*
X29141301Y-34484178D01*
X29146587Y-34533350D01*
X29146587Y-34559853D01*
X29141300Y-34609028D01*
X29141300Y-34609033D01*
X29141300Y-34609034D01*
X29141300Y-34984170D01*
X29141301Y-34984177D01*
X29146587Y-35033347D01*
X29146587Y-35059852D01*
X29141300Y-35109027D01*
X29141300Y-35109032D01*
X29141300Y-35109033D01*
X29141300Y-35484169D01*
X29141301Y-35484176D01*
X29146587Y-35533346D01*
X29146587Y-35559851D01*
X29141300Y-35609026D01*
X29141300Y-35609031D01*
X29141300Y-35609032D01*
X29141300Y-35984168D01*
X29141301Y-35984175D01*
X29146587Y-36033346D01*
X29146587Y-36059852D01*
X29141300Y-36109030D01*
X29141300Y-36484169D01*
X29141301Y-36484176D01*
X29146839Y-36535691D01*
X29146839Y-36562198D01*
X29141800Y-36609068D01*
X29141800Y-36656899D01*
X29151001Y-36666100D01*
X29186705Y-36676584D01*
X29218935Y-36706591D01*
X29230688Y-36722292D01*
X29255103Y-36787757D01*
X29240250Y-36856030D01*
X29230690Y-36870906D01*
X29218939Y-36886605D01*
X29163007Y-36928479D01*
X29146672Y-36931426D01*
X29141800Y-36936299D01*
X29141800Y-36984129D01*
X29146839Y-37031001D01*
X29146839Y-37057508D01*
X29141300Y-37109031D01*
X29141300Y-37456948D01*
X29121615Y-37523987D01*
X29068811Y-37569742D01*
X28999653Y-37579686D01*
X28936097Y-37550661D01*
X28929619Y-37544629D01*
X28874695Y-37489705D01*
X28734669Y-37349678D01*
X28701184Y-37288355D01*
X28698350Y-37261997D01*
X28698350Y-27560395D01*
X28718035Y-27493356D01*
X28770839Y-27447601D01*
X28822350Y-27436395D01*
X29021814Y-27436395D01*
X29088853Y-27456080D01*
G37*
%TD.AperFunction*%
%TA.AperFunction,Conductor*%
G36*
X52209989Y-23574180D02*
G01*
X52255744Y-23626984D01*
X52266950Y-23678495D01*
X52266950Y-32038080D01*
X52247265Y-32105119D01*
X52194461Y-32150874D01*
X52125303Y-32160818D01*
X52061747Y-32131793D01*
X52055269Y-32125761D01*
X52003631Y-32074123D01*
X52003627Y-32074120D01*
X51859391Y-31985153D01*
X51859380Y-31985148D01*
X51698505Y-31931840D01*
X51599221Y-31921696D01*
X51550899Y-31921696D01*
X51550899Y-32997696D01*
X51531214Y-33064735D01*
X51478410Y-33110490D01*
X51426899Y-33121696D01*
X50340902Y-33121696D01*
X50273863Y-33102011D01*
X50248817Y-33078971D01*
X50248528Y-33079261D01*
X50242785Y-33073518D01*
X50242782Y-33073516D01*
X50242781Y-33073514D01*
X50117340Y-32977260D01*
X49971261Y-32916752D01*
X49971259Y-32916751D01*
X49853860Y-32901296D01*
X49575135Y-32901296D01*
X49457745Y-32916749D01*
X49457733Y-32916753D01*
X49436949Y-32925362D01*
X49367480Y-32932829D01*
X49342049Y-32925362D01*
X49321264Y-32916753D01*
X49321259Y-32916751D01*
X49203860Y-32901296D01*
X48925135Y-32901296D01*
X48807745Y-32916749D01*
X48807733Y-32916753D01*
X48786949Y-32925362D01*
X48717480Y-32932829D01*
X48692049Y-32925362D01*
X48671264Y-32916753D01*
X48671259Y-32916751D01*
X48553860Y-32901296D01*
X48275135Y-32901296D01*
X48157745Y-32916749D01*
X48157733Y-32916753D01*
X48136949Y-32925362D01*
X48067480Y-32932829D01*
X48042049Y-32925362D01*
X48021264Y-32916753D01*
X48021259Y-32916751D01*
X47903860Y-32901296D01*
X47625135Y-32901296D01*
X47507745Y-32916749D01*
X47507733Y-32916753D01*
X47486949Y-32925362D01*
X47417480Y-32932829D01*
X47392049Y-32925362D01*
X47371264Y-32916753D01*
X47371259Y-32916751D01*
X47253860Y-32901296D01*
X46975135Y-32901296D01*
X46857745Y-32916749D01*
X46857733Y-32916753D01*
X46836949Y-32925362D01*
X46767480Y-32932829D01*
X46742049Y-32925362D01*
X46721264Y-32916753D01*
X46721259Y-32916751D01*
X46603860Y-32901296D01*
X46325135Y-32901296D01*
X46207745Y-32916749D01*
X46207733Y-32916753D01*
X46186949Y-32925362D01*
X46117480Y-32932829D01*
X46092049Y-32925362D01*
X46071264Y-32916753D01*
X46071259Y-32916751D01*
X45953860Y-32901296D01*
X45675135Y-32901296D01*
X45557745Y-32916749D01*
X45557736Y-32916752D01*
X45411659Y-32977259D01*
X45286217Y-33073514D01*
X45189962Y-33198956D01*
X45129455Y-33345033D01*
X45129454Y-33345035D01*
X45114000Y-33462425D01*
X45113999Y-33462441D01*
X45113999Y-34180346D01*
X45094314Y-34247385D01*
X45041510Y-34293140D01*
X44972352Y-34303084D01*
X44924902Y-34285885D01*
X44802423Y-34210339D01*
X44802418Y-34210337D01*
X44635996Y-34155190D01*
X44635989Y-34155189D01*
X44533285Y-34144696D01*
X44083299Y-34144696D01*
X44083299Y-35345696D01*
X44063614Y-35412735D01*
X44010810Y-35458490D01*
X43959299Y-35469696D01*
X43707299Y-35469696D01*
X43640260Y-35450011D01*
X43594505Y-35397207D01*
X43583299Y-35345696D01*
X43583299Y-34144696D01*
X43278300Y-34144696D01*
X43211261Y-34125011D01*
X43165506Y-34072207D01*
X43154300Y-34020696D01*
X43154300Y-33762428D01*
X43173985Y-33695389D01*
X43190615Y-33674751D01*
X43437041Y-33428324D01*
X43450660Y-33416554D01*
X43469930Y-33402210D01*
X43503523Y-33362174D01*
X43507157Y-33358208D01*
X43512990Y-33352377D01*
X43533327Y-33326655D01*
X43582702Y-33267814D01*
X43582704Y-33267809D01*
X43586672Y-33261779D01*
X43586723Y-33261812D01*
X43590769Y-33255460D01*
X43590717Y-33255428D01*
X43594509Y-33249279D01*
X43594511Y-33249277D01*
X43626969Y-33179669D01*
X43661440Y-33111033D01*
X43661443Y-33111017D01*
X43663910Y-33104244D01*
X43663968Y-33104265D01*
X43666443Y-33097146D01*
X43666385Y-33097127D01*
X43668656Y-33090272D01*
X43670990Y-33078971D01*
X43684184Y-33015067D01*
X43701900Y-32940321D01*
X43701900Y-32940320D01*
X43702739Y-32933148D01*
X43702797Y-32933154D01*
X43703564Y-32925656D01*
X43703504Y-32925651D01*
X43704133Y-32918460D01*
X43703299Y-32889807D01*
X43701900Y-32841702D01*
X43701900Y-32621696D01*
X50325899Y-32621696D01*
X51050899Y-32621696D01*
X51050899Y-31921696D01*
X51050898Y-31921695D01*
X51002592Y-31921696D01*
X51002574Y-31921697D01*
X50903291Y-31931840D01*
X50742417Y-31985148D01*
X50742406Y-31985153D01*
X50598170Y-32074120D01*
X50598166Y-32074123D01*
X50478326Y-32193963D01*
X50478323Y-32193967D01*
X50389356Y-32338203D01*
X50389351Y-32338214D01*
X50336043Y-32499089D01*
X50325899Y-32598373D01*
X50325899Y-32621696D01*
X43701900Y-32621696D01*
X43701900Y-30720302D01*
X43703209Y-30702332D01*
X43704361Y-30694464D01*
X43706689Y-30678574D01*
X43702135Y-30626528D01*
X43701900Y-30621125D01*
X43701900Y-30612894D01*
X43701900Y-30612888D01*
X43698093Y-30580321D01*
X43693984Y-30533350D01*
X43691399Y-30503798D01*
X43689939Y-30496726D01*
X43689997Y-30496713D01*
X43688365Y-30489354D01*
X43688306Y-30489369D01*
X43686642Y-30482350D01*
X43686641Y-30482342D01*
X43660374Y-30410173D01*
X43636214Y-30337263D01*
X43636209Y-30337256D01*
X43633160Y-30330715D01*
X43633215Y-30330688D01*
X43629933Y-30323910D01*
X43629880Y-30323937D01*
X43626638Y-30317483D01*
X43626637Y-30317480D01*
X43613180Y-30297020D01*
X43592789Y-30230194D01*
X43611763Y-30162951D01*
X43624627Y-30145917D01*
X43677443Y-30087261D01*
X43772089Y-29923329D01*
X43830584Y-29743301D01*
X43850370Y-29555045D01*
X43830584Y-29366789D01*
X43772089Y-29186761D01*
X43677443Y-29022829D01*
X43550781Y-28882157D01*
X43550780Y-28882156D01*
X43397644Y-28770896D01*
X43397639Y-28770893D01*
X43224717Y-28693902D01*
X43224712Y-28693900D01*
X43078911Y-28662910D01*
X43039556Y-28654545D01*
X42850264Y-28654545D01*
X42817807Y-28661443D01*
X42665107Y-28693900D01*
X42665102Y-28693902D01*
X42492180Y-28770893D01*
X42492175Y-28770896D01*
X42339039Y-28882156D01*
X42212376Y-29022830D01*
X42195221Y-29052544D01*
X42162608Y-29109032D01*
X42162338Y-29109499D01*
X42111771Y-29157714D01*
X42054951Y-29171499D01*
X42045956Y-29171499D01*
X41978917Y-29151814D01*
X41933162Y-29099010D01*
X41922676Y-29060840D01*
X41922621Y-29060336D01*
X41922613Y-29033744D01*
X41922656Y-29033345D01*
X41927900Y-28984572D01*
X41927899Y-28609427D01*
X41922360Y-28557899D01*
X41922361Y-28531393D01*
X41927399Y-28484539D01*
X41927400Y-28484527D01*
X41927400Y-28436700D01*
X41918198Y-28427498D01*
X41882495Y-28417015D01*
X41850266Y-28387009D01*
X41838512Y-28371307D01*
X41814096Y-28305842D01*
X41828949Y-28237569D01*
X41838515Y-28222685D01*
X41850267Y-28206987D01*
X41906201Y-28165117D01*
X41922528Y-28162171D01*
X41927400Y-28157300D01*
X41927400Y-28109472D01*
X41927399Y-28109457D01*
X41922361Y-28062601D01*
X41922361Y-28036088D01*
X41927900Y-27984571D01*
X41927899Y-27609426D01*
X41922360Y-27557898D01*
X41922361Y-27531392D01*
X41927399Y-27484538D01*
X41927400Y-27484526D01*
X41927400Y-27436699D01*
X41918198Y-27427497D01*
X41882495Y-27417014D01*
X41850266Y-27387008D01*
X41838512Y-27371306D01*
X41814096Y-27305841D01*
X41828949Y-27237568D01*
X41838509Y-27222692D01*
X41850267Y-27206985D01*
X41906201Y-27165116D01*
X41922528Y-27162170D01*
X41927400Y-27157299D01*
X41927400Y-27109471D01*
X41927399Y-27109454D01*
X41922361Y-27062597D01*
X41922361Y-27036085D01*
X41922365Y-27036056D01*
X41927900Y-26984571D01*
X41927899Y-26632099D01*
X41947583Y-26565061D01*
X42000387Y-26519306D01*
X42051899Y-26508100D01*
X43722790Y-26508100D01*
X43789829Y-26527785D01*
X43835584Y-26580589D01*
X43845528Y-26649747D01*
X43844079Y-26657885D01*
X43843727Y-26659540D01*
X43843726Y-26659544D01*
X43823940Y-26847800D01*
X43843726Y-27036056D01*
X43843727Y-27036059D01*
X43902218Y-27216077D01*
X43902221Y-27216084D01*
X43996867Y-27380016D01*
X44098919Y-27493356D01*
X44123529Y-27520688D01*
X44276665Y-27631948D01*
X44276670Y-27631951D01*
X44449592Y-27708942D01*
X44449597Y-27708944D01*
X44634754Y-27748300D01*
X44634755Y-27748300D01*
X44824044Y-27748300D01*
X44824046Y-27748300D01*
X44964719Y-27718399D01*
X45034385Y-27723715D01*
X45090119Y-27765852D01*
X45114224Y-27831432D01*
X45114499Y-27839689D01*
X45114499Y-28214296D01*
X45639999Y-28214296D01*
X45707038Y-28233981D01*
X45752793Y-28286785D01*
X45763999Y-28338296D01*
X45763999Y-28490296D01*
X45744314Y-28557335D01*
X45691510Y-28603090D01*
X45639999Y-28614296D01*
X45114500Y-28614296D01*
X45114500Y-29091120D01*
X45129941Y-29208424D01*
X45129943Y-29208429D01*
X45190398Y-29354381D01*
X45286574Y-29479720D01*
X45411913Y-29575896D01*
X45557865Y-29636351D01*
X45557871Y-29636353D01*
X45614497Y-29643807D01*
X45614499Y-29643806D01*
X45614499Y-29426098D01*
X45634184Y-29359059D01*
X45686988Y-29313304D01*
X45756146Y-29303360D01*
X45819702Y-29332385D01*
X45836876Y-29350613D01*
X45839962Y-29354635D01*
X45839963Y-29354637D01*
X45849288Y-29366789D01*
X45895751Y-29427342D01*
X45907951Y-29448861D01*
X45908256Y-29448694D01*
X45912012Y-29455528D01*
X45939396Y-29493218D01*
X45942605Y-29498102D01*
X45966329Y-29538216D01*
X45978179Y-29550066D01*
X46011664Y-29611386D01*
X46014499Y-29637748D01*
X46014499Y-29643806D01*
X46042858Y-29668676D01*
X46080282Y-29727677D01*
X46085100Y-29761905D01*
X46085100Y-29903169D01*
X46065415Y-29970208D01*
X46053250Y-29986141D01*
X45931565Y-30121286D01*
X45836920Y-30285216D01*
X45836917Y-30285223D01*
X45778426Y-30465241D01*
X45778425Y-30465245D01*
X45758639Y-30653501D01*
X45778425Y-30841757D01*
X45778426Y-30841760D01*
X45836917Y-31021778D01*
X45836920Y-31021785D01*
X45931566Y-31185717D01*
X46039372Y-31305447D01*
X46058228Y-31326389D01*
X46211364Y-31437649D01*
X46211369Y-31437652D01*
X46384291Y-31514643D01*
X46384296Y-31514645D01*
X46569453Y-31554001D01*
X46569454Y-31554001D01*
X46758743Y-31554001D01*
X46758745Y-31554001D01*
X46943902Y-31514645D01*
X47116829Y-31437652D01*
X47269970Y-31326389D01*
X47396632Y-31185717D01*
X47491278Y-31021785D01*
X47549773Y-30841757D01*
X47569559Y-30653501D01*
X47549773Y-30465245D01*
X47491278Y-30285217D01*
X47420688Y-30162951D01*
X47396633Y-30121286D01*
X47396628Y-30121279D01*
X47367950Y-30089429D01*
X47337720Y-30026437D01*
X47336100Y-30006457D01*
X47336100Y-29751324D01*
X47355785Y-29684285D01*
X47408589Y-29638530D01*
X47477747Y-29628586D01*
X47507561Y-29636767D01*
X47507737Y-29636840D01*
X47625138Y-29652296D01*
X47903859Y-29652295D01*
X48021261Y-29636840D01*
X48021265Y-29636838D01*
X48027541Y-29636012D01*
X48096576Y-29646778D01*
X48148832Y-29693158D01*
X48167717Y-29760427D01*
X48167047Y-29771910D01*
X48160239Y-29836694D01*
X48160239Y-29836696D01*
X48180025Y-30024952D01*
X48180026Y-30024955D01*
X48238517Y-30204973D01*
X48238520Y-30204980D01*
X48333166Y-30368912D01*
X48435296Y-30482338D01*
X48459828Y-30509584D01*
X48612964Y-30620844D01*
X48612969Y-30620847D01*
X48785891Y-30697838D01*
X48785896Y-30697840D01*
X48971053Y-30737196D01*
X48971054Y-30737196D01*
X49160343Y-30737196D01*
X49160345Y-30737196D01*
X49345502Y-30697840D01*
X49518429Y-30620847D01*
X49671570Y-30509584D01*
X49798232Y-30368912D01*
X49892878Y-30204980D01*
X49951373Y-30024952D01*
X49971159Y-29836696D01*
X49960712Y-29737302D01*
X49973281Y-29668576D01*
X50021013Y-29617552D01*
X50036574Y-29609786D01*
X50117340Y-29576332D01*
X50242781Y-29480078D01*
X50339035Y-29354637D01*
X50399543Y-29208558D01*
X50414999Y-29091157D01*
X50414998Y-27737436D01*
X50414998Y-27737435D01*
X50414998Y-27737432D01*
X50399545Y-27620042D01*
X50399543Y-27620037D01*
X50399543Y-27620034D01*
X50339035Y-27473955D01*
X50242781Y-27348514D01*
X50117340Y-27252260D01*
X50090035Y-27240950D01*
X49971261Y-27191752D01*
X49971259Y-27191751D01*
X49853860Y-27176296D01*
X49575142Y-27176296D01*
X49495294Y-27186807D01*
X49426259Y-27176039D01*
X49374004Y-27129658D01*
X49355121Y-27062388D01*
X49361181Y-27025550D01*
X49374274Y-26985256D01*
X49394060Y-26797000D01*
X49374274Y-26608744D01*
X49315779Y-26428716D01*
X49221133Y-26264784D01*
X49094471Y-26124112D01*
X49094295Y-26123984D01*
X48941334Y-26012851D01*
X48941329Y-26012848D01*
X48768407Y-25935857D01*
X48768402Y-25935855D01*
X48622601Y-25904865D01*
X48583246Y-25896500D01*
X48393954Y-25896500D01*
X48361497Y-25903398D01*
X48208797Y-25935855D01*
X48208792Y-25935857D01*
X48035870Y-26012848D01*
X48035866Y-26012851D01*
X47882902Y-26123984D01*
X47817096Y-26147463D01*
X47749042Y-26131637D01*
X47722337Y-26111346D01*
X47109803Y-25498812D01*
X47099980Y-25486550D01*
X47099759Y-25486734D01*
X47094786Y-25480723D01*
X47074605Y-25461772D01*
X47044364Y-25433373D01*
X47033919Y-25422928D01*
X47023475Y-25412483D01*
X47017986Y-25408225D01*
X47013561Y-25404447D01*
X46979582Y-25372538D01*
X46979580Y-25372536D01*
X46979577Y-25372535D01*
X46962029Y-25362888D01*
X46945763Y-25352204D01*
X46929933Y-25339925D01*
X46887168Y-25321418D01*
X46881922Y-25318848D01*
X46841093Y-25296403D01*
X46841092Y-25296402D01*
X46821693Y-25291422D01*
X46803281Y-25285118D01*
X46784898Y-25277162D01*
X46784892Y-25277160D01*
X46738874Y-25269872D01*
X46733152Y-25268687D01*
X46688021Y-25257100D01*
X46688019Y-25257100D01*
X46667984Y-25257100D01*
X46648586Y-25255573D01*
X46641162Y-25254397D01*
X46628805Y-25252440D01*
X46628804Y-25252440D01*
X46582416Y-25256825D01*
X46576578Y-25257100D01*
X41408543Y-25257100D01*
X41392922Y-25255375D01*
X41392895Y-25255661D01*
X41385133Y-25254926D01*
X41315972Y-25257100D01*
X41286449Y-25257100D01*
X41279578Y-25257967D01*
X41273759Y-25258425D01*
X41227174Y-25259889D01*
X41227168Y-25259890D01*
X41207926Y-25265480D01*
X41188887Y-25269423D01*
X41169017Y-25271934D01*
X41169003Y-25271937D01*
X41125683Y-25289088D01*
X41120158Y-25290980D01*
X41075413Y-25303980D01*
X41075410Y-25303981D01*
X41058166Y-25314179D01*
X41040705Y-25322733D01*
X41022074Y-25330110D01*
X41022062Y-25330117D01*
X40984370Y-25357502D01*
X40979487Y-25360709D01*
X40939380Y-25384429D01*
X40925214Y-25398595D01*
X40910424Y-25411227D01*
X40894214Y-25423004D01*
X40894211Y-25423007D01*
X40864510Y-25458909D01*
X40860577Y-25463231D01*
X40203328Y-26120479D01*
X40142005Y-26153964D01*
X40115647Y-26156798D01*
X39703129Y-26156798D01*
X39703123Y-26156799D01*
X39643516Y-26163206D01*
X39508671Y-26213500D01*
X39508664Y-26213504D01*
X39393455Y-26299750D01*
X39393452Y-26299753D01*
X39307206Y-26414962D01*
X39307202Y-26414969D01*
X39257057Y-26549418D01*
X39256909Y-26549815D01*
X39250500Y-26609425D01*
X39250500Y-26609432D01*
X39250500Y-26609433D01*
X39250500Y-26984567D01*
X39250501Y-26984577D01*
X39256039Y-27036094D01*
X39256038Y-27062602D01*
X39254033Y-27081250D01*
X39227295Y-27145801D01*
X39169902Y-27185649D01*
X39130744Y-27191994D01*
X35893215Y-27191994D01*
X35866166Y-27189008D01*
X35823009Y-27179361D01*
X35814837Y-27179618D01*
X35791556Y-27178153D01*
X35783485Y-27176875D01*
X35783481Y-27176875D01*
X35726334Y-27182276D01*
X35722447Y-27182521D01*
X35665051Y-27184324D01*
X35665048Y-27184325D01*
X35657190Y-27186608D01*
X35634275Y-27190979D01*
X35626150Y-27191747D01*
X35626143Y-27191748D01*
X35616189Y-27195332D01*
X35569220Y-27201016D01*
X35569220Y-27202138D01*
X35443900Y-27202138D01*
X35376861Y-27182453D01*
X35331106Y-27129649D01*
X35319900Y-27078138D01*
X35319900Y-26173702D01*
X35321209Y-26155732D01*
X35323353Y-26141094D01*
X35324689Y-26131974D01*
X35323932Y-26123326D01*
X35320136Y-26079931D01*
X35319900Y-26074525D01*
X35319900Y-26066294D01*
X35319900Y-26066288D01*
X35316093Y-26033721D01*
X35309399Y-25957200D01*
X35309399Y-25957198D01*
X35307939Y-25950126D01*
X35307997Y-25950113D01*
X35306365Y-25942754D01*
X35306306Y-25942769D01*
X35304642Y-25935750D01*
X35304641Y-25935742D01*
X35278374Y-25863573D01*
X35254214Y-25790663D01*
X35254209Y-25790656D01*
X35251160Y-25784115D01*
X35251215Y-25784088D01*
X35247933Y-25777310D01*
X35247880Y-25777337D01*
X35244635Y-25770877D01*
X35202428Y-25706705D01*
X35196486Y-25697072D01*
X35162112Y-25641342D01*
X35162111Y-25641341D01*
X35162110Y-25641339D01*
X35157634Y-25635679D01*
X35157681Y-25635641D01*
X35152919Y-25629796D01*
X35152874Y-25629835D01*
X35148234Y-25624306D01*
X35148232Y-25624304D01*
X35148230Y-25624301D01*
X35117108Y-25594939D01*
X35092365Y-25571594D01*
X34414913Y-24894142D01*
X33738084Y-24217313D01*
X33735626Y-24214707D01*
X33693026Y-24166837D01*
X33693022Y-24166834D01*
X33640538Y-24130085D01*
X33637646Y-24127932D01*
X33612544Y-24108085D01*
X33587376Y-24088185D01*
X33587371Y-24088182D01*
X33583858Y-24085405D01*
X33555226Y-24053230D01*
X33511565Y-23982443D01*
X33511563Y-23982440D01*
X33387507Y-23858384D01*
X33387506Y-23858383D01*
X33266965Y-23784033D01*
X33220242Y-23732086D01*
X33209019Y-23663123D01*
X33236863Y-23599041D01*
X33294931Y-23560185D01*
X33332063Y-23554495D01*
X52142950Y-23554495D01*
X52209989Y-23574180D01*
G37*
%TD.AperFunction*%
%TA.AperFunction,Conductor*%
G36*
X24930780Y-30456881D02*
G01*
X24955890Y-30478223D01*
X24984127Y-30509583D01*
X24984134Y-30509589D01*
X25137264Y-30620844D01*
X25137269Y-30620847D01*
X25310191Y-30697838D01*
X25310196Y-30697840D01*
X25495353Y-30737196D01*
X25495354Y-30737196D01*
X25564999Y-30737196D01*
X25632038Y-30756881D01*
X25677793Y-30809685D01*
X25688999Y-30861196D01*
X25688999Y-34323996D01*
X25669314Y-34391035D01*
X25616510Y-34436790D01*
X25564999Y-34447996D01*
X25495353Y-34447996D01*
X25462896Y-34454894D01*
X25310196Y-34487351D01*
X25310191Y-34487353D01*
X25137269Y-34564344D01*
X25137264Y-34564347D01*
X24987010Y-34673514D01*
X24921204Y-34696994D01*
X24914125Y-34697196D01*
X24598962Y-34697196D01*
X24531923Y-34677511D01*
X24486168Y-34624707D01*
X24475673Y-34586452D01*
X24472813Y-34559853D01*
X24472813Y-34533346D01*
X24478100Y-34484172D01*
X24478099Y-34109027D01*
X24472560Y-34057499D01*
X24472561Y-34030993D01*
X24477599Y-33984139D01*
X24477600Y-33984127D01*
X24477600Y-33936300D01*
X24468398Y-33927098D01*
X24432695Y-33916615D01*
X24400467Y-33886611D01*
X24394156Y-33878181D01*
X24388713Y-33870910D01*
X24364297Y-33805447D01*
X24379148Y-33737174D01*
X24388714Y-33722289D01*
X24400467Y-33706589D01*
X24456401Y-33664718D01*
X24472727Y-33661772D01*
X24477600Y-33656900D01*
X24477600Y-33609072D01*
X24477599Y-33609058D01*
X24472561Y-33562202D01*
X24472561Y-33535689D01*
X24475455Y-33508779D01*
X24478100Y-33484174D01*
X24478099Y-33109029D01*
X24472560Y-33057501D01*
X24472561Y-33030996D01*
X24477599Y-32984141D01*
X24477600Y-32984127D01*
X24477600Y-32936300D01*
X24468399Y-32927099D01*
X24432693Y-32916615D01*
X24400467Y-32886613D01*
X24388711Y-32870908D01*
X24364295Y-32805447D01*
X24379146Y-32737174D01*
X24388705Y-32722300D01*
X24400470Y-32706583D01*
X24456405Y-32664716D01*
X24472728Y-32661771D01*
X24477600Y-32656900D01*
X24477600Y-32609072D01*
X24477599Y-32609058D01*
X24472561Y-32562202D01*
X24472561Y-32535689D01*
X24478099Y-32484180D01*
X24478100Y-32484173D01*
X24478099Y-32109028D01*
X24472812Y-32059845D01*
X24472813Y-32033342D01*
X24477995Y-31985153D01*
X24478100Y-31984172D01*
X24478099Y-31609027D01*
X24472560Y-31557499D01*
X24472561Y-31530993D01*
X24477599Y-31484139D01*
X24477600Y-31484127D01*
X24477600Y-31436300D01*
X24468398Y-31427098D01*
X24432695Y-31416615D01*
X24400467Y-31386611D01*
X24388714Y-31370911D01*
X24364297Y-31305447D01*
X24379148Y-31237174D01*
X24388714Y-31222289D01*
X24390708Y-31219626D01*
X24400467Y-31206588D01*
X24456401Y-31164718D01*
X24472727Y-31161772D01*
X24477600Y-31156900D01*
X24477600Y-31109072D01*
X24477599Y-31109058D01*
X24472561Y-31062202D01*
X24472561Y-31035689D01*
X24478099Y-30984181D01*
X24478100Y-30984174D01*
X24478099Y-30609029D01*
X24474382Y-30574449D01*
X24486789Y-30505690D01*
X24534400Y-30454553D01*
X24597672Y-30437196D01*
X24863741Y-30437196D01*
X24930780Y-30456881D01*
G37*
%TD.AperFunction*%
%TA.AperFunction,Conductor*%
G36*
X19838381Y-33681181D02*
G01*
X19849962Y-33694546D01*
X19893153Y-33752242D01*
X19926496Y-33777202D01*
X19968366Y-33833135D01*
X19973350Y-33902827D01*
X19939865Y-33964150D01*
X19926497Y-33975733D01*
X19896553Y-33998149D01*
X19853365Y-34055841D01*
X19797431Y-34097711D01*
X19727739Y-34102695D01*
X19666416Y-34069209D01*
X19654833Y-34055841D01*
X19611645Y-33998150D01*
X19611644Y-33998149D01*
X19578301Y-33973188D01*
X19536431Y-33917256D01*
X19531447Y-33847564D01*
X19564932Y-33786241D01*
X19578297Y-33774660D01*
X19608245Y-33752242D01*
X19651433Y-33694550D01*
X19707366Y-33652680D01*
X19777058Y-33647696D01*
X19838381Y-33681181D01*
G37*
%TD.AperFunction*%
%TA.AperFunction,Conductor*%
G36*
X42137636Y-30904231D02*
G01*
X42139278Y-30905843D01*
X42164581Y-30931146D01*
X42198066Y-30992469D01*
X42200900Y-31018827D01*
X42200900Y-32490369D01*
X42181215Y-32557408D01*
X42164581Y-32578050D01*
X42136671Y-32605960D01*
X42075348Y-32639445D01*
X42005656Y-32634461D01*
X41949723Y-32592589D01*
X41925306Y-32527125D01*
X41925701Y-32505023D01*
X41926339Y-32499089D01*
X41927900Y-32484572D01*
X41927899Y-32109427D01*
X41922612Y-32060244D01*
X41922613Y-32033741D01*
X41922656Y-32033346D01*
X41927900Y-31984571D01*
X41927899Y-31609426D01*
X41922360Y-31557898D01*
X41922361Y-31531392D01*
X41927399Y-31484538D01*
X41927400Y-31484526D01*
X41927400Y-31436699D01*
X41918198Y-31427497D01*
X41882495Y-31417014D01*
X41850267Y-31387010D01*
X41849968Y-31386611D01*
X41838513Y-31371309D01*
X41814097Y-31305846D01*
X41828948Y-31237573D01*
X41838514Y-31222688D01*
X41838813Y-31222289D01*
X41850267Y-31206987D01*
X41906201Y-31165117D01*
X41922527Y-31162171D01*
X41927400Y-31157299D01*
X41927400Y-31109471D01*
X41927399Y-31109457D01*
X41922361Y-31062601D01*
X41922361Y-31036088D01*
X41928255Y-30981270D01*
X41929722Y-30981427D01*
X41950968Y-30921068D01*
X42006115Y-30878166D01*
X42075702Y-30871890D01*
X42137636Y-30904231D01*
G37*
%TD.AperFunction*%
%TA.AperFunction,Conductor*%
G36*
X25632038Y-27456082D02*
G01*
X25677793Y-27508886D01*
X25688999Y-27560397D01*
X25688999Y-28812196D01*
X25669314Y-28879235D01*
X25616510Y-28924990D01*
X25564999Y-28936196D01*
X25495353Y-28936196D01*
X25462896Y-28943094D01*
X25310196Y-28975551D01*
X25310191Y-28975553D01*
X25137269Y-29052544D01*
X25137264Y-29052547D01*
X24984134Y-29163802D01*
X24984127Y-29163808D01*
X24955890Y-29195169D01*
X24896404Y-29231817D01*
X24863741Y-29236196D01*
X24602099Y-29236196D01*
X24535060Y-29216511D01*
X24489305Y-29163707D01*
X24478099Y-29112196D01*
X24478099Y-29109028D01*
X24478098Y-29109011D01*
X24472813Y-29059857D01*
X24472813Y-29033345D01*
X24478099Y-28984180D01*
X24478100Y-28984173D01*
X24478099Y-28609028D01*
X24472560Y-28557500D01*
X24472561Y-28530994D01*
X24477599Y-28484140D01*
X24477600Y-28484128D01*
X24477600Y-28436301D01*
X24468398Y-28427099D01*
X24432695Y-28416616D01*
X24400466Y-28386610D01*
X24388712Y-28370908D01*
X24364296Y-28305443D01*
X24379149Y-28237170D01*
X24388715Y-28222286D01*
X24400467Y-28206588D01*
X24456401Y-28164718D01*
X24472728Y-28161772D01*
X24477600Y-28156901D01*
X24477600Y-28109073D01*
X24477599Y-28109058D01*
X24472561Y-28062202D01*
X24472561Y-28035689D01*
X24478099Y-27984179D01*
X24478100Y-27984172D01*
X24478099Y-27609027D01*
X24474296Y-27573649D01*
X24486703Y-27504892D01*
X24534313Y-27453755D01*
X24597586Y-27436397D01*
X25564999Y-27436397D01*
X25632038Y-27456082D01*
G37*
%TD.AperFunction*%
%TA.AperFunction,Conductor*%
G36*
X31798001Y-25836327D02*
G01*
X31824091Y-25866432D01*
X31826138Y-25869751D01*
X31950194Y-25993807D01*
X32075958Y-26071378D01*
X32122683Y-26123326D01*
X32133906Y-26192288D01*
X32106063Y-26256370D01*
X32085175Y-26276183D01*
X32053210Y-26300112D01*
X31964028Y-26419243D01*
X31908094Y-26461113D01*
X31838402Y-26466097D01*
X31777080Y-26432611D01*
X31765496Y-26419242D01*
X31675747Y-26299354D01*
X31675744Y-26299351D01*
X31560535Y-26213105D01*
X31560525Y-26213100D01*
X31527887Y-26200926D01*
X31471954Y-26159054D01*
X31447538Y-26093589D01*
X31462391Y-26025317D01*
X31483541Y-25997063D01*
X31611165Y-25869439D01*
X31613011Y-25866447D01*
X31614818Y-25864820D01*
X31615648Y-25863772D01*
X31615827Y-25863913D01*
X31664955Y-25819717D01*
X31733917Y-25808489D01*
X31798001Y-25836327D01*
G37*
%TD.AperFunction*%
%TA.AperFunction,Conductor*%
G36*
X32072676Y-23574180D02*
G01*
X32118431Y-23626984D01*
X32128375Y-23696142D01*
X32099350Y-23759698D01*
X32070734Y-23784034D01*
X31950195Y-23858382D01*
X31823746Y-23984830D01*
X31762422Y-24018314D01*
X31761850Y-24018438D01*
X31742496Y-24022552D01*
X31742494Y-24022552D01*
X31736143Y-24023903D01*
X31735732Y-24021971D01*
X31675262Y-24023693D01*
X31615432Y-23987607D01*
X31612025Y-23983609D01*
X31487195Y-23858779D01*
X31366014Y-23784034D01*
X31319290Y-23732086D01*
X31308067Y-23663123D01*
X31335911Y-23599041D01*
X31393980Y-23560185D01*
X31431111Y-23554495D01*
X32005637Y-23554495D01*
X32072676Y-23574180D01*
G37*
%TD.AperFunction*%
%TD*%
M02*
