M48
; DRILL file {KiCad 7.0.8} date 2024 June 23, Sunday 14:42:56
; FORMAT={-:-/ absolute / inch / decimal}
; #@! TF.CreationDate,2024-06-23T14:42:56-04:00
; #@! TF.GenerationSoftware,Kicad,Pcbnew,7.0.8
; #@! TF.FileFunction,Plated,1,2,PTH
FMAT,2
INCH
; #@! TA.AperFunction,Plated,PTH,ViaDrill
T1C0.0157
%
G90
G05
T1
X0.5818Y-1.6653
X0.6428Y-1.8363
X0.6492Y-1.2724
X0.6492Y-1.1254
X0.6492Y-1.2113
X0.6497Y-1.5422
X0.6498Y-1.3929
X0.6498Y-1.4564
X0.6571Y-1.311
X0.6718Y-1.9033
X0.6728Y-2.0713
X0.6868Y-1.6423
X0.7588Y-1.6473
X0.7688Y-1.9673
X0.7737Y-1.1263
X0.7737Y-1.2112
X0.7737Y-1.2729
X0.7738Y-1.3945
X0.7738Y-1.4569
X0.7738Y-1.5428
X0.7797Y-1.3354
X0.8108Y-1.0353
X0.8108Y-1.6433
X0.8508Y-1.0653
X0.8628Y-1.6003
X0.941Y-1.939
X0.9668Y-1.2923
X0.9678Y-1.4493
X0.9698Y-1.2333
X0.9708Y-1.0993
X0.9708Y-1.3343
X0.9938Y-1.7803
X0.9944Y-1.7193
X0.9948Y-1.6337
X1.0075Y-1.1747
X1.0075Y-1.3917
X1.039Y-0.981
X1.1178Y-1.7193
X1.1194Y-1.6336
X1.1198Y-1.7813
X1.1238Y-1.0223
X1.1338Y-1.1163
X1.1368Y-1.2343
X1.1368Y-1.3323
X1.1378Y-1.4493
X1.1498Y-0.9482
X1.1518Y-1.8473
X1.1717Y-1.8917
X1.1848Y-2.0283
X1.2048Y-1.5823
X1.2068Y-1.7626
X1.229Y-1.931
X1.2528Y-1.0363
X1.2607Y-0.9797
X1.3478Y-2.0103
X1.3553Y-1.5183
X1.3648Y-0.9453
X1.3962Y-1.6279
X1.3964Y-1.1064
X1.4241Y-1.6557
X1.4243Y-1.1341
X1.4346Y-1.1794
X1.4408Y-1.9563
X1.444Y-1.6896
X1.4521Y-1.732
X1.4698Y-1.7712
X1.4733Y-1.1936
X1.4798Y-1.2324
X1.4808Y-1.8892
X1.4875Y-1.8071
X1.4878Y-1.2723
X1.5068Y-1.0583
X1.5153Y-1.3029
X1.527Y-1.503
X1.5275Y-1.8297
X1.5714Y-1.5548
X1.639Y-2.037
X1.6409Y-1.6459
X1.643Y-1.5659
X1.6478Y-1.7293
X1.6576Y-1.241
X1.6588Y-1.8203
X1.665Y-1.113
X1.6803Y-1.6551
X1.6907Y-1.1636
X1.6973Y-1.8409
X1.7125Y-1.327
X1.7368Y-1.7013
X1.761Y-1.057
X1.7688Y-1.9873
X1.7983Y-1.0761
X1.799Y-1.401
X1.805Y-1.165
X1.8108Y-2.0097
X1.8372Y-1.2068
X1.8548Y-1.9873
X1.8558Y-1.5953
X1.8568Y-1.5373
X1.8638Y-1.2413
X1.909Y-1.055
X1.9242Y-1.593
X1.9317Y-1.1747
X2.0188Y-1.2413
T0
M30
