%TF.GenerationSoftware,KiCad,Pcbnew,7.0.8*%
%TF.CreationDate,2024-06-23T14:42:54-04:00*%
%TF.ProjectId,rugby64,72756762-7936-4342-9e6b-696361645f70,rev?*%
%TF.SameCoordinates,Original*%
%TF.FileFunction,Soldermask,Top*%
%TF.FilePolarity,Negative*%
%FSLAX46Y46*%
G04 Gerber Fmt 4.6, Leading zero omitted, Abs format (unit mm)*
G04 Created by KiCad (PCBNEW 7.0.8) date 2024-06-23 14:42:54*
%MOMM*%
%LPD*%
G01*
G04 APERTURE LIST*
G04 Aperture macros list*
%AMRoundRect*
0 Rectangle with rounded corners*
0 $1 Rounding radius*
0 $2 $3 $4 $5 $6 $7 $8 $9 X,Y pos of 4 corners*
0 Add a 4 corners polygon primitive as box body*
4,1,4,$2,$3,$4,$5,$6,$7,$8,$9,$2,$3,0*
0 Add four circle primitives for the rounded corners*
1,1,$1+$1,$2,$3*
1,1,$1+$1,$4,$5*
1,1,$1+$1,$6,$7*
1,1,$1+$1,$8,$9*
0 Add four rect primitives between the rounded corners*
20,1,$1+$1,$2,$3,$4,$5,0*
20,1,$1+$1,$4,$5,$6,$7,0*
20,1,$1+$1,$6,$7,$8,$9,0*
20,1,$1+$1,$8,$9,$2,$3,0*%
G04 Aperture macros list end*
%ADD10RoundRect,0.200000X-0.275000X0.200000X-0.275000X-0.200000X0.275000X-0.200000X0.275000X0.200000X0*%
%ADD11RoundRect,0.250000X-0.475000X0.250000X-0.475000X-0.250000X0.475000X-0.250000X0.475000X0.250000X0*%
%ADD12R,0.800000X0.500000*%
%ADD13R,0.800000X0.400000*%
%ADD14RoundRect,0.250000X0.650000X-0.325000X0.650000X0.325000X-0.650000X0.325000X-0.650000X-0.325000X0*%
%ADD15RoundRect,0.250000X0.250000X0.475000X-0.250000X0.475000X-0.250000X-0.475000X0.250000X-0.475000X0*%
%ADD16R,1.676400X0.279400*%
%ADD17R,0.650000X0.400000*%
%ADD18RoundRect,0.100000X-0.100000X0.637500X-0.100000X-0.637500X0.100000X-0.637500X0.100000X0.637500X0*%
%ADD19R,2.350000X0.850000*%
%ADD20RoundRect,0.225000X0.250000X-0.225000X0.250000X0.225000X-0.250000X0.225000X-0.250000X-0.225000X0*%
%ADD21RoundRect,0.200000X0.200000X0.275000X-0.200000X0.275000X-0.200000X-0.275000X0.200000X-0.275000X0*%
%ADD22R,1.000000X0.400000*%
%ADD23R,1.300000X2.000000*%
%ADD24RoundRect,0.218750X-0.218750X-0.256250X0.218750X-0.256250X0.218750X0.256250X-0.218750X0.256250X0*%
G04 APERTURE END LIST*
D10*
%TO.C,R3*%
X18866450Y-42529295D03*
X18866450Y-44179295D03*
%TD*%
D11*
%TO.C,CB2*%
X43174250Y-43574695D03*
X43174250Y-45474695D03*
%TD*%
D12*
%TO.C,RN12*%
X17504499Y-37005696D03*
D13*
X17504499Y-36205696D03*
X17504499Y-35405696D03*
D12*
X17504499Y-34605696D03*
X15704499Y-34605696D03*
D13*
X15704499Y-35405696D03*
X15704499Y-36205696D03*
D12*
X15704499Y-37005696D03*
%TD*%
D14*
%TO.C,CC1*%
X43833299Y-38169696D03*
X43833299Y-35219696D03*
%TD*%
D15*
%TO.C,CB1*%
X30254050Y-47887695D03*
X28354050Y-47887695D03*
%TD*%
D12*
%TO.C,RN4*%
X20650699Y-29398496D03*
D13*
X20650699Y-28598496D03*
X20650699Y-27798496D03*
D12*
X20650699Y-26998496D03*
X18850699Y-26998496D03*
D13*
X18850699Y-27798496D03*
X18850699Y-28598496D03*
D12*
X18850699Y-29398496D03*
%TD*%
%TO.C,RN2*%
X29431499Y-42278296D03*
D13*
X29431499Y-41478296D03*
X29431499Y-40678296D03*
D12*
X29431499Y-39878296D03*
X27631499Y-39878296D03*
D13*
X27631499Y-40678296D03*
X27631499Y-41478296D03*
D12*
X27631499Y-42278296D03*
%TD*%
D10*
%TO.C,R2*%
X17342450Y-42541495D03*
X17342450Y-44191495D03*
%TD*%
D16*
%TO.C,U4*%
X32867600Y-40046201D03*
X32867600Y-40546200D03*
X32867600Y-41046199D03*
X32867600Y-41546201D03*
X32867600Y-42046200D03*
X32867600Y-42546199D03*
X32867600Y-43046200D03*
X32867600Y-43546199D03*
X32867600Y-44046201D03*
X32867600Y-44546200D03*
X32867600Y-45046199D03*
X32867600Y-45546200D03*
X32867600Y-46046200D03*
X32867600Y-46546201D03*
X32867600Y-47046200D03*
X32867600Y-47546199D03*
X32867600Y-48046201D03*
X32867600Y-48546200D03*
X32867600Y-49046201D03*
X32867600Y-49546200D03*
X32867600Y-50046199D03*
X32867600Y-50546201D03*
X32867600Y-51046200D03*
X32867600Y-51546201D03*
X40208200Y-51546199D03*
X40208200Y-51046200D03*
X40208200Y-50546201D03*
X40208200Y-50046199D03*
X40208200Y-49546200D03*
X40208200Y-49046199D03*
X40208200Y-48546200D03*
X40208200Y-48046201D03*
X40208200Y-47546199D03*
X40208200Y-47046200D03*
X40208200Y-46546198D03*
X40208200Y-46046200D03*
X40208200Y-45546200D03*
X40208200Y-45046199D03*
X40208200Y-44546200D03*
X40208200Y-44046201D03*
X40208200Y-43546199D03*
X40208200Y-43046200D03*
X40208200Y-42546199D03*
X40208200Y-42046200D03*
X40208200Y-41546201D03*
X40208200Y-41046199D03*
X40208200Y-40546200D03*
X40208200Y-40046199D03*
%TD*%
D17*
%TO.C,U2*%
X44323000Y-41101800D03*
X44323000Y-40451800D03*
X44323000Y-39801800D03*
X42423000Y-39801800D03*
X42423000Y-40451800D03*
X42423000Y-41101800D03*
%TD*%
D12*
%TO.C,RN1*%
X29442499Y-46037496D03*
D13*
X29442499Y-45237496D03*
X29442499Y-44437496D03*
D12*
X29442499Y-43637496D03*
X27642499Y-43637496D03*
D13*
X27642499Y-44437496D03*
X27642499Y-45237496D03*
D12*
X27642499Y-46037496D03*
%TD*%
D18*
%TO.C,U3*%
X49714499Y-28414296D03*
X49064499Y-28414296D03*
X48414499Y-28414296D03*
X47764499Y-28414296D03*
X47114499Y-28414296D03*
X46464499Y-28414296D03*
X45814499Y-28414296D03*
X45814499Y-34139296D03*
X46464499Y-34139296D03*
X47114499Y-34139296D03*
X47764499Y-34139296D03*
X48414499Y-34139296D03*
X49064499Y-34139296D03*
X49714499Y-34139296D03*
%TD*%
D12*
%TO.C,RN11*%
X17501099Y-40777496D03*
D13*
X17501099Y-39977496D03*
X17501099Y-39177496D03*
D12*
X17501099Y-38377496D03*
X15701099Y-38377496D03*
D13*
X15701099Y-39177496D03*
X15701099Y-39977496D03*
D12*
X15701099Y-40777496D03*
%TD*%
D17*
%TO.C,U1*%
X31026699Y-51172696D03*
X31026699Y-50522696D03*
X31026699Y-49872696D03*
X29126699Y-49872696D03*
X29126699Y-50522696D03*
X29126699Y-51172696D03*
%TD*%
D15*
%TO.C,CB3*%
X32668850Y-24926095D03*
X30768850Y-24926095D03*
%TD*%
D12*
%TO.C,RN3*%
X20650699Y-33144696D03*
D13*
X20650699Y-32344696D03*
X20650699Y-31544696D03*
D12*
X20650699Y-30744696D03*
X18850699Y-30744696D03*
D13*
X18850699Y-31544696D03*
X18850699Y-32344696D03*
D12*
X18850699Y-33144696D03*
%TD*%
%TO.C,RN7*%
X26256499Y-46037496D03*
D13*
X26256499Y-45237496D03*
X26256499Y-44437496D03*
D12*
X26256499Y-43637496D03*
X24456499Y-43637496D03*
D13*
X24456499Y-44437496D03*
X24456499Y-45237496D03*
D12*
X24456499Y-46037496D03*
%TD*%
D10*
%TO.C,R1*%
X15818450Y-42554695D03*
X15818450Y-44204695D03*
%TD*%
D16*
%TO.C,U6*%
X33248600Y-26797000D03*
X33248600Y-27296999D03*
X33248600Y-27796998D03*
X33248600Y-28297000D03*
X33248600Y-28796999D03*
X33248600Y-29296998D03*
X33248600Y-29796999D03*
X33248600Y-30296998D03*
X33248600Y-30797000D03*
X33248600Y-31296999D03*
X33248600Y-31796998D03*
X33248600Y-32296999D03*
X33248600Y-32796999D03*
X33248600Y-33297000D03*
X33248600Y-33796999D03*
X33248600Y-34296998D03*
X33248600Y-34797000D03*
X33248600Y-35296999D03*
X33248600Y-35797000D03*
X33248600Y-36296999D03*
X33248600Y-36796998D03*
X33248600Y-37297000D03*
X33248600Y-37796999D03*
X33248600Y-38297000D03*
X40589200Y-38296998D03*
X40589200Y-37796999D03*
X40589200Y-37297000D03*
X40589200Y-36796998D03*
X40589200Y-36296999D03*
X40589200Y-35796998D03*
X40589200Y-35296999D03*
X40589200Y-34797000D03*
X40589200Y-34296998D03*
X40589200Y-33796999D03*
X40589200Y-33296997D03*
X40589200Y-32796999D03*
X40589200Y-32296999D03*
X40589200Y-31796998D03*
X40589200Y-31296999D03*
X40589200Y-30797000D03*
X40589200Y-30296998D03*
X40589200Y-29796999D03*
X40589200Y-29296998D03*
X40589200Y-28796999D03*
X40589200Y-28297000D03*
X40589200Y-27796998D03*
X40589200Y-27296999D03*
X40589200Y-26796998D03*
%TD*%
D12*
%TO.C,RN5*%
X20654099Y-40777296D03*
D13*
X20654099Y-39977296D03*
X20654099Y-39177296D03*
D12*
X20654099Y-38377296D03*
X18854099Y-38377296D03*
D13*
X18854099Y-39177296D03*
X18854099Y-39977296D03*
D12*
X18854099Y-40777296D03*
%TD*%
D19*
%TO.C,J2*%
X17906499Y-46713695D03*
X15556499Y-48713695D03*
X17906499Y-50713695D03*
X15556499Y-52713695D03*
%TD*%
D20*
%TO.C,C1*%
X51300899Y-34421696D03*
X51300899Y-32871696D03*
%TD*%
D21*
%TO.C,R4*%
X25525800Y-24866600D03*
X23875800Y-24866600D03*
%TD*%
D12*
%TO.C,RN9*%
X17490099Y-33151296D03*
D13*
X17490099Y-32351296D03*
X17490099Y-31551296D03*
D12*
X17490099Y-30751296D03*
X15690099Y-30751296D03*
D13*
X15690099Y-31551296D03*
X15690099Y-32351296D03*
D12*
X15690099Y-33151296D03*
%TD*%
D22*
%TO.C,J1*%
X46003299Y-50496096D03*
X46003299Y-49496096D03*
X46003299Y-48496096D03*
X46003299Y-47496096D03*
X46003299Y-46496096D03*
X46003299Y-45496096D03*
X46003299Y-44496096D03*
X46003299Y-43496096D03*
X46003299Y-42496096D03*
X46003299Y-41496096D03*
X46003299Y-40496096D03*
X46003299Y-39496096D03*
D23*
X48703299Y-53296096D03*
X48703299Y-36696096D03*
%TD*%
D12*
%TO.C,RN10*%
X17490099Y-29392096D03*
D13*
X17490099Y-28592096D03*
X17490099Y-27792096D03*
D12*
X17490099Y-26992096D03*
X15690099Y-26992096D03*
D13*
X15690099Y-27792096D03*
X15690099Y-28592096D03*
D12*
X15690099Y-29392096D03*
%TD*%
%TO.C,RN6*%
X20654099Y-37005696D03*
D13*
X20654099Y-36205696D03*
X20654099Y-35405696D03*
D12*
X20654099Y-34605696D03*
X18854099Y-34605696D03*
D13*
X18854099Y-35405696D03*
X18854099Y-36205696D03*
D12*
X18854099Y-37005696D03*
%TD*%
%TO.C,RN8*%
X26267499Y-42278296D03*
D13*
X26267499Y-41478296D03*
X26267499Y-40678296D03*
D12*
X26267499Y-39878296D03*
X24467499Y-39878296D03*
D13*
X24467499Y-40678296D03*
X24467499Y-41478296D03*
D12*
X24467499Y-42278296D03*
%TD*%
D24*
%TO.C,D1*%
X20904000Y-24866600D03*
X22479000Y-24866600D03*
%TD*%
D16*
%TO.C,U5*%
X23139400Y-26796601D03*
X23139400Y-27296600D03*
X23139400Y-27796599D03*
X23139400Y-28296601D03*
X23139400Y-28796600D03*
X23139400Y-29296599D03*
X23139400Y-29796600D03*
X23139400Y-30296599D03*
X23139400Y-30796601D03*
X23139400Y-31296600D03*
X23139400Y-31796599D03*
X23139400Y-32296600D03*
X23139400Y-32796600D03*
X23139400Y-33296601D03*
X23139400Y-33796600D03*
X23139400Y-34296599D03*
X23139400Y-34796601D03*
X23139400Y-35296600D03*
X23139400Y-35796601D03*
X23139400Y-36296600D03*
X23139400Y-36796599D03*
X23139400Y-37296601D03*
X23139400Y-37796600D03*
X23139400Y-38296601D03*
X30480000Y-38296599D03*
X30480000Y-37796600D03*
X30480000Y-37296601D03*
X30480000Y-36796599D03*
X30480000Y-36296600D03*
X30480000Y-35796599D03*
X30480000Y-35296600D03*
X30480000Y-34796601D03*
X30480000Y-34296599D03*
X30480000Y-33796600D03*
X30480000Y-33296598D03*
X30480000Y-32796600D03*
X30480000Y-32296600D03*
X30480000Y-31796599D03*
X30480000Y-31296600D03*
X30480000Y-30796601D03*
X30480000Y-30296599D03*
X30480000Y-29796600D03*
X30480000Y-29296599D03*
X30480000Y-28796600D03*
X30480000Y-28296601D03*
X30480000Y-27796599D03*
X30480000Y-27296600D03*
X30480000Y-26796599D03*
%TD*%
M02*
