%TF.GenerationSoftware,KiCad,Pcbnew,7.0.8*%
%TF.CreationDate,2024-06-23T14:42:54-04:00*%
%TF.ProjectId,rugby64,72756762-7936-4342-9e6b-696361645f70,rev?*%
%TF.SameCoordinates,Original*%
%TF.FileFunction,Legend,Top*%
%TF.FilePolarity,Positive*%
%FSLAX46Y46*%
G04 Gerber Fmt 4.6, Leading zero omitted, Abs format (unit mm)*
G04 Created by KiCad (PCBNEW 7.0.8) date 2024-06-23 14:42:54*
%MOMM*%
%LPD*%
G01*
G04 APERTURE LIST*
%ADD10C,0.150000*%
%ADD11C,0.120000*%
%ADD12C,0.152400*%
G04 APERTURE END LIST*
D10*
X30438960Y-53970895D02*
X30438960Y-53437561D01*
X30438960Y-53589942D02*
X30477055Y-53513752D01*
X30477055Y-53513752D02*
X30515150Y-53475657D01*
X30515150Y-53475657D02*
X30591341Y-53437561D01*
X30591341Y-53437561D02*
X30667531Y-53437561D01*
X31277055Y-53437561D02*
X31277055Y-53970895D01*
X30934198Y-53437561D02*
X30934198Y-53856609D01*
X30934198Y-53856609D02*
X30972293Y-53932800D01*
X30972293Y-53932800D02*
X31048483Y-53970895D01*
X31048483Y-53970895D02*
X31162769Y-53970895D01*
X31162769Y-53970895D02*
X31238960Y-53932800D01*
X31238960Y-53932800D02*
X31277055Y-53894704D01*
X32000865Y-53437561D02*
X32000865Y-54085180D01*
X32000865Y-54085180D02*
X31962770Y-54161371D01*
X31962770Y-54161371D02*
X31924674Y-54199466D01*
X31924674Y-54199466D02*
X31848484Y-54237561D01*
X31848484Y-54237561D02*
X31734198Y-54237561D01*
X31734198Y-54237561D02*
X31658008Y-54199466D01*
X32000865Y-53932800D02*
X31924674Y-53970895D01*
X31924674Y-53970895D02*
X31772293Y-53970895D01*
X31772293Y-53970895D02*
X31696103Y-53932800D01*
X31696103Y-53932800D02*
X31658008Y-53894704D01*
X31658008Y-53894704D02*
X31619912Y-53818514D01*
X31619912Y-53818514D02*
X31619912Y-53589942D01*
X31619912Y-53589942D02*
X31658008Y-53513752D01*
X31658008Y-53513752D02*
X31696103Y-53475657D01*
X31696103Y-53475657D02*
X31772293Y-53437561D01*
X31772293Y-53437561D02*
X31924674Y-53437561D01*
X31924674Y-53437561D02*
X32000865Y-53475657D01*
X32381818Y-53970895D02*
X32381818Y-53170895D01*
X32381818Y-53475657D02*
X32458008Y-53437561D01*
X32458008Y-53437561D02*
X32610389Y-53437561D01*
X32610389Y-53437561D02*
X32686580Y-53475657D01*
X32686580Y-53475657D02*
X32724675Y-53513752D01*
X32724675Y-53513752D02*
X32762770Y-53589942D01*
X32762770Y-53589942D02*
X32762770Y-53818514D01*
X32762770Y-53818514D02*
X32724675Y-53894704D01*
X32724675Y-53894704D02*
X32686580Y-53932800D01*
X32686580Y-53932800D02*
X32610389Y-53970895D01*
X32610389Y-53970895D02*
X32458008Y-53970895D01*
X32458008Y-53970895D02*
X32381818Y-53932800D01*
X33029437Y-53437561D02*
X33219913Y-53970895D01*
X33410390Y-53437561D02*
X33219913Y-53970895D01*
X33219913Y-53970895D02*
X33143723Y-54161371D01*
X33143723Y-54161371D02*
X33105628Y-54199466D01*
X33105628Y-54199466D02*
X33029437Y-54237561D01*
X34058009Y-53170895D02*
X33905628Y-53170895D01*
X33905628Y-53170895D02*
X33829437Y-53208990D01*
X33829437Y-53208990D02*
X33791342Y-53247085D01*
X33791342Y-53247085D02*
X33715152Y-53361371D01*
X33715152Y-53361371D02*
X33677056Y-53513752D01*
X33677056Y-53513752D02*
X33677056Y-53818514D01*
X33677056Y-53818514D02*
X33715152Y-53894704D01*
X33715152Y-53894704D02*
X33753247Y-53932800D01*
X33753247Y-53932800D02*
X33829437Y-53970895D01*
X33829437Y-53970895D02*
X33981818Y-53970895D01*
X33981818Y-53970895D02*
X34058009Y-53932800D01*
X34058009Y-53932800D02*
X34096104Y-53894704D01*
X34096104Y-53894704D02*
X34134199Y-53818514D01*
X34134199Y-53818514D02*
X34134199Y-53628038D01*
X34134199Y-53628038D02*
X34096104Y-53551847D01*
X34096104Y-53551847D02*
X34058009Y-53513752D01*
X34058009Y-53513752D02*
X33981818Y-53475657D01*
X33981818Y-53475657D02*
X33829437Y-53475657D01*
X33829437Y-53475657D02*
X33753247Y-53513752D01*
X33753247Y-53513752D02*
X33715152Y-53551847D01*
X33715152Y-53551847D02*
X33677056Y-53628038D01*
X34819914Y-53437561D02*
X34819914Y-53970895D01*
X34629438Y-53132800D02*
X34438961Y-53704228D01*
X34438961Y-53704228D02*
X34934200Y-53704228D01*
X35772295Y-53437561D02*
X35962771Y-53970895D01*
X35962771Y-53970895D02*
X36153248Y-53437561D01*
X36381819Y-53170895D02*
X36877057Y-53170895D01*
X36877057Y-53170895D02*
X36610391Y-53475657D01*
X36610391Y-53475657D02*
X36724676Y-53475657D01*
X36724676Y-53475657D02*
X36800867Y-53513752D01*
X36800867Y-53513752D02*
X36838962Y-53551847D01*
X36838962Y-53551847D02*
X36877057Y-53628038D01*
X36877057Y-53628038D02*
X36877057Y-53818514D01*
X36877057Y-53818514D02*
X36838962Y-53894704D01*
X36838962Y-53894704D02*
X36800867Y-53932800D01*
X36800867Y-53932800D02*
X36724676Y-53970895D01*
X36724676Y-53970895D02*
X36496105Y-53970895D01*
X36496105Y-53970895D02*
X36419914Y-53932800D01*
X36419914Y-53932800D02*
X36381819Y-53894704D01*
X44882754Y-45093627D02*
X44920850Y-45131723D01*
X44920850Y-45131723D02*
X44958945Y-45246008D01*
X44958945Y-45246008D02*
X44958945Y-45322199D01*
X44958945Y-45322199D02*
X44920850Y-45436485D01*
X44920850Y-45436485D02*
X44844659Y-45512675D01*
X44844659Y-45512675D02*
X44768469Y-45550770D01*
X44768469Y-45550770D02*
X44616088Y-45588866D01*
X44616088Y-45588866D02*
X44501802Y-45588866D01*
X44501802Y-45588866D02*
X44349421Y-45550770D01*
X44349421Y-45550770D02*
X44273230Y-45512675D01*
X44273230Y-45512675D02*
X44197040Y-45436485D01*
X44197040Y-45436485D02*
X44158945Y-45322199D01*
X44158945Y-45322199D02*
X44158945Y-45246008D01*
X44158945Y-45246008D02*
X44197040Y-45131723D01*
X44197040Y-45131723D02*
X44235135Y-45093627D01*
X44539897Y-44484104D02*
X44577992Y-44369818D01*
X44577992Y-44369818D02*
X44616088Y-44331723D01*
X44616088Y-44331723D02*
X44692278Y-44293627D01*
X44692278Y-44293627D02*
X44806564Y-44293627D01*
X44806564Y-44293627D02*
X44882754Y-44331723D01*
X44882754Y-44331723D02*
X44920850Y-44369818D01*
X44920850Y-44369818D02*
X44958945Y-44446008D01*
X44958945Y-44446008D02*
X44958945Y-44750770D01*
X44958945Y-44750770D02*
X44158945Y-44750770D01*
X44158945Y-44750770D02*
X44158945Y-44484104D01*
X44158945Y-44484104D02*
X44197040Y-44407913D01*
X44197040Y-44407913D02*
X44235135Y-44369818D01*
X44235135Y-44369818D02*
X44311326Y-44331723D01*
X44311326Y-44331723D02*
X44387516Y-44331723D01*
X44387516Y-44331723D02*
X44463707Y-44369818D01*
X44463707Y-44369818D02*
X44501802Y-44407913D01*
X44501802Y-44407913D02*
X44539897Y-44484104D01*
X44539897Y-44484104D02*
X44539897Y-44750770D01*
X44235135Y-43988866D02*
X44197040Y-43950770D01*
X44197040Y-43950770D02*
X44158945Y-43874580D01*
X44158945Y-43874580D02*
X44158945Y-43684104D01*
X44158945Y-43684104D02*
X44197040Y-43607913D01*
X44197040Y-43607913D02*
X44235135Y-43569818D01*
X44235135Y-43569818D02*
X44311326Y-43531723D01*
X44311326Y-43531723D02*
X44387516Y-43531723D01*
X44387516Y-43531723D02*
X44501802Y-43569818D01*
X44501802Y-43569818D02*
X44958945Y-44026961D01*
X44958945Y-44026961D02*
X44958945Y-43531723D01*
X42678704Y-37693532D02*
X42716800Y-37731628D01*
X42716800Y-37731628D02*
X42754895Y-37845913D01*
X42754895Y-37845913D02*
X42754895Y-37922104D01*
X42754895Y-37922104D02*
X42716800Y-38036390D01*
X42716800Y-38036390D02*
X42640609Y-38112580D01*
X42640609Y-38112580D02*
X42564419Y-38150675D01*
X42564419Y-38150675D02*
X42412038Y-38188771D01*
X42412038Y-38188771D02*
X42297752Y-38188771D01*
X42297752Y-38188771D02*
X42145371Y-38150675D01*
X42145371Y-38150675D02*
X42069180Y-38112580D01*
X42069180Y-38112580D02*
X41992990Y-38036390D01*
X41992990Y-38036390D02*
X41954895Y-37922104D01*
X41954895Y-37922104D02*
X41954895Y-37845913D01*
X41954895Y-37845913D02*
X41992990Y-37731628D01*
X41992990Y-37731628D02*
X42031085Y-37693532D01*
X42678704Y-36893532D02*
X42716800Y-36931628D01*
X42716800Y-36931628D02*
X42754895Y-37045913D01*
X42754895Y-37045913D02*
X42754895Y-37122104D01*
X42754895Y-37122104D02*
X42716800Y-37236390D01*
X42716800Y-37236390D02*
X42640609Y-37312580D01*
X42640609Y-37312580D02*
X42564419Y-37350675D01*
X42564419Y-37350675D02*
X42412038Y-37388771D01*
X42412038Y-37388771D02*
X42297752Y-37388771D01*
X42297752Y-37388771D02*
X42145371Y-37350675D01*
X42145371Y-37350675D02*
X42069180Y-37312580D01*
X42069180Y-37312580D02*
X41992990Y-37236390D01*
X41992990Y-37236390D02*
X41954895Y-37122104D01*
X41954895Y-37122104D02*
X41954895Y-37045913D01*
X41954895Y-37045913D02*
X41992990Y-36931628D01*
X41992990Y-36931628D02*
X42031085Y-36893532D01*
X42754895Y-36131628D02*
X42754895Y-36588771D01*
X42754895Y-36360199D02*
X41954895Y-36360199D01*
X41954895Y-36360199D02*
X42069180Y-36436390D01*
X42069180Y-36436390D02*
X42145371Y-36512580D01*
X42145371Y-36512580D02*
X42183466Y-36588771D01*
X27387904Y-48412332D02*
X27426000Y-48450428D01*
X27426000Y-48450428D02*
X27464095Y-48564713D01*
X27464095Y-48564713D02*
X27464095Y-48640904D01*
X27464095Y-48640904D02*
X27426000Y-48755190D01*
X27426000Y-48755190D02*
X27349809Y-48831380D01*
X27349809Y-48831380D02*
X27273619Y-48869475D01*
X27273619Y-48869475D02*
X27121238Y-48907571D01*
X27121238Y-48907571D02*
X27006952Y-48907571D01*
X27006952Y-48907571D02*
X26854571Y-48869475D01*
X26854571Y-48869475D02*
X26778380Y-48831380D01*
X26778380Y-48831380D02*
X26702190Y-48755190D01*
X26702190Y-48755190D02*
X26664095Y-48640904D01*
X26664095Y-48640904D02*
X26664095Y-48564713D01*
X26664095Y-48564713D02*
X26702190Y-48450428D01*
X26702190Y-48450428D02*
X26740285Y-48412332D01*
X27045047Y-47802809D02*
X27083142Y-47688523D01*
X27083142Y-47688523D02*
X27121238Y-47650428D01*
X27121238Y-47650428D02*
X27197428Y-47612332D01*
X27197428Y-47612332D02*
X27311714Y-47612332D01*
X27311714Y-47612332D02*
X27387904Y-47650428D01*
X27387904Y-47650428D02*
X27426000Y-47688523D01*
X27426000Y-47688523D02*
X27464095Y-47764713D01*
X27464095Y-47764713D02*
X27464095Y-48069475D01*
X27464095Y-48069475D02*
X26664095Y-48069475D01*
X26664095Y-48069475D02*
X26664095Y-47802809D01*
X26664095Y-47802809D02*
X26702190Y-47726618D01*
X26702190Y-47726618D02*
X26740285Y-47688523D01*
X26740285Y-47688523D02*
X26816476Y-47650428D01*
X26816476Y-47650428D02*
X26892666Y-47650428D01*
X26892666Y-47650428D02*
X26968857Y-47688523D01*
X26968857Y-47688523D02*
X27006952Y-47726618D01*
X27006952Y-47726618D02*
X27045047Y-47802809D01*
X27045047Y-47802809D02*
X27045047Y-48069475D01*
X27464095Y-46850428D02*
X27464095Y-47307571D01*
X27464095Y-47078999D02*
X26664095Y-47078999D01*
X26664095Y-47078999D02*
X26778380Y-47155190D01*
X26778380Y-47155190D02*
X26854571Y-47231380D01*
X26854571Y-47231380D02*
X26892666Y-47307571D01*
X30923944Y-41497476D02*
X30542991Y-41764143D01*
X30923944Y-41954619D02*
X30123944Y-41954619D01*
X30123944Y-41954619D02*
X30123944Y-41649857D01*
X30123944Y-41649857D02*
X30162039Y-41573667D01*
X30162039Y-41573667D02*
X30200134Y-41535572D01*
X30200134Y-41535572D02*
X30276325Y-41497476D01*
X30276325Y-41497476D02*
X30390610Y-41497476D01*
X30390610Y-41497476D02*
X30466801Y-41535572D01*
X30466801Y-41535572D02*
X30504896Y-41573667D01*
X30504896Y-41573667D02*
X30542991Y-41649857D01*
X30542991Y-41649857D02*
X30542991Y-41954619D01*
X30923944Y-41154619D02*
X30123944Y-41154619D01*
X30123944Y-41154619D02*
X30923944Y-40697476D01*
X30923944Y-40697476D02*
X30123944Y-40697476D01*
X30200134Y-40354620D02*
X30162039Y-40316524D01*
X30162039Y-40316524D02*
X30123944Y-40240334D01*
X30123944Y-40240334D02*
X30123944Y-40049858D01*
X30123944Y-40049858D02*
X30162039Y-39973667D01*
X30162039Y-39973667D02*
X30200134Y-39935572D01*
X30200134Y-39935572D02*
X30276325Y-39897477D01*
X30276325Y-39897477D02*
X30352515Y-39897477D01*
X30352515Y-39897477D02*
X30466801Y-39935572D01*
X30466801Y-39935572D02*
X30923944Y-40392715D01*
X30923944Y-40392715D02*
X30923944Y-39897477D01*
X35775995Y-45251019D02*
X35775995Y-46060542D01*
X35775995Y-46060542D02*
X35823614Y-46155780D01*
X35823614Y-46155780D02*
X35871233Y-46203400D01*
X35871233Y-46203400D02*
X35966471Y-46251019D01*
X35966471Y-46251019D02*
X36156947Y-46251019D01*
X36156947Y-46251019D02*
X36252185Y-46203400D01*
X36252185Y-46203400D02*
X36299804Y-46155780D01*
X36299804Y-46155780D02*
X36347423Y-46060542D01*
X36347423Y-46060542D02*
X36347423Y-45251019D01*
X37252185Y-45584352D02*
X37252185Y-46251019D01*
X37014090Y-45203400D02*
X36775995Y-45917685D01*
X36775995Y-45917685D02*
X37395042Y-45917685D01*
X42970895Y-41050923D02*
X43618514Y-41050923D01*
X43618514Y-41050923D02*
X43694704Y-41012828D01*
X43694704Y-41012828D02*
X43732800Y-40974733D01*
X43732800Y-40974733D02*
X43770895Y-40898542D01*
X43770895Y-40898542D02*
X43770895Y-40746161D01*
X43770895Y-40746161D02*
X43732800Y-40669971D01*
X43732800Y-40669971D02*
X43694704Y-40631876D01*
X43694704Y-40631876D02*
X43618514Y-40593780D01*
X43618514Y-40593780D02*
X42970895Y-40593780D01*
X43047085Y-40250924D02*
X43008990Y-40212828D01*
X43008990Y-40212828D02*
X42970895Y-40136638D01*
X42970895Y-40136638D02*
X42970895Y-39946162D01*
X42970895Y-39946162D02*
X43008990Y-39869971D01*
X43008990Y-39869971D02*
X43047085Y-39831876D01*
X43047085Y-39831876D02*
X43123276Y-39793781D01*
X43123276Y-39793781D02*
X43199466Y-39793781D01*
X43199466Y-39793781D02*
X43313752Y-39831876D01*
X43313752Y-39831876D02*
X43770895Y-40289019D01*
X43770895Y-40289019D02*
X43770895Y-39793781D01*
X31090545Y-45315875D02*
X30709592Y-45582542D01*
X31090545Y-45773018D02*
X30290545Y-45773018D01*
X30290545Y-45773018D02*
X30290545Y-45468256D01*
X30290545Y-45468256D02*
X30328640Y-45392066D01*
X30328640Y-45392066D02*
X30366735Y-45353971D01*
X30366735Y-45353971D02*
X30442926Y-45315875D01*
X30442926Y-45315875D02*
X30557211Y-45315875D01*
X30557211Y-45315875D02*
X30633402Y-45353971D01*
X30633402Y-45353971D02*
X30671497Y-45392066D01*
X30671497Y-45392066D02*
X30709592Y-45468256D01*
X30709592Y-45468256D02*
X30709592Y-45773018D01*
X31090545Y-44973018D02*
X30290545Y-44973018D01*
X30290545Y-44973018D02*
X31090545Y-44515875D01*
X31090545Y-44515875D02*
X30290545Y-44515875D01*
X31090545Y-43715876D02*
X31090545Y-44173019D01*
X31090545Y-43944447D02*
X30290545Y-43944447D01*
X30290545Y-43944447D02*
X30404830Y-44020638D01*
X30404830Y-44020638D02*
X30481021Y-44096828D01*
X30481021Y-44096828D02*
X30519116Y-44173019D01*
X47219318Y-31987900D02*
X48028841Y-31987900D01*
X48028841Y-31987900D02*
X48124079Y-31940281D01*
X48124079Y-31940281D02*
X48171699Y-31892662D01*
X48171699Y-31892662D02*
X48219318Y-31797424D01*
X48219318Y-31797424D02*
X48219318Y-31606948D01*
X48219318Y-31606948D02*
X48171699Y-31511710D01*
X48171699Y-31511710D02*
X48124079Y-31464091D01*
X48124079Y-31464091D02*
X48028841Y-31416472D01*
X48028841Y-31416472D02*
X47219318Y-31416472D01*
X47219318Y-31035519D02*
X47219318Y-30416472D01*
X47219318Y-30416472D02*
X47600270Y-30749805D01*
X47600270Y-30749805D02*
X47600270Y-30606948D01*
X47600270Y-30606948D02*
X47647889Y-30511710D01*
X47647889Y-30511710D02*
X47695508Y-30464091D01*
X47695508Y-30464091D02*
X47790746Y-30416472D01*
X47790746Y-30416472D02*
X48028841Y-30416472D01*
X48028841Y-30416472D02*
X48124079Y-30464091D01*
X48124079Y-30464091D02*
X48171699Y-30511710D01*
X48171699Y-30511710D02*
X48219318Y-30606948D01*
X48219318Y-30606948D02*
X48219318Y-30892662D01*
X48219318Y-30892662D02*
X48171699Y-30987900D01*
X48171699Y-30987900D02*
X48124079Y-31035519D01*
X29680945Y-51062618D02*
X30328564Y-51062618D01*
X30328564Y-51062618D02*
X30404754Y-51024523D01*
X30404754Y-51024523D02*
X30442850Y-50986428D01*
X30442850Y-50986428D02*
X30480945Y-50910237D01*
X30480945Y-50910237D02*
X30480945Y-50757856D01*
X30480945Y-50757856D02*
X30442850Y-50681666D01*
X30442850Y-50681666D02*
X30404754Y-50643571D01*
X30404754Y-50643571D02*
X30328564Y-50605475D01*
X30328564Y-50605475D02*
X29680945Y-50605475D01*
X30480945Y-49805476D02*
X30480945Y-50262619D01*
X30480945Y-50034047D02*
X29680945Y-50034047D01*
X29680945Y-50034047D02*
X29795230Y-50110238D01*
X29795230Y-50110238D02*
X29871421Y-50186428D01*
X29871421Y-50186428D02*
X29909516Y-50262619D01*
X34036067Y-25203504D02*
X33997971Y-25241600D01*
X33997971Y-25241600D02*
X33883686Y-25279695D01*
X33883686Y-25279695D02*
X33807495Y-25279695D01*
X33807495Y-25279695D02*
X33693209Y-25241600D01*
X33693209Y-25241600D02*
X33617019Y-25165409D01*
X33617019Y-25165409D02*
X33578924Y-25089219D01*
X33578924Y-25089219D02*
X33540828Y-24936838D01*
X33540828Y-24936838D02*
X33540828Y-24822552D01*
X33540828Y-24822552D02*
X33578924Y-24670171D01*
X33578924Y-24670171D02*
X33617019Y-24593980D01*
X33617019Y-24593980D02*
X33693209Y-24517790D01*
X33693209Y-24517790D02*
X33807495Y-24479695D01*
X33807495Y-24479695D02*
X33883686Y-24479695D01*
X33883686Y-24479695D02*
X33997971Y-24517790D01*
X33997971Y-24517790D02*
X34036067Y-24555885D01*
X34645590Y-24860647D02*
X34759876Y-24898742D01*
X34759876Y-24898742D02*
X34797971Y-24936838D01*
X34797971Y-24936838D02*
X34836067Y-25013028D01*
X34836067Y-25013028D02*
X34836067Y-25127314D01*
X34836067Y-25127314D02*
X34797971Y-25203504D01*
X34797971Y-25203504D02*
X34759876Y-25241600D01*
X34759876Y-25241600D02*
X34683686Y-25279695D01*
X34683686Y-25279695D02*
X34378924Y-25279695D01*
X34378924Y-25279695D02*
X34378924Y-24479695D01*
X34378924Y-24479695D02*
X34645590Y-24479695D01*
X34645590Y-24479695D02*
X34721781Y-24517790D01*
X34721781Y-24517790D02*
X34759876Y-24555885D01*
X34759876Y-24555885D02*
X34797971Y-24632076D01*
X34797971Y-24632076D02*
X34797971Y-24708266D01*
X34797971Y-24708266D02*
X34759876Y-24784457D01*
X34759876Y-24784457D02*
X34721781Y-24822552D01*
X34721781Y-24822552D02*
X34645590Y-24860647D01*
X34645590Y-24860647D02*
X34378924Y-24860647D01*
X35102733Y-24479695D02*
X35597971Y-24479695D01*
X35597971Y-24479695D02*
X35331305Y-24784457D01*
X35331305Y-24784457D02*
X35445590Y-24784457D01*
X35445590Y-24784457D02*
X35521781Y-24822552D01*
X35521781Y-24822552D02*
X35559876Y-24860647D01*
X35559876Y-24860647D02*
X35597971Y-24936838D01*
X35597971Y-24936838D02*
X35597971Y-25127314D01*
X35597971Y-25127314D02*
X35559876Y-25203504D01*
X35559876Y-25203504D02*
X35521781Y-25241600D01*
X35521781Y-25241600D02*
X35445590Y-25279695D01*
X35445590Y-25279695D02*
X35217019Y-25279695D01*
X35217019Y-25279695D02*
X35140828Y-25241600D01*
X35140828Y-25241600D02*
X35102733Y-25203504D01*
X23557944Y-45379476D02*
X23176991Y-45646143D01*
X23557944Y-45836619D02*
X22757944Y-45836619D01*
X22757944Y-45836619D02*
X22757944Y-45531857D01*
X22757944Y-45531857D02*
X22796039Y-45455667D01*
X22796039Y-45455667D02*
X22834134Y-45417572D01*
X22834134Y-45417572D02*
X22910325Y-45379476D01*
X22910325Y-45379476D02*
X23024610Y-45379476D01*
X23024610Y-45379476D02*
X23100801Y-45417572D01*
X23100801Y-45417572D02*
X23138896Y-45455667D01*
X23138896Y-45455667D02*
X23176991Y-45531857D01*
X23176991Y-45531857D02*
X23176991Y-45836619D01*
X23557944Y-45036619D02*
X22757944Y-45036619D01*
X22757944Y-45036619D02*
X23557944Y-44579476D01*
X23557944Y-44579476D02*
X22757944Y-44579476D01*
X22757944Y-44274715D02*
X22757944Y-43741381D01*
X22757944Y-43741381D02*
X23557944Y-44084239D01*
X36156995Y-32001818D02*
X36156995Y-32811341D01*
X36156995Y-32811341D02*
X36204614Y-32906579D01*
X36204614Y-32906579D02*
X36252233Y-32954199D01*
X36252233Y-32954199D02*
X36347471Y-33001818D01*
X36347471Y-33001818D02*
X36537947Y-33001818D01*
X36537947Y-33001818D02*
X36633185Y-32954199D01*
X36633185Y-32954199D02*
X36680804Y-32906579D01*
X36680804Y-32906579D02*
X36728423Y-32811341D01*
X36728423Y-32811341D02*
X36728423Y-32001818D01*
X37633185Y-32001818D02*
X37442709Y-32001818D01*
X37442709Y-32001818D02*
X37347471Y-32049437D01*
X37347471Y-32049437D02*
X37299852Y-32097056D01*
X37299852Y-32097056D02*
X37204614Y-32239913D01*
X37204614Y-32239913D02*
X37156995Y-32430389D01*
X37156995Y-32430389D02*
X37156995Y-32811341D01*
X37156995Y-32811341D02*
X37204614Y-32906579D01*
X37204614Y-32906579D02*
X37252233Y-32954199D01*
X37252233Y-32954199D02*
X37347471Y-33001818D01*
X37347471Y-33001818D02*
X37537947Y-33001818D01*
X37537947Y-33001818D02*
X37633185Y-32954199D01*
X37633185Y-32954199D02*
X37680804Y-32906579D01*
X37680804Y-32906579D02*
X37728423Y-32811341D01*
X37728423Y-32811341D02*
X37728423Y-32573246D01*
X37728423Y-32573246D02*
X37680804Y-32478008D01*
X37680804Y-32478008D02*
X37633185Y-32430389D01*
X37633185Y-32430389D02*
X37537947Y-32382770D01*
X37537947Y-32382770D02*
X37347471Y-32382770D01*
X37347471Y-32382770D02*
X37252233Y-32430389D01*
X37252233Y-32430389D02*
X37204614Y-32478008D01*
X37204614Y-32478008D02*
X37156995Y-32573246D01*
X51635079Y-31400362D02*
X51682699Y-31447981D01*
X51682699Y-31447981D02*
X51730318Y-31590838D01*
X51730318Y-31590838D02*
X51730318Y-31686076D01*
X51730318Y-31686076D02*
X51682699Y-31828933D01*
X51682699Y-31828933D02*
X51587460Y-31924171D01*
X51587460Y-31924171D02*
X51492222Y-31971790D01*
X51492222Y-31971790D02*
X51301746Y-32019409D01*
X51301746Y-32019409D02*
X51158889Y-32019409D01*
X51158889Y-32019409D02*
X50968413Y-31971790D01*
X50968413Y-31971790D02*
X50873175Y-31924171D01*
X50873175Y-31924171D02*
X50777937Y-31828933D01*
X50777937Y-31828933D02*
X50730318Y-31686076D01*
X50730318Y-31686076D02*
X50730318Y-31590838D01*
X50730318Y-31590838D02*
X50777937Y-31447981D01*
X50777937Y-31447981D02*
X50825556Y-31400362D01*
X51730318Y-30447981D02*
X51730318Y-31019409D01*
X51730318Y-30733695D02*
X50730318Y-30733695D01*
X50730318Y-30733695D02*
X50873175Y-30828933D01*
X50873175Y-30828933D02*
X50968413Y-30924171D01*
X50968413Y-30924171D02*
X51016032Y-31019409D01*
X47769518Y-45329429D02*
X48483803Y-45329429D01*
X48483803Y-45329429D02*
X48626660Y-45377048D01*
X48626660Y-45377048D02*
X48721899Y-45472286D01*
X48721899Y-45472286D02*
X48769518Y-45615143D01*
X48769518Y-45615143D02*
X48769518Y-45710381D01*
X48769518Y-44329429D02*
X48769518Y-44900857D01*
X48769518Y-44615143D02*
X47769518Y-44615143D01*
X47769518Y-44615143D02*
X47912375Y-44710381D01*
X47912375Y-44710381D02*
X48007613Y-44805619D01*
X48007613Y-44805619D02*
X48055232Y-44900857D01*
X23608744Y-41639276D02*
X23227791Y-41905943D01*
X23608744Y-42096419D02*
X22808744Y-42096419D01*
X22808744Y-42096419D02*
X22808744Y-41791657D01*
X22808744Y-41791657D02*
X22846839Y-41715467D01*
X22846839Y-41715467D02*
X22884934Y-41677372D01*
X22884934Y-41677372D02*
X22961125Y-41639276D01*
X22961125Y-41639276D02*
X23075410Y-41639276D01*
X23075410Y-41639276D02*
X23151601Y-41677372D01*
X23151601Y-41677372D02*
X23189696Y-41715467D01*
X23189696Y-41715467D02*
X23227791Y-41791657D01*
X23227791Y-41791657D02*
X23227791Y-42096419D01*
X23608744Y-41296419D02*
X22808744Y-41296419D01*
X22808744Y-41296419D02*
X23608744Y-40839276D01*
X23608744Y-40839276D02*
X22808744Y-40839276D01*
X23151601Y-40344039D02*
X23113506Y-40420229D01*
X23113506Y-40420229D02*
X23075410Y-40458324D01*
X23075410Y-40458324D02*
X22999220Y-40496420D01*
X22999220Y-40496420D02*
X22961125Y-40496420D01*
X22961125Y-40496420D02*
X22884934Y-40458324D01*
X22884934Y-40458324D02*
X22846839Y-40420229D01*
X22846839Y-40420229D02*
X22808744Y-40344039D01*
X22808744Y-40344039D02*
X22808744Y-40191658D01*
X22808744Y-40191658D02*
X22846839Y-40115467D01*
X22846839Y-40115467D02*
X22884934Y-40077372D01*
X22884934Y-40077372D02*
X22961125Y-40039277D01*
X22961125Y-40039277D02*
X22999220Y-40039277D01*
X22999220Y-40039277D02*
X23075410Y-40077372D01*
X23075410Y-40077372D02*
X23113506Y-40115467D01*
X23113506Y-40115467D02*
X23151601Y-40191658D01*
X23151601Y-40191658D02*
X23151601Y-40344039D01*
X23151601Y-40344039D02*
X23189696Y-40420229D01*
X23189696Y-40420229D02*
X23227791Y-40458324D01*
X23227791Y-40458324D02*
X23303982Y-40496420D01*
X23303982Y-40496420D02*
X23456363Y-40496420D01*
X23456363Y-40496420D02*
X23532553Y-40458324D01*
X23532553Y-40458324D02*
X23570649Y-40420229D01*
X23570649Y-40420229D02*
X23608744Y-40344039D01*
X23608744Y-40344039D02*
X23608744Y-40191658D01*
X23608744Y-40191658D02*
X23570649Y-40115467D01*
X23570649Y-40115467D02*
X23532553Y-40077372D01*
X23532553Y-40077372D02*
X23456363Y-40039277D01*
X23456363Y-40039277D02*
X23303982Y-40039277D01*
X23303982Y-40039277D02*
X23227791Y-40077372D01*
X23227791Y-40077372D02*
X23189696Y-40115467D01*
X23189696Y-40115467D02*
X23151601Y-40191658D01*
X26047795Y-32001419D02*
X26047795Y-32810942D01*
X26047795Y-32810942D02*
X26095414Y-32906180D01*
X26095414Y-32906180D02*
X26143033Y-32953800D01*
X26143033Y-32953800D02*
X26238271Y-33001419D01*
X26238271Y-33001419D02*
X26428747Y-33001419D01*
X26428747Y-33001419D02*
X26523985Y-32953800D01*
X26523985Y-32953800D02*
X26571604Y-32906180D01*
X26571604Y-32906180D02*
X26619223Y-32810942D01*
X26619223Y-32810942D02*
X26619223Y-32001419D01*
X27571604Y-32001419D02*
X27095414Y-32001419D01*
X27095414Y-32001419D02*
X27047795Y-32477609D01*
X27047795Y-32477609D02*
X27095414Y-32429990D01*
X27095414Y-32429990D02*
X27190652Y-32382371D01*
X27190652Y-32382371D02*
X27428747Y-32382371D01*
X27428747Y-32382371D02*
X27523985Y-32429990D01*
X27523985Y-32429990D02*
X27571604Y-32477609D01*
X27571604Y-32477609D02*
X27619223Y-32572847D01*
X27619223Y-32572847D02*
X27619223Y-32810942D01*
X27619223Y-32810942D02*
X27571604Y-32906180D01*
X27571604Y-32906180D02*
X27523985Y-32953800D01*
X27523985Y-32953800D02*
X27428747Y-33001419D01*
X27428747Y-33001419D02*
X27190652Y-33001419D01*
X27190652Y-33001419D02*
X27095414Y-32953800D01*
X27095414Y-32953800D02*
X27047795Y-32906180D01*
D11*
%TO.C,R3*%
X19388950Y-43117037D02*
X19388950Y-43591553D01*
X18343950Y-43117037D02*
X18343950Y-43591553D01*
%TO.C,G\u002A\u002A\u002A*%
G36*
X25402167Y-49093146D02*
G01*
X25398833Y-49096480D01*
X25395499Y-49093146D01*
X25398833Y-49089811D01*
X25402167Y-49093146D01*
G37*
G36*
X22148016Y-50695674D02*
G01*
X22172408Y-50697161D01*
X22205534Y-50699304D01*
X22245111Y-50701954D01*
X22288855Y-50704963D01*
X22308022Y-50706304D01*
X22378509Y-50710464D01*
X22455055Y-50713570D01*
X22534769Y-50715604D01*
X22614762Y-50716544D01*
X22692146Y-50716371D01*
X22764031Y-50715065D01*
X22827528Y-50712604D01*
X22865169Y-50710205D01*
X22907730Y-50707373D01*
X22957058Y-50704821D01*
X23006583Y-50702854D01*
X23044016Y-50701870D01*
X23136509Y-50700234D01*
X23149913Y-50717992D01*
X23159428Y-50736806D01*
X23158666Y-50754668D01*
X23150397Y-50770658D01*
X23133157Y-50792133D01*
X23109020Y-50817103D01*
X23080060Y-50843575D01*
X23048348Y-50869559D01*
X23015958Y-50893062D01*
X23011540Y-50896007D01*
X22927076Y-50945873D01*
X22843765Y-50983020D01*
X22760107Y-51007801D01*
X22674599Y-51020567D01*
X22585741Y-51021670D01*
X22507998Y-51013926D01*
X22422011Y-50995087D01*
X22336387Y-50964190D01*
X22253477Y-50922368D01*
X22175632Y-50870749D01*
X22126900Y-50830727D01*
X22095888Y-50799019D01*
X22075751Y-50769849D01*
X22066438Y-50744159D01*
X22067892Y-50722893D01*
X22080062Y-50706991D01*
X22102892Y-50697397D01*
X22134643Y-50694992D01*
X22148016Y-50695674D01*
G37*
G36*
X23131439Y-49784551D02*
G01*
X23186246Y-49802170D01*
X23238679Y-49830752D01*
X23287198Y-49869842D01*
X23320351Y-49906105D01*
X23330542Y-49922201D01*
X23343308Y-49947175D01*
X23356989Y-49977256D01*
X23369925Y-50008677D01*
X23380456Y-50037669D01*
X23385219Y-50053398D01*
X23391611Y-50087970D01*
X23395282Y-50130581D01*
X23396240Y-50176803D01*
X23394492Y-50222208D01*
X23390046Y-50262369D01*
X23384818Y-50286833D01*
X23364547Y-50344186D01*
X23339002Y-50395070D01*
X23309838Y-50436223D01*
X23307854Y-50438486D01*
X23263046Y-50480078D01*
X23213303Y-50510503D01*
X23160158Y-50529328D01*
X23105147Y-50536120D01*
X23049806Y-50530447D01*
X23016337Y-50520605D01*
X22959288Y-50492817D01*
X22910111Y-50454603D01*
X22868389Y-50405576D01*
X22837564Y-50353283D01*
X22811705Y-50289417D01*
X22795699Y-50223171D01*
X22789171Y-50156131D01*
X22789998Y-50134829D01*
X22934337Y-50134829D01*
X22936797Y-50191532D01*
X22947215Y-50246053D01*
X22965344Y-50296001D01*
X22990936Y-50338985D01*
X23017731Y-50367711D01*
X23052547Y-50390586D01*
X23088029Y-50400146D01*
X23124243Y-50396401D01*
X23148689Y-50386587D01*
X23164023Y-50375866D01*
X23181471Y-50359839D01*
X23187222Y-50353632D01*
X23218038Y-50308843D01*
X23239613Y-50256634D01*
X23251742Y-50199393D01*
X23254218Y-50139509D01*
X23246836Y-50079372D01*
X23229391Y-50021371D01*
X23217986Y-49996173D01*
X23191559Y-49954869D01*
X23160859Y-49925017D01*
X23127326Y-49906740D01*
X23092399Y-49900162D01*
X23057516Y-49905406D01*
X23024117Y-49922595D01*
X22993641Y-49951853D01*
X22977178Y-49975548D01*
X22954280Y-50024445D01*
X22940082Y-50078336D01*
X22934337Y-50134829D01*
X22789998Y-50134829D01*
X22791743Y-50089885D01*
X22803041Y-50026019D01*
X22822689Y-49966121D01*
X22850309Y-49911777D01*
X22885525Y-49864574D01*
X22927963Y-49826101D01*
X22968195Y-49802031D01*
X23020872Y-49784026D01*
X23075800Y-49778351D01*
X23131439Y-49784551D01*
G37*
G36*
X22197268Y-49779401D02*
G01*
X22252826Y-49790917D01*
X22303702Y-49814493D01*
X22349181Y-49849455D01*
X22388550Y-49895132D01*
X22421096Y-49950849D01*
X22445329Y-50013387D01*
X22452566Y-50047429D01*
X22456902Y-50090362D01*
X22458331Y-50138058D01*
X22456852Y-50186390D01*
X22452458Y-50231231D01*
X22445596Y-50266775D01*
X22421688Y-50333840D01*
X22387511Y-50394925D01*
X22344342Y-50448254D01*
X22293459Y-50492051D01*
X22274774Y-50504366D01*
X22236398Y-50521526D01*
X22190986Y-50531967D01*
X22143285Y-50535216D01*
X22098041Y-50530799D01*
X22074284Y-50524355D01*
X22015749Y-50496650D01*
X21965074Y-50458268D01*
X21922532Y-50409503D01*
X21888395Y-50350645D01*
X21870312Y-50305570D01*
X21857378Y-50254777D01*
X21849939Y-50197395D01*
X21849435Y-50179860D01*
X21987917Y-50179860D01*
X21992531Y-50225370D01*
X22000452Y-50257728D01*
X22019920Y-50306454D01*
X22041259Y-50343566D01*
X22065745Y-50370775D01*
X22094655Y-50389792D01*
X22101301Y-50392858D01*
X22125590Y-50401164D01*
X22147785Y-50402394D01*
X22174734Y-50396909D01*
X22175318Y-50396747D01*
X22204858Y-50382133D01*
X22232917Y-50356241D01*
X22258186Y-50321132D01*
X22279353Y-50278863D01*
X22295109Y-50231493D01*
X22302023Y-50197685D01*
X22306068Y-50144663D01*
X22302412Y-50093386D01*
X22291906Y-50045250D01*
X22275400Y-50001648D01*
X22253744Y-49963976D01*
X22227788Y-49933628D01*
X22198384Y-49911999D01*
X22166382Y-49900483D01*
X22132631Y-49900475D01*
X22122288Y-49902927D01*
X22086125Y-49920369D01*
X22053852Y-49949873D01*
X22026242Y-49990534D01*
X22004064Y-50041449D01*
X22003950Y-50041778D01*
X21993704Y-50083280D01*
X21988334Y-50130902D01*
X21987917Y-50179860D01*
X21849435Y-50179860D01*
X21848247Y-50138520D01*
X21852549Y-50083248D01*
X21857998Y-50054403D01*
X21880112Y-49986235D01*
X21910845Y-49926453D01*
X21949322Y-49875764D01*
X21994670Y-49834877D01*
X22046014Y-49804500D01*
X22102480Y-49785342D01*
X22163194Y-49778112D01*
X22197268Y-49779401D01*
G37*
G36*
X26495788Y-50066734D02*
G01*
X26492200Y-51536600D01*
X23545800Y-51536600D01*
X20497800Y-51536600D01*
X20494213Y-50963140D01*
X21192758Y-50963140D01*
X21194380Y-51005558D01*
X21198524Y-51044098D01*
X21205192Y-51075362D01*
X21211502Y-51091365D01*
X21218562Y-51108725D01*
X21221070Y-51122224D01*
X21225873Y-51137439D01*
X21231073Y-51143684D01*
X21239565Y-51155415D01*
X21241075Y-51161879D01*
X21245460Y-51173617D01*
X21256913Y-51191290D01*
X21272885Y-51211595D01*
X21290824Y-51231228D01*
X21304248Y-51243703D01*
X21320310Y-51257607D01*
X21333527Y-51269691D01*
X21334766Y-51270893D01*
X21347727Y-51281507D01*
X21354948Y-51285855D01*
X21369454Y-51293267D01*
X21374444Y-51296038D01*
X21415965Y-51313918D01*
X21467407Y-51326333D01*
X21526381Y-51332961D01*
X21590504Y-51333482D01*
X21631178Y-51330658D01*
X21666766Y-51327653D01*
X21704097Y-51325324D01*
X21736857Y-51324040D01*
X21746646Y-51323903D01*
X21772900Y-51322773D01*
X21795497Y-51319967D01*
X21809690Y-51316084D01*
X21809996Y-51315925D01*
X21815368Y-51313817D01*
X21823979Y-51311841D01*
X21836875Y-51309923D01*
X21855104Y-51307990D01*
X21879713Y-51305968D01*
X21911749Y-51303784D01*
X21952260Y-51301364D01*
X22002292Y-51298634D01*
X22062893Y-51295521D01*
X22135110Y-51291951D01*
X22187167Y-51289429D01*
X22238726Y-51287030D01*
X22278726Y-51285431D01*
X22308921Y-51284658D01*
X22331066Y-51284737D01*
X22346917Y-51285693D01*
X22358228Y-51287552D01*
X22366754Y-51290340D01*
X22370548Y-51292103D01*
X22387770Y-51297948D01*
X22412876Y-51303162D01*
X22440359Y-51306608D01*
X22465966Y-51309348D01*
X22487268Y-51312798D01*
X22499915Y-51316243D01*
X22500375Y-51316471D01*
X22509831Y-51318246D01*
X22530710Y-51320193D01*
X22561100Y-51322198D01*
X22599089Y-51324150D01*
X22642767Y-51325935D01*
X22683307Y-51327248D01*
X22731052Y-51328784D01*
X22775401Y-51330532D01*
X22814291Y-51332388D01*
X22845659Y-51334243D01*
X22867443Y-51335991D01*
X22876691Y-51337266D01*
X22891377Y-51339064D01*
X22917622Y-51340509D01*
X22953649Y-51341601D01*
X22997685Y-51342342D01*
X23047955Y-51342734D01*
X23102686Y-51342779D01*
X23160101Y-51342477D01*
X23218428Y-51341831D01*
X23275891Y-51340843D01*
X23330716Y-51339513D01*
X23381129Y-51337844D01*
X23406290Y-51336784D01*
X23463242Y-51333734D01*
X23915110Y-51333734D01*
X23918445Y-51337068D01*
X23921779Y-51333734D01*
X23928447Y-51333734D01*
X23931781Y-51337068D01*
X23933375Y-51335474D01*
X23944676Y-51335474D01*
X23951231Y-51336541D01*
X23959880Y-51335315D01*
X23959952Y-51333734D01*
X23981795Y-51333734D01*
X23985129Y-51337068D01*
X23988463Y-51333734D01*
X23995131Y-51333734D01*
X23998466Y-51337068D01*
X24001800Y-51333734D01*
X24021805Y-51333734D01*
X24025139Y-51337068D01*
X24028473Y-51333734D01*
X24035142Y-51333734D01*
X24038476Y-51337068D01*
X24041810Y-51333734D01*
X24048479Y-51333734D01*
X24051813Y-51337068D01*
X24053407Y-51335474D01*
X24078045Y-51335474D01*
X24084599Y-51336541D01*
X24093248Y-51335315D01*
X24093320Y-51333734D01*
X24101826Y-51333734D01*
X24105160Y-51337068D01*
X24106754Y-51335474D01*
X24118055Y-51335474D01*
X24124610Y-51336541D01*
X24133259Y-51335315D01*
X24133331Y-51333734D01*
X24141837Y-51333734D01*
X24145171Y-51337068D01*
X24148505Y-51333734D01*
X24155173Y-51333734D01*
X24158508Y-51337068D01*
X24161842Y-51333734D01*
X24168510Y-51333734D01*
X24171844Y-51337068D01*
X24175179Y-51333734D01*
X24171844Y-51330399D01*
X24181847Y-51330399D01*
X24184287Y-51335888D01*
X24186293Y-51334845D01*
X24186405Y-51333734D01*
X24208521Y-51333734D01*
X24211855Y-51337068D01*
X24215189Y-51333734D01*
X24221858Y-51333734D01*
X24225192Y-51337068D01*
X24228526Y-51333734D01*
X24235194Y-51333734D01*
X24238529Y-51337068D01*
X24241863Y-51333734D01*
X24248531Y-51333734D01*
X24251865Y-51337068D01*
X24255200Y-51333734D01*
X24275205Y-51333734D01*
X24278539Y-51337068D01*
X24281873Y-51333734D01*
X24288542Y-51333734D01*
X24291876Y-51337068D01*
X24295210Y-51333734D01*
X24301879Y-51333734D01*
X24305213Y-51337068D01*
X24308547Y-51333734D01*
X24315215Y-51333734D01*
X24318550Y-51337068D01*
X24321884Y-51333734D01*
X24328552Y-51333734D01*
X24331886Y-51337068D01*
X24335221Y-51333734D01*
X24341889Y-51333734D01*
X24345223Y-51337068D01*
X24348557Y-51333734D01*
X24368563Y-51333734D01*
X24371897Y-51337068D01*
X24375231Y-51333734D01*
X24381900Y-51333734D01*
X24385234Y-51337068D01*
X24386828Y-51335474D01*
X24398129Y-51335474D01*
X24404683Y-51336541D01*
X24413332Y-51335315D01*
X24413404Y-51333734D01*
X24421910Y-51333734D01*
X24425244Y-51337068D01*
X24426838Y-51335474D01*
X24451476Y-51335474D01*
X24458031Y-51336541D01*
X24465558Y-51335474D01*
X24478150Y-51335474D01*
X24484704Y-51336541D01*
X24493353Y-51335315D01*
X24493425Y-51333734D01*
X24501931Y-51333734D01*
X24505265Y-51337068D01*
X24508599Y-51333734D01*
X24515268Y-51333734D01*
X24518602Y-51337068D01*
X24521936Y-51333734D01*
X24520824Y-51332622D01*
X24530828Y-51332622D01*
X24531743Y-51336587D01*
X24535273Y-51337068D01*
X24540762Y-51334628D01*
X24539719Y-51332622D01*
X24531805Y-51331824D01*
X24530828Y-51332622D01*
X24520824Y-51332622D01*
X24518602Y-51330399D01*
X24515268Y-51333734D01*
X24508599Y-51333734D01*
X24505265Y-51330399D01*
X24501931Y-51333734D01*
X24493425Y-51333734D01*
X24493457Y-51333039D01*
X24484532Y-51331447D01*
X24480675Y-51332513D01*
X24478150Y-51335474D01*
X24465558Y-51335474D01*
X24466680Y-51335315D01*
X24466783Y-51333039D01*
X24457858Y-51331447D01*
X24454002Y-51332513D01*
X24451476Y-51335474D01*
X24426838Y-51335474D01*
X24428578Y-51333734D01*
X24425244Y-51330399D01*
X24421910Y-51333734D01*
X24413404Y-51333734D01*
X24413436Y-51333039D01*
X24404511Y-51331447D01*
X24400654Y-51332513D01*
X24398129Y-51335474D01*
X24386828Y-51335474D01*
X24388568Y-51333734D01*
X24385234Y-51330399D01*
X24381900Y-51333734D01*
X24375231Y-51333734D01*
X24371897Y-51330399D01*
X24368563Y-51333734D01*
X24348557Y-51333734D01*
X24345223Y-51330399D01*
X24341889Y-51333734D01*
X24335221Y-51333734D01*
X24331886Y-51330399D01*
X24328552Y-51333734D01*
X24321884Y-51333734D01*
X24318550Y-51330399D01*
X24315215Y-51333734D01*
X24308547Y-51333734D01*
X24305213Y-51330399D01*
X24301879Y-51333734D01*
X24295210Y-51333734D01*
X24291876Y-51330399D01*
X24288542Y-51333734D01*
X24281873Y-51333734D01*
X24278539Y-51330399D01*
X24275205Y-51333734D01*
X24255200Y-51333734D01*
X24251865Y-51330399D01*
X24248531Y-51333734D01*
X24241863Y-51333734D01*
X24238529Y-51330399D01*
X24235194Y-51333734D01*
X24228526Y-51333734D01*
X24225192Y-51330399D01*
X24221858Y-51333734D01*
X24215189Y-51333734D01*
X24211855Y-51330399D01*
X24208521Y-51333734D01*
X24186405Y-51333734D01*
X24187091Y-51326931D01*
X24186293Y-51325954D01*
X24182328Y-51326869D01*
X24181847Y-51330399D01*
X24171844Y-51330399D01*
X24168510Y-51333734D01*
X24161842Y-51333734D01*
X24158508Y-51330399D01*
X24155173Y-51333734D01*
X24148505Y-51333734D01*
X24145171Y-51330399D01*
X24141837Y-51333734D01*
X24133331Y-51333734D01*
X24133362Y-51333039D01*
X24124437Y-51331447D01*
X24120581Y-51332513D01*
X24118055Y-51335474D01*
X24106754Y-51335474D01*
X24108494Y-51333734D01*
X24105160Y-51330399D01*
X24101826Y-51333734D01*
X24093320Y-51333734D01*
X24093352Y-51333039D01*
X24084427Y-51331447D01*
X24080570Y-51332513D01*
X24078045Y-51335474D01*
X24053407Y-51335474D01*
X24055147Y-51333734D01*
X24051813Y-51330399D01*
X24048479Y-51333734D01*
X24041810Y-51333734D01*
X24038476Y-51330399D01*
X24035142Y-51333734D01*
X24028473Y-51333734D01*
X24025139Y-51330399D01*
X24021805Y-51333734D01*
X24001800Y-51333734D01*
X23998466Y-51330399D01*
X23995131Y-51333734D01*
X23988463Y-51333734D01*
X23985129Y-51330399D01*
X23981795Y-51333734D01*
X23959952Y-51333734D01*
X23959983Y-51333039D01*
X23951058Y-51331447D01*
X23947202Y-51332513D01*
X23944676Y-51335474D01*
X23933375Y-51335474D01*
X23935116Y-51333734D01*
X23931781Y-51330399D01*
X23928447Y-51333734D01*
X23921779Y-51333734D01*
X23918445Y-51330399D01*
X23915110Y-51333734D01*
X23463242Y-51333734D01*
X23487069Y-51332458D01*
X23555599Y-51327423D01*
X23572944Y-51325643D01*
X24549685Y-51325643D01*
X24551307Y-51329369D01*
X24558022Y-51336528D01*
X24561882Y-51335059D01*
X24561947Y-51334127D01*
X24561617Y-51333734D01*
X24575284Y-51333734D01*
X24578618Y-51337068D01*
X24581952Y-51333734D01*
X24578618Y-51330399D01*
X24575284Y-51333734D01*
X24561617Y-51333734D01*
X24557210Y-51328487D01*
X24554248Y-51326429D01*
X24549685Y-51325643D01*
X23572944Y-51325643D01*
X23612956Y-51321537D01*
X23660217Y-51314659D01*
X23675334Y-51311492D01*
X23938784Y-51311492D01*
X23938881Y-51311937D01*
X23945919Y-51312512D01*
X23965036Y-51313070D01*
X23994973Y-51313599D01*
X24034473Y-51314085D01*
X24082276Y-51314517D01*
X24137124Y-51314881D01*
X24197761Y-51315165D01*
X24262926Y-51315357D01*
X24285219Y-51315398D01*
X24369631Y-51315429D01*
X24441202Y-51315231D01*
X24500426Y-51314796D01*
X24547796Y-51314113D01*
X24562546Y-51313728D01*
X24641968Y-51313728D01*
X24645302Y-51317063D01*
X24648636Y-51313728D01*
X24645302Y-51310394D01*
X24641968Y-51313728D01*
X24562546Y-51313728D01*
X24583808Y-51313173D01*
X24608955Y-51311966D01*
X24623731Y-51310483D01*
X24628630Y-51308713D01*
X24628631Y-51308687D01*
X24632676Y-51298153D01*
X24633474Y-51297057D01*
X24655305Y-51297057D01*
X24657745Y-51302546D01*
X24659750Y-51301503D01*
X24660548Y-51293589D01*
X24659750Y-51292612D01*
X24655786Y-51293527D01*
X24655305Y-51297057D01*
X24633474Y-51297057D01*
X24637949Y-51290914D01*
X24645716Y-51280386D01*
X24661973Y-51280386D01*
X24665307Y-51283721D01*
X24668641Y-51280386D01*
X24665307Y-51277052D01*
X24661973Y-51280386D01*
X24645716Y-51280386D01*
X24648090Y-51277168D01*
X24660956Y-51256858D01*
X24673662Y-51234882D01*
X24679645Y-51223271D01*
X24696950Y-51223271D01*
X24697862Y-51223705D01*
X24703948Y-51219010D01*
X24705318Y-51217036D01*
X24707017Y-51210802D01*
X24706105Y-51210368D01*
X24700019Y-51215062D01*
X24698649Y-51217036D01*
X24696950Y-51223271D01*
X24679645Y-51223271D01*
X24683321Y-51216138D01*
X24686383Y-51208701D01*
X24692349Y-51198850D01*
X24696093Y-51197031D01*
X24701322Y-51191619D01*
X24701984Y-51187029D01*
X24715320Y-51187029D01*
X24718655Y-51190363D01*
X24721989Y-51187029D01*
X24718655Y-51183694D01*
X24715320Y-51187029D01*
X24701984Y-51187029D01*
X24705171Y-51178148D01*
X24707874Y-51177026D01*
X24714018Y-51171365D01*
X24716055Y-51167023D01*
X24728657Y-51167023D01*
X24731991Y-51170357D01*
X24735326Y-51167023D01*
X24731991Y-51163689D01*
X24728657Y-51167023D01*
X24716055Y-51167023D01*
X24720331Y-51157909D01*
X24724400Y-51141947D01*
X24724598Y-51140350D01*
X24728689Y-51133681D01*
X24748662Y-51133681D01*
X24751997Y-51137015D01*
X24755331Y-51133681D01*
X24751997Y-51130347D01*
X24748662Y-51133681D01*
X24728689Y-51133681D01*
X24730241Y-51131150D01*
X24734028Y-51128142D01*
X24741998Y-51118938D01*
X24755331Y-51118938D01*
X24756642Y-51123637D01*
X24757218Y-51123123D01*
X24762198Y-51116175D01*
X24768888Y-51107008D01*
X24775160Y-51097939D01*
X24772838Y-51098370D01*
X24767001Y-51102823D01*
X24757638Y-51112984D01*
X24755331Y-51118938D01*
X24741998Y-51118938D01*
X24742524Y-51118330D01*
X24750212Y-51103517D01*
X24753362Y-51091020D01*
X24753305Y-51090336D01*
X24753559Y-51089902D01*
X24776971Y-51089902D01*
X24777883Y-51090336D01*
X24783969Y-51085642D01*
X24785339Y-51083668D01*
X24787038Y-51077434D01*
X24786126Y-51077000D01*
X24780040Y-51081694D01*
X24778670Y-51083668D01*
X24776971Y-51089902D01*
X24753559Y-51089902D01*
X24757127Y-51083804D01*
X24767165Y-51071665D01*
X24770775Y-51067690D01*
X24776354Y-51060636D01*
X24791049Y-51060636D01*
X24791538Y-51063663D01*
X24796894Y-51058551D01*
X24802010Y-51050326D01*
X24806302Y-51040016D01*
X24805813Y-51036989D01*
X24800458Y-51042101D01*
X24795341Y-51050326D01*
X24791049Y-51060636D01*
X24776354Y-51060636D01*
X24782310Y-51053105D01*
X24788393Y-51041241D01*
X24788673Y-51039350D01*
X24792157Y-51031113D01*
X24794564Y-51030321D01*
X24801265Y-51024879D01*
X24804155Y-51018651D01*
X24809863Y-51005680D01*
X24812754Y-51000313D01*
X24828683Y-51000313D01*
X24832018Y-51003647D01*
X24835352Y-51000313D01*
X24832018Y-50996979D01*
X24828683Y-51000313D01*
X24812754Y-51000313D01*
X24819191Y-50988365D01*
X24820036Y-50986976D01*
X24835352Y-50986976D01*
X24838686Y-50990310D01*
X24842020Y-50986976D01*
X24838686Y-50983642D01*
X24835352Y-50986976D01*
X24820036Y-50986976D01*
X24828933Y-50972342D01*
X24835453Y-50963637D01*
X24839558Y-50956968D01*
X24855357Y-50956968D01*
X24857797Y-50962457D01*
X24859803Y-50961414D01*
X24860601Y-50953500D01*
X24859803Y-50952523D01*
X24855838Y-50953438D01*
X24855357Y-50956968D01*
X24839558Y-50956968D01*
X24840111Y-50956069D01*
X24847961Y-50940740D01*
X24848173Y-50940297D01*
X24862026Y-50940297D01*
X24865360Y-50943631D01*
X24868694Y-50940297D01*
X24865360Y-50936963D01*
X24862026Y-50940297D01*
X24848173Y-50940297D01*
X24852124Y-50932038D01*
X24853757Y-50928934D01*
X24870337Y-50928934D01*
X24872477Y-50928422D01*
X24879222Y-50922118D01*
X24887170Y-50912362D01*
X24888050Y-50907417D01*
X24882774Y-50909905D01*
X24876032Y-50918928D01*
X24870337Y-50928934D01*
X24853757Y-50928934D01*
X24860914Y-50915328D01*
X24868131Y-50905144D01*
X24870361Y-50903697D01*
X24875172Y-50898437D01*
X24875362Y-50896487D01*
X24878336Y-50888768D01*
X24891443Y-50888768D01*
X24892318Y-50890745D01*
X24897792Y-50896568D01*
X24899774Y-50889707D01*
X24899813Y-50887243D01*
X24896871Y-50880555D01*
X24894147Y-50881035D01*
X24891443Y-50888768D01*
X24878336Y-50888768D01*
X24878898Y-50887310D01*
X24887955Y-50871560D01*
X24895368Y-50860276D01*
X24899629Y-50853608D01*
X24915373Y-50853608D01*
X24918707Y-50856942D01*
X24922041Y-50853608D01*
X24918707Y-50850273D01*
X24915373Y-50853608D01*
X24899629Y-50853608D01*
X24906690Y-50842559D01*
X24913941Y-50828790D01*
X24915373Y-50824065D01*
X24919630Y-50817212D01*
X24921264Y-50816931D01*
X24921748Y-50816497D01*
X24937013Y-50816497D01*
X24937925Y-50816931D01*
X24944011Y-50812237D01*
X24945381Y-50810263D01*
X24947080Y-50804029D01*
X24946168Y-50803595D01*
X24940082Y-50808289D01*
X24938712Y-50810263D01*
X24937013Y-50816497D01*
X24921748Y-50816497D01*
X24927464Y-50811375D01*
X24930701Y-50803370D01*
X24931569Y-50795469D01*
X24926821Y-50791595D01*
X24913515Y-50790551D01*
X24899803Y-50790797D01*
X24880993Y-50791112D01*
X24852148Y-50791320D01*
X24816569Y-50791411D01*
X24777556Y-50791371D01*
X24758665Y-50791303D01*
X24723036Y-50791164D01*
X24677090Y-50791019D01*
X24623847Y-50790875D01*
X24566327Y-50790740D01*
X24507550Y-50790622D01*
X24451918Y-50790530D01*
X24401410Y-50790446D01*
X24355142Y-50790350D01*
X24319472Y-50790258D01*
X24948715Y-50790258D01*
X24950990Y-50796753D01*
X24951656Y-50796926D01*
X24957349Y-50792253D01*
X24958718Y-50790258D01*
X24958189Y-50784113D01*
X24955777Y-50783589D01*
X24948986Y-50788430D01*
X24948715Y-50790258D01*
X24319472Y-50790258D01*
X24314819Y-50790246D01*
X24282144Y-50790140D01*
X24258820Y-50790036D01*
X24246549Y-50789940D01*
X24245197Y-50789910D01*
X24236229Y-50789914D01*
X24216830Y-50790171D01*
X24189902Y-50790637D01*
X24159965Y-50791232D01*
X24124214Y-50792397D01*
X24100532Y-50794222D01*
X24087660Y-50796866D01*
X24084340Y-50800488D01*
X24084436Y-50800791D01*
X24103640Y-50861704D01*
X24115966Y-50924716D01*
X24120961Y-50986073D01*
X24118171Y-51042019D01*
X24115552Y-51058205D01*
X24096479Y-51121653D01*
X24064863Y-51180946D01*
X24020956Y-51235688D01*
X23975176Y-51277535D01*
X23956846Y-51292887D01*
X23943936Y-51304945D01*
X23938784Y-51311492D01*
X23675334Y-51311492D01*
X23698457Y-51306648D01*
X23728753Y-51297361D01*
X23739405Y-51293030D01*
X23755571Y-51286681D01*
X23766664Y-51283744D01*
X23767205Y-51283721D01*
X23778901Y-51280272D01*
X23801033Y-51270197D01*
X23828421Y-51256174D01*
X23840057Y-51250136D01*
X23858285Y-51240795D01*
X23868431Y-51235626D01*
X23891673Y-51220593D01*
X23918874Y-51198165D01*
X23946746Y-51171593D01*
X23972005Y-51144125D01*
X23991362Y-51119013D01*
X23998492Y-51107008D01*
X24007493Y-51090101D01*
X24014509Y-51078889D01*
X24016198Y-51076981D01*
X24019114Y-51069263D01*
X24023049Y-51051632D01*
X24027300Y-51027397D01*
X24028691Y-51018248D01*
X24032027Y-50980179D01*
X24031983Y-50938790D01*
X24028895Y-50897896D01*
X24023098Y-50861310D01*
X24014929Y-50832846D01*
X24011766Y-50825880D01*
X24004786Y-50810240D01*
X24001841Y-50799164D01*
X24001841Y-50799134D01*
X23998467Y-50787378D01*
X23993351Y-50776487D01*
X24763634Y-50776487D01*
X24764546Y-50776921D01*
X24770632Y-50772226D01*
X24772002Y-50770252D01*
X24773213Y-50765807D01*
X24917596Y-50765807D01*
X24918511Y-50769771D01*
X24922041Y-50770252D01*
X24927530Y-50767813D01*
X24927065Y-50766918D01*
X24935378Y-50766918D01*
X24938712Y-50770252D01*
X24942047Y-50766918D01*
X24938712Y-50763584D01*
X24935378Y-50766918D01*
X24927065Y-50766918D01*
X24926487Y-50765807D01*
X24918573Y-50765009D01*
X24917596Y-50765807D01*
X24773213Y-50765807D01*
X24773701Y-50764018D01*
X24772789Y-50763584D01*
X24766704Y-50768278D01*
X24765334Y-50770252D01*
X24763634Y-50776487D01*
X23993351Y-50776487D01*
X23990236Y-50769857D01*
X23988550Y-50766918D01*
X24121831Y-50766918D01*
X24125166Y-50770252D01*
X24128500Y-50766918D01*
X24741994Y-50766918D01*
X24745328Y-50770252D01*
X24748662Y-50766918D01*
X24745328Y-50763584D01*
X24741994Y-50766918D01*
X24128500Y-50766918D01*
X24125166Y-50763584D01*
X24121831Y-50766918D01*
X23988550Y-50766918D01*
X23979867Y-50751781D01*
X23970125Y-50738405D01*
X23963017Y-50728235D01*
X23961789Y-50724288D01*
X23957378Y-50717431D01*
X23945871Y-50704087D01*
X23929858Y-50686940D01*
X23911930Y-50668671D01*
X23894676Y-50651963D01*
X23880687Y-50639496D01*
X23877381Y-50636884D01*
X23834014Y-50608840D01*
X23787015Y-50587865D01*
X23732982Y-50572659D01*
X23688384Y-50564636D01*
X23669807Y-50561087D01*
X23660648Y-50555581D01*
X23657045Y-50544922D01*
X23656252Y-50538053D01*
X23657950Y-50517023D01*
X23664587Y-50499944D01*
X23672431Y-50483962D01*
X23675088Y-50472075D01*
X23678247Y-50458141D01*
X23685826Y-50440836D01*
X23686193Y-50440166D01*
X23691190Y-50423895D01*
X23694928Y-50397426D01*
X23697402Y-50363757D01*
X23698610Y-50325891D01*
X23698547Y-50286825D01*
X23697210Y-50249561D01*
X23694594Y-50217098D01*
X23690697Y-50192437D01*
X23686518Y-50180098D01*
X23678529Y-50161764D01*
X23675091Y-50145354D01*
X23675088Y-50145088D01*
X23672788Y-50133373D01*
X23669031Y-50130084D01*
X23666166Y-50127558D01*
X23755989Y-50127558D01*
X23756011Y-50139172D01*
X23760303Y-50156982D01*
X23767536Y-50179216D01*
X23779975Y-50229309D01*
X23786720Y-50288188D01*
X23787641Y-50352513D01*
X23782605Y-50418950D01*
X23778172Y-50449788D01*
X23773600Y-50479903D01*
X23770529Y-50505639D01*
X23769283Y-50523860D01*
X23769795Y-50530862D01*
X23777272Y-50537494D01*
X23794118Y-50547110D01*
X23817215Y-50558005D01*
X23826845Y-50562070D01*
X23898527Y-50597003D01*
X23958857Y-50638593D01*
X23991857Y-50669006D01*
X24008934Y-50685951D01*
X24022731Y-50698268D01*
X24030470Y-50703494D01*
X24030765Y-50703532D01*
X24036772Y-50698018D01*
X24039878Y-50690231D01*
X24045156Y-50679421D01*
X24049256Y-50676895D01*
X24053758Y-50672838D01*
X24053566Y-50671893D01*
X24055262Y-50666892D01*
X24075152Y-50666892D01*
X24078487Y-50670226D01*
X24081821Y-50666892D01*
X24078487Y-50663558D01*
X24075152Y-50666892D01*
X24055262Y-50666892D01*
X24056205Y-50664111D01*
X24062209Y-50653555D01*
X24081821Y-50653555D01*
X24085155Y-50656889D01*
X24088489Y-50653555D01*
X24085155Y-50650221D01*
X24081821Y-50653555D01*
X24062209Y-50653555D01*
X24064672Y-50649224D01*
X24073571Y-50635683D01*
X24085400Y-50617407D01*
X24091148Y-50606876D01*
X24108494Y-50606876D01*
X24111829Y-50610210D01*
X24115163Y-50606876D01*
X24111829Y-50603542D01*
X24108494Y-50606876D01*
X24091148Y-50606876D01*
X24093241Y-50603042D01*
X24095158Y-50597339D01*
X24097519Y-50593539D01*
X24115163Y-50593539D01*
X24118497Y-50596874D01*
X24121831Y-50593539D01*
X24118497Y-50590205D01*
X24115163Y-50593539D01*
X24097519Y-50593539D01*
X24099415Y-50590486D01*
X24101048Y-50590205D01*
X24106961Y-50584689D01*
X24110839Y-50576434D01*
X24123466Y-50576434D01*
X24124378Y-50576868D01*
X24130464Y-50572174D01*
X24131834Y-50570200D01*
X24133533Y-50563966D01*
X24132621Y-50563532D01*
X24126536Y-50568226D01*
X24125166Y-50570200D01*
X24123466Y-50576434D01*
X24110839Y-50576434D01*
X24112799Y-50572263D01*
X24115942Y-50559106D01*
X24115884Y-50555196D01*
X24120097Y-50550278D01*
X24121177Y-50550195D01*
X24126746Y-50544639D01*
X24136214Y-50529878D01*
X24147796Y-50508772D01*
X24151185Y-50502095D01*
X24162189Y-50480660D01*
X24162457Y-50480176D01*
X24181847Y-50480176D01*
X24185181Y-50483511D01*
X24188515Y-50480176D01*
X24185181Y-50476842D01*
X24181847Y-50480176D01*
X24162457Y-50480176D01*
X24170460Y-50465728D01*
X24197407Y-50465728D01*
X24198322Y-50469692D01*
X24201852Y-50470174D01*
X24207341Y-50467734D01*
X24206298Y-50465728D01*
X24217412Y-50465728D01*
X24218327Y-50469692D01*
X24221858Y-50470174D01*
X24227346Y-50467734D01*
X24226303Y-50465728D01*
X24330775Y-50465728D01*
X24331690Y-50469692D01*
X24335221Y-50470174D01*
X24340710Y-50467734D01*
X24340244Y-50466839D01*
X24461921Y-50466839D01*
X24465255Y-50470174D01*
X24468589Y-50466839D01*
X24535273Y-50466839D01*
X24538607Y-50470174D01*
X24541942Y-50466839D01*
X24568615Y-50466839D01*
X24571949Y-50470174D01*
X24575284Y-50466839D01*
X24595289Y-50466839D01*
X24598623Y-50470174D01*
X24601957Y-50466839D01*
X24608626Y-50466839D01*
X24611960Y-50470174D01*
X24615294Y-50466839D01*
X24748662Y-50466839D01*
X24751997Y-50470174D01*
X24755331Y-50466839D01*
X24775336Y-50466839D01*
X24778670Y-50470174D01*
X24782005Y-50466839D01*
X25068746Y-50466839D01*
X25072081Y-50470174D01*
X25075415Y-50466839D01*
X25108757Y-50466839D01*
X25112091Y-50470174D01*
X25115425Y-50466839D01*
X25114314Y-50465728D01*
X25130985Y-50465728D01*
X25131900Y-50469692D01*
X25135431Y-50470174D01*
X25140920Y-50467734D01*
X25139876Y-50465728D01*
X25131962Y-50464930D01*
X25130985Y-50465728D01*
X25114314Y-50465728D01*
X25112091Y-50463505D01*
X25108757Y-50466839D01*
X25075415Y-50466839D01*
X25072081Y-50463505D01*
X25068746Y-50466839D01*
X24782005Y-50466839D01*
X24778670Y-50463505D01*
X24775336Y-50466839D01*
X24755331Y-50466839D01*
X24751997Y-50463505D01*
X24748662Y-50466839D01*
X24615294Y-50466839D01*
X24611960Y-50463505D01*
X24608626Y-50466839D01*
X24601957Y-50466839D01*
X24598623Y-50463505D01*
X24595289Y-50466839D01*
X24575284Y-50466839D01*
X24571949Y-50463505D01*
X24568615Y-50466839D01*
X24541942Y-50466839D01*
X24538607Y-50463505D01*
X24535273Y-50466839D01*
X24468589Y-50466839D01*
X24465255Y-50463505D01*
X24461921Y-50466839D01*
X24340244Y-50466839D01*
X24339666Y-50465728D01*
X24331752Y-50464930D01*
X24330775Y-50465728D01*
X24226303Y-50465728D01*
X24218389Y-50464930D01*
X24217412Y-50465728D01*
X24206298Y-50465728D01*
X24198384Y-50464930D01*
X24197407Y-50465728D01*
X24170460Y-50465728D01*
X24170536Y-50465590D01*
X24174864Y-50459298D01*
X24175179Y-50459567D01*
X24179248Y-50460690D01*
X24185049Y-50456947D01*
X24190048Y-50455282D01*
X24201250Y-50453839D01*
X24206195Y-50453503D01*
X25148768Y-50453503D01*
X25152102Y-50456837D01*
X25155436Y-50453503D01*
X25152102Y-50450168D01*
X25148768Y-50453503D01*
X24206195Y-50453503D01*
X24219396Y-50452606D01*
X24245227Y-50451568D01*
X24279483Y-50450714D01*
X24322905Y-50450031D01*
X24376234Y-50449506D01*
X24440210Y-50449126D01*
X24515575Y-50448879D01*
X24603068Y-50448753D01*
X24664774Y-50448729D01*
X25134628Y-50448703D01*
X25146897Y-50430163D01*
X25162104Y-50430163D01*
X25164544Y-50435652D01*
X25166550Y-50434609D01*
X25167348Y-50426695D01*
X25166550Y-50425718D01*
X25162586Y-50426633D01*
X25162104Y-50430163D01*
X25146897Y-50430163D01*
X25151950Y-50422528D01*
X25160801Y-50406824D01*
X25182110Y-50406824D01*
X25185444Y-50410158D01*
X25188778Y-50406824D01*
X25185444Y-50403490D01*
X25182110Y-50406824D01*
X25160801Y-50406824D01*
X25161392Y-50405776D01*
X25165596Y-50393124D01*
X25165192Y-50389754D01*
X25166250Y-50384889D01*
X25169786Y-50384986D01*
X25177284Y-50380838D01*
X25180801Y-50371407D01*
X25186328Y-50357831D01*
X25192629Y-50352355D01*
X25201165Y-50343672D01*
X25202115Y-50339147D01*
X25205533Y-50329703D01*
X25223755Y-50329703D01*
X25224667Y-50330137D01*
X25230753Y-50325443D01*
X25232123Y-50323469D01*
X25233822Y-50317234D01*
X25232910Y-50316800D01*
X25226824Y-50321495D01*
X25225454Y-50323469D01*
X25223755Y-50329703D01*
X25205533Y-50329703D01*
X25206369Y-50327392D01*
X25214555Y-50316226D01*
X25221596Y-50306797D01*
X25235457Y-50306797D01*
X25238791Y-50310132D01*
X25242125Y-50306797D01*
X25238791Y-50303463D01*
X25235457Y-50306797D01*
X25221596Y-50306797D01*
X25224881Y-50302398D01*
X25234364Y-50286792D01*
X25248794Y-50286792D01*
X25252128Y-50290126D01*
X25255462Y-50286792D01*
X25252128Y-50283458D01*
X25248794Y-50286792D01*
X25234364Y-50286792D01*
X25237062Y-50282351D01*
X25241810Y-50273455D01*
X25255462Y-50273455D01*
X25258796Y-50276790D01*
X25262131Y-50273455D01*
X25258796Y-50270121D01*
X25255462Y-50273455D01*
X25241810Y-50273455D01*
X25242857Y-50271493D01*
X25249043Y-50260119D01*
X25262131Y-50260119D01*
X25265465Y-50263453D01*
X25268799Y-50260119D01*
X25265465Y-50256784D01*
X25262131Y-50260119D01*
X25249043Y-50260119D01*
X25253633Y-50251681D01*
X25263494Y-50236008D01*
X25267493Y-50230902D01*
X25270343Y-50226776D01*
X25282136Y-50226776D01*
X25285470Y-50230111D01*
X25288804Y-50226776D01*
X25285470Y-50223442D01*
X25282136Y-50226776D01*
X25270343Y-50226776D01*
X25275685Y-50219041D01*
X25282118Y-50206771D01*
X25295473Y-50206771D01*
X25298807Y-50210105D01*
X25302141Y-50206771D01*
X25298807Y-50203437D01*
X25295473Y-50206771D01*
X25282118Y-50206771D01*
X25285131Y-50201023D01*
X25287442Y-50195893D01*
X25295432Y-50179974D01*
X25302104Y-50170900D01*
X25303714Y-50170095D01*
X25308553Y-50164870D01*
X25308810Y-50162495D01*
X25312063Y-50153651D01*
X25317266Y-50143421D01*
X25335483Y-50143421D01*
X25337923Y-50148910D01*
X25339929Y-50147867D01*
X25340727Y-50139953D01*
X25339929Y-50138976D01*
X25335964Y-50139891D01*
X25335483Y-50143421D01*
X25317266Y-50143421D01*
X25320745Y-50136580D01*
X25333241Y-50114380D01*
X25338817Y-50104969D01*
X25341677Y-50100077D01*
X25355488Y-50100077D01*
X25358823Y-50103411D01*
X25362157Y-50100077D01*
X25358823Y-50096742D01*
X25355488Y-50100077D01*
X25341677Y-50100077D01*
X25348998Y-50087556D01*
X25362157Y-50087556D01*
X25365401Y-50089552D01*
X25374265Y-50080986D01*
X25376344Y-50078404D01*
X25382111Y-50070506D01*
X25378658Y-50072161D01*
X25373827Y-50075887D01*
X25364591Y-50084113D01*
X25362157Y-50087556D01*
X25348998Y-50087556D01*
X25352329Y-50081860D01*
X25362684Y-50062957D01*
X25368279Y-50051234D01*
X25368825Y-50049219D01*
X25373924Y-50043559D01*
X25375494Y-50043395D01*
X25381973Y-50038821D01*
X25382162Y-50037408D01*
X25385415Y-50029198D01*
X25390247Y-50020056D01*
X25402167Y-50020056D01*
X25405502Y-50023390D01*
X25408836Y-50020056D01*
X25405502Y-50016721D01*
X25402167Y-50020056D01*
X25390247Y-50020056D01*
X25394021Y-50012916D01*
X25401472Y-50000050D01*
X25415504Y-50000050D01*
X25418838Y-50003385D01*
X25422173Y-50000050D01*
X25418838Y-49996716D01*
X25415504Y-50000050D01*
X25401472Y-50000050D01*
X25406255Y-49991792D01*
X25407570Y-49989614D01*
X25423808Y-49989614D01*
X25424720Y-49990048D01*
X25430805Y-49985353D01*
X25432175Y-49983379D01*
X25433874Y-49977145D01*
X25432962Y-49976711D01*
X25426877Y-49981405D01*
X25425507Y-49983379D01*
X25423808Y-49989614D01*
X25407570Y-49989614D01*
X25408836Y-49987516D01*
X25421532Y-49966060D01*
X25426502Y-49957099D01*
X25442178Y-49957099D01*
X25444321Y-49963158D01*
X25449238Y-49957872D01*
X25451391Y-49953025D01*
X25451857Y-49946141D01*
X25448770Y-49946750D01*
X25442415Y-49955288D01*
X25442178Y-49957099D01*
X25426502Y-49957099D01*
X25430949Y-49949082D01*
X25435374Y-49939698D01*
X25435509Y-49939013D01*
X25438316Y-49933366D01*
X25455515Y-49933366D01*
X25458849Y-49936700D01*
X25462183Y-49933366D01*
X25458849Y-49930032D01*
X25455515Y-49933366D01*
X25438316Y-49933366D01*
X25439503Y-49930978D01*
X25445856Y-49922984D01*
X25446155Y-49922531D01*
X25463916Y-49922531D01*
X25468801Y-49919335D01*
X25469679Y-49918473D01*
X25474946Y-49909730D01*
X25474232Y-49906516D01*
X25469272Y-49908517D01*
X25465946Y-49914740D01*
X25463916Y-49922531D01*
X25446155Y-49922531D01*
X25447448Y-49920568D01*
X25446855Y-49918516D01*
X25443098Y-49916795D01*
X25435202Y-49915374D01*
X25422188Y-49914222D01*
X25403079Y-49913308D01*
X25376899Y-49912602D01*
X25342668Y-49912071D01*
X25299411Y-49911685D01*
X25246151Y-49911412D01*
X25181909Y-49911222D01*
X25105708Y-49911083D01*
X25070757Y-49911033D01*
X25000317Y-49910921D01*
X24933918Y-49910782D01*
X24872749Y-49910620D01*
X24817997Y-49910441D01*
X24770850Y-49910249D01*
X24732497Y-49910049D01*
X24704125Y-49909846D01*
X24686921Y-49909644D01*
X24681978Y-49909481D01*
X24673154Y-49909400D01*
X24664639Y-49909813D01*
X24646371Y-49910185D01*
X24621930Y-49910489D01*
X24594900Y-49910696D01*
X24568864Y-49910780D01*
X24547403Y-49910712D01*
X24534319Y-49910474D01*
X24523401Y-49907295D01*
X24520584Y-49900024D01*
X24588620Y-49900024D01*
X24591955Y-49903358D01*
X24595289Y-49900024D01*
X24591955Y-49896690D01*
X24588620Y-49900024D01*
X24520584Y-49900024D01*
X24519892Y-49898239D01*
X24521172Y-49893356D01*
X25115425Y-49893356D01*
X25118760Y-49896690D01*
X25122094Y-49893356D01*
X25235457Y-49893356D01*
X25238791Y-49896690D01*
X25242125Y-49893356D01*
X25368825Y-49893356D01*
X25372159Y-49896690D01*
X25375494Y-49893356D01*
X25415504Y-49893356D01*
X25418838Y-49896690D01*
X25422173Y-49893356D01*
X25448846Y-49893356D01*
X25452180Y-49896690D01*
X25455515Y-49893356D01*
X25462183Y-49893356D01*
X25465517Y-49896690D01*
X25468852Y-49893356D01*
X25465517Y-49890021D01*
X25462183Y-49893356D01*
X25455515Y-49893356D01*
X25452180Y-49890021D01*
X25448846Y-49893356D01*
X25422173Y-49893356D01*
X25418838Y-49890021D01*
X25415504Y-49893356D01*
X25375494Y-49893356D01*
X25372159Y-49890021D01*
X25368825Y-49893356D01*
X25242125Y-49893356D01*
X25238791Y-49890021D01*
X25235457Y-49893356D01*
X25122094Y-49893356D01*
X25118760Y-49890021D01*
X25115425Y-49893356D01*
X24521172Y-49893356D01*
X24522921Y-49886687D01*
X24541942Y-49886687D01*
X24545276Y-49890021D01*
X24548610Y-49886687D01*
X24545276Y-49883353D01*
X24541942Y-49886687D01*
X24522921Y-49886687D01*
X24524086Y-49882244D01*
X24530518Y-49869582D01*
X24543577Y-49869582D01*
X24544489Y-49870016D01*
X24550574Y-49865322D01*
X24551944Y-49863348D01*
X24552853Y-49860014D01*
X24561947Y-49860014D01*
X24565281Y-49863348D01*
X24568615Y-49860014D01*
X24565281Y-49856679D01*
X24561947Y-49860014D01*
X24552853Y-49860014D01*
X24553643Y-49857114D01*
X24552731Y-49856679D01*
X24546646Y-49861374D01*
X24545276Y-49863348D01*
X24543577Y-49869582D01*
X24530518Y-49869582D01*
X24536274Y-49858252D01*
X24547575Y-49840008D01*
X24561947Y-49840008D01*
X24565281Y-49843343D01*
X24568615Y-49840008D01*
X24565281Y-49836674D01*
X24561947Y-49840008D01*
X24547575Y-49840008D01*
X24556747Y-49825201D01*
X24558561Y-49822426D01*
X24560131Y-49820003D01*
X24575284Y-49820003D01*
X24578618Y-49823337D01*
X24581952Y-49820003D01*
X24578618Y-49816669D01*
X24575284Y-49820003D01*
X24560131Y-49820003D01*
X24568773Y-49806666D01*
X24581952Y-49806666D01*
X24585286Y-49810000D01*
X24588620Y-49806666D01*
X24585286Y-49803332D01*
X24581952Y-49806666D01*
X24568773Y-49806666D01*
X24575462Y-49796344D01*
X24581581Y-49786661D01*
X24595289Y-49786661D01*
X24598623Y-49789995D01*
X24601957Y-49786661D01*
X24598623Y-49783327D01*
X24595289Y-49786661D01*
X24581581Y-49786661D01*
X24589287Y-49774465D01*
X24593834Y-49766963D01*
X24611002Y-49766963D01*
X24611491Y-49769990D01*
X24616846Y-49764878D01*
X24621963Y-49756653D01*
X24626255Y-49746343D01*
X24625766Y-49743316D01*
X24620410Y-49748428D01*
X24615294Y-49756653D01*
X24611002Y-49766963D01*
X24593834Y-49766963D01*
X24598598Y-49759102D01*
X24601957Y-49752589D01*
X24605336Y-49745696D01*
X24612680Y-49733314D01*
X24628631Y-49733314D01*
X24631965Y-49736648D01*
X24635299Y-49733314D01*
X24631965Y-49729979D01*
X24628631Y-49733314D01*
X24612680Y-49733314D01*
X24614318Y-49730553D01*
X24627171Y-49710047D01*
X24631447Y-49703400D01*
X24642193Y-49686079D01*
X24655831Y-49686079D01*
X24657057Y-49694728D01*
X24659333Y-49694831D01*
X24660925Y-49685906D01*
X24659860Y-49682050D01*
X24656899Y-49679524D01*
X24655831Y-49686079D01*
X24642193Y-49686079D01*
X24644713Y-49682017D01*
X24651432Y-49669964D01*
X24668641Y-49669964D01*
X24671081Y-49675453D01*
X24673087Y-49674409D01*
X24673885Y-49666495D01*
X24673087Y-49665518D01*
X24669123Y-49666433D01*
X24668641Y-49669964D01*
X24651432Y-49669964D01*
X24654086Y-49665202D01*
X24658031Y-49655772D01*
X24657913Y-49654789D01*
X24660691Y-49649558D01*
X24664353Y-49646624D01*
X24708652Y-49646624D01*
X24711986Y-49649958D01*
X24715320Y-49646624D01*
X25282136Y-49646624D01*
X25285470Y-49649958D01*
X25288804Y-49646624D01*
X25335483Y-49646624D01*
X25338817Y-49649958D01*
X25342152Y-49646624D01*
X25341041Y-49645513D01*
X25437732Y-49645513D01*
X25438648Y-49649477D01*
X25442178Y-49649958D01*
X25447667Y-49647519D01*
X25447201Y-49646624D01*
X25595551Y-49646624D01*
X25598886Y-49649958D01*
X25602220Y-49646624D01*
X25622225Y-49646624D01*
X25625559Y-49649958D01*
X25628894Y-49646624D01*
X25625559Y-49643290D01*
X25622225Y-49646624D01*
X25602220Y-49646624D01*
X25598886Y-49643290D01*
X25595551Y-49646624D01*
X25447201Y-49646624D01*
X25446623Y-49645513D01*
X25438710Y-49644715D01*
X25437732Y-49645513D01*
X25341041Y-49645513D01*
X25338817Y-49643290D01*
X25335483Y-49646624D01*
X25288804Y-49646624D01*
X25285470Y-49643290D01*
X25282136Y-49646624D01*
X24715320Y-49646624D01*
X24711986Y-49643290D01*
X24708652Y-49646624D01*
X24664353Y-49646624D01*
X24671519Y-49640882D01*
X24672837Y-49640005D01*
X24677021Y-49637711D01*
X24682700Y-49635737D01*
X24690832Y-49634059D01*
X24702376Y-49632656D01*
X24718289Y-49631503D01*
X24739531Y-49630579D01*
X24767059Y-49629860D01*
X24801832Y-49629324D01*
X24844807Y-49628948D01*
X24896944Y-49628708D01*
X24959201Y-49628583D01*
X25032535Y-49628549D01*
X25117905Y-49628584D01*
X25151504Y-49628609D01*
X25247620Y-49628624D01*
X25331068Y-49628499D01*
X25402516Y-49628223D01*
X25462633Y-49627787D01*
X25512086Y-49627180D01*
X25540071Y-49626619D01*
X25635562Y-49626619D01*
X25638896Y-49629953D01*
X25642230Y-49626619D01*
X25638896Y-49623285D01*
X25635562Y-49626619D01*
X25540071Y-49626619D01*
X25551544Y-49626389D01*
X25581675Y-49625406D01*
X25603147Y-49624220D01*
X25616629Y-49622819D01*
X25622788Y-49621194D01*
X25622918Y-49621105D01*
X25630063Y-49613282D01*
X25648899Y-49613282D01*
X25652233Y-49616616D01*
X25655567Y-49613282D01*
X25652233Y-49609948D01*
X25648899Y-49613282D01*
X25630063Y-49613282D01*
X25632595Y-49610509D01*
X25644048Y-49593368D01*
X25647876Y-49586586D01*
X25651576Y-49579940D01*
X25662236Y-49579940D01*
X25665570Y-49583274D01*
X25668904Y-49579940D01*
X25665570Y-49576606D01*
X25662236Y-49579940D01*
X25651576Y-49579940D01*
X25658781Y-49566997D01*
X25675572Y-49566997D01*
X25677165Y-49575936D01*
X25680948Y-49572705D01*
X25684175Y-49563260D01*
X25684615Y-49554235D01*
X25681619Y-49553651D01*
X25676065Y-49562903D01*
X25675572Y-49566997D01*
X25658781Y-49566997D01*
X25659889Y-49565006D01*
X25674647Y-49539639D01*
X25678480Y-49533261D01*
X25695578Y-49533261D01*
X25698912Y-49536595D01*
X25702246Y-49533261D01*
X25698912Y-49529927D01*
X25695578Y-49533261D01*
X25678480Y-49533261D01*
X25682487Y-49526593D01*
X25686377Y-49519924D01*
X25702246Y-49519924D01*
X25705580Y-49523259D01*
X25708915Y-49519924D01*
X25705580Y-49516590D01*
X25702246Y-49519924D01*
X25686377Y-49519924D01*
X25694302Y-49506337D01*
X25697689Y-49499919D01*
X25715583Y-49499919D01*
X25718917Y-49503253D01*
X25722251Y-49499919D01*
X25718917Y-49496585D01*
X25715583Y-49499919D01*
X25697689Y-49499919D01*
X25703323Y-49489243D01*
X25706653Y-49481581D01*
X25711397Y-49473245D01*
X25728920Y-49473245D01*
X25732254Y-49476580D01*
X25735588Y-49473245D01*
X25732254Y-49469911D01*
X25728920Y-49473245D01*
X25711397Y-49473245D01*
X25712254Y-49471740D01*
X25715601Y-49469911D01*
X25720747Y-49464597D01*
X25728750Y-49451779D01*
X25729976Y-49449472D01*
X25743892Y-49449472D01*
X25744804Y-49449906D01*
X25750889Y-49445211D01*
X25752259Y-49443238D01*
X25753958Y-49437003D01*
X25753046Y-49436569D01*
X25746961Y-49441264D01*
X25745591Y-49443238D01*
X25743892Y-49449472D01*
X25729976Y-49449472D01*
X25737060Y-49436144D01*
X25741220Y-49426698D01*
X25757387Y-49426698D01*
X25757926Y-49429901D01*
X25763116Y-49424952D01*
X25771809Y-49412987D01*
X25772189Y-49412409D01*
X25777966Y-49401871D01*
X25777050Y-49399057D01*
X25776326Y-49399443D01*
X25769218Y-49406596D01*
X25761910Y-49417328D01*
X25757387Y-49426698D01*
X25741220Y-49426698D01*
X25743122Y-49422378D01*
X25744654Y-49416564D01*
X25748837Y-49409739D01*
X25756887Y-49400302D01*
X25765911Y-49388945D01*
X25768930Y-49382454D01*
X25772213Y-49374983D01*
X25781030Y-49358952D01*
X25784395Y-49353214D01*
X25802272Y-49353214D01*
X25805607Y-49356548D01*
X25808941Y-49353214D01*
X25805607Y-49349880D01*
X25802272Y-49353214D01*
X25784395Y-49353214D01*
X25792866Y-49338766D01*
X25804495Y-49338766D01*
X25805411Y-49342730D01*
X25808941Y-49343211D01*
X25814430Y-49340771D01*
X25813386Y-49338766D01*
X25805473Y-49337968D01*
X25804495Y-49338766D01*
X25792866Y-49338766D01*
X25793839Y-49337107D01*
X25802272Y-49323206D01*
X25816681Y-49299119D01*
X25827957Y-49279106D01*
X25830927Y-49273193D01*
X25848951Y-49273193D01*
X25852285Y-49276527D01*
X25855620Y-49273193D01*
X25852285Y-49269859D01*
X25848951Y-49273193D01*
X25830927Y-49273193D01*
X25834548Y-49265985D01*
X25835614Y-49262701D01*
X25838026Y-49259856D01*
X25855620Y-49259856D01*
X25858954Y-49263190D01*
X25862288Y-49259856D01*
X25858954Y-49256522D01*
X25855620Y-49259856D01*
X25838026Y-49259856D01*
X25840704Y-49256698D01*
X25842283Y-49256522D01*
X25848758Y-49251542D01*
X25848951Y-49249983D01*
X25852320Y-49241343D01*
X25857382Y-49232071D01*
X25871179Y-49232071D01*
X25872095Y-49236035D01*
X25875625Y-49236517D01*
X25881114Y-49234077D01*
X25880071Y-49232071D01*
X25872157Y-49231273D01*
X25871179Y-49232071D01*
X25857382Y-49232071D01*
X25861114Y-49225235D01*
X25868488Y-49213177D01*
X25882293Y-49213177D01*
X25885628Y-49216511D01*
X25888962Y-49213177D01*
X25885628Y-49209843D01*
X25882293Y-49213177D01*
X25868488Y-49213177D01*
X25872291Y-49206959D01*
X25884263Y-49187740D01*
X25892682Y-49173266D01*
X25894673Y-49169000D01*
X25910700Y-49169000D01*
X25915585Y-49165804D01*
X25916463Y-49164942D01*
X25921730Y-49156199D01*
X25921016Y-49152985D01*
X25916056Y-49154986D01*
X25912730Y-49161209D01*
X25910700Y-49169000D01*
X25894673Y-49169000D01*
X25895630Y-49166948D01*
X25898955Y-49159928D01*
X25907631Y-49145093D01*
X25918575Y-49127555D01*
X25919258Y-49126488D01*
X25935641Y-49126488D01*
X25938975Y-49129822D01*
X25942309Y-49126488D01*
X25938975Y-49123153D01*
X25935641Y-49126488D01*
X25919258Y-49126488D01*
X25929670Y-49110210D01*
X25942309Y-49110210D01*
X25944452Y-49116269D01*
X25949369Y-49110983D01*
X25951522Y-49106136D01*
X25951988Y-49099252D01*
X25948901Y-49099861D01*
X25942546Y-49108399D01*
X25942309Y-49110210D01*
X25929670Y-49110210D01*
X25941519Y-49091687D01*
X25791875Y-49091218D01*
X25748444Y-49091029D01*
X25709520Y-49090758D01*
X25677071Y-49090427D01*
X25653068Y-49090059D01*
X25639479Y-49089675D01*
X25637229Y-49089491D01*
X25626390Y-49089368D01*
X25625945Y-49089449D01*
X25617035Y-49089922D01*
X25597640Y-49090286D01*
X25570607Y-49090541D01*
X25538782Y-49090686D01*
X25505010Y-49090720D01*
X25472138Y-49090640D01*
X25443013Y-49090448D01*
X25420479Y-49090140D01*
X25407384Y-49089717D01*
X25405502Y-49089531D01*
X25392716Y-49089533D01*
X25392165Y-49089641D01*
X25384030Y-49089983D01*
X25365149Y-49090209D01*
X25338109Y-49090324D01*
X25305499Y-49090330D01*
X25269910Y-49090233D01*
X25233929Y-49090035D01*
X25200146Y-49089741D01*
X25171149Y-49089354D01*
X25168773Y-49089314D01*
X25158111Y-49089476D01*
X25137535Y-49090055D01*
X25110456Y-49090950D01*
X25092086Y-49091611D01*
X25061933Y-49092141D01*
X25035411Y-49091545D01*
X25016271Y-49089959D01*
X25010017Y-49088634D01*
X25000586Y-49086477D01*
X25028736Y-49086477D01*
X25032070Y-49089811D01*
X25035404Y-49086477D01*
X25032070Y-49083143D01*
X25028736Y-49086477D01*
X25000586Y-49086477D01*
X24999397Y-49086205D01*
X24999215Y-49090590D01*
X24999441Y-49090965D01*
X24999787Y-49095791D01*
X24991487Y-49093792D01*
X24979689Y-49091807D01*
X24958025Y-49090398D01*
X24929957Y-49089732D01*
X24908704Y-49089792D01*
X24885705Y-49089992D01*
X24851996Y-49090139D01*
X24810205Y-49090231D01*
X24762959Y-49090272D01*
X24712885Y-49090261D01*
X24662611Y-49090201D01*
X24614763Y-49090093D01*
X24571968Y-49089937D01*
X24536855Y-49089735D01*
X24521936Y-49089607D01*
X24481201Y-49089598D01*
X24442189Y-49090322D01*
X24407367Y-49091664D01*
X24379203Y-49093508D01*
X24360164Y-49095740D01*
X24353559Y-49097486D01*
X24343835Y-49106332D01*
X24341889Y-49111943D01*
X24338493Y-49121980D01*
X24329848Y-49137972D01*
X24318271Y-49156431D01*
X24306075Y-49173873D01*
X24295576Y-49186812D01*
X24289090Y-49191762D01*
X24288892Y-49191733D01*
X24285752Y-49195794D01*
X24286669Y-49203402D01*
X24286428Y-49213914D01*
X24282651Y-49216511D01*
X24275815Y-49221798D01*
X24275205Y-49225257D01*
X24270975Y-49236105D01*
X24261528Y-49248682D01*
X24252853Y-49260654D01*
X24251212Y-49268802D01*
X24249208Y-49276573D01*
X24240188Y-49289672D01*
X24235257Y-49295389D01*
X24224192Y-49308172D01*
X24218863Y-49315694D01*
X24218926Y-49316538D01*
X24217682Y-49321814D01*
X24211389Y-49335472D01*
X24203903Y-49349880D01*
X24193248Y-49368004D01*
X24184469Y-49380113D01*
X24180537Y-49383222D01*
X24175778Y-49388641D01*
X24175179Y-49393224D01*
X24170161Y-49402072D01*
X24165800Y-49403227D01*
X24159211Y-49408153D01*
X24159712Y-49415810D01*
X24158496Y-49427890D01*
X24151734Y-49441099D01*
X24142608Y-49450883D01*
X24134294Y-49452691D01*
X24134055Y-49452552D01*
X24131505Y-49454634D01*
X24133044Y-49460656D01*
X24134389Y-49468435D01*
X24127966Y-49466391D01*
X24122253Y-49463846D01*
X24125066Y-49469281D01*
X24128280Y-49473632D01*
X24133616Y-49481580D01*
X24132346Y-49481757D01*
X24126086Y-49483983D01*
X24117093Y-49495279D01*
X24113385Y-49501644D01*
X24102349Y-49519596D01*
X24091530Y-49533237D01*
X24089314Y-49535304D01*
X24083299Y-49540944D01*
X24088049Y-49539244D01*
X24088489Y-49539015D01*
X24092809Y-49538137D01*
X24091469Y-49543646D01*
X24083780Y-49556881D01*
X24069053Y-49579182D01*
X24064127Y-49586425D01*
X24056905Y-49601833D01*
X24055147Y-49611432D01*
X24051522Y-49620576D01*
X24047115Y-49621618D01*
X24039006Y-49625205D01*
X24037946Y-49628286D01*
X24036502Y-49637374D01*
X24033939Y-49647939D01*
X24033847Y-49648291D01*
X24027923Y-49658325D01*
X24019020Y-49665377D01*
X24013930Y-49665821D01*
X24006980Y-49667893D01*
X24004564Y-49670885D01*
X24003666Y-49675562D01*
X24007438Y-49673935D01*
X24014296Y-49673559D01*
X24015137Y-49676239D01*
X24009742Y-49682501D01*
X24005134Y-49683301D01*
X23997215Y-49685998D01*
X23996798Y-49688438D01*
X23995660Y-49698332D01*
X23989865Y-49713235D01*
X23981666Y-49728912D01*
X23973312Y-49741127D01*
X23967055Y-49745647D01*
X23966497Y-49745438D01*
X23962948Y-49745605D01*
X23964462Y-49748915D01*
X23963894Y-49758678D01*
X23956659Y-49773587D01*
X23953485Y-49778286D01*
X23940560Y-49797630D01*
X23929733Y-49816220D01*
X23928771Y-49818108D01*
X23920833Y-49829710D01*
X23914100Y-49832707D01*
X23913940Y-49832617D01*
X23909065Y-49832959D01*
X23909066Y-49834511D01*
X23908223Y-49849549D01*
X23902520Y-49865643D01*
X23894126Y-49879134D01*
X23885210Y-49886367D01*
X23879072Y-49885102D01*
X23877228Y-49886217D01*
X23879165Y-49892856D01*
X23878667Y-49906920D01*
X23872181Y-49913882D01*
X23864601Y-49923446D01*
X23864823Y-49929588D01*
X23865058Y-49936064D01*
X23862809Y-49936700D01*
X23855973Y-49942193D01*
X23848812Y-49955038D01*
X23836149Y-49982290D01*
X23822600Y-50006121D01*
X23810744Y-50022009D01*
X23810425Y-50022334D01*
X23801826Y-50034444D01*
X23792732Y-50052130D01*
X23791696Y-50054542D01*
X23784251Y-50068579D01*
X23777820Y-50074576D01*
X23776628Y-50074364D01*
X23772240Y-50077467D01*
X23769789Y-50088491D01*
X23765342Y-50107251D01*
X23759811Y-50118804D01*
X23755989Y-50127558D01*
X23666166Y-50127558D01*
X23662721Y-50124521D01*
X23656410Y-50111746D01*
X23649638Y-50100077D01*
X23755068Y-50100077D01*
X23758403Y-50103411D01*
X23761737Y-50100077D01*
X23758403Y-50096742D01*
X23755068Y-50100077D01*
X23649638Y-50100077D01*
X23646866Y-50095301D01*
X23634545Y-50080071D01*
X23748400Y-50080071D01*
X23751734Y-50083406D01*
X23755068Y-50080071D01*
X23751734Y-50076737D01*
X23748400Y-50080071D01*
X23634545Y-50080071D01*
X23629570Y-50073921D01*
X23616461Y-50060066D01*
X23755068Y-50060066D01*
X23758403Y-50063400D01*
X23761737Y-50060066D01*
X23758403Y-50056732D01*
X23755068Y-50060066D01*
X23616461Y-50060066D01*
X23607500Y-50050595D01*
X23589077Y-50033392D01*
X23775074Y-50033392D01*
X23778408Y-50036727D01*
X23781742Y-50033392D01*
X23778408Y-50030058D01*
X23775074Y-50033392D01*
X23589077Y-50033392D01*
X23583635Y-50028310D01*
X23560952Y-50010053D01*
X23555655Y-50006719D01*
X23788410Y-50006719D01*
X23791745Y-50010053D01*
X23795079Y-50006719D01*
X23791745Y-50003385D01*
X23788410Y-50006719D01*
X23555655Y-50006719D01*
X23545060Y-50000050D01*
X23526599Y-49989922D01*
X23512444Y-49980693D01*
X23511656Y-49980045D01*
X23801747Y-49980045D01*
X23805081Y-49983379D01*
X23808416Y-49980045D01*
X23805081Y-49976711D01*
X23801747Y-49980045D01*
X23511656Y-49980045D01*
X23509629Y-49978378D01*
X23495450Y-49971044D01*
X23488672Y-49970042D01*
X23475470Y-49965588D01*
X23809718Y-49965588D01*
X23809763Y-49969933D01*
X23810933Y-49970042D01*
X23828421Y-49970042D01*
X23830861Y-49975531D01*
X23832867Y-49974488D01*
X23833665Y-49966574D01*
X23832867Y-49965597D01*
X23828902Y-49966512D01*
X23828421Y-49970042D01*
X23810933Y-49970042D01*
X23816500Y-49965485D01*
X23822603Y-49958373D01*
X23828370Y-49950474D01*
X23824917Y-49952130D01*
X23820085Y-49955855D01*
X23809718Y-49965588D01*
X23475470Y-49965588D01*
X23474376Y-49965219D01*
X23468326Y-49960040D01*
X23455696Y-49952425D01*
X23442170Y-49950037D01*
X23426002Y-49947425D01*
X23416874Y-49942596D01*
X23409511Y-49937094D01*
X23828421Y-49937094D01*
X23830564Y-49943153D01*
X23835481Y-49937867D01*
X23837634Y-49933020D01*
X23838100Y-49926136D01*
X23835013Y-49926745D01*
X23828658Y-49935283D01*
X23828421Y-49937094D01*
X23409511Y-49937094D01*
X23405253Y-49933912D01*
X23393868Y-49927434D01*
X23383735Y-49919628D01*
X23378513Y-49906692D01*
X23848426Y-49906692D01*
X23851760Y-49910027D01*
X23855095Y-49906692D01*
X23851760Y-49903358D01*
X23848426Y-49906692D01*
X23378513Y-49906692D01*
X23378411Y-49906439D01*
X23376249Y-49887677D01*
X23376496Y-49866864D01*
X23377777Y-49860014D01*
X23875100Y-49860014D01*
X23878434Y-49863348D01*
X23881768Y-49860014D01*
X23878434Y-49856679D01*
X23875100Y-49860014D01*
X23377777Y-49860014D01*
X23379478Y-49850912D01*
X23381638Y-49846675D01*
X23385708Y-49834816D01*
X23388335Y-49813072D01*
X23389196Y-49793329D01*
X23915110Y-49793329D01*
X23918445Y-49796664D01*
X23921779Y-49793329D01*
X23918445Y-49789995D01*
X23915110Y-49793329D01*
X23389196Y-49793329D01*
X23389568Y-49784812D01*
X23389506Y-49766656D01*
X23928447Y-49766656D01*
X23931781Y-49769990D01*
X23935116Y-49766656D01*
X23931781Y-49763322D01*
X23928447Y-49766656D01*
X23389506Y-49766656D01*
X23389460Y-49753406D01*
X23388988Y-49742882D01*
X23943419Y-49742882D01*
X23944331Y-49743316D01*
X23950417Y-49738622D01*
X23951787Y-49736648D01*
X23953486Y-49730414D01*
X23952574Y-49729979D01*
X23946488Y-49734674D01*
X23945118Y-49736648D01*
X23943419Y-49742882D01*
X23388988Y-49742882D01*
X23388062Y-49722222D01*
X23385936Y-49699972D01*
X23968458Y-49699972D01*
X23971792Y-49703306D01*
X23975126Y-49699972D01*
X23971792Y-49696637D01*
X23968458Y-49699972D01*
X23385936Y-49699972D01*
X23385425Y-49694628D01*
X23381599Y-49673993D01*
X23378903Y-49666629D01*
X23371563Y-49649580D01*
X23368347Y-49635994D01*
X23368341Y-49635668D01*
X23363008Y-49623976D01*
X23358298Y-49620873D01*
X23349437Y-49612891D01*
X23348286Y-49608490D01*
X23344428Y-49599945D01*
X24028473Y-49599945D01*
X24031808Y-49603280D01*
X24035142Y-49599945D01*
X24031808Y-49596611D01*
X24028473Y-49599945D01*
X23344428Y-49599945D01*
X23343535Y-49597967D01*
X23330981Y-49581724D01*
X23323146Y-49573272D01*
X24041810Y-49573272D01*
X24045145Y-49576606D01*
X24048479Y-49573272D01*
X24045145Y-49569937D01*
X24041810Y-49573272D01*
X23323146Y-49573272D01*
X23313146Y-49562484D01*
X23303420Y-49553266D01*
X24075152Y-49553266D01*
X24078487Y-49556601D01*
X24081821Y-49553266D01*
X24078487Y-49549932D01*
X24075152Y-49553266D01*
X23303420Y-49553266D01*
X23292553Y-49542966D01*
X23288850Y-49539930D01*
X24061816Y-49539930D01*
X24065150Y-49543264D01*
X24068484Y-49539930D01*
X24065150Y-49536595D01*
X24061816Y-49539930D01*
X23288850Y-49539930D01*
X23271725Y-49525891D01*
X23271608Y-49525805D01*
X23229637Y-49499749D01*
X23183362Y-49479603D01*
X23160074Y-49473245D01*
X24101826Y-49473245D01*
X24105160Y-49476580D01*
X24108494Y-49473245D01*
X24105160Y-49469911D01*
X24101826Y-49473245D01*
X23160074Y-49473245D01*
X23137222Y-49467006D01*
X23102792Y-49463460D01*
X23080716Y-49463106D01*
X23064706Y-49461122D01*
X23053788Y-49455655D01*
X23048068Y-49446572D01*
X24115163Y-49446572D01*
X24118497Y-49449906D01*
X24121831Y-49446572D01*
X24118497Y-49443238D01*
X24115163Y-49446572D01*
X23048068Y-49446572D01*
X23046987Y-49444856D01*
X23045133Y-49435737D01*
X24123564Y-49435737D01*
X24128449Y-49432541D01*
X24129327Y-49431679D01*
X24134594Y-49422936D01*
X24133880Y-49419722D01*
X24128920Y-49421723D01*
X24125594Y-49427946D01*
X24123564Y-49435737D01*
X23045133Y-49435737D01*
X23043330Y-49426872D01*
X23041842Y-49399853D01*
X23041635Y-49373219D01*
X24155173Y-49373219D01*
X24158508Y-49376553D01*
X24161842Y-49373219D01*
X24158508Y-49369885D01*
X24155173Y-49373219D01*
X23041635Y-49373219D01*
X23041548Y-49361946D01*
X23041548Y-49347073D01*
X23041544Y-49346545D01*
X24175179Y-49346545D01*
X24178513Y-49349880D01*
X24181847Y-49346545D01*
X24178513Y-49343211D01*
X24175179Y-49346545D01*
X23041544Y-49346545D01*
X23041242Y-49309435D01*
X24196819Y-49309435D01*
X24197731Y-49309869D01*
X24203816Y-49305175D01*
X24205187Y-49303201D01*
X24206886Y-49296967D01*
X24205974Y-49296532D01*
X24199888Y-49301227D01*
X24198518Y-49303201D01*
X24196819Y-49309435D01*
X23041242Y-49309435D01*
X23041194Y-49303559D01*
X23040025Y-49271373D01*
X23038942Y-49259856D01*
X24228526Y-49259856D01*
X24231860Y-49263190D01*
X24235194Y-49259856D01*
X24231860Y-49256522D01*
X24228526Y-49259856D01*
X23038942Y-49259856D01*
X23037876Y-49248524D01*
X23036650Y-49242751D01*
X24236829Y-49242751D01*
X24237741Y-49243185D01*
X24243827Y-49238491D01*
X24245197Y-49236517D01*
X24246896Y-49230282D01*
X24245984Y-49229848D01*
X24239899Y-49234543D01*
X24238529Y-49236517D01*
X24236829Y-49242751D01*
X23036650Y-49242751D01*
X23034584Y-49233018D01*
X23031586Y-49225609D01*
X23024280Y-49206509D01*
X24235194Y-49206509D01*
X24238529Y-49209843D01*
X24241863Y-49206509D01*
X24238529Y-49203174D01*
X24235194Y-49206509D01*
X23024280Y-49206509D01*
X23024264Y-49206467D01*
X23023111Y-49199840D01*
X24261868Y-49199840D01*
X24265202Y-49203174D01*
X24268536Y-49199840D01*
X24265202Y-49196506D01*
X24261868Y-49199840D01*
X23023111Y-49199840D01*
X23021372Y-49189838D01*
X23020625Y-49186503D01*
X24268536Y-49186503D01*
X24271871Y-49189838D01*
X24275205Y-49186503D01*
X24271871Y-49183169D01*
X24268536Y-49186503D01*
X23020625Y-49186503D01*
X23017205Y-49171222D01*
X23011328Y-49160222D01*
X23003547Y-49145494D01*
X23003051Y-49143159D01*
X24315215Y-49143159D01*
X24317655Y-49148648D01*
X24319661Y-49147604D01*
X24320459Y-49139691D01*
X24319661Y-49138713D01*
X24315697Y-49139629D01*
X24315215Y-49143159D01*
X23003051Y-49143159D01*
X23001537Y-49136032D01*
X22996746Y-49122469D01*
X22991535Y-49116485D01*
X22989367Y-49113151D01*
X24328552Y-49113151D01*
X24331886Y-49116485D01*
X24335221Y-49113151D01*
X24331886Y-49109817D01*
X24328552Y-49113151D01*
X22989367Y-49113151D01*
X22982975Y-49103319D01*
X22981532Y-49095663D01*
X22978774Y-49085276D01*
X22975313Y-49083143D01*
X22971184Y-49079809D01*
X25955646Y-49079809D01*
X25958980Y-49083143D01*
X25962314Y-49079809D01*
X25958980Y-49076475D01*
X25955646Y-49079809D01*
X22971184Y-49079809D01*
X22968508Y-49077648D01*
X22966387Y-49073140D01*
X24748662Y-49073140D01*
X24751997Y-49076475D01*
X24755331Y-49073140D01*
X25035404Y-49073140D01*
X25038739Y-49076475D01*
X25042073Y-49073140D01*
X25408836Y-49073140D01*
X25412170Y-49076475D01*
X25415504Y-49073140D01*
X25642230Y-49073140D01*
X25645565Y-49076475D01*
X25648899Y-49073140D01*
X25788936Y-49073140D01*
X25792270Y-49076475D01*
X25795604Y-49073140D01*
X25935641Y-49073140D01*
X25938975Y-49076475D01*
X25942309Y-49073140D01*
X25938975Y-49069806D01*
X25935641Y-49073140D01*
X25795604Y-49073140D01*
X25792270Y-49069806D01*
X25788936Y-49073140D01*
X25648899Y-49073140D01*
X25645565Y-49069806D01*
X25642230Y-49073140D01*
X25415504Y-49073140D01*
X25412170Y-49069806D01*
X25408836Y-49073140D01*
X25042073Y-49073140D01*
X25038739Y-49069806D01*
X25035404Y-49073140D01*
X24755331Y-49073140D01*
X24751997Y-49069806D01*
X24748662Y-49073140D01*
X22966387Y-49073140D01*
X22964947Y-49070078D01*
X22958335Y-49056521D01*
X22945287Y-49038549D01*
X22924808Y-49014993D01*
X22895902Y-48984684D01*
X22871084Y-48959777D01*
X22842114Y-48931627D01*
X22812456Y-48903800D01*
X22783858Y-48877829D01*
X22758064Y-48855247D01*
X22736821Y-48837587D01*
X22721874Y-48826381D01*
X22715374Y-48823075D01*
X22708218Y-48818979D01*
X22696144Y-48808984D01*
X22694670Y-48807631D01*
X22679196Y-48795169D01*
X22658124Y-48780444D01*
X22645802Y-48772622D01*
X22624118Y-48759362D01*
X22604226Y-48747054D01*
X22595842Y-48741789D01*
X22582773Y-48734347D01*
X22560912Y-48722785D01*
X22533480Y-48708779D01*
X22508074Y-48696147D01*
X22478329Y-48681535D01*
X22451245Y-48668214D01*
X22430087Y-48657791D01*
X22419177Y-48652400D01*
X22402760Y-48645704D01*
X22390602Y-48643027D01*
X22377874Y-48639557D01*
X22366136Y-48633359D01*
X22353633Y-48628811D01*
X22334996Y-48625806D01*
X22314381Y-48624496D01*
X22295945Y-48625031D01*
X22283846Y-48627560D01*
X22281348Y-48630288D01*
X22284074Y-48639241D01*
X22290644Y-48653876D01*
X22290784Y-48654157D01*
X22302987Y-48686887D01*
X22309681Y-48722563D01*
X22309974Y-48755400D01*
X22308111Y-48766393D01*
X22303776Y-48789613D01*
X22301573Y-48811649D01*
X22301513Y-48814263D01*
X22298365Y-48832467D01*
X22291351Y-48845462D01*
X22282954Y-48860285D01*
X22281348Y-48869487D01*
X22277141Y-48882512D01*
X22271346Y-48887347D01*
X22262824Y-48896462D01*
X22261343Y-48903416D01*
X22258405Y-48915683D01*
X22255252Y-48919410D01*
X22248799Y-48927653D01*
X22239640Y-48944120D01*
X22229852Y-48964586D01*
X22221515Y-48984827D01*
X22218166Y-48994786D01*
X22212439Y-49006435D01*
X22207546Y-49009790D01*
X22203068Y-49015557D01*
X22201327Y-49028521D01*
X22197835Y-49047450D01*
X22191537Y-49060196D01*
X22186550Y-49073591D01*
X22183109Y-49096203D01*
X22181218Y-49124512D01*
X22180882Y-49155000D01*
X22182105Y-49184147D01*
X22184892Y-49208433D01*
X22189246Y-49224340D01*
X22191325Y-49227467D01*
X22199682Y-49241532D01*
X22201327Y-49250089D01*
X22195575Y-49262591D01*
X22180988Y-49276050D01*
X22161575Y-49287820D01*
X22141340Y-49295252D01*
X22131035Y-49296532D01*
X22111759Y-49299703D01*
X22097574Y-49306323D01*
X22081774Y-49314386D01*
X22071293Y-49316615D01*
X22057659Y-49320300D01*
X22039008Y-49328990D01*
X22031283Y-49333427D01*
X22012020Y-49344724D01*
X21995381Y-49353690D01*
X21991041Y-49355766D01*
X21970616Y-49369199D01*
X21946565Y-49391684D01*
X21921146Y-49420308D01*
X21896620Y-49452155D01*
X21875245Y-49484310D01*
X21859281Y-49513860D01*
X21851379Y-49535943D01*
X21846891Y-49550206D01*
X21842207Y-49556578D01*
X21841972Y-49556601D01*
X21837111Y-49562900D01*
X21832095Y-49580342D01*
X21827253Y-49606740D01*
X21822910Y-49639908D01*
X21819393Y-49677660D01*
X21817029Y-49717810D01*
X21816740Y-49725435D01*
X21815799Y-49764584D01*
X21816220Y-49793365D01*
X21818208Y-49814695D01*
X21821965Y-49831492D01*
X21824655Y-49839325D01*
X21831093Y-49863403D01*
X21833576Y-49887839D01*
X21833368Y-49893207D01*
X21829711Y-49911963D01*
X21820278Y-49923639D01*
X21801378Y-49932784D01*
X21801222Y-49932843D01*
X21786458Y-49939818D01*
X21781217Y-49942845D01*
X21766453Y-49950634D01*
X21761212Y-49952848D01*
X21746795Y-49959431D01*
X21739539Y-49963332D01*
X21719670Y-49974469D01*
X21697147Y-49986403D01*
X21677857Y-49996297D01*
X21658772Y-50008262D01*
X21636700Y-50025485D01*
X21614157Y-50045538D01*
X21593656Y-50065994D01*
X21577713Y-50084424D01*
X21568842Y-50098400D01*
X21567828Y-50102537D01*
X21563263Y-50111279D01*
X21557825Y-50116748D01*
X21549286Y-50129462D01*
X21547822Y-50136753D01*
X21543013Y-50150991D01*
X21538545Y-50156156D01*
X21531907Y-50167167D01*
X21526267Y-50185666D01*
X21524823Y-50193494D01*
X21520837Y-50212248D01*
X21516000Y-50224792D01*
X21514095Y-50227015D01*
X21511720Y-50234833D01*
X21509918Y-50253052D01*
X21508693Y-50278746D01*
X21508046Y-50308993D01*
X21507981Y-50340869D01*
X21508502Y-50371451D01*
X21509609Y-50397815D01*
X21511308Y-50417038D01*
X21513599Y-50426195D01*
X21513900Y-50426470D01*
X21518691Y-50434868D01*
X21523400Y-50451407D01*
X21524746Y-50458393D01*
X21530072Y-50479961D01*
X21537312Y-50498130D01*
X21539121Y-50501231D01*
X21545330Y-50518308D01*
X21546613Y-50538053D01*
X21542956Y-50554139D01*
X21534088Y-50561222D01*
X21528006Y-50562522D01*
X21509098Y-50568293D01*
X21498181Y-50574192D01*
X21481573Y-50581714D01*
X21470468Y-50583537D01*
X21454935Y-50587933D01*
X21447796Y-50593539D01*
X21434894Y-50602087D01*
X21427451Y-50603542D01*
X21412907Y-50608041D01*
X21405404Y-50613545D01*
X21392884Y-50621817D01*
X21385739Y-50623547D01*
X21373620Y-50628272D01*
X21367775Y-50633550D01*
X21357585Y-50641964D01*
X21352514Y-50643553D01*
X21347003Y-50644770D01*
X21339457Y-50649487D01*
X21327974Y-50659301D01*
X21310652Y-50675809D01*
X21291088Y-50695130D01*
X21267346Y-50719241D01*
X21252055Y-50736136D01*
X21243782Y-50747556D01*
X21241092Y-50755239D01*
X21241075Y-50755818D01*
X21236501Y-50764759D01*
X21231073Y-50770252D01*
X21222537Y-50783655D01*
X21221070Y-50791712D01*
X21217943Y-50807206D01*
X21211502Y-50822571D01*
X21203032Y-50846557D01*
X21197084Y-50880244D01*
X21193660Y-50920236D01*
X21192758Y-50963140D01*
X20494213Y-50963140D01*
X20494213Y-50066734D01*
X20494213Y-48285400D01*
X23444200Y-48285400D01*
X26492200Y-48285400D01*
X26495788Y-50066734D01*
G37*
%TO.C,CB2*%
X43909250Y-44263443D02*
X43909250Y-44785947D01*
X42439250Y-44263443D02*
X42439250Y-44785947D01*
%TO.C,RN12*%
X16104499Y-37485696D02*
X17104499Y-37485696D01*
X16104499Y-34125696D02*
X17104499Y-34125696D01*
%TO.C,CC1*%
X42923299Y-37405948D02*
X42923299Y-35983444D01*
X44743299Y-37405948D02*
X44743299Y-35983444D01*
%TO.C,CB1*%
X29565302Y-48622695D02*
X29042798Y-48622695D01*
X29565302Y-47152695D02*
X29042798Y-47152695D01*
%TO.C,RN4*%
X19250699Y-29878496D02*
X20250699Y-29878496D01*
X19250699Y-26518496D02*
X20250699Y-26518496D01*
%TO.C,RN2*%
X28031499Y-42758296D02*
X29031499Y-42758296D01*
X28031499Y-39398296D02*
X29031499Y-39398296D01*
%TO.C,R2*%
X17864950Y-43129237D02*
X17864950Y-43603753D01*
X16819950Y-43129237D02*
X16819950Y-43603753D01*
D12*
%TO.C,U4*%
X33439100Y-52095400D02*
X39636700Y-52095400D01*
X39636700Y-39497000D02*
X33439100Y-39497000D01*
X36233100Y-39497000D02*
G75*
G03*
X36842700Y-39497000I304800J0D01*
G01*
G36*
X31775400Y-44736700D02*
G01*
X31521400Y-44736700D01*
X31521400Y-44355700D01*
X31775400Y-44355700D01*
X31775400Y-44736700D01*
G37*
G36*
X31775400Y-49736700D02*
G01*
X31521400Y-49736700D01*
X31521400Y-49355700D01*
X31775400Y-49355700D01*
X31775400Y-49736700D01*
G37*
G36*
X41554400Y-44236698D02*
G01*
X41300400Y-44236698D01*
X41300400Y-43855698D01*
X41554400Y-43855698D01*
X41554400Y-44236698D01*
G37*
G36*
X41554400Y-49236701D02*
G01*
X41300400Y-49236701D01*
X41300400Y-48855701D01*
X41554400Y-48855701D01*
X41554400Y-49236701D01*
G37*
D11*
%TO.C,U2*%
X44073000Y-39291800D02*
X42673000Y-39291800D01*
X42673000Y-41611800D02*
X44573000Y-41611800D01*
%TO.C,RN1*%
X28042499Y-46517496D02*
X29042499Y-46517496D01*
X28042499Y-43157496D02*
X29042499Y-43157496D01*
%TO.C,U3*%
X50374499Y-31276796D02*
X50374499Y-27676796D01*
X50374499Y-31276796D02*
X50374499Y-33476796D01*
X45154499Y-31276796D02*
X45154499Y-29076796D01*
X45154499Y-31276796D02*
X45154499Y-33476796D01*
%TO.C,RN11*%
X16101099Y-41257496D02*
X17101099Y-41257496D01*
X16101099Y-37897496D02*
X17101099Y-37897496D01*
%TO.C,U1*%
X30776699Y-49362696D02*
X29376699Y-49362696D01*
X29376699Y-51682696D02*
X31276699Y-51682696D01*
%TO.C,CB3*%
X31980102Y-25661095D02*
X31457598Y-25661095D01*
X31980102Y-24191095D02*
X31457598Y-24191095D01*
%TO.C,RN3*%
X19250699Y-33624696D02*
X20250699Y-33624696D01*
X19250699Y-30264696D02*
X20250699Y-30264696D01*
%TO.C,RN7*%
X24856499Y-46517496D02*
X25856499Y-46517496D01*
X24856499Y-43157496D02*
X25856499Y-43157496D01*
%TO.C,R1*%
X16340950Y-43142437D02*
X16340950Y-43616953D01*
X15295950Y-43142437D02*
X15295950Y-43616953D01*
D12*
%TO.C,U6*%
X33820100Y-38846199D02*
X40017700Y-38846199D01*
X40017700Y-26247799D02*
X33820100Y-26247799D01*
X36614100Y-26247799D02*
G75*
G03*
X37223700Y-26247799I304800J0D01*
G01*
G36*
X32156400Y-31487499D02*
G01*
X31902400Y-31487499D01*
X31902400Y-31106499D01*
X32156400Y-31106499D01*
X32156400Y-31487499D01*
G37*
G36*
X32156400Y-36487499D02*
G01*
X31902400Y-36487499D01*
X31902400Y-36106499D01*
X32156400Y-36106499D01*
X32156400Y-36487499D01*
G37*
G36*
X41935400Y-30987497D02*
G01*
X41681400Y-30987497D01*
X41681400Y-30606497D01*
X41935400Y-30606497D01*
X41935400Y-30987497D01*
G37*
G36*
X41935400Y-35987500D02*
G01*
X41681400Y-35987500D01*
X41681400Y-35606500D01*
X41935400Y-35606500D01*
X41935400Y-35987500D01*
G37*
D11*
%TO.C,RN5*%
X19254099Y-41257296D02*
X20254099Y-41257296D01*
X19254099Y-37897296D02*
X20254099Y-37897296D01*
%TO.C,J2*%
X15671499Y-45653695D02*
X15671499Y-48028695D01*
X15671499Y-45653695D02*
X17791499Y-45653695D01*
X15671499Y-49398695D02*
X15671499Y-52028695D01*
X15671499Y-53398695D02*
X15671499Y-53773695D01*
X15671499Y-53773695D02*
X17791499Y-53773695D01*
X17791499Y-45653695D02*
X17791499Y-46028695D01*
X17791499Y-46028695D02*
X19021499Y-46028695D01*
X17791499Y-47398695D02*
X17791499Y-50028695D01*
X17791499Y-51398695D02*
X17791499Y-53773695D01*
%TO.C,C1*%
X50790899Y-33787276D02*
X50790899Y-33506116D01*
X51810899Y-33787276D02*
X51810899Y-33506116D01*
%TO.C,R4*%
X24938058Y-25389100D02*
X24463542Y-25389100D01*
X24938058Y-24344100D02*
X24463542Y-24344100D01*
%TO.C,RN9*%
X16090099Y-33631296D02*
X17090099Y-33631296D01*
X16090099Y-30271296D02*
X17090099Y-30271296D01*
%TO.C,J1*%
X45743299Y-53706096D02*
X47793299Y-53706096D01*
X49613299Y-53706096D02*
X49913299Y-53706096D01*
X49913299Y-53706096D02*
X49913299Y-52906096D01*
X45743299Y-52936096D02*
X45743299Y-53706096D01*
X46093299Y-52936096D02*
X45743299Y-52936096D01*
X49913299Y-52906096D02*
X51213299Y-52906096D01*
X51213299Y-52906096D02*
X51213299Y-37086096D01*
X45503299Y-50956096D02*
X46093299Y-50956096D01*
X46093299Y-50956096D02*
X46093299Y-52936096D01*
X49913299Y-37086096D02*
X49913299Y-36286096D01*
X51213299Y-37086096D02*
X49913299Y-37086096D01*
X45743299Y-37056096D02*
X46093299Y-37056096D01*
X46093299Y-37056096D02*
X46093299Y-39036096D01*
X45743299Y-36286096D02*
X45743299Y-37056096D01*
X47793299Y-36286096D02*
X45743299Y-36286096D01*
X49913299Y-36286096D02*
X49613299Y-36286096D01*
%TO.C,RN10*%
X16090099Y-29872096D02*
X17090099Y-29872096D01*
X16090099Y-26512096D02*
X17090099Y-26512096D01*
%TO.C,RN6*%
X19254099Y-37485696D02*
X20254099Y-37485696D01*
X19254099Y-34125696D02*
X20254099Y-34125696D01*
%TO.C,RN8*%
X24867499Y-42758296D02*
X25867499Y-42758296D01*
X24867499Y-39398296D02*
X25867499Y-39398296D01*
%TO.C,D1*%
X20206500Y-24131600D02*
X20206500Y-25601600D01*
X20206500Y-25601600D02*
X22491500Y-25601600D01*
X22491500Y-24131600D02*
X20206500Y-24131600D01*
D12*
%TO.C,U5*%
X23710900Y-38845800D02*
X29908500Y-38845800D01*
X29908500Y-26247400D02*
X23710900Y-26247400D01*
X26504900Y-26247400D02*
G75*
G03*
X27114500Y-26247400I304800J0D01*
G01*
G36*
X22047200Y-31487100D02*
G01*
X21793200Y-31487100D01*
X21793200Y-31106100D01*
X22047200Y-31106100D01*
X22047200Y-31487100D01*
G37*
G36*
X22047200Y-36487100D02*
G01*
X21793200Y-36487100D01*
X21793200Y-36106100D01*
X22047200Y-36106100D01*
X22047200Y-36487100D01*
G37*
G36*
X31826200Y-30987098D02*
G01*
X31572200Y-30987098D01*
X31572200Y-30606098D01*
X31826200Y-30606098D01*
X31826200Y-30987098D01*
G37*
G36*
X31826200Y-35987101D02*
G01*
X31572200Y-35987101D01*
X31572200Y-35606101D01*
X31826200Y-35606101D01*
X31826200Y-35987101D01*
G37*
%TD*%
M02*
