%TF.GenerationSoftware,KiCad,Pcbnew,7.0.8*%
%TF.CreationDate,2024-06-23T14:42:56-04:00*%
%TF.ProjectId,rugby64,72756762-7936-4342-9e6b-696361645f70,rev?*%
%TF.SameCoordinates,Original*%
%TF.FileFunction,Drillmap*%
%TF.FilePolarity,Positive*%
%FSLAX45Y45*%
G04 Gerber Fmt 4.5, Leading zero omitted, Abs format (unit mm)*
G04 Created by KiCad (PCBNEW 7.0.8) date 2024-06-23 14:42:56*
%MOMM*%
%LPD*%
G01*
G04 APERTURE LIST*
%ADD10C,0.100000*%
%ADD11C,0.200000*%
G04 APERTURE END LIST*
D10*
X5226745Y-5478780D02*
X5226745Y-2350370D01*
X2029460Y-5158740D02*
X2644140Y-5158740D01*
X1709420Y-5478780D02*
X2029390Y-5158810D01*
X1411665Y-5479650D02*
X1699260Y-5479650D01*
X5226745Y-2350370D02*
X1411665Y-2350370D01*
X1411665Y-2350370D02*
X1411665Y-5479650D01*
X2644140Y-5158740D02*
X2963698Y-5478298D01*
X1709420Y-5478780D02*
X1699260Y-5478780D01*
X2963698Y-5478298D02*
X5226263Y-5478298D01*
D11*
X1667442Y-5796133D02*
X1667442Y-5596133D01*
X1667442Y-5596133D02*
X1715061Y-5596133D01*
X1715061Y-5596133D02*
X1743632Y-5605657D01*
X1743632Y-5605657D02*
X1762680Y-5624705D01*
X1762680Y-5624705D02*
X1772204Y-5643752D01*
X1772204Y-5643752D02*
X1781727Y-5681847D01*
X1781727Y-5681847D02*
X1781727Y-5710419D01*
X1781727Y-5710419D02*
X1772204Y-5748514D01*
X1772204Y-5748514D02*
X1762680Y-5767562D01*
X1762680Y-5767562D02*
X1743632Y-5786609D01*
X1743632Y-5786609D02*
X1715061Y-5796133D01*
X1715061Y-5796133D02*
X1667442Y-5796133D01*
X1867442Y-5796133D02*
X1867442Y-5662800D01*
X1867442Y-5700895D02*
X1876966Y-5681847D01*
X1876966Y-5681847D02*
X1886489Y-5672324D01*
X1886489Y-5672324D02*
X1905537Y-5662800D01*
X1905537Y-5662800D02*
X1924585Y-5662800D01*
X1991251Y-5796133D02*
X1991251Y-5662800D01*
X1991251Y-5596133D02*
X1981727Y-5605657D01*
X1981727Y-5605657D02*
X1991251Y-5615181D01*
X1991251Y-5615181D02*
X2000775Y-5605657D01*
X2000775Y-5605657D02*
X1991251Y-5596133D01*
X1991251Y-5596133D02*
X1991251Y-5615181D01*
X2115061Y-5796133D02*
X2096013Y-5786609D01*
X2096013Y-5786609D02*
X2086489Y-5767562D01*
X2086489Y-5767562D02*
X2086489Y-5596133D01*
X2219823Y-5796133D02*
X2200775Y-5786609D01*
X2200775Y-5786609D02*
X2191251Y-5767562D01*
X2191251Y-5767562D02*
X2191251Y-5596133D01*
X2448394Y-5796133D02*
X2448394Y-5596133D01*
X2448394Y-5596133D02*
X2515061Y-5738990D01*
X2515061Y-5738990D02*
X2581728Y-5596133D01*
X2581728Y-5596133D02*
X2581728Y-5796133D01*
X2762680Y-5796133D02*
X2762680Y-5691371D01*
X2762680Y-5691371D02*
X2753156Y-5672324D01*
X2753156Y-5672324D02*
X2734109Y-5662800D01*
X2734109Y-5662800D02*
X2696013Y-5662800D01*
X2696013Y-5662800D02*
X2676966Y-5672324D01*
X2762680Y-5786609D02*
X2743632Y-5796133D01*
X2743632Y-5796133D02*
X2696013Y-5796133D01*
X2696013Y-5796133D02*
X2676966Y-5786609D01*
X2676966Y-5786609D02*
X2667442Y-5767562D01*
X2667442Y-5767562D02*
X2667442Y-5748514D01*
X2667442Y-5748514D02*
X2676966Y-5729467D01*
X2676966Y-5729467D02*
X2696013Y-5719943D01*
X2696013Y-5719943D02*
X2743632Y-5719943D01*
X2743632Y-5719943D02*
X2762680Y-5710419D01*
X2857918Y-5662800D02*
X2857918Y-5862800D01*
X2857918Y-5672324D02*
X2876966Y-5662800D01*
X2876966Y-5662800D02*
X2915061Y-5662800D01*
X2915061Y-5662800D02*
X2934108Y-5672324D01*
X2934108Y-5672324D02*
X2943632Y-5681847D01*
X2943632Y-5681847D02*
X2953156Y-5700895D01*
X2953156Y-5700895D02*
X2953156Y-5758038D01*
X2953156Y-5758038D02*
X2943632Y-5777086D01*
X2943632Y-5777086D02*
X2934108Y-5786609D01*
X2934108Y-5786609D02*
X2915061Y-5796133D01*
X2915061Y-5796133D02*
X2876966Y-5796133D01*
X2876966Y-5796133D02*
X2857918Y-5786609D01*
X3038870Y-5777086D02*
X3048394Y-5786609D01*
X3048394Y-5786609D02*
X3038870Y-5796133D01*
X3038870Y-5796133D02*
X3029347Y-5786609D01*
X3029347Y-5786609D02*
X3038870Y-5777086D01*
X3038870Y-5777086D02*
X3038870Y-5796133D01*
X3038870Y-5672324D02*
X3048394Y-5681847D01*
X3048394Y-5681847D02*
X3038870Y-5691371D01*
X3038870Y-5691371D02*
X3029347Y-5681847D01*
X3029347Y-5681847D02*
X3038870Y-5672324D01*
X3038870Y-5672324D02*
X3038870Y-5691371D01*
M02*
