M48
; DRILL file {KiCad 7.0.8} date 2024 June 14, Friday 11:44:34
; FORMAT={-:-/ absolute / inch / decimal}
; #@! TF.CreationDate,2024-06-14T11:44:34-04:00
; #@! TF.GenerationSoftware,Kicad,Pcbnew,7.0.8
; #@! TF.FileFunction,Plated,1,2,PTH
FMAT,2
INCH
; #@! TA.AperFunction,Plated,PTH,ViaDrill
T1C0.0157
; #@! TA.AperFunction,Plated,PTH,ComponentDrill
T2C0.0157
%
G90
G05
T1
X0.65Y-0.95
X0.6838Y-0.8528
X0.686Y-0.766
X0.732Y-0.686
X0.8922Y-1.0092
X0.978Y-0.889
X1.229Y-0.741
X1.263Y-0.682
X1.275Y-0.809
X1.339Y-0.767
X1.339Y-0.854
T2
G00X0.9023Y-1.049
M15
G01X0.9102Y-1.049
M16
G05
G00X0.9023Y-1.0805
M15
G01X0.9102Y-1.0805
M16
G05
G00X0.9023Y-1.112
M15
G01X0.9102Y-1.112
M16
G05
G00X0.9023Y-1.1434
M15
G01X0.9102Y-1.1434
M16
G05
G00X0.9023Y-1.1749
M15
G01X0.9102Y-1.1749
M16
G05
G00X0.9023Y-1.2064
M15
G01X0.9102Y-1.2064
M16
G05
G00X0.9023Y-1.2379
M15
G01X0.9102Y-1.2379
M16
G05
G00X0.9023Y-1.2694
M15
G01X0.9102Y-1.2694
M16
G05
G00X0.9023Y-1.3009
M15
G01X0.9102Y-1.3009
M16
G05
G00X0.9023Y-1.3324
M15
G01X0.9102Y-1.3324
M16
G05
G00X0.9023Y-1.3639
M15
G01X0.9102Y-1.3639
M16
G05
G00X0.9023Y-1.3954
M15
G01X0.9102Y-1.3954
M16
G05
G00X0.9023Y-1.4269
M15
G01X0.9102Y-1.4269
M16
G05
G00X0.9023Y-1.4584
M15
G01X0.9102Y-1.4584
M16
G05
G00X0.9023Y-1.4899
M15
G01X0.9102Y-1.4899
M16
G05
G00X0.9023Y-1.5214
M15
G01X0.9102Y-1.5214
M16
G05
T0
M30
