%TF.GenerationSoftware,KiCad,Pcbnew,7.0.8*%
%TF.CreationDate,2024-06-14T11:44:34-04:00*%
%TF.ProjectId,mavnusadapter,6d61766e-7573-4616-9461-707465722e6b,rev?*%
%TF.SameCoordinates,Original*%
%TF.FileFunction,Drillmap*%
%TF.FilePolarity,Positive*%
%FSLAX45Y45*%
G04 Gerber Fmt 4.5, Leading zero omitted, Abs format (unit mm)*
G04 Created by KiCad (PCBNEW 7.0.8) date 2024-06-14 11:44:34*
%MOMM*%
%LPD*%
G01*
G04 APERTURE LIST*
%ADD10C,0.100000*%
%ADD11C,0.200000*%
G04 APERTURE END LIST*
D10*
X3548380Y-2324100D02*
X2313940Y-2324100D01*
X1587500Y-3909060D02*
X1587500Y-1681480D01*
X3548380Y-1681480D02*
X3548380Y-2324100D01*
X1587500Y-1681480D02*
X3548380Y-1681480D01*
X2313940Y-3909060D02*
X1587500Y-3909060D01*
X2313940Y-2324100D02*
X2313940Y-3909060D01*
D11*
X1843277Y-4225544D02*
X1843277Y-4025544D01*
X1843277Y-4025544D02*
X1890896Y-4025544D01*
X1890896Y-4025544D02*
X1919467Y-4035068D01*
X1919467Y-4035068D02*
X1938515Y-4054115D01*
X1938515Y-4054115D02*
X1948039Y-4073163D01*
X1948039Y-4073163D02*
X1957562Y-4111258D01*
X1957562Y-4111258D02*
X1957562Y-4139829D01*
X1957562Y-4139829D02*
X1948039Y-4177925D01*
X1948039Y-4177925D02*
X1938515Y-4196972D01*
X1938515Y-4196972D02*
X1919467Y-4216020D01*
X1919467Y-4216020D02*
X1890896Y-4225544D01*
X1890896Y-4225544D02*
X1843277Y-4225544D01*
X2043277Y-4225544D02*
X2043277Y-4092210D01*
X2043277Y-4130306D02*
X2052801Y-4111258D01*
X2052801Y-4111258D02*
X2062324Y-4101734D01*
X2062324Y-4101734D02*
X2081372Y-4092210D01*
X2081372Y-4092210D02*
X2100420Y-4092210D01*
X2167086Y-4225544D02*
X2167086Y-4092210D01*
X2167086Y-4025544D02*
X2157563Y-4035068D01*
X2157563Y-4035068D02*
X2167086Y-4044591D01*
X2167086Y-4044591D02*
X2176610Y-4035068D01*
X2176610Y-4035068D02*
X2167086Y-4025544D01*
X2167086Y-4025544D02*
X2167086Y-4044591D01*
X2290896Y-4225544D02*
X2271848Y-4216020D01*
X2271848Y-4216020D02*
X2262324Y-4196972D01*
X2262324Y-4196972D02*
X2262324Y-4025544D01*
X2395658Y-4225544D02*
X2376610Y-4216020D01*
X2376610Y-4216020D02*
X2367086Y-4196972D01*
X2367086Y-4196972D02*
X2367086Y-4025544D01*
X2624229Y-4225544D02*
X2624229Y-4025544D01*
X2624229Y-4025544D02*
X2690896Y-4168401D01*
X2690896Y-4168401D02*
X2757563Y-4025544D01*
X2757563Y-4025544D02*
X2757563Y-4225544D01*
X2938515Y-4225544D02*
X2938515Y-4120782D01*
X2938515Y-4120782D02*
X2928991Y-4101734D01*
X2928991Y-4101734D02*
X2909943Y-4092210D01*
X2909943Y-4092210D02*
X2871848Y-4092210D01*
X2871848Y-4092210D02*
X2852801Y-4101734D01*
X2938515Y-4216020D02*
X2919467Y-4225544D01*
X2919467Y-4225544D02*
X2871848Y-4225544D01*
X2871848Y-4225544D02*
X2852801Y-4216020D01*
X2852801Y-4216020D02*
X2843277Y-4196972D01*
X2843277Y-4196972D02*
X2843277Y-4177925D01*
X2843277Y-4177925D02*
X2852801Y-4158877D01*
X2852801Y-4158877D02*
X2871848Y-4149353D01*
X2871848Y-4149353D02*
X2919467Y-4149353D01*
X2919467Y-4149353D02*
X2938515Y-4139829D01*
X3033753Y-4092210D02*
X3033753Y-4292210D01*
X3033753Y-4101734D02*
X3052801Y-4092210D01*
X3052801Y-4092210D02*
X3090896Y-4092210D01*
X3090896Y-4092210D02*
X3109943Y-4101734D01*
X3109943Y-4101734D02*
X3119467Y-4111258D01*
X3119467Y-4111258D02*
X3128991Y-4130306D01*
X3128991Y-4130306D02*
X3128991Y-4187448D01*
X3128991Y-4187448D02*
X3119467Y-4206496D01*
X3119467Y-4206496D02*
X3109943Y-4216020D01*
X3109943Y-4216020D02*
X3090896Y-4225544D01*
X3090896Y-4225544D02*
X3052801Y-4225544D01*
X3052801Y-4225544D02*
X3033753Y-4216020D01*
X3214705Y-4206496D02*
X3224229Y-4216020D01*
X3224229Y-4216020D02*
X3214705Y-4225544D01*
X3214705Y-4225544D02*
X3205182Y-4216020D01*
X3205182Y-4216020D02*
X3214705Y-4206496D01*
X3214705Y-4206496D02*
X3214705Y-4225544D01*
X3214705Y-4101734D02*
X3224229Y-4111258D01*
X3224229Y-4111258D02*
X3214705Y-4120782D01*
X3214705Y-4120782D02*
X3205182Y-4111258D01*
X3205182Y-4111258D02*
X3214705Y-4101734D01*
X3214705Y-4101734D02*
X3214705Y-4120782D01*
M02*
