%TF.GenerationSoftware,KiCad,Pcbnew,7.0.8*%
%TF.CreationDate,2024-06-14T11:44:33-04:00*%
%TF.ProjectId,mavnusadapter,6d61766e-7573-4616-9461-707465722e6b,rev?*%
%TF.SameCoordinates,Original*%
%TF.FileFunction,Copper,L1,Top*%
%TF.FilePolarity,Positive*%
%FSLAX46Y46*%
G04 Gerber Fmt 4.6, Leading zero omitted, Abs format (unit mm)*
G04 Created by KiCad (PCBNEW 7.0.8) date 2024-06-14 11:44:33*
%MOMM*%
%LPD*%
G01*
G04 APERTURE LIST*
G04 Aperture macros list*
%AMRoundRect*
0 Rectangle with rounded corners*
0 $1 Rounding radius*
0 $2 $3 $4 $5 $6 $7 $8 $9 X,Y pos of 4 corners*
0 Add a 4 corners polygon primitive as box body*
4,1,4,$2,$3,$4,$5,$6,$7,$8,$9,$2,$3,0*
0 Add four circle primitives for the rounded corners*
1,1,$1+$1,$2,$3*
1,1,$1+$1,$4,$5*
1,1,$1+$1,$6,$7*
1,1,$1+$1,$8,$9*
0 Add four rect primitives between the rounded corners*
20,1,$1+$1,$2,$3,$4,$5,0*
20,1,$1+$1,$4,$5,$6,$7,0*
20,1,$1+$1,$6,$7,$8,$9,0*
20,1,$1+$1,$8,$9,$2,$3,0*%
G04 Aperture macros list end*
%TA.AperFunction,SMDPad,CuDef*%
%ADD10R,0.400000X1.000000*%
%TD*%
%TA.AperFunction,SMDPad,CuDef*%
%ADD11R,2.000000X1.300000*%
%TD*%
%TA.AperFunction,CastellatedPad*%
%ADD12RoundRect,0.150000X-0.475000X-0.150000X0.475000X-0.150000X0.475000X0.150000X-0.475000X0.150000X0*%
%TD*%
%TA.AperFunction,ViaPad*%
%ADD13C,0.800000*%
%TD*%
%TA.AperFunction,Conductor*%
%ADD14C,0.250000*%
%TD*%
G04 APERTURE END LIST*
D10*
%TO.P,REF\u002A\u002A,1*%
%TO.N,GND*%
X31199000Y-17848600D03*
%TO.P,REF\u002A\u002A,2*%
%TO.N,D0*%
X30199000Y-17848600D03*
%TO.P,REF\u002A\u002A,3*%
%TO.N,D1*%
X29199000Y-17848600D03*
%TO.P,REF\u002A\u002A,4*%
%TO.N,D2*%
X28199000Y-17848600D03*
%TO.P,REF\u002A\u002A,5*%
%TO.N,D3*%
X27199000Y-17848600D03*
%TO.P,REF\u002A\u002A,6*%
%TO.N,D4*%
X26199000Y-17848600D03*
%TO.P,REF\u002A\u002A,7*%
%TO.N,D5*%
X25199000Y-17848600D03*
%TO.P,REF\u002A\u002A,8*%
%TO.N,D6*%
X24199000Y-17848600D03*
%TO.P,REF\u002A\u002A,9*%
%TO.N,3v3*%
X23199000Y-17848600D03*
%TO.P,REF\u002A\u002A,10*%
%TO.N,/DSYNC*%
X22199000Y-17848600D03*
%TO.P,REF\u002A\u002A,11*%
%TO.N,GND*%
X21199000Y-17848600D03*
%TO.P,REF\u002A\u002A,12*%
%TO.N,CLK*%
X20199000Y-17848600D03*
D11*
%TO.P,REF\u002A\u002A,MP*%
%TO.N,GND*%
X17399000Y-20548600D03*
X33999000Y-20548600D03*
%TD*%
D12*
%TO.P,REF\u002A\u002A,1*%
%TO.N,GND*%
X23019600Y-26643600D03*
%TO.P,REF\u002A\u002A,2*%
%TO.N,D0*%
X23019600Y-27443600D03*
%TO.P,REF\u002A\u002A,3*%
%TO.N,D1*%
X23019600Y-28243600D03*
%TO.P,REF\u002A\u002A,4*%
%TO.N,D2*%
X23019600Y-29043600D03*
%TO.P,REF\u002A\u002A,5*%
%TO.N,D3*%
X23019600Y-29843600D03*
%TO.P,REF\u002A\u002A,6*%
%TO.N,D4*%
X23019600Y-30643600D03*
%TO.P,REF\u002A\u002A,7*%
%TO.N,D5*%
X23019600Y-31443600D03*
%TO.P,REF\u002A\u002A,8*%
%TO.N,D6*%
X23019600Y-32243600D03*
%TO.P,REF\u002A\u002A,9*%
%TO.N,3v3*%
X23019600Y-33043600D03*
%TO.P,REF\u002A\u002A,10*%
%TO.N,/DSYNC*%
X23019600Y-33843600D03*
%TO.P,REF\u002A\u002A,11*%
%TO.N,GND*%
X23019600Y-34643600D03*
%TO.P,REF\u002A\u002A,12*%
%TO.N,CLK*%
X23019600Y-35443600D03*
%TO.P,REF\u002A\u002A,13*%
%TO.N,N/C*%
X23019600Y-36243600D03*
%TO.P,REF\u002A\u002A,14*%
X23019600Y-37043600D03*
%TO.P,REF\u002A\u002A,15*%
X23019600Y-37843600D03*
%TO.P,REF\u002A\u002A,16*%
X23019600Y-38643600D03*
%TD*%
D13*
%TO.N,GND*%
X16510000Y-24130000D03*
X18592800Y-17424400D03*
X32385000Y-20548600D03*
X32080200Y-17322800D03*
X24841200Y-22580600D03*
X17369301Y-21661901D03*
X31216600Y-18821400D03*
X22661099Y-25632899D03*
X34010600Y-21691600D03*
X34010600Y-19481800D03*
X17424400Y-19456400D03*
%TD*%
D14*
%TO.N,GND*%
X22069600Y-26643600D02*
X22072600Y-26593800D01*
X22072600Y-26136600D02*
X22072600Y-26593800D01*
X17424400Y-19456400D02*
X17424400Y-19812000D01*
X18993600Y-17023600D02*
X21011400Y-17023600D01*
X22547000Y-26001400D02*
X23019600Y-26474000D01*
X18592800Y-17424400D02*
X18993600Y-17023600D01*
X23019600Y-26474000D02*
X23019600Y-26643600D01*
X22661099Y-25632899D02*
X22547000Y-25746998D01*
X21199000Y-17211200D02*
X21199000Y-17848600D01*
X22547000Y-25746998D02*
X22547000Y-26001400D01*
X22122400Y-26643600D02*
X22072600Y-26593800D01*
X31781000Y-17023600D02*
X21011400Y-17023600D01*
X22292598Y-26001400D02*
X22207800Y-26001400D01*
X22207800Y-26001400D02*
X22072600Y-26136600D01*
X32080200Y-17322800D02*
X31781000Y-17023600D01*
X22661099Y-25632899D02*
X22292598Y-26001400D01*
X17424400Y-19812000D02*
X17650800Y-20038400D01*
X23019600Y-26643600D02*
X22122400Y-26643600D01*
X21011400Y-17023600D02*
X21199000Y-17211200D01*
%TO.N,D0*%
X27603992Y-20220400D02*
X26876784Y-20220400D01*
X21372800Y-24411984D02*
X21372800Y-27138600D01*
X29122820Y-19588400D02*
X28235992Y-19588400D01*
X25148172Y-21013400D02*
X24317172Y-21844400D01*
X28235992Y-19588400D02*
X27603992Y-20220400D01*
X26876784Y-20220400D02*
X26083784Y-21013400D01*
X24317172Y-21844400D02*
X23946776Y-21844400D01*
X30238200Y-18473020D02*
X29122820Y-19588400D01*
X22635629Y-23149155D02*
X21372800Y-24411984D01*
X30238200Y-18313400D02*
X30238200Y-18473020D01*
X21372800Y-27138600D02*
X21677800Y-27443600D01*
X23946776Y-21844400D02*
X22642021Y-23149155D01*
X21677800Y-27443600D02*
X23019600Y-27443600D01*
X22642021Y-23149155D02*
X22635629Y-23149155D01*
X26083784Y-21013400D02*
X25148172Y-21013400D01*
%TO.N,D1*%
X21639600Y-28243600D02*
X23019600Y-28243600D01*
X20922800Y-27526800D02*
X21639600Y-28243600D01*
X22455625Y-22699155D02*
X22449233Y-22699155D01*
X27417596Y-19770400D02*
X26690388Y-19770400D01*
X28049596Y-19138400D02*
X27417596Y-19770400D01*
X22449233Y-22699155D02*
X20922800Y-24225588D01*
X29238200Y-18836624D02*
X28936424Y-19138400D01*
X29238200Y-18313400D02*
X29238200Y-18836624D01*
X20922800Y-24225588D02*
X20922800Y-27526800D01*
X24961776Y-20563400D02*
X24130776Y-21394400D01*
X23760380Y-21394400D02*
X22455625Y-22699155D01*
X24130776Y-21394400D02*
X23760380Y-21394400D01*
X25897388Y-20563400D02*
X24961776Y-20563400D01*
X26690388Y-19770400D02*
X25897388Y-20563400D01*
X28936424Y-19138400D02*
X28049596Y-19138400D01*
%TO.N,D2*%
X28047600Y-18688400D02*
X28238200Y-18497800D01*
X20472800Y-27838800D02*
X20472800Y-24039192D01*
X24775380Y-20113400D02*
X25710992Y-20113400D01*
X28238200Y-18497800D02*
X28238200Y-18313400D01*
X20472800Y-24039192D02*
X22262837Y-22249155D01*
X23019600Y-29043600D02*
X21677600Y-29043600D01*
X27231200Y-19320400D02*
X27863200Y-18688400D01*
X21677600Y-29043600D02*
X20472800Y-27838800D01*
X23944380Y-20944400D02*
X24775380Y-20113400D01*
X25710992Y-20113400D02*
X26503992Y-19320400D01*
X23573984Y-20944400D02*
X23944380Y-20944400D01*
X22262837Y-22249155D02*
X22269229Y-22249155D01*
X27863200Y-18688400D02*
X28047600Y-18688400D01*
X22269229Y-22249155D02*
X23573984Y-20944400D01*
X26503992Y-19320400D02*
X27231200Y-19320400D01*
%TO.N,D3*%
X27238200Y-18507200D02*
X26875000Y-18870400D01*
X23387588Y-20494400D02*
X22082833Y-21799155D01*
X20022800Y-28110316D02*
X21756084Y-29843600D01*
X21756084Y-29843600D02*
X23019600Y-29843600D01*
X24588984Y-19663400D02*
X23757984Y-20494400D01*
X26875000Y-18870400D02*
X26317596Y-18870400D01*
X25524596Y-19663400D02*
X24588984Y-19663400D01*
X22076441Y-21799155D02*
X20022800Y-23852796D01*
X26317596Y-18870400D02*
X25524596Y-19663400D01*
X20022800Y-23852796D02*
X20022800Y-28110316D01*
X23757984Y-20494400D02*
X23387588Y-20494400D01*
X27238200Y-18313400D02*
X27238200Y-18507200D01*
X22082833Y-21799155D02*
X22076441Y-21799155D01*
%TO.N,D4*%
X26199000Y-18352600D02*
X25338200Y-19213400D01*
X23201192Y-20044400D02*
X21896437Y-21349155D01*
X21896437Y-21349155D02*
X21890045Y-21349155D01*
X23571588Y-20044400D02*
X23201192Y-20044400D01*
X21919688Y-30643600D02*
X23019600Y-30643600D01*
X25338200Y-19213400D02*
X24402588Y-19213400D01*
X19572800Y-28296712D02*
X21919688Y-30643600D01*
X24402588Y-19213400D02*
X23571588Y-20044400D01*
X21890045Y-21349155D02*
X19572800Y-23666400D01*
X26199000Y-17848600D02*
X26199000Y-18352600D01*
X19572800Y-23666400D02*
X19572800Y-28296712D01*
%TO.N,D5*%
X19122800Y-23480004D02*
X19122800Y-28483108D01*
X19122800Y-28483108D02*
X22083292Y-31443600D01*
X23014796Y-19594400D02*
X21710041Y-20899155D01*
X23385192Y-19594400D02*
X23014796Y-19594400D01*
X25238200Y-18449800D02*
X24924600Y-18763400D01*
X21703649Y-20899155D02*
X19122800Y-23480004D01*
X25238200Y-18313400D02*
X25238200Y-18449800D01*
X24924600Y-18763400D02*
X24216192Y-18763400D01*
X22083292Y-31443600D02*
X23019600Y-31443600D01*
X21710041Y-20899155D02*
X21703649Y-20899155D01*
X24216192Y-18763400D02*
X23385192Y-19594400D01*
%TO.N,D6*%
X19091388Y-22873600D02*
X18672800Y-23292188D01*
X22246896Y-32243600D02*
X23019600Y-32243600D01*
X22828400Y-19144400D02*
X21523645Y-20449155D01*
X24199000Y-17848600D02*
X24199000Y-18144196D01*
X21523645Y-20449155D02*
X21517253Y-20449155D01*
X18672800Y-28669504D02*
X22246896Y-32243600D01*
X23198796Y-19144400D02*
X22828400Y-19144400D01*
X21517253Y-20449155D02*
X19092808Y-22873600D01*
X19092808Y-22873600D02*
X19091388Y-22873600D01*
X24199000Y-18144196D02*
X23198796Y-19144400D01*
X18672800Y-23292188D02*
X18672800Y-28669504D01*
%TO.N,3v3*%
X18222800Y-28855900D02*
X22410500Y-33043600D01*
X23012400Y-18694400D02*
X22635612Y-18694400D01*
X23238200Y-18468600D02*
X23012400Y-18694400D01*
X23238200Y-18313400D02*
X23238200Y-18468600D01*
X22025548Y-19304464D02*
X22025548Y-19310856D01*
X18906412Y-22423600D02*
X18904992Y-22423600D01*
X22410500Y-33043600D02*
X23019600Y-33043600D01*
X22025548Y-19310856D02*
X21337249Y-19999155D01*
X18904992Y-22423600D02*
X18222800Y-23105792D01*
X18222800Y-23105792D02*
X18222800Y-28855900D01*
X21330857Y-19999155D02*
X18906412Y-22423600D01*
X22635612Y-18694400D02*
X22025548Y-19304464D01*
X21337249Y-19999155D02*
X21330857Y-19999155D01*
%TO.N,/DSYNC*%
X17772800Y-22919396D02*
X18718596Y-21973600D01*
X22238200Y-18455416D02*
X22238200Y-18313400D01*
X22261200Y-33843600D02*
X21913000Y-33495400D01*
X18720016Y-21973600D02*
X22238200Y-18455416D01*
X18718596Y-21973600D02*
X18720016Y-21973600D01*
X21913000Y-33182496D02*
X17772800Y-29042296D01*
X23019600Y-33843600D02*
X22261200Y-33843600D01*
X21913000Y-33495400D02*
X21913000Y-33182496D01*
X17772800Y-29042296D02*
X17772800Y-22919396D01*
%TO.N,CLK*%
X20199000Y-17848600D02*
X20125048Y-17922552D01*
X17322800Y-22733000D02*
X17322800Y-29228692D01*
X17322800Y-29228692D02*
X21463000Y-33368892D01*
X18533620Y-21523600D02*
X18532200Y-21523600D01*
X20125048Y-17922552D02*
X20125048Y-19932172D01*
X21463000Y-33368892D02*
X21463000Y-35128200D01*
X21463000Y-35128200D02*
X21778400Y-35443600D01*
X18532200Y-21523600D02*
X17322800Y-22733000D01*
X21778400Y-35443600D02*
X23019600Y-35443600D01*
X20125048Y-19932172D02*
X18533620Y-21523600D01*
%TD*%
%TA.AperFunction,Conductor*%
%TO.N,GND*%
G36*
X16073812Y-21579744D02*
G01*
X16156910Y-21641952D01*
X16156913Y-21641954D01*
X16291620Y-21692196D01*
X16291627Y-21692198D01*
X16351155Y-21698599D01*
X16351172Y-21698600D01*
X17173246Y-21698600D01*
X17240285Y-21718285D01*
X17286040Y-21771089D01*
X17295984Y-21840247D01*
X17266959Y-21903803D01*
X17260927Y-21910281D01*
X16939008Y-22232199D01*
X16926751Y-22242020D01*
X16926934Y-22242241D01*
X16920923Y-22247213D01*
X16873572Y-22297636D01*
X16852689Y-22318519D01*
X16852677Y-22318532D01*
X16848421Y-22324017D01*
X16844637Y-22328447D01*
X16812737Y-22362418D01*
X16812736Y-22362420D01*
X16803084Y-22379976D01*
X16792410Y-22396226D01*
X16780129Y-22412061D01*
X16780124Y-22412068D01*
X16761615Y-22454838D01*
X16759045Y-22460084D01*
X16736603Y-22500906D01*
X16731622Y-22520307D01*
X16725321Y-22538710D01*
X16717362Y-22557102D01*
X16717361Y-22557105D01*
X16710071Y-22603127D01*
X16708887Y-22608846D01*
X16697301Y-22653972D01*
X16697300Y-22653982D01*
X16697300Y-22674016D01*
X16695773Y-22693415D01*
X16692640Y-22713194D01*
X16692640Y-22713195D01*
X16697025Y-22759583D01*
X16697300Y-22765421D01*
X16697300Y-29145947D01*
X16695575Y-29161564D01*
X16695861Y-29161591D01*
X16695126Y-29169357D01*
X16697300Y-29238506D01*
X16697300Y-29268035D01*
X16697301Y-29268052D01*
X16698168Y-29274923D01*
X16698626Y-29280742D01*
X16700090Y-29327316D01*
X16700091Y-29327319D01*
X16705680Y-29346559D01*
X16709624Y-29365603D01*
X16712136Y-29385483D01*
X16729290Y-29428811D01*
X16731182Y-29434339D01*
X16744181Y-29479080D01*
X16754380Y-29496326D01*
X16762938Y-29513795D01*
X16770314Y-29532424D01*
X16797698Y-29570115D01*
X16800906Y-29574999D01*
X16824627Y-29615108D01*
X16824633Y-29615116D01*
X16838790Y-29629272D01*
X16851428Y-29644068D01*
X16863205Y-29660278D01*
X16863206Y-29660279D01*
X16899109Y-29689980D01*
X16903420Y-29693902D01*
X18868812Y-31659294D01*
X20801181Y-33591663D01*
X20834666Y-33652986D01*
X20837500Y-33679344D01*
X20837500Y-35045455D01*
X20835775Y-35061072D01*
X20836061Y-35061099D01*
X20835326Y-35068865D01*
X20837500Y-35138014D01*
X20837500Y-35167543D01*
X20837501Y-35167560D01*
X20838368Y-35174431D01*
X20838826Y-35180250D01*
X20840290Y-35226824D01*
X20840291Y-35226827D01*
X20845880Y-35246067D01*
X20849824Y-35265111D01*
X20852336Y-35284991D01*
X20869490Y-35328319D01*
X20871382Y-35333847D01*
X20884381Y-35378588D01*
X20894580Y-35395834D01*
X20903138Y-35413303D01*
X20910514Y-35431932D01*
X20937898Y-35469623D01*
X20941106Y-35474507D01*
X20964827Y-35514616D01*
X20964833Y-35514624D01*
X20978990Y-35528780D01*
X20991628Y-35543576D01*
X21003405Y-35559786D01*
X21003406Y-35559787D01*
X21039308Y-35589487D01*
X21043619Y-35593409D01*
X21277594Y-35827384D01*
X21287417Y-35839645D01*
X21287639Y-35839463D01*
X21292612Y-35845475D01*
X21343037Y-35892828D01*
X21363923Y-35913715D01*
X21363927Y-35913718D01*
X21363929Y-35913720D01*
X21369411Y-35917973D01*
X21373843Y-35921757D01*
X21407818Y-35953662D01*
X21425376Y-35963314D01*
X21441633Y-35973993D01*
X21457464Y-35986273D01*
X21477137Y-35994786D01*
X21500233Y-36004782D01*
X21505477Y-36007350D01*
X21546308Y-36029797D01*
X21558923Y-36033035D01*
X21565705Y-36034777D01*
X21584119Y-36041081D01*
X21602504Y-36049038D01*
X21648557Y-36056332D01*
X21654226Y-36057506D01*
X21699381Y-36069100D01*
X21719416Y-36069100D01*
X21738813Y-36070626D01*
X21758596Y-36073760D01*
X21758603Y-36073759D01*
X21766393Y-36074005D01*
X21766351Y-36075311D01*
X21827018Y-36087060D01*
X21877542Y-36135320D01*
X21894100Y-36197225D01*
X21894100Y-36459296D01*
X21897001Y-36496167D01*
X21897002Y-36496173D01*
X21929784Y-36609005D01*
X21929784Y-36678195D01*
X21897002Y-36791026D01*
X21897001Y-36791032D01*
X21894100Y-36827904D01*
X21894100Y-37259296D01*
X21897001Y-37296167D01*
X21897002Y-37296173D01*
X21929784Y-37409005D01*
X21929784Y-37478195D01*
X21897002Y-37591026D01*
X21897001Y-37591032D01*
X21894100Y-37627904D01*
X21894100Y-38059296D01*
X21897001Y-38096167D01*
X21897002Y-38096173D01*
X21929784Y-38209005D01*
X21929784Y-38278195D01*
X21897002Y-38391026D01*
X21897001Y-38391032D01*
X21894100Y-38427904D01*
X21894100Y-38859296D01*
X21897001Y-38896167D01*
X21897002Y-38896170D01*
X21907268Y-38931504D01*
X21907069Y-39001373D01*
X21869128Y-39060044D01*
X21805489Y-39088888D01*
X21788192Y-39090100D01*
X15999500Y-39090100D01*
X15932461Y-39070415D01*
X15886706Y-39017611D01*
X15875500Y-38966100D01*
X15875500Y-21679010D01*
X15895185Y-21611971D01*
X15947989Y-21566216D01*
X16017147Y-21556272D01*
X16073812Y-21579744D01*
G37*
%TD.AperFunction*%
%TA.AperFunction,Conductor*%
G36*
X23058234Y-23713654D02*
G01*
X23114167Y-23755526D01*
X23138584Y-23820990D01*
X23138900Y-23829836D01*
X23138900Y-26443600D01*
X22897068Y-26443600D01*
X22830592Y-26458773D01*
X22769600Y-26507411D01*
X22769600Y-25843600D01*
X22478956Y-25843600D01*
X22442110Y-25846499D01*
X22442104Y-25846500D01*
X22284406Y-25892316D01*
X22284403Y-25892317D01*
X22185421Y-25950855D01*
X22117697Y-25968038D01*
X22051434Y-25945878D01*
X22007671Y-25891412D01*
X21998300Y-25844123D01*
X21998300Y-24722436D01*
X22017985Y-24655397D01*
X22034619Y-24634755D01*
X22927219Y-23742155D01*
X22988542Y-23708670D01*
X23058234Y-23713654D01*
G37*
%TD.AperFunction*%
%TA.AperFunction,Conductor*%
G36*
X35401439Y-16910685D02*
G01*
X35447194Y-16963489D01*
X35458400Y-17015000D01*
X35458400Y-19370203D01*
X35438715Y-19437242D01*
X35385911Y-19482997D01*
X35316753Y-19492941D01*
X35260090Y-19469471D01*
X35241088Y-19455246D01*
X35241086Y-19455245D01*
X35106379Y-19405003D01*
X35106372Y-19405001D01*
X35046844Y-19398600D01*
X34249000Y-19398600D01*
X34249000Y-21698600D01*
X35046828Y-21698600D01*
X35046844Y-21698599D01*
X35106372Y-21692198D01*
X35106379Y-21692196D01*
X35241086Y-21641954D01*
X35241089Y-21641952D01*
X35260088Y-21627730D01*
X35325552Y-21603312D01*
X35393825Y-21618163D01*
X35443231Y-21667567D01*
X35458400Y-21726996D01*
X35458400Y-23116500D01*
X35438715Y-23183539D01*
X35385911Y-23229294D01*
X35334400Y-23240500D01*
X23734628Y-23240500D01*
X23667589Y-23220815D01*
X23621834Y-23168011D01*
X23611890Y-23098853D01*
X23640915Y-23035297D01*
X23646947Y-23028819D01*
X24167223Y-22508543D01*
X24228544Y-22475060D01*
X24251008Y-22472287D01*
X24257836Y-22472072D01*
X24257839Y-22472073D01*
X24323581Y-22470006D01*
X24326987Y-22469900D01*
X24356519Y-22469900D01*
X24356522Y-22469900D01*
X24363400Y-22469030D01*
X24369213Y-22468572D01*
X24415799Y-22467109D01*
X24435041Y-22461517D01*
X24454084Y-22457574D01*
X24473964Y-22455064D01*
X24517294Y-22437907D01*
X24522818Y-22436017D01*
X24526568Y-22434927D01*
X24567562Y-22423018D01*
X24584801Y-22412822D01*
X24602275Y-22404262D01*
X24620899Y-22396888D01*
X24620899Y-22396887D01*
X24620904Y-22396886D01*
X24658621Y-22369482D01*
X24663477Y-22366292D01*
X24703592Y-22342570D01*
X24717761Y-22328399D01*
X24732551Y-22315768D01*
X24748759Y-22303994D01*
X24778471Y-22268076D01*
X24782384Y-22263776D01*
X25370944Y-21675219D01*
X25432267Y-21641734D01*
X25458625Y-21638900D01*
X26001041Y-21638900D01*
X26016661Y-21640624D01*
X26016688Y-21640339D01*
X26024444Y-21641071D01*
X26024451Y-21641073D01*
X26093598Y-21638900D01*
X26123134Y-21638900D01*
X26130012Y-21638030D01*
X26135825Y-21637572D01*
X26182411Y-21636109D01*
X26201653Y-21630517D01*
X26220696Y-21626574D01*
X26240576Y-21624064D01*
X26283906Y-21606907D01*
X26289430Y-21605017D01*
X26293180Y-21603927D01*
X26334174Y-21592018D01*
X26351413Y-21581822D01*
X26368887Y-21573262D01*
X26387511Y-21565888D01*
X26387511Y-21565887D01*
X26387516Y-21565886D01*
X26425233Y-21538482D01*
X26430089Y-21535292D01*
X26470204Y-21511570D01*
X26484373Y-21497399D01*
X26499163Y-21484768D01*
X26515371Y-21472994D01*
X26545083Y-21437076D01*
X26548996Y-21432776D01*
X27099556Y-20882219D01*
X27160879Y-20848734D01*
X27187237Y-20845900D01*
X27521249Y-20845900D01*
X27536869Y-20847624D01*
X27536896Y-20847339D01*
X27544652Y-20848071D01*
X27544659Y-20848073D01*
X27613806Y-20845900D01*
X27643342Y-20845900D01*
X27650220Y-20845030D01*
X27656033Y-20844572D01*
X27702619Y-20843109D01*
X27721861Y-20837517D01*
X27740904Y-20833574D01*
X27760784Y-20831064D01*
X27804114Y-20813907D01*
X27809638Y-20812017D01*
X27813388Y-20810927D01*
X27854382Y-20799018D01*
X27855089Y-20798600D01*
X32499000Y-20798600D01*
X32499000Y-21246444D01*
X32505401Y-21305972D01*
X32505403Y-21305979D01*
X32555645Y-21440686D01*
X32555649Y-21440693D01*
X32641809Y-21555787D01*
X32641812Y-21555790D01*
X32756906Y-21641950D01*
X32756913Y-21641954D01*
X32891620Y-21692196D01*
X32891627Y-21692198D01*
X32951155Y-21698599D01*
X32951172Y-21698600D01*
X33749000Y-21698600D01*
X33749000Y-20798600D01*
X32499000Y-20798600D01*
X27855089Y-20798600D01*
X27871621Y-20788822D01*
X27889095Y-20780262D01*
X27907719Y-20772888D01*
X27907719Y-20772887D01*
X27907724Y-20772886D01*
X27945441Y-20745482D01*
X27950297Y-20742292D01*
X27990412Y-20718570D01*
X28004581Y-20704399D01*
X28019371Y-20691768D01*
X28035579Y-20679994D01*
X28065291Y-20644076D01*
X28069204Y-20639776D01*
X28410382Y-20298600D01*
X32499000Y-20298600D01*
X33749000Y-20298600D01*
X33749000Y-19398600D01*
X32951155Y-19398600D01*
X32891627Y-19405001D01*
X32891620Y-19405003D01*
X32756913Y-19455245D01*
X32756906Y-19455249D01*
X32641812Y-19541409D01*
X32641809Y-19541412D01*
X32555649Y-19656506D01*
X32555645Y-19656513D01*
X32505403Y-19791220D01*
X32505401Y-19791227D01*
X32499000Y-19850755D01*
X32499000Y-20298600D01*
X28410382Y-20298600D01*
X28458765Y-20250217D01*
X28520087Y-20216734D01*
X28546445Y-20213900D01*
X29040077Y-20213900D01*
X29055697Y-20215624D01*
X29055724Y-20215339D01*
X29063480Y-20216071D01*
X29063487Y-20216073D01*
X29132634Y-20213900D01*
X29162170Y-20213900D01*
X29169048Y-20213030D01*
X29174861Y-20212572D01*
X29221447Y-20211109D01*
X29240689Y-20205517D01*
X29259732Y-20201574D01*
X29279612Y-20199064D01*
X29322942Y-20181907D01*
X29328466Y-20180017D01*
X29332216Y-20178927D01*
X29373210Y-20167018D01*
X29390449Y-20156822D01*
X29407923Y-20148262D01*
X29426547Y-20140888D01*
X29426547Y-20140887D01*
X29426552Y-20140886D01*
X29464269Y-20113482D01*
X29469125Y-20110292D01*
X29509240Y-20086570D01*
X29523409Y-20072399D01*
X29538199Y-20059768D01*
X29554407Y-20047994D01*
X29584119Y-20012076D01*
X29588032Y-20007776D01*
X30621986Y-18973822D01*
X30634248Y-18964000D01*
X30634065Y-18963779D01*
X30640067Y-18958812D01*
X30640077Y-18958806D01*
X30687441Y-18908368D01*
X30708320Y-18887490D01*
X30712574Y-18882004D01*
X30716346Y-18877587D01*
X30729973Y-18863076D01*
X30790212Y-18827684D01*
X30860026Y-18830478D01*
X30863697Y-18831782D01*
X30891621Y-18842197D01*
X30951155Y-18848599D01*
X30951172Y-18848600D01*
X30999000Y-18848600D01*
X30999000Y-18048600D01*
X31399000Y-18048600D01*
X31399000Y-18848600D01*
X31446828Y-18848600D01*
X31446844Y-18848599D01*
X31506372Y-18842198D01*
X31506379Y-18842196D01*
X31641086Y-18791954D01*
X31641093Y-18791950D01*
X31756187Y-18705790D01*
X31756190Y-18705787D01*
X31842350Y-18590693D01*
X31842354Y-18590686D01*
X31892596Y-18455979D01*
X31892598Y-18455972D01*
X31898999Y-18396444D01*
X31899000Y-18396427D01*
X31899000Y-18048600D01*
X31399000Y-18048600D01*
X30999000Y-18048600D01*
X30999000Y-17772600D01*
X31018685Y-17705561D01*
X31071489Y-17659806D01*
X31123000Y-17648600D01*
X31899000Y-17648600D01*
X31899000Y-17300772D01*
X31898999Y-17300755D01*
X31892598Y-17241227D01*
X31892596Y-17241220D01*
X31842354Y-17106513D01*
X31842353Y-17106511D01*
X31829477Y-17089311D01*
X31805060Y-17023847D01*
X31819911Y-16955574D01*
X31869316Y-16906168D01*
X31928744Y-16891000D01*
X35334400Y-16891000D01*
X35401439Y-16910685D01*
G37*
%TD.AperFunction*%
%TA.AperFunction,Conductor*%
G36*
X19535671Y-16910685D02*
G01*
X19581426Y-16963489D01*
X19591370Y-17032647D01*
X19567898Y-17089312D01*
X19555204Y-17106268D01*
X19555202Y-17106271D01*
X19504908Y-17241117D01*
X19498501Y-17300716D01*
X19498500Y-17300735D01*
X19498500Y-17870180D01*
X19496974Y-17889574D01*
X19494888Y-17902747D01*
X19494888Y-17902748D01*
X19498225Y-17938053D01*
X19498500Y-17943890D01*
X19498500Y-18396471D01*
X19498501Y-18396488D01*
X19499192Y-18402907D01*
X19499548Y-18409540D01*
X19499548Y-19621718D01*
X19479863Y-19688757D01*
X19463229Y-19709399D01*
X19110681Y-20061947D01*
X19049358Y-20095432D01*
X18979666Y-20090448D01*
X18923733Y-20048576D01*
X18899316Y-19983112D01*
X18899000Y-19974266D01*
X18899000Y-19850772D01*
X18898999Y-19850755D01*
X18892598Y-19791227D01*
X18892596Y-19791220D01*
X18842354Y-19656513D01*
X18842350Y-19656506D01*
X18756190Y-19541412D01*
X18756187Y-19541409D01*
X18641093Y-19455249D01*
X18641086Y-19455245D01*
X18506379Y-19405003D01*
X18506372Y-19405001D01*
X18446844Y-19398600D01*
X17649000Y-19398600D01*
X17649000Y-20674600D01*
X17629315Y-20741639D01*
X17576511Y-20787394D01*
X17525000Y-20798600D01*
X17273000Y-20798600D01*
X17205961Y-20778915D01*
X17160206Y-20726111D01*
X17149000Y-20674600D01*
X17149000Y-19398600D01*
X16351155Y-19398600D01*
X16291627Y-19405001D01*
X16291620Y-19405003D01*
X16156913Y-19455245D01*
X16156911Y-19455246D01*
X16073811Y-19517456D01*
X16008347Y-19541873D01*
X15940074Y-19527022D01*
X15890668Y-19477617D01*
X15875500Y-19418189D01*
X15875500Y-17015000D01*
X15895185Y-16947961D01*
X15947989Y-16902206D01*
X15999500Y-16891000D01*
X19468632Y-16891000D01*
X19535671Y-16910685D01*
G37*
%TD.AperFunction*%
%TD*%
M02*
