%TF.GenerationSoftware,KiCad,Pcbnew,7.0.8*%
%TF.CreationDate,2024-06-14T11:44:33-04:00*%
%TF.ProjectId,mavnusadapter,6d61766e-7573-4616-9461-707465722e6b,rev?*%
%TF.SameCoordinates,Original*%
%TF.FileFunction,Legend,Top*%
%TF.FilePolarity,Positive*%
%FSLAX46Y46*%
G04 Gerber Fmt 4.6, Leading zero omitted, Abs format (unit mm)*
G04 Created by KiCad (PCBNEW 7.0.8) date 2024-06-14 11:44:33*
%MOMM*%
%LPD*%
G01*
G04 APERTURE LIST*
%ADD10C,0.150000*%
%ADD11C,0.120000*%
G04 APERTURE END LIST*
D10*
X21815419Y-35832820D02*
X20815419Y-35832820D01*
X20815419Y-35832820D02*
X21529704Y-35499487D01*
X21529704Y-35499487D02*
X20815419Y-35166154D01*
X20815419Y-35166154D02*
X21815419Y-35166154D01*
X21529704Y-34737582D02*
X21529704Y-34261392D01*
X21815419Y-34832820D02*
X20815419Y-34499487D01*
X20815419Y-34499487D02*
X21815419Y-34166154D01*
X20815419Y-33975677D02*
X21815419Y-33642344D01*
X21815419Y-33642344D02*
X20815419Y-33309011D01*
X21434466Y-32975677D02*
X21434466Y-32213773D01*
X21815419Y-31737582D02*
X20815419Y-31737582D01*
X20815419Y-31737582D02*
X21815419Y-31166154D01*
X21815419Y-31166154D02*
X20815419Y-31166154D01*
X20815419Y-30689963D02*
X21624942Y-30689963D01*
X21624942Y-30689963D02*
X21720180Y-30642344D01*
X21720180Y-30642344D02*
X21767800Y-30594725D01*
X21767800Y-30594725D02*
X21815419Y-30499487D01*
X21815419Y-30499487D02*
X21815419Y-30309011D01*
X21815419Y-30309011D02*
X21767800Y-30213773D01*
X21767800Y-30213773D02*
X21720180Y-30166154D01*
X21720180Y-30166154D02*
X21624942Y-30118535D01*
X21624942Y-30118535D02*
X20815419Y-30118535D01*
X21767800Y-29689963D02*
X21815419Y-29547106D01*
X21815419Y-29547106D02*
X21815419Y-29309011D01*
X21815419Y-29309011D02*
X21767800Y-29213773D01*
X21767800Y-29213773D02*
X21720180Y-29166154D01*
X21720180Y-29166154D02*
X21624942Y-29118535D01*
X21624942Y-29118535D02*
X21529704Y-29118535D01*
X21529704Y-29118535D02*
X21434466Y-29166154D01*
X21434466Y-29166154D02*
X21386847Y-29213773D01*
X21386847Y-29213773D02*
X21339228Y-29309011D01*
X21339228Y-29309011D02*
X21291609Y-29499487D01*
X21291609Y-29499487D02*
X21243990Y-29594725D01*
X21243990Y-29594725D02*
X21196371Y-29642344D01*
X21196371Y-29642344D02*
X21101133Y-29689963D01*
X21101133Y-29689963D02*
X21005895Y-29689963D01*
X21005895Y-29689963D02*
X20910657Y-29642344D01*
X20910657Y-29642344D02*
X20863038Y-29594725D01*
X20863038Y-29594725D02*
X20815419Y-29499487D01*
X20815419Y-29499487D02*
X20815419Y-29261392D01*
X20815419Y-29261392D02*
X20863038Y-29118535D01*
X20183504Y-36261439D02*
X20183504Y-35785249D01*
X20469219Y-36356677D02*
X19469219Y-36023344D01*
X19469219Y-36023344D02*
X20469219Y-35690011D01*
X19469219Y-35499534D02*
X20469219Y-35166201D01*
X20469219Y-35166201D02*
X19469219Y-34832868D01*
X20469219Y-34499534D02*
X19469219Y-34499534D01*
X19469219Y-34499534D02*
X19469219Y-34261439D01*
X19469219Y-34261439D02*
X19516838Y-34118582D01*
X19516838Y-34118582D02*
X19612076Y-34023344D01*
X19612076Y-34023344D02*
X19707314Y-33975725D01*
X19707314Y-33975725D02*
X19897790Y-33928106D01*
X19897790Y-33928106D02*
X20040647Y-33928106D01*
X20040647Y-33928106D02*
X20231123Y-33975725D01*
X20231123Y-33975725D02*
X20326361Y-34023344D01*
X20326361Y-34023344D02*
X20421600Y-34118582D01*
X20421600Y-34118582D02*
X20469219Y-34261439D01*
X20469219Y-34261439D02*
X20469219Y-34499534D01*
X20373980Y-32928106D02*
X20421600Y-32975725D01*
X20421600Y-32975725D02*
X20469219Y-33118582D01*
X20469219Y-33118582D02*
X20469219Y-33213820D01*
X20469219Y-33213820D02*
X20421600Y-33356677D01*
X20421600Y-33356677D02*
X20326361Y-33451915D01*
X20326361Y-33451915D02*
X20231123Y-33499534D01*
X20231123Y-33499534D02*
X20040647Y-33547153D01*
X20040647Y-33547153D02*
X19897790Y-33547153D01*
X19897790Y-33547153D02*
X19707314Y-33499534D01*
X19707314Y-33499534D02*
X19612076Y-33451915D01*
X19612076Y-33451915D02*
X19516838Y-33356677D01*
X19516838Y-33356677D02*
X19469219Y-33213820D01*
X19469219Y-33213820D02*
X19469219Y-33118582D01*
X19469219Y-33118582D02*
X19516838Y-32975725D01*
X19516838Y-32975725D02*
X19564457Y-32928106D01*
X20088266Y-32499534D02*
X20088266Y-31737630D01*
X20469219Y-31261439D02*
X19469219Y-31261439D01*
X19469219Y-31261439D02*
X20469219Y-30690011D01*
X20469219Y-30690011D02*
X19469219Y-30690011D01*
X19469219Y-30213820D02*
X20278742Y-30213820D01*
X20278742Y-30213820D02*
X20373980Y-30166201D01*
X20373980Y-30166201D02*
X20421600Y-30118582D01*
X20421600Y-30118582D02*
X20469219Y-30023344D01*
X20469219Y-30023344D02*
X20469219Y-29832868D01*
X20469219Y-29832868D02*
X20421600Y-29737630D01*
X20421600Y-29737630D02*
X20373980Y-29690011D01*
X20373980Y-29690011D02*
X20278742Y-29642392D01*
X20278742Y-29642392D02*
X19469219Y-29642392D01*
X20421600Y-29213820D02*
X20469219Y-29070963D01*
X20469219Y-29070963D02*
X20469219Y-28832868D01*
X20469219Y-28832868D02*
X20421600Y-28737630D01*
X20421600Y-28737630D02*
X20373980Y-28690011D01*
X20373980Y-28690011D02*
X20278742Y-28642392D01*
X20278742Y-28642392D02*
X20183504Y-28642392D01*
X20183504Y-28642392D02*
X20088266Y-28690011D01*
X20088266Y-28690011D02*
X20040647Y-28737630D01*
X20040647Y-28737630D02*
X19993028Y-28832868D01*
X19993028Y-28832868D02*
X19945409Y-29023344D01*
X19945409Y-29023344D02*
X19897790Y-29118582D01*
X19897790Y-29118582D02*
X19850171Y-29166201D01*
X19850171Y-29166201D02*
X19754933Y-29213820D01*
X19754933Y-29213820D02*
X19659695Y-29213820D01*
X19659695Y-29213820D02*
X19564457Y-29166201D01*
X19564457Y-29166201D02*
X19516838Y-29118582D01*
X19516838Y-29118582D02*
X19469219Y-29023344D01*
X19469219Y-29023344D02*
X19469219Y-28785249D01*
X19469219Y-28785249D02*
X19516838Y-28642392D01*
X17046695Y-38664323D02*
X16246695Y-38664323D01*
X16246695Y-38664323D02*
X17046695Y-38207180D01*
X17046695Y-38207180D02*
X16246695Y-38207180D01*
X16246695Y-37826228D02*
X16894314Y-37826228D01*
X16894314Y-37826228D02*
X16970504Y-37788133D01*
X16970504Y-37788133D02*
X17008600Y-37750038D01*
X17008600Y-37750038D02*
X17046695Y-37673847D01*
X17046695Y-37673847D02*
X17046695Y-37521466D01*
X17046695Y-37521466D02*
X17008600Y-37445276D01*
X17008600Y-37445276D02*
X16970504Y-37407181D01*
X16970504Y-37407181D02*
X16894314Y-37369085D01*
X16894314Y-37369085D02*
X16246695Y-37369085D01*
X17008600Y-37026229D02*
X17046695Y-36911943D01*
X17046695Y-36911943D02*
X17046695Y-36721467D01*
X17046695Y-36721467D02*
X17008600Y-36645276D01*
X17008600Y-36645276D02*
X16970504Y-36607181D01*
X16970504Y-36607181D02*
X16894314Y-36569086D01*
X16894314Y-36569086D02*
X16818123Y-36569086D01*
X16818123Y-36569086D02*
X16741933Y-36607181D01*
X16741933Y-36607181D02*
X16703838Y-36645276D01*
X16703838Y-36645276D02*
X16665742Y-36721467D01*
X16665742Y-36721467D02*
X16627647Y-36873848D01*
X16627647Y-36873848D02*
X16589552Y-36950038D01*
X16589552Y-36950038D02*
X16551457Y-36988133D01*
X16551457Y-36988133D02*
X16475266Y-37026229D01*
X16475266Y-37026229D02*
X16399076Y-37026229D01*
X16399076Y-37026229D02*
X16322885Y-36988133D01*
X16322885Y-36988133D02*
X16284790Y-36950038D01*
X16284790Y-36950038D02*
X16246695Y-36873848D01*
X16246695Y-36873848D02*
X16246695Y-36683371D01*
X16246695Y-36683371D02*
X16284790Y-36569086D01*
X16741933Y-36226228D02*
X16741933Y-35616705D01*
X16970504Y-34778609D02*
X17008600Y-34816705D01*
X17008600Y-34816705D02*
X17046695Y-34930990D01*
X17046695Y-34930990D02*
X17046695Y-35007181D01*
X17046695Y-35007181D02*
X17008600Y-35121467D01*
X17008600Y-35121467D02*
X16932409Y-35197657D01*
X16932409Y-35197657D02*
X16856219Y-35235752D01*
X16856219Y-35235752D02*
X16703838Y-35273848D01*
X16703838Y-35273848D02*
X16589552Y-35273848D01*
X16589552Y-35273848D02*
X16437171Y-35235752D01*
X16437171Y-35235752D02*
X16360980Y-35197657D01*
X16360980Y-35197657D02*
X16284790Y-35121467D01*
X16284790Y-35121467D02*
X16246695Y-35007181D01*
X16246695Y-35007181D02*
X16246695Y-34930990D01*
X16246695Y-34930990D02*
X16284790Y-34816705D01*
X16284790Y-34816705D02*
X16322885Y-34778609D01*
X17046695Y-34435752D02*
X16246695Y-34435752D01*
X16246695Y-34435752D02*
X16246695Y-34130990D01*
X16246695Y-34130990D02*
X16284790Y-34054800D01*
X16284790Y-34054800D02*
X16322885Y-34016705D01*
X16322885Y-34016705D02*
X16399076Y-33978609D01*
X16399076Y-33978609D02*
X16513361Y-33978609D01*
X16513361Y-33978609D02*
X16589552Y-34016705D01*
X16589552Y-34016705D02*
X16627647Y-34054800D01*
X16627647Y-34054800D02*
X16665742Y-34130990D01*
X16665742Y-34130990D02*
X16665742Y-34435752D01*
X16246695Y-33635752D02*
X16894314Y-33635752D01*
X16894314Y-33635752D02*
X16970504Y-33597657D01*
X16970504Y-33597657D02*
X17008600Y-33559562D01*
X17008600Y-33559562D02*
X17046695Y-33483371D01*
X17046695Y-33483371D02*
X17046695Y-33330990D01*
X17046695Y-33330990D02*
X17008600Y-33254800D01*
X17008600Y-33254800D02*
X16970504Y-33216705D01*
X16970504Y-33216705D02*
X16894314Y-33178609D01*
X16894314Y-33178609D02*
X16246695Y-33178609D01*
X16741933Y-32797657D02*
X16741933Y-32188134D01*
X16246695Y-31654800D02*
X16246695Y-31578610D01*
X16246695Y-31578610D02*
X16284790Y-31502419D01*
X16284790Y-31502419D02*
X16322885Y-31464324D01*
X16322885Y-31464324D02*
X16399076Y-31426229D01*
X16399076Y-31426229D02*
X16551457Y-31388134D01*
X16551457Y-31388134D02*
X16741933Y-31388134D01*
X16741933Y-31388134D02*
X16894314Y-31426229D01*
X16894314Y-31426229D02*
X16970504Y-31464324D01*
X16970504Y-31464324D02*
X17008600Y-31502419D01*
X17008600Y-31502419D02*
X17046695Y-31578610D01*
X17046695Y-31578610D02*
X17046695Y-31654800D01*
X17046695Y-31654800D02*
X17008600Y-31730991D01*
X17008600Y-31730991D02*
X16970504Y-31769086D01*
X16970504Y-31769086D02*
X16894314Y-31807181D01*
X16894314Y-31807181D02*
X16741933Y-31845277D01*
X16741933Y-31845277D02*
X16551457Y-31845277D01*
X16551457Y-31845277D02*
X16399076Y-31807181D01*
X16399076Y-31807181D02*
X16322885Y-31769086D01*
X16322885Y-31769086D02*
X16284790Y-31730991D01*
X16284790Y-31730991D02*
X16246695Y-31654800D01*
X16246695Y-30664324D02*
X16246695Y-31045276D01*
X16246695Y-31045276D02*
X16627647Y-31083372D01*
X16627647Y-31083372D02*
X16589552Y-31045276D01*
X16589552Y-31045276D02*
X16551457Y-30969086D01*
X16551457Y-30969086D02*
X16551457Y-30778610D01*
X16551457Y-30778610D02*
X16589552Y-30702419D01*
X16589552Y-30702419D02*
X16627647Y-30664324D01*
X16627647Y-30664324D02*
X16703838Y-30626229D01*
X16703838Y-30626229D02*
X16894314Y-30626229D01*
X16894314Y-30626229D02*
X16970504Y-30664324D01*
X16970504Y-30664324D02*
X17008600Y-30702419D01*
X17008600Y-30702419D02*
X17046695Y-30778610D01*
X17046695Y-30778610D02*
X17046695Y-30969086D01*
X17046695Y-30969086D02*
X17008600Y-31045276D01*
X17008600Y-31045276D02*
X16970504Y-31083372D01*
X17046695Y-29559562D02*
X17008600Y-29635752D01*
X17008600Y-29635752D02*
X16970504Y-29673847D01*
X16970504Y-29673847D02*
X16894314Y-29711943D01*
X16894314Y-29711943D02*
X16665742Y-29711943D01*
X16665742Y-29711943D02*
X16589552Y-29673847D01*
X16589552Y-29673847D02*
X16551457Y-29635752D01*
X16551457Y-29635752D02*
X16513361Y-29559562D01*
X16513361Y-29559562D02*
X16513361Y-29445276D01*
X16513361Y-29445276D02*
X16551457Y-29369085D01*
X16551457Y-29369085D02*
X16589552Y-29330990D01*
X16589552Y-29330990D02*
X16665742Y-29292895D01*
X16665742Y-29292895D02*
X16894314Y-29292895D01*
X16894314Y-29292895D02*
X16970504Y-29330990D01*
X16970504Y-29330990D02*
X17008600Y-29369085D01*
X17008600Y-29369085D02*
X17046695Y-29445276D01*
X17046695Y-29445276D02*
X17046695Y-29559562D01*
X17046695Y-28950037D02*
X16513361Y-28950037D01*
X16665742Y-28950037D02*
X16589552Y-28911942D01*
X16589552Y-28911942D02*
X16551457Y-28873847D01*
X16551457Y-28873847D02*
X16513361Y-28797656D01*
X16513361Y-28797656D02*
X16513361Y-28721466D01*
X17046695Y-27730990D02*
X17008600Y-27807180D01*
X17008600Y-27807180D02*
X16932409Y-27845275D01*
X16932409Y-27845275D02*
X16246695Y-27845275D01*
X17046695Y-27083370D02*
X16627647Y-27083370D01*
X16627647Y-27083370D02*
X16551457Y-27121465D01*
X16551457Y-27121465D02*
X16513361Y-27197656D01*
X16513361Y-27197656D02*
X16513361Y-27350037D01*
X16513361Y-27350037D02*
X16551457Y-27426227D01*
X17008600Y-27083370D02*
X17046695Y-27159561D01*
X17046695Y-27159561D02*
X17046695Y-27350037D01*
X17046695Y-27350037D02*
X17008600Y-27426227D01*
X17008600Y-27426227D02*
X16932409Y-27464323D01*
X16932409Y-27464323D02*
X16856219Y-27464323D01*
X16856219Y-27464323D02*
X16780028Y-27426227D01*
X16780028Y-27426227D02*
X16741933Y-27350037D01*
X16741933Y-27350037D02*
X16741933Y-27159561D01*
X16741933Y-27159561D02*
X16703838Y-27083370D01*
X16513361Y-26816703D02*
X16513361Y-26511941D01*
X16246695Y-26702417D02*
X16932409Y-26702417D01*
X16932409Y-26702417D02*
X17008600Y-26664322D01*
X17008600Y-26664322D02*
X17046695Y-26588132D01*
X17046695Y-26588132D02*
X17046695Y-26511941D01*
X17008600Y-25940512D02*
X17046695Y-26016703D01*
X17046695Y-26016703D02*
X17046695Y-26169084D01*
X17046695Y-26169084D02*
X17008600Y-26245274D01*
X17008600Y-26245274D02*
X16932409Y-26283370D01*
X16932409Y-26283370D02*
X16627647Y-26283370D01*
X16627647Y-26283370D02*
X16551457Y-26245274D01*
X16551457Y-26245274D02*
X16513361Y-26169084D01*
X16513361Y-26169084D02*
X16513361Y-26016703D01*
X16513361Y-26016703D02*
X16551457Y-25940512D01*
X16551457Y-25940512D02*
X16627647Y-25902417D01*
X16627647Y-25902417D02*
X16703838Y-25902417D01*
X16703838Y-25902417D02*
X16780028Y-26283370D01*
X17046695Y-25559560D02*
X16513361Y-25559560D01*
X16665742Y-25559560D02*
X16589552Y-25521465D01*
X16589552Y-25521465D02*
X16551457Y-25483370D01*
X16551457Y-25483370D02*
X16513361Y-25407179D01*
X16513361Y-25407179D02*
X16513361Y-25330989D01*
X18334695Y-37235753D02*
X17534695Y-37235753D01*
X17534695Y-37235753D02*
X18334695Y-36778610D01*
X18334695Y-36778610D02*
X17534695Y-36778610D01*
X17534695Y-36511944D02*
X17534695Y-36054801D01*
X18334695Y-36283373D02*
X17534695Y-36283373D01*
X18296600Y-35826230D02*
X18334695Y-35711944D01*
X18334695Y-35711944D02*
X18334695Y-35521468D01*
X18334695Y-35521468D02*
X18296600Y-35445277D01*
X18296600Y-35445277D02*
X18258504Y-35407182D01*
X18258504Y-35407182D02*
X18182314Y-35369087D01*
X18182314Y-35369087D02*
X18106123Y-35369087D01*
X18106123Y-35369087D02*
X18029933Y-35407182D01*
X18029933Y-35407182D02*
X17991838Y-35445277D01*
X17991838Y-35445277D02*
X17953742Y-35521468D01*
X17953742Y-35521468D02*
X17915647Y-35673849D01*
X17915647Y-35673849D02*
X17877552Y-35750039D01*
X17877552Y-35750039D02*
X17839457Y-35788134D01*
X17839457Y-35788134D02*
X17763266Y-35826230D01*
X17763266Y-35826230D02*
X17687076Y-35826230D01*
X17687076Y-35826230D02*
X17610885Y-35788134D01*
X17610885Y-35788134D02*
X17572790Y-35750039D01*
X17572790Y-35750039D02*
X17534695Y-35673849D01*
X17534695Y-35673849D02*
X17534695Y-35483372D01*
X17534695Y-35483372D02*
X17572790Y-35369087D01*
X18258504Y-34569086D02*
X18296600Y-34607182D01*
X18296600Y-34607182D02*
X18334695Y-34721467D01*
X18334695Y-34721467D02*
X18334695Y-34797658D01*
X18334695Y-34797658D02*
X18296600Y-34911944D01*
X18296600Y-34911944D02*
X18220409Y-34988134D01*
X18220409Y-34988134D02*
X18144219Y-35026229D01*
X18144219Y-35026229D02*
X17991838Y-35064325D01*
X17991838Y-35064325D02*
X17877552Y-35064325D01*
X17877552Y-35064325D02*
X17725171Y-35026229D01*
X17725171Y-35026229D02*
X17648980Y-34988134D01*
X17648980Y-34988134D02*
X17572790Y-34911944D01*
X17572790Y-34911944D02*
X17534695Y-34797658D01*
X17534695Y-34797658D02*
X17534695Y-34721467D01*
X17534695Y-34721467D02*
X17572790Y-34607182D01*
X17572790Y-34607182D02*
X17610885Y-34569086D01*
X18334695Y-33616705D02*
X17534695Y-33616705D01*
X17839457Y-33616705D02*
X17801361Y-33540515D01*
X17801361Y-33540515D02*
X17801361Y-33388134D01*
X17801361Y-33388134D02*
X17839457Y-33311943D01*
X17839457Y-33311943D02*
X17877552Y-33273848D01*
X17877552Y-33273848D02*
X17953742Y-33235753D01*
X17953742Y-33235753D02*
X18182314Y-33235753D01*
X18182314Y-33235753D02*
X18258504Y-33273848D01*
X18258504Y-33273848D02*
X18296600Y-33311943D01*
X18296600Y-33311943D02*
X18334695Y-33388134D01*
X18334695Y-33388134D02*
X18334695Y-33540515D01*
X18334695Y-33540515D02*
X18296600Y-33616705D01*
X18334695Y-32778610D02*
X18296600Y-32854800D01*
X18296600Y-32854800D02*
X18258504Y-32892895D01*
X18258504Y-32892895D02*
X18182314Y-32930991D01*
X18182314Y-32930991D02*
X17953742Y-32930991D01*
X17953742Y-32930991D02*
X17877552Y-32892895D01*
X17877552Y-32892895D02*
X17839457Y-32854800D01*
X17839457Y-32854800D02*
X17801361Y-32778610D01*
X17801361Y-32778610D02*
X17801361Y-32664324D01*
X17801361Y-32664324D02*
X17839457Y-32588133D01*
X17839457Y-32588133D02*
X17877552Y-32550038D01*
X17877552Y-32550038D02*
X17953742Y-32511943D01*
X17953742Y-32511943D02*
X18182314Y-32511943D01*
X18182314Y-32511943D02*
X18258504Y-32550038D01*
X18258504Y-32550038D02*
X18296600Y-32588133D01*
X18296600Y-32588133D02*
X18334695Y-32664324D01*
X18334695Y-32664324D02*
X18334695Y-32778610D01*
X18334695Y-31826228D02*
X17915647Y-31826228D01*
X17915647Y-31826228D02*
X17839457Y-31864323D01*
X17839457Y-31864323D02*
X17801361Y-31940514D01*
X17801361Y-31940514D02*
X17801361Y-32092895D01*
X17801361Y-32092895D02*
X17839457Y-32169085D01*
X18296600Y-31826228D02*
X18334695Y-31902419D01*
X18334695Y-31902419D02*
X18334695Y-32092895D01*
X18334695Y-32092895D02*
X18296600Y-32169085D01*
X18296600Y-32169085D02*
X18220409Y-32207181D01*
X18220409Y-32207181D02*
X18144219Y-32207181D01*
X18144219Y-32207181D02*
X18068028Y-32169085D01*
X18068028Y-32169085D02*
X18029933Y-32092895D01*
X18029933Y-32092895D02*
X18029933Y-31902419D01*
X18029933Y-31902419D02*
X17991838Y-31826228D01*
X18334695Y-31445275D02*
X17801361Y-31445275D01*
X17953742Y-31445275D02*
X17877552Y-31407180D01*
X17877552Y-31407180D02*
X17839457Y-31369085D01*
X17839457Y-31369085D02*
X17801361Y-31292894D01*
X17801361Y-31292894D02*
X17801361Y-31216704D01*
X18334695Y-30607180D02*
X17534695Y-30607180D01*
X18296600Y-30607180D02*
X18334695Y-30683371D01*
X18334695Y-30683371D02*
X18334695Y-30835752D01*
X18334695Y-30835752D02*
X18296600Y-30911942D01*
X18296600Y-30911942D02*
X18258504Y-30950037D01*
X18258504Y-30950037D02*
X18182314Y-30988133D01*
X18182314Y-30988133D02*
X17953742Y-30988133D01*
X17953742Y-30988133D02*
X17877552Y-30950037D01*
X17877552Y-30950037D02*
X17839457Y-30911942D01*
X17839457Y-30911942D02*
X17801361Y-30835752D01*
X17801361Y-30835752D02*
X17801361Y-30683371D01*
X17801361Y-30683371D02*
X17839457Y-30607180D01*
X18296600Y-30264323D02*
X18334695Y-30188132D01*
X18334695Y-30188132D02*
X18334695Y-30035751D01*
X18334695Y-30035751D02*
X18296600Y-29959561D01*
X18296600Y-29959561D02*
X18220409Y-29921465D01*
X18220409Y-29921465D02*
X18182314Y-29921465D01*
X18182314Y-29921465D02*
X18106123Y-29959561D01*
X18106123Y-29959561D02*
X18068028Y-30035751D01*
X18068028Y-30035751D02*
X18068028Y-30150037D01*
X18068028Y-30150037D02*
X18029933Y-30226227D01*
X18029933Y-30226227D02*
X17953742Y-30264323D01*
X17953742Y-30264323D02*
X17915647Y-30264323D01*
X17915647Y-30264323D02*
X17839457Y-30226227D01*
X17839457Y-30226227D02*
X17801361Y-30150037D01*
X17801361Y-30150037D02*
X17801361Y-30035751D01*
X17801361Y-30035751D02*
X17839457Y-29959561D01*
X18334695Y-28854799D02*
X18296600Y-28930989D01*
X18296600Y-28930989D02*
X18258504Y-28969084D01*
X18258504Y-28969084D02*
X18182314Y-29007180D01*
X18182314Y-29007180D02*
X17953742Y-29007180D01*
X17953742Y-29007180D02*
X17877552Y-28969084D01*
X17877552Y-28969084D02*
X17839457Y-28930989D01*
X17839457Y-28930989D02*
X17801361Y-28854799D01*
X17801361Y-28854799D02*
X17801361Y-28740513D01*
X17801361Y-28740513D02*
X17839457Y-28664322D01*
X17839457Y-28664322D02*
X17877552Y-28626227D01*
X17877552Y-28626227D02*
X17953742Y-28588132D01*
X17953742Y-28588132D02*
X18182314Y-28588132D01*
X18182314Y-28588132D02*
X18258504Y-28626227D01*
X18258504Y-28626227D02*
X18296600Y-28664322D01*
X18296600Y-28664322D02*
X18334695Y-28740513D01*
X18334695Y-28740513D02*
X18334695Y-28854799D01*
X17801361Y-28245274D02*
X18334695Y-28245274D01*
X17877552Y-28245274D02*
X17839457Y-28207179D01*
X17839457Y-28207179D02*
X17801361Y-28130989D01*
X17801361Y-28130989D02*
X17801361Y-28016703D01*
X17801361Y-28016703D02*
X17839457Y-27940512D01*
X17839457Y-27940512D02*
X17915647Y-27902417D01*
X17915647Y-27902417D02*
X18334695Y-27902417D01*
X18334695Y-27407179D02*
X18296600Y-27483369D01*
X18296600Y-27483369D02*
X18220409Y-27521464D01*
X18220409Y-27521464D02*
X17534695Y-27521464D01*
X17801361Y-27178607D02*
X18334695Y-26988131D01*
X17801361Y-26797654D02*
X18334695Y-26988131D01*
X18334695Y-26988131D02*
X18525171Y-27064321D01*
X18525171Y-27064321D02*
X18563266Y-27102416D01*
X18563266Y-27102416D02*
X18601361Y-27178607D01*
D11*
%TO.C,REF\u002A\u002A*%
X16989000Y-17588600D02*
X17759000Y-17588600D01*
X16989000Y-19638600D02*
X16989000Y-17588600D01*
X16989000Y-21758600D02*
X16989000Y-21458600D01*
X17759000Y-17588600D02*
X17759000Y-17938600D01*
X17759000Y-17938600D02*
X19739000Y-17938600D01*
X17789000Y-21758600D02*
X16989000Y-21758600D01*
X17789000Y-23058600D02*
X17789000Y-21758600D01*
X31659000Y-17348600D02*
X31659000Y-17938600D01*
X31659000Y-17938600D02*
X33639000Y-17938600D01*
X33609000Y-21758600D02*
X33609000Y-23058600D01*
X33609000Y-23058600D02*
X17789000Y-23058600D01*
X33639000Y-17588600D02*
X34409000Y-17588600D01*
X33639000Y-17938600D02*
X33639000Y-17588600D01*
X34409000Y-17588600D02*
X34409000Y-19638600D01*
X34409000Y-21458600D02*
X34409000Y-21758600D01*
X34409000Y-21758600D02*
X33609000Y-21758600D01*
%TD*%
M02*
