M48
; DRILL file {KiCad 7.0.8} date 2024 June 02, Sunday 10:45:54
; FORMAT={-:-/ absolute / inch / decimal}
; #@! TF.CreationDate,2024-06-02T10:45:54-04:00
; #@! TF.GenerationSoftware,Kicad,Pcbnew,7.0.8
; #@! TF.FileFunction,Plated,1,2,PTH
FMAT,2
INCH
; #@! TA.AperFunction,Plated,PTH,ViaDrill
T1C0.0157
%
G90
G05
T1
X0.672Y-1.114
X0.6736Y-1.0344
X0.674Y-0.72
X0.72Y-0.688
X0.754Y-1.112
X0.762Y-0.718
X0.816Y-0.632
X0.82Y-0.71
X0.8714Y-1.1815
X0.876Y-0.584
X0.904Y-1.11
X0.932Y-0.628
X1.018Y-1.112
X1.118Y-0.816
X1.1834Y-1.11
X1.186Y-0.912
X1.186Y-1.01
X1.296Y-1.11
X1.3368Y-0.8969
X1.339Y-0.9362
X1.3428Y-0.858
X1.432Y-0.772
X1.466Y-1.124
X1.496Y-0.92
X1.512Y-1.01
X1.528Y-0.89
X1.554Y-1.044
X1.586Y-0.84
X1.642Y-0.958
T0
M30
