%TF.GenerationSoftware,KiCad,Pcbnew,7.0.8*%
%TF.CreationDate,2024-06-02T10:45:55-04:00*%
%TF.ProjectId,rugby64 jr,72756762-7936-4342-906a-722e6b696361,rev?*%
%TF.SameCoordinates,Original*%
%TF.FileFunction,Drillmap*%
%TF.FilePolarity,Positive*%
%FSLAX45Y45*%
G04 Gerber Fmt 4.5, Leading zero omitted, Abs format (unit mm)*
G04 Created by KiCad (PCBNEW 7.0.8) date 2024-06-02 10:45:55*
%MOMM*%
%LPD*%
G01*
G04 APERTURE LIST*
%ADD10C,0.100000*%
%ADD11C,0.200000*%
%ADD12C,0.040000*%
G04 APERTURE END LIST*
D10*
X1259840Y-1397000D02*
X4297680Y-1397000D01*
X4297680Y-3357880D01*
X1259840Y-3357880D01*
X1259840Y-1397000D01*
D11*
D12*
X1686880Y-2809560D02*
X1726880Y-2849560D01*
X1726880Y-2809560D02*
X1686880Y-2849560D01*
X1690880Y-2607440D02*
X1730880Y-2647440D01*
X1730880Y-2607440D02*
X1690880Y-2647440D01*
X1691960Y-1808800D02*
X1731960Y-1848800D01*
X1731960Y-1808800D02*
X1691960Y-1848800D01*
X1808800Y-1727520D02*
X1848800Y-1767520D01*
X1848800Y-1727520D02*
X1808800Y-1767520D01*
X1895160Y-2804480D02*
X1935160Y-2844480D01*
X1935160Y-2804480D02*
X1895160Y-2844480D01*
X1915480Y-1803720D02*
X1955480Y-1843720D01*
X1955480Y-1803720D02*
X1915480Y-1843720D01*
X2052640Y-1585280D02*
X2092640Y-1625280D01*
X2092640Y-1585280D02*
X2052640Y-1625280D01*
X2062800Y-1783400D02*
X2102800Y-1823400D01*
X2102800Y-1783400D02*
X2062800Y-1823400D01*
X2193349Y-2980998D02*
X2233349Y-3020998D01*
X2233349Y-2980998D02*
X2193349Y-3020998D01*
X2205040Y-1463360D02*
X2245040Y-1503360D01*
X2245040Y-1463360D02*
X2205040Y-1503360D01*
X2276160Y-2799400D02*
X2316160Y-2839400D01*
X2316160Y-2799400D02*
X2276160Y-2839400D01*
X2347280Y-1575120D02*
X2387280Y-1615120D01*
X2387280Y-1575120D02*
X2347280Y-1615120D01*
X2565720Y-2804480D02*
X2605720Y-2844480D01*
X2605720Y-2804480D02*
X2565720Y-2844480D01*
X2819720Y-2052640D02*
X2859720Y-2092640D01*
X2859720Y-2052640D02*
X2819720Y-2092640D01*
X2985950Y-2799400D02*
X3025950Y-2839400D01*
X3025950Y-2799400D02*
X2985950Y-2839400D01*
X2992440Y-2296480D02*
X3032440Y-2336480D01*
X3032440Y-2296480D02*
X2992440Y-2336480D01*
X2992440Y-2545400D02*
X3032440Y-2585400D01*
X3032440Y-2545400D02*
X2992440Y-2585400D01*
X3271840Y-2799400D02*
X3311840Y-2839400D01*
X3311840Y-2799400D02*
X3271840Y-2839400D01*
X3375528Y-2258108D02*
X3415528Y-2298108D01*
X3415528Y-2258108D02*
X3375528Y-2298108D01*
X3381090Y-2357903D02*
X3421090Y-2397903D01*
X3421090Y-2357903D02*
X3381090Y-2397903D01*
X3390726Y-2159320D02*
X3430726Y-2199320D01*
X3430726Y-2159320D02*
X3390726Y-2199320D01*
X3617280Y-1940880D02*
X3657280Y-1980880D01*
X3657280Y-1940880D02*
X3617280Y-1980880D01*
X3703640Y-2834960D02*
X3743640Y-2874960D01*
X3743640Y-2834960D02*
X3703640Y-2874960D01*
X3779840Y-2316800D02*
X3819840Y-2356800D01*
X3819840Y-2316800D02*
X3779840Y-2356800D01*
X3820480Y-2545400D02*
X3860480Y-2585400D01*
X3860480Y-2545400D02*
X3820480Y-2585400D01*
X3861120Y-2240600D02*
X3901120Y-2280600D01*
X3901120Y-2240600D02*
X3861120Y-2280600D01*
X3927160Y-2631760D02*
X3967160Y-2671760D01*
X3967160Y-2631760D02*
X3927160Y-2671760D01*
X4008440Y-2113600D02*
X4048440Y-2153600D01*
X4048440Y-2113600D02*
X4008440Y-2153600D01*
X4150680Y-2413320D02*
X4190680Y-2453320D01*
X4190680Y-2413320D02*
X4150680Y-2453320D01*
D11*
X1515617Y-3674364D02*
X1515617Y-3474364D01*
X1515617Y-3474364D02*
X1563236Y-3474364D01*
X1563236Y-3474364D02*
X1591807Y-3483888D01*
X1591807Y-3483888D02*
X1610855Y-3502935D01*
X1610855Y-3502935D02*
X1620379Y-3521983D01*
X1620379Y-3521983D02*
X1629902Y-3560078D01*
X1629902Y-3560078D02*
X1629902Y-3588649D01*
X1629902Y-3588649D02*
X1620379Y-3626745D01*
X1620379Y-3626745D02*
X1610855Y-3645792D01*
X1610855Y-3645792D02*
X1591807Y-3664840D01*
X1591807Y-3664840D02*
X1563236Y-3674364D01*
X1563236Y-3674364D02*
X1515617Y-3674364D01*
X1715617Y-3674364D02*
X1715617Y-3541030D01*
X1715617Y-3579126D02*
X1725141Y-3560078D01*
X1725141Y-3560078D02*
X1734664Y-3550554D01*
X1734664Y-3550554D02*
X1753712Y-3541030D01*
X1753712Y-3541030D02*
X1772760Y-3541030D01*
X1839426Y-3674364D02*
X1839426Y-3541030D01*
X1839426Y-3474364D02*
X1829902Y-3483888D01*
X1829902Y-3483888D02*
X1839426Y-3493411D01*
X1839426Y-3493411D02*
X1848950Y-3483888D01*
X1848950Y-3483888D02*
X1839426Y-3474364D01*
X1839426Y-3474364D02*
X1839426Y-3493411D01*
X1963236Y-3674364D02*
X1944188Y-3664840D01*
X1944188Y-3664840D02*
X1934664Y-3645792D01*
X1934664Y-3645792D02*
X1934664Y-3474364D01*
X2067998Y-3674364D02*
X2048950Y-3664840D01*
X2048950Y-3664840D02*
X2039426Y-3645792D01*
X2039426Y-3645792D02*
X2039426Y-3474364D01*
X2296569Y-3674364D02*
X2296569Y-3474364D01*
X2296569Y-3474364D02*
X2363236Y-3617221D01*
X2363236Y-3617221D02*
X2429903Y-3474364D01*
X2429903Y-3474364D02*
X2429903Y-3674364D01*
X2610855Y-3674364D02*
X2610855Y-3569602D01*
X2610855Y-3569602D02*
X2601331Y-3550554D01*
X2601331Y-3550554D02*
X2582284Y-3541030D01*
X2582284Y-3541030D02*
X2544188Y-3541030D01*
X2544188Y-3541030D02*
X2525141Y-3550554D01*
X2610855Y-3664840D02*
X2591807Y-3674364D01*
X2591807Y-3674364D02*
X2544188Y-3674364D01*
X2544188Y-3674364D02*
X2525141Y-3664840D01*
X2525141Y-3664840D02*
X2515617Y-3645792D01*
X2515617Y-3645792D02*
X2515617Y-3626745D01*
X2515617Y-3626745D02*
X2525141Y-3607697D01*
X2525141Y-3607697D02*
X2544188Y-3598173D01*
X2544188Y-3598173D02*
X2591807Y-3598173D01*
X2591807Y-3598173D02*
X2610855Y-3588649D01*
X2706093Y-3541030D02*
X2706093Y-3741030D01*
X2706093Y-3550554D02*
X2725141Y-3541030D01*
X2725141Y-3541030D02*
X2763236Y-3541030D01*
X2763236Y-3541030D02*
X2782284Y-3550554D01*
X2782284Y-3550554D02*
X2791807Y-3560078D01*
X2791807Y-3560078D02*
X2801331Y-3579126D01*
X2801331Y-3579126D02*
X2801331Y-3636268D01*
X2801331Y-3636268D02*
X2791807Y-3655316D01*
X2791807Y-3655316D02*
X2782284Y-3664840D01*
X2782284Y-3664840D02*
X2763236Y-3674364D01*
X2763236Y-3674364D02*
X2725141Y-3674364D01*
X2725141Y-3674364D02*
X2706093Y-3664840D01*
X2887045Y-3655316D02*
X2896569Y-3664840D01*
X2896569Y-3664840D02*
X2887045Y-3674364D01*
X2887045Y-3674364D02*
X2877522Y-3664840D01*
X2877522Y-3664840D02*
X2887045Y-3655316D01*
X2887045Y-3655316D02*
X2887045Y-3674364D01*
X2887045Y-3550554D02*
X2896569Y-3560078D01*
X2896569Y-3560078D02*
X2887045Y-3569602D01*
X2887045Y-3569602D02*
X2877522Y-3560078D01*
X2877522Y-3560078D02*
X2887045Y-3550554D01*
X2887045Y-3550554D02*
X2887045Y-3569602D01*
D12*
X1214840Y-3982880D02*
X1254840Y-4022880D01*
X1254840Y-3982880D02*
X1214840Y-4022880D01*
D11*
X1553712Y-3894364D02*
X1572760Y-3894364D01*
X1572760Y-3894364D02*
X1591807Y-3903888D01*
X1591807Y-3903888D02*
X1601331Y-3913411D01*
X1601331Y-3913411D02*
X1610855Y-3932459D01*
X1610855Y-3932459D02*
X1620379Y-3970554D01*
X1620379Y-3970554D02*
X1620379Y-4018173D01*
X1620379Y-4018173D02*
X1610855Y-4056268D01*
X1610855Y-4056268D02*
X1601331Y-4075316D01*
X1601331Y-4075316D02*
X1591807Y-4084840D01*
X1591807Y-4084840D02*
X1572760Y-4094364D01*
X1572760Y-4094364D02*
X1553712Y-4094364D01*
X1553712Y-4094364D02*
X1534664Y-4084840D01*
X1534664Y-4084840D02*
X1525141Y-4075316D01*
X1525141Y-4075316D02*
X1515617Y-4056268D01*
X1515617Y-4056268D02*
X1506093Y-4018173D01*
X1506093Y-4018173D02*
X1506093Y-3970554D01*
X1506093Y-3970554D02*
X1515617Y-3932459D01*
X1515617Y-3932459D02*
X1525141Y-3913411D01*
X1525141Y-3913411D02*
X1534664Y-3903888D01*
X1534664Y-3903888D02*
X1553712Y-3894364D01*
X1706093Y-4075316D02*
X1715617Y-4084840D01*
X1715617Y-4084840D02*
X1706093Y-4094364D01*
X1706093Y-4094364D02*
X1696569Y-4084840D01*
X1696569Y-4084840D02*
X1706093Y-4075316D01*
X1706093Y-4075316D02*
X1706093Y-4094364D01*
X1887045Y-3961030D02*
X1887045Y-4094364D01*
X1839426Y-3884840D02*
X1791807Y-4027697D01*
X1791807Y-4027697D02*
X1915617Y-4027697D01*
X2029902Y-3894364D02*
X2048950Y-3894364D01*
X2048950Y-3894364D02*
X2067998Y-3903888D01*
X2067998Y-3903888D02*
X2077522Y-3913411D01*
X2077522Y-3913411D02*
X2087045Y-3932459D01*
X2087045Y-3932459D02*
X2096569Y-3970554D01*
X2096569Y-3970554D02*
X2096569Y-4018173D01*
X2096569Y-4018173D02*
X2087045Y-4056268D01*
X2087045Y-4056268D02*
X2077522Y-4075316D01*
X2077522Y-4075316D02*
X2067998Y-4084840D01*
X2067998Y-4084840D02*
X2048950Y-4094364D01*
X2048950Y-4094364D02*
X2029902Y-4094364D01*
X2029902Y-4094364D02*
X2010855Y-4084840D01*
X2010855Y-4084840D02*
X2001331Y-4075316D01*
X2001331Y-4075316D02*
X1991807Y-4056268D01*
X1991807Y-4056268D02*
X1982283Y-4018173D01*
X1982283Y-4018173D02*
X1982283Y-3970554D01*
X1982283Y-3970554D02*
X1991807Y-3932459D01*
X1991807Y-3932459D02*
X2001331Y-3913411D01*
X2001331Y-3913411D02*
X2010855Y-3903888D01*
X2010855Y-3903888D02*
X2029902Y-3894364D01*
X2220379Y-3894364D02*
X2239426Y-3894364D01*
X2239426Y-3894364D02*
X2258474Y-3903888D01*
X2258474Y-3903888D02*
X2267998Y-3913411D01*
X2267998Y-3913411D02*
X2277522Y-3932459D01*
X2277522Y-3932459D02*
X2287045Y-3970554D01*
X2287045Y-3970554D02*
X2287045Y-4018173D01*
X2287045Y-4018173D02*
X2277522Y-4056268D01*
X2277522Y-4056268D02*
X2267998Y-4075316D01*
X2267998Y-4075316D02*
X2258474Y-4084840D01*
X2258474Y-4084840D02*
X2239426Y-4094364D01*
X2239426Y-4094364D02*
X2220379Y-4094364D01*
X2220379Y-4094364D02*
X2201331Y-4084840D01*
X2201331Y-4084840D02*
X2191807Y-4075316D01*
X2191807Y-4075316D02*
X2182284Y-4056268D01*
X2182284Y-4056268D02*
X2172760Y-4018173D01*
X2172760Y-4018173D02*
X2172760Y-3970554D01*
X2172760Y-3970554D02*
X2182284Y-3932459D01*
X2182284Y-3932459D02*
X2191807Y-3913411D01*
X2191807Y-3913411D02*
X2201331Y-3903888D01*
X2201331Y-3903888D02*
X2220379Y-3894364D01*
X2372760Y-4094364D02*
X2372760Y-3961030D01*
X2372760Y-3980078D02*
X2382284Y-3970554D01*
X2382284Y-3970554D02*
X2401331Y-3961030D01*
X2401331Y-3961030D02*
X2429903Y-3961030D01*
X2429903Y-3961030D02*
X2448950Y-3970554D01*
X2448950Y-3970554D02*
X2458474Y-3989602D01*
X2458474Y-3989602D02*
X2458474Y-4094364D01*
X2458474Y-3989602D02*
X2467998Y-3970554D01*
X2467998Y-3970554D02*
X2487045Y-3961030D01*
X2487045Y-3961030D02*
X2515617Y-3961030D01*
X2515617Y-3961030D02*
X2534665Y-3970554D01*
X2534665Y-3970554D02*
X2544188Y-3989602D01*
X2544188Y-3989602D02*
X2544188Y-4094364D01*
X2639426Y-4094364D02*
X2639426Y-3961030D01*
X2639426Y-3980078D02*
X2648950Y-3970554D01*
X2648950Y-3970554D02*
X2667998Y-3961030D01*
X2667998Y-3961030D02*
X2696569Y-3961030D01*
X2696569Y-3961030D02*
X2715617Y-3970554D01*
X2715617Y-3970554D02*
X2725141Y-3989602D01*
X2725141Y-3989602D02*
X2725141Y-4094364D01*
X2725141Y-3989602D02*
X2734665Y-3970554D01*
X2734665Y-3970554D02*
X2753712Y-3961030D01*
X2753712Y-3961030D02*
X2782284Y-3961030D01*
X2782284Y-3961030D02*
X2801331Y-3970554D01*
X2801331Y-3970554D02*
X2810855Y-3989602D01*
X2810855Y-3989602D02*
X2810855Y-4094364D01*
X3201331Y-3884840D02*
X3029903Y-4141983D01*
X3458474Y-3894364D02*
X3477522Y-3894364D01*
X3477522Y-3894364D02*
X3496569Y-3903888D01*
X3496569Y-3903888D02*
X3506093Y-3913411D01*
X3506093Y-3913411D02*
X3515617Y-3932459D01*
X3515617Y-3932459D02*
X3525141Y-3970554D01*
X3525141Y-3970554D02*
X3525141Y-4018173D01*
X3525141Y-4018173D02*
X3515617Y-4056268D01*
X3515617Y-4056268D02*
X3506093Y-4075316D01*
X3506093Y-4075316D02*
X3496569Y-4084840D01*
X3496569Y-4084840D02*
X3477522Y-4094364D01*
X3477522Y-4094364D02*
X3458474Y-4094364D01*
X3458474Y-4094364D02*
X3439426Y-4084840D01*
X3439426Y-4084840D02*
X3429903Y-4075316D01*
X3429903Y-4075316D02*
X3420379Y-4056268D01*
X3420379Y-4056268D02*
X3410855Y-4018173D01*
X3410855Y-4018173D02*
X3410855Y-3970554D01*
X3410855Y-3970554D02*
X3420379Y-3932459D01*
X3420379Y-3932459D02*
X3429903Y-3913411D01*
X3429903Y-3913411D02*
X3439426Y-3903888D01*
X3439426Y-3903888D02*
X3458474Y-3894364D01*
X3610855Y-4075316D02*
X3620379Y-4084840D01*
X3620379Y-4084840D02*
X3610855Y-4094364D01*
X3610855Y-4094364D02*
X3601331Y-4084840D01*
X3601331Y-4084840D02*
X3610855Y-4075316D01*
X3610855Y-4075316D02*
X3610855Y-4094364D01*
X3744188Y-3894364D02*
X3763236Y-3894364D01*
X3763236Y-3894364D02*
X3782284Y-3903888D01*
X3782284Y-3903888D02*
X3791807Y-3913411D01*
X3791807Y-3913411D02*
X3801331Y-3932459D01*
X3801331Y-3932459D02*
X3810855Y-3970554D01*
X3810855Y-3970554D02*
X3810855Y-4018173D01*
X3810855Y-4018173D02*
X3801331Y-4056268D01*
X3801331Y-4056268D02*
X3791807Y-4075316D01*
X3791807Y-4075316D02*
X3782284Y-4084840D01*
X3782284Y-4084840D02*
X3763236Y-4094364D01*
X3763236Y-4094364D02*
X3744188Y-4094364D01*
X3744188Y-4094364D02*
X3725141Y-4084840D01*
X3725141Y-4084840D02*
X3715617Y-4075316D01*
X3715617Y-4075316D02*
X3706093Y-4056268D01*
X3706093Y-4056268D02*
X3696569Y-4018173D01*
X3696569Y-4018173D02*
X3696569Y-3970554D01*
X3696569Y-3970554D02*
X3706093Y-3932459D01*
X3706093Y-3932459D02*
X3715617Y-3913411D01*
X3715617Y-3913411D02*
X3725141Y-3903888D01*
X3725141Y-3903888D02*
X3744188Y-3894364D01*
X4001331Y-4094364D02*
X3887046Y-4094364D01*
X3944188Y-4094364D02*
X3944188Y-3894364D01*
X3944188Y-3894364D02*
X3925141Y-3922935D01*
X3925141Y-3922935D02*
X3906093Y-3941983D01*
X3906093Y-3941983D02*
X3887046Y-3951507D01*
X4182284Y-3894364D02*
X4087046Y-3894364D01*
X4087046Y-3894364D02*
X4077522Y-3989602D01*
X4077522Y-3989602D02*
X4087046Y-3980078D01*
X4087046Y-3980078D02*
X4106093Y-3970554D01*
X4106093Y-3970554D02*
X4153712Y-3970554D01*
X4153712Y-3970554D02*
X4172760Y-3980078D01*
X4172760Y-3980078D02*
X4182284Y-3989602D01*
X4182284Y-3989602D02*
X4191807Y-4008649D01*
X4191807Y-4008649D02*
X4191807Y-4056268D01*
X4191807Y-4056268D02*
X4182284Y-4075316D01*
X4182284Y-4075316D02*
X4172760Y-4084840D01*
X4172760Y-4084840D02*
X4153712Y-4094364D01*
X4153712Y-4094364D02*
X4106093Y-4094364D01*
X4106093Y-4094364D02*
X4087046Y-4084840D01*
X4087046Y-4084840D02*
X4077522Y-4075316D01*
X4258474Y-3894364D02*
X4391808Y-3894364D01*
X4391808Y-3894364D02*
X4306093Y-4094364D01*
X4458474Y-3894364D02*
X4458474Y-3932459D01*
X4534665Y-3894364D02*
X4534665Y-3932459D01*
X4829903Y-4170554D02*
X4820379Y-4161030D01*
X4820379Y-4161030D02*
X4801331Y-4132459D01*
X4801331Y-4132459D02*
X4791808Y-4113411D01*
X4791808Y-4113411D02*
X4782284Y-4084840D01*
X4782284Y-4084840D02*
X4772760Y-4037221D01*
X4772760Y-4037221D02*
X4772760Y-3999126D01*
X4772760Y-3999126D02*
X4782284Y-3951507D01*
X4782284Y-3951507D02*
X4791808Y-3922935D01*
X4791808Y-3922935D02*
X4801331Y-3903888D01*
X4801331Y-3903888D02*
X4820379Y-3875316D01*
X4820379Y-3875316D02*
X4829903Y-3865792D01*
X4896570Y-3913411D02*
X4906093Y-3903888D01*
X4906093Y-3903888D02*
X4925141Y-3894364D01*
X4925141Y-3894364D02*
X4972760Y-3894364D01*
X4972760Y-3894364D02*
X4991808Y-3903888D01*
X4991808Y-3903888D02*
X5001331Y-3913411D01*
X5001331Y-3913411D02*
X5010855Y-3932459D01*
X5010855Y-3932459D02*
X5010855Y-3951507D01*
X5010855Y-3951507D02*
X5001331Y-3980078D01*
X5001331Y-3980078D02*
X4887046Y-4094364D01*
X4887046Y-4094364D02*
X5010855Y-4094364D01*
X5106093Y-4094364D02*
X5144189Y-4094364D01*
X5144189Y-4094364D02*
X5163236Y-4084840D01*
X5163236Y-4084840D02*
X5172760Y-4075316D01*
X5172760Y-4075316D02*
X5191808Y-4046745D01*
X5191808Y-4046745D02*
X5201331Y-4008649D01*
X5201331Y-4008649D02*
X5201331Y-3932459D01*
X5201331Y-3932459D02*
X5191808Y-3913411D01*
X5191808Y-3913411D02*
X5182284Y-3903888D01*
X5182284Y-3903888D02*
X5163236Y-3894364D01*
X5163236Y-3894364D02*
X5125141Y-3894364D01*
X5125141Y-3894364D02*
X5106093Y-3903888D01*
X5106093Y-3903888D02*
X5096570Y-3913411D01*
X5096570Y-3913411D02*
X5087046Y-3932459D01*
X5087046Y-3932459D02*
X5087046Y-3980078D01*
X5087046Y-3980078D02*
X5096570Y-3999126D01*
X5096570Y-3999126D02*
X5106093Y-4008649D01*
X5106093Y-4008649D02*
X5125141Y-4018173D01*
X5125141Y-4018173D02*
X5163236Y-4018173D01*
X5163236Y-4018173D02*
X5182284Y-4008649D01*
X5182284Y-4008649D02*
X5191808Y-3999126D01*
X5191808Y-3999126D02*
X5201331Y-3980078D01*
X5439427Y-4094364D02*
X5439427Y-3894364D01*
X5525141Y-4094364D02*
X5525141Y-3989602D01*
X5525141Y-3989602D02*
X5515617Y-3970554D01*
X5515617Y-3970554D02*
X5496570Y-3961030D01*
X5496570Y-3961030D02*
X5467998Y-3961030D01*
X5467998Y-3961030D02*
X5448951Y-3970554D01*
X5448951Y-3970554D02*
X5439427Y-3980078D01*
X5648950Y-4094364D02*
X5629903Y-4084840D01*
X5629903Y-4084840D02*
X5620379Y-4075316D01*
X5620379Y-4075316D02*
X5610855Y-4056268D01*
X5610855Y-4056268D02*
X5610855Y-3999126D01*
X5610855Y-3999126D02*
X5620379Y-3980078D01*
X5620379Y-3980078D02*
X5629903Y-3970554D01*
X5629903Y-3970554D02*
X5648950Y-3961030D01*
X5648950Y-3961030D02*
X5677522Y-3961030D01*
X5677522Y-3961030D02*
X5696570Y-3970554D01*
X5696570Y-3970554D02*
X5706093Y-3980078D01*
X5706093Y-3980078D02*
X5715617Y-3999126D01*
X5715617Y-3999126D02*
X5715617Y-4056268D01*
X5715617Y-4056268D02*
X5706093Y-4075316D01*
X5706093Y-4075316D02*
X5696570Y-4084840D01*
X5696570Y-4084840D02*
X5677522Y-4094364D01*
X5677522Y-4094364D02*
X5648950Y-4094364D01*
X5829903Y-4094364D02*
X5810855Y-4084840D01*
X5810855Y-4084840D02*
X5801331Y-4065792D01*
X5801331Y-4065792D02*
X5801331Y-3894364D01*
X5982284Y-4084840D02*
X5963236Y-4094364D01*
X5963236Y-4094364D02*
X5925141Y-4094364D01*
X5925141Y-4094364D02*
X5906093Y-4084840D01*
X5906093Y-4084840D02*
X5896570Y-4065792D01*
X5896570Y-4065792D02*
X5896570Y-3989602D01*
X5896570Y-3989602D02*
X5906093Y-3970554D01*
X5906093Y-3970554D02*
X5925141Y-3961030D01*
X5925141Y-3961030D02*
X5963236Y-3961030D01*
X5963236Y-3961030D02*
X5982284Y-3970554D01*
X5982284Y-3970554D02*
X5991808Y-3989602D01*
X5991808Y-3989602D02*
X5991808Y-4008649D01*
X5991808Y-4008649D02*
X5896570Y-4027697D01*
X6067998Y-4084840D02*
X6087046Y-4094364D01*
X6087046Y-4094364D02*
X6125141Y-4094364D01*
X6125141Y-4094364D02*
X6144189Y-4084840D01*
X6144189Y-4084840D02*
X6153712Y-4065792D01*
X6153712Y-4065792D02*
X6153712Y-4056268D01*
X6153712Y-4056268D02*
X6144189Y-4037221D01*
X6144189Y-4037221D02*
X6125141Y-4027697D01*
X6125141Y-4027697D02*
X6096570Y-4027697D01*
X6096570Y-4027697D02*
X6077522Y-4018173D01*
X6077522Y-4018173D02*
X6067998Y-3999126D01*
X6067998Y-3999126D02*
X6067998Y-3989602D01*
X6067998Y-3989602D02*
X6077522Y-3970554D01*
X6077522Y-3970554D02*
X6096570Y-3961030D01*
X6096570Y-3961030D02*
X6125141Y-3961030D01*
X6125141Y-3961030D02*
X6144189Y-3970554D01*
X6220379Y-4170554D02*
X6229903Y-4161030D01*
X6229903Y-4161030D02*
X6248951Y-4132459D01*
X6248951Y-4132459D02*
X6258474Y-4113411D01*
X6258474Y-4113411D02*
X6267998Y-4084840D01*
X6267998Y-4084840D02*
X6277522Y-4037221D01*
X6277522Y-4037221D02*
X6277522Y-3999126D01*
X6277522Y-3999126D02*
X6267998Y-3951507D01*
X6267998Y-3951507D02*
X6258474Y-3922935D01*
X6258474Y-3922935D02*
X6248951Y-3903888D01*
X6248951Y-3903888D02*
X6229903Y-3875316D01*
X6229903Y-3875316D02*
X6220379Y-3865792D01*
M02*
