%TF.GenerationSoftware,KiCad,Pcbnew,7.0.8*%
%TF.CreationDate,2024-06-02T10:45:55-04:00*%
%TF.ProjectId,rugby64 jr,72756762-7936-4342-906a-722e6b696361,rev?*%
%TF.SameCoordinates,Original*%
%TF.FileFunction,Drillmap*%
%TF.FilePolarity,Positive*%
%FSLAX45Y45*%
G04 Gerber Fmt 4.5, Leading zero omitted, Abs format (unit mm)*
G04 Created by KiCad (PCBNEW 7.0.8) date 2024-06-02 10:45:55*
%MOMM*%
%LPD*%
G01*
G04 APERTURE LIST*
%ADD10C,0.100000*%
%ADD11C,0.200000*%
G04 APERTURE END LIST*
D10*
X1259840Y-1397000D02*
X4297680Y-1397000D01*
X4297680Y-3357880D01*
X1259840Y-3357880D01*
X1259840Y-1397000D01*
D11*
X1515617Y-3674364D02*
X1515617Y-3474364D01*
X1515617Y-3474364D02*
X1563236Y-3474364D01*
X1563236Y-3474364D02*
X1591807Y-3483888D01*
X1591807Y-3483888D02*
X1610855Y-3502935D01*
X1610855Y-3502935D02*
X1620379Y-3521983D01*
X1620379Y-3521983D02*
X1629902Y-3560078D01*
X1629902Y-3560078D02*
X1629902Y-3588649D01*
X1629902Y-3588649D02*
X1620379Y-3626745D01*
X1620379Y-3626745D02*
X1610855Y-3645792D01*
X1610855Y-3645792D02*
X1591807Y-3664840D01*
X1591807Y-3664840D02*
X1563236Y-3674364D01*
X1563236Y-3674364D02*
X1515617Y-3674364D01*
X1715617Y-3674364D02*
X1715617Y-3541030D01*
X1715617Y-3579126D02*
X1725141Y-3560078D01*
X1725141Y-3560078D02*
X1734664Y-3550554D01*
X1734664Y-3550554D02*
X1753712Y-3541030D01*
X1753712Y-3541030D02*
X1772760Y-3541030D01*
X1839426Y-3674364D02*
X1839426Y-3541030D01*
X1839426Y-3474364D02*
X1829902Y-3483888D01*
X1829902Y-3483888D02*
X1839426Y-3493411D01*
X1839426Y-3493411D02*
X1848950Y-3483888D01*
X1848950Y-3483888D02*
X1839426Y-3474364D01*
X1839426Y-3474364D02*
X1839426Y-3493411D01*
X1963236Y-3674364D02*
X1944188Y-3664840D01*
X1944188Y-3664840D02*
X1934664Y-3645792D01*
X1934664Y-3645792D02*
X1934664Y-3474364D01*
X2067998Y-3674364D02*
X2048950Y-3664840D01*
X2048950Y-3664840D02*
X2039426Y-3645792D01*
X2039426Y-3645792D02*
X2039426Y-3474364D01*
X2296569Y-3674364D02*
X2296569Y-3474364D01*
X2296569Y-3474364D02*
X2363236Y-3617221D01*
X2363236Y-3617221D02*
X2429903Y-3474364D01*
X2429903Y-3474364D02*
X2429903Y-3674364D01*
X2610855Y-3674364D02*
X2610855Y-3569602D01*
X2610855Y-3569602D02*
X2601331Y-3550554D01*
X2601331Y-3550554D02*
X2582284Y-3541030D01*
X2582284Y-3541030D02*
X2544188Y-3541030D01*
X2544188Y-3541030D02*
X2525141Y-3550554D01*
X2610855Y-3664840D02*
X2591807Y-3674364D01*
X2591807Y-3674364D02*
X2544188Y-3674364D01*
X2544188Y-3674364D02*
X2525141Y-3664840D01*
X2525141Y-3664840D02*
X2515617Y-3645792D01*
X2515617Y-3645792D02*
X2515617Y-3626745D01*
X2515617Y-3626745D02*
X2525141Y-3607697D01*
X2525141Y-3607697D02*
X2544188Y-3598173D01*
X2544188Y-3598173D02*
X2591807Y-3598173D01*
X2591807Y-3598173D02*
X2610855Y-3588649D01*
X2706093Y-3541030D02*
X2706093Y-3741030D01*
X2706093Y-3550554D02*
X2725141Y-3541030D01*
X2725141Y-3541030D02*
X2763236Y-3541030D01*
X2763236Y-3541030D02*
X2782284Y-3550554D01*
X2782284Y-3550554D02*
X2791807Y-3560078D01*
X2791807Y-3560078D02*
X2801331Y-3579126D01*
X2801331Y-3579126D02*
X2801331Y-3636268D01*
X2801331Y-3636268D02*
X2791807Y-3655316D01*
X2791807Y-3655316D02*
X2782284Y-3664840D01*
X2782284Y-3664840D02*
X2763236Y-3674364D01*
X2763236Y-3674364D02*
X2725141Y-3674364D01*
X2725141Y-3674364D02*
X2706093Y-3664840D01*
X2887045Y-3655316D02*
X2896569Y-3664840D01*
X2896569Y-3664840D02*
X2887045Y-3674364D01*
X2887045Y-3674364D02*
X2877522Y-3664840D01*
X2877522Y-3664840D02*
X2887045Y-3655316D01*
X2887045Y-3655316D02*
X2887045Y-3674364D01*
X2887045Y-3550554D02*
X2896569Y-3560078D01*
X2896569Y-3560078D02*
X2887045Y-3569602D01*
X2887045Y-3569602D02*
X2877522Y-3560078D01*
X2877522Y-3560078D02*
X2887045Y-3550554D01*
X2887045Y-3550554D02*
X2887045Y-3569602D01*
M02*
