%TF.GenerationSoftware,KiCad,Pcbnew,7.0.8*%
%TF.CreationDate,2024-06-02T10:45:53-04:00*%
%TF.ProjectId,rugby64 jr,72756762-7936-4342-906a-722e6b696361,rev?*%
%TF.SameCoordinates,Original*%
%TF.FileFunction,Copper,L1,Top*%
%TF.FilePolarity,Positive*%
%FSLAX46Y46*%
G04 Gerber Fmt 4.6, Leading zero omitted, Abs format (unit mm)*
G04 Created by KiCad (PCBNEW 7.0.8) date 2024-06-02 10:45:53*
%MOMM*%
%LPD*%
G01*
G04 APERTURE LIST*
G04 Aperture macros list*
%AMRoundRect*
0 Rectangle with rounded corners*
0 $1 Rounding radius*
0 $2 $3 $4 $5 $6 $7 $8 $9 X,Y pos of 4 corners*
0 Add a 4 corners polygon primitive as box body*
4,1,4,$2,$3,$4,$5,$6,$7,$8,$9,$2,$3,0*
0 Add four circle primitives for the rounded corners*
1,1,$1+$1,$2,$3*
1,1,$1+$1,$4,$5*
1,1,$1+$1,$6,$7*
1,1,$1+$1,$8,$9*
0 Add four rect primitives between the rounded corners*
20,1,$1+$1,$2,$3,$4,$5,0*
20,1,$1+$1,$4,$5,$6,$7,0*
20,1,$1+$1,$6,$7,$8,$9,0*
20,1,$1+$1,$8,$9,$2,$3,0*%
G04 Aperture macros list end*
%TA.AperFunction,SMDPad,CuDef*%
%ADD10R,0.700000X0.640000*%
%TD*%
%TA.AperFunction,SMDPad,CuDef*%
%ADD11R,0.700000X0.500000*%
%TD*%
%TA.AperFunction,SMDPad,CuDef*%
%ADD12RoundRect,0.250000X-0.475000X0.250000X-0.475000X-0.250000X0.475000X-0.250000X0.475000X0.250000X0*%
%TD*%
%TA.AperFunction,SMDPad,CuDef*%
%ADD13RoundRect,0.150000X-0.837500X-0.150000X0.837500X-0.150000X0.837500X0.150000X-0.837500X0.150000X0*%
%TD*%
%TA.AperFunction,SMDPad,CuDef*%
%ADD14R,1.000000X0.400000*%
%TD*%
%TA.AperFunction,SMDPad,CuDef*%
%ADD15R,1.300000X2.000000*%
%TD*%
%TA.AperFunction,SMDPad,CuDef*%
%ADD16RoundRect,0.200000X-0.200000X-0.275000X0.200000X-0.275000X0.200000X0.275000X-0.200000X0.275000X0*%
%TD*%
%TA.AperFunction,SMDPad,CuDef*%
%ADD17R,2.350000X0.850000*%
%TD*%
%TA.AperFunction,SMDPad,CuDef*%
%ADD18RoundRect,0.225000X0.225000X0.250000X-0.225000X0.250000X-0.225000X-0.250000X0.225000X-0.250000X0*%
%TD*%
%TA.AperFunction,ViaPad*%
%ADD19C,0.800000*%
%TD*%
%TA.AperFunction,Conductor*%
%ADD20C,0.500000*%
%TD*%
%TA.AperFunction,Conductor*%
%ADD21C,0.250000*%
%TD*%
G04 APERTURE END LIST*
D10*
%TO.P,RN1,1,R1.1*%
%TO.N,GND*%
X36523263Y-23463200D03*
D11*
%TO.P,RN1,2,R2.1*%
X36523263Y-22593200D03*
%TO.P,RN1,3,R3.1*%
X36523263Y-21793200D03*
D10*
%TO.P,RN1,4,R4.1*%
X36523263Y-20923200D03*
%TO.P,RN1,5,R4.2*%
X35123263Y-20923200D03*
D11*
%TO.P,RN1,6,R3.2*%
%TO.N,BLUE*%
X35123263Y-21793200D03*
%TO.P,RN1,7,R2.2*%
%TO.N,GREEN*%
X35123263Y-22593200D03*
D10*
%TO.P,RN1,8,R1.2*%
%TO.N,RED*%
X35123263Y-23463200D03*
%TD*%
D12*
%TO.P,C1,1*%
%TO.N,GND*%
X22250400Y-16032400D03*
%TO.P,C1,2*%
%TO.N,+3V3*%
X22250400Y-17932400D03*
%TD*%
D13*
%TO.P,U1,1,3V3*%
%TO.N,+3V3*%
X24485600Y-18034000D03*
%TO.P,U1,2,D0*%
%TO.N,D0*%
X24485600Y-19304000D03*
%TO.P,U1,3,D1*%
%TO.N,D1*%
X24485600Y-20574000D03*
%TO.P,U1,4,D2*%
%TO.N,D2*%
X24485600Y-21844000D03*
%TO.P,U1,5,D3*%
%TO.N,D3*%
X24485600Y-23114000D03*
%TO.P,U1,6,D4*%
%TO.N,D4*%
X24485600Y-24384000D03*
%TO.P,U1,7,D5*%
%TO.N,D5*%
X24485600Y-25654000D03*
%TO.P,U1,8,D6*%
%TO.N,D6*%
X24485600Y-26924000D03*
%TO.P,U1,9,GND*%
%TO.N,GND*%
X24485600Y-28194000D03*
%TO.P,U1,10,/DRESET*%
%TO.N,{slash}DRESET*%
X24485600Y-29464000D03*
%TO.P,U1,11,CLK*%
%TO.N,CLK*%
X24485600Y-30734000D03*
%TO.P,U1,12,GND*%
%TO.N,GND*%
X24485600Y-32004000D03*
%TO.P,U1,13,/BP*%
%TO.N,unconnected-(U1-{slash}BP-Pad13)*%
X31410600Y-32004000D03*
%TO.P,U1,14,/CSYNC*%
%TO.N,{slash}CSYNC*%
X31410600Y-30734000D03*
%TO.P,U1,15,3V3*%
%TO.N,+3V3*%
X31410600Y-29464000D03*
%TO.P,U1,16,GND*%
%TO.N,GND*%
X31410600Y-28194000D03*
%TO.P,U1,17,RED*%
%TO.N,RED*%
X31410600Y-26924000D03*
%TO.P,U1,18,GND*%
%TO.N,GND*%
X31410600Y-25654000D03*
%TO.P,U1,19,GREEN*%
%TO.N,GREEN*%
X31410600Y-24384000D03*
%TO.P,U1,20,GND*%
%TO.N,GND*%
X31410600Y-23114000D03*
%TO.P,U1,21,BLUE*%
%TO.N,BLUE*%
X31410600Y-21844000D03*
%TO.P,U1,22,GND*%
%TO.N,GND*%
X31410600Y-20574000D03*
%TO.P,U1,23,10K_PDN*%
%TO.N,Net-(U1-10K_PDN)*%
X31410600Y-19304000D03*
%TO.P,U1,24,100NF_PUP*%
%TO.N,Net-(U1-100NF_PUP)*%
X31410600Y-18034000D03*
%TD*%
D14*
%TO.P,J1,1,Pin_1*%
%TO.N,GND*%
X18251200Y-18274400D03*
%TO.P,J1,2,Pin_2*%
%TO.N,D0*%
X18251200Y-19274400D03*
%TO.P,J1,3,Pin_3*%
%TO.N,D1*%
X18251200Y-20274400D03*
%TO.P,J1,4,Pin_4*%
%TO.N,D2*%
X18251200Y-21274400D03*
%TO.P,J1,5,Pin_5*%
%TO.N,D3*%
X18251200Y-22274400D03*
%TO.P,J1,6,Pin_6*%
%TO.N,D4*%
X18251200Y-23274400D03*
%TO.P,J1,7,Pin_7*%
%TO.N,D5*%
X18251200Y-24274400D03*
%TO.P,J1,8,Pin_8*%
%TO.N,D6*%
X18251200Y-25274400D03*
%TO.P,J1,9,Pin_9*%
%TO.N,+3V3*%
X18251200Y-26274400D03*
%TO.P,J1,10,Pin_10*%
%TO.N,{slash}DRESET*%
X18251200Y-27274400D03*
%TO.P,J1,11,Pin_11*%
%TO.N,GND*%
X18251200Y-28274400D03*
%TO.P,J1,12,Pin_12*%
%TO.N,CLK*%
X18251200Y-29274400D03*
D15*
%TO.P,J1,MP*%
%TO.N,N/C*%
X15551200Y-15474400D03*
X15551200Y-32074400D03*
%TD*%
D16*
%TO.P,R1,1*%
%TO.N,Net-(U1-10K_PDN)*%
X33363400Y-19558000D03*
%TO.P,R1,2*%
%TO.N,GND*%
X35013400Y-19558000D03*
%TD*%
D17*
%TO.P,J2,1,Pin_1*%
%TO.N,RED*%
X38862000Y-28384000D03*
%TO.P,J2,2,Pin_2*%
%TO.N,GREEN*%
X41212000Y-26384000D03*
%TO.P,J2,3,Pin_3*%
%TO.N,BLUE*%
X38862000Y-24384000D03*
%TO.P,J2,4,Pin_4*%
%TO.N,{slash}CSYNC*%
X41212000Y-22384000D03*
%TD*%
D18*
%TO.P,C2,1*%
%TO.N,+3V3*%
X34963400Y-18034000D03*
%TO.P,C2,2*%
%TO.N,Net-(U1-100NF_PUP)*%
X33413400Y-18034000D03*
%TD*%
D19*
%TO.N,GND*%
X25857200Y-28244800D03*
X17119600Y-18288000D03*
X20726400Y-16052800D03*
X22250400Y-14833600D03*
X23672800Y-15951200D03*
X38811200Y-22606000D03*
X41706800Y-24333200D03*
X30124400Y-25654000D03*
X19354800Y-18237200D03*
X30124400Y-23164800D03*
X22133492Y-30009979D03*
X22961600Y-28194000D03*
X32918400Y-28194000D03*
X36372800Y-19608800D03*
X38404800Y-25654000D03*
X19151600Y-28244800D03*
X30059500Y-28194000D03*
X18288000Y-17475200D03*
X17068800Y-28295600D03*
%TO.N,+3V3*%
X17108800Y-26274400D03*
X20828000Y-18034000D03*
%TO.N,RED*%
X37236400Y-28549600D03*
X34010903Y-23779034D03*
%TO.N,GREEN*%
X33955281Y-22781080D03*
X39471600Y-26517600D03*
%TO.N,BLUE*%
X37998400Y-23368000D03*
X34107263Y-21793200D03*
%TO.N,{slash}CSYNC*%
X28397200Y-20726400D03*
X40284400Y-21336000D03*
%TD*%
D20*
%TO.N,GND*%
X30175200Y-23114000D02*
X30124400Y-23164800D01*
X33734800Y-20878800D02*
X36779200Y-20878800D01*
X29910000Y-27960950D02*
X29910000Y-25654000D01*
X31410600Y-25654000D02*
X30124400Y-25654000D01*
D21*
X40589200Y-23622000D02*
X40589200Y-24180800D01*
D20*
X31410600Y-28194000D02*
X32918400Y-28194000D01*
X30124400Y-23164800D02*
X30073600Y-23114000D01*
X36779200Y-20015200D02*
X36779200Y-20878800D01*
X36372800Y-19608800D02*
X35064200Y-19608800D01*
X19555772Y-28699400D02*
X20866351Y-30009979D01*
D21*
X39522400Y-23368000D02*
X40335200Y-23368000D01*
D20*
X30059500Y-28194000D02*
X31410600Y-28194000D01*
D21*
X38658800Y-25400000D02*
X38404800Y-25654000D01*
D20*
X35013400Y-19558000D02*
X35013400Y-20878800D01*
X30124400Y-25654000D02*
X29910000Y-25654000D01*
X30175200Y-20574000D02*
X29947200Y-20802000D01*
X31410600Y-23114000D02*
X30175200Y-23114000D01*
X29910000Y-21405631D02*
X29910000Y-23164800D01*
X29947200Y-21368431D02*
X29910000Y-21405631D01*
D21*
X38811200Y-22606000D02*
X38811200Y-22656800D01*
D20*
X32430000Y-20574000D02*
X33430000Y-20574000D01*
X19100800Y-28295600D02*
X19151600Y-28244800D01*
X30059500Y-28110450D02*
X29910000Y-27960950D01*
X30073600Y-23114000D02*
X29960800Y-23114000D01*
X31410600Y-20574000D02*
X30175200Y-20574000D01*
D21*
X40335200Y-23368000D02*
X40589200Y-23622000D01*
X38811200Y-22656800D02*
X39522400Y-23368000D01*
D20*
X29947200Y-20802000D02*
X29947200Y-21368431D01*
X33430000Y-20574000D02*
X33734800Y-20878800D01*
D21*
X40640000Y-25400000D02*
X38658800Y-25400000D01*
X40589200Y-24180800D02*
X40741600Y-24333200D01*
D20*
X29910000Y-23164800D02*
X29910000Y-25654000D01*
D21*
X41706800Y-24333200D02*
X40640000Y-25400000D01*
X40741600Y-24333200D02*
X41706800Y-24333200D01*
D20*
X35064200Y-19608800D02*
X35013400Y-19558000D01*
X35013400Y-20878800D02*
X36779200Y-20878800D01*
X20866351Y-30009979D02*
X22133492Y-30009979D01*
X17068800Y-28295600D02*
X19100800Y-28295600D01*
X30143050Y-28194000D02*
X30143050Y-28194000D01*
X19151600Y-28244800D02*
X19555772Y-28648972D01*
X29960800Y-23114000D02*
X29910000Y-23164800D01*
X19555772Y-28648972D02*
X19555772Y-28699400D01*
X30059500Y-28194000D02*
X30059500Y-28110450D01*
X36372800Y-19608800D02*
X36779200Y-20015200D01*
%TO.N,+3V3*%
X29413200Y-29464000D02*
X31410600Y-29464000D01*
X29247200Y-21078482D02*
X29210000Y-21115682D01*
X33845800Y-16916400D02*
X34963400Y-18034000D01*
X29210000Y-21115682D02*
X29210000Y-29260800D01*
X24130000Y-17373600D02*
X24587200Y-16916400D01*
X17108800Y-26274400D02*
X18251200Y-26274400D01*
X29870400Y-16916400D02*
X29210000Y-17576800D01*
X24130000Y-18034000D02*
X24130000Y-17373600D01*
X29870400Y-16916400D02*
X33845800Y-16916400D01*
X24485600Y-18034000D02*
X20828000Y-18034000D01*
X29247200Y-20374318D02*
X29247200Y-21078482D01*
X29210000Y-29260800D02*
X29413200Y-29464000D01*
X29210000Y-20337118D02*
X29247200Y-20374318D01*
X24587200Y-16916400D02*
X29870400Y-16916400D01*
X29210000Y-17576800D02*
X29210000Y-20337118D01*
D21*
%TO.N,Net-(U1-100NF_PUP)*%
X33413400Y-18034000D02*
X31410600Y-18034000D01*
%TO.N,D0*%
X18251200Y-19274400D02*
X24100400Y-19274400D01*
X24100400Y-19274400D02*
X24130000Y-19304000D01*
%TO.N,D1*%
X24130000Y-20574000D02*
X21590000Y-20574000D01*
X21290400Y-20274400D02*
X18251200Y-20274400D01*
X21590000Y-20574000D02*
X21290400Y-20274400D01*
%TO.N,D2*%
X21488400Y-21844000D02*
X20929600Y-21285200D01*
X18262000Y-21285200D02*
X18251200Y-21274400D01*
X20929600Y-21285200D02*
X18262000Y-21285200D01*
X24130000Y-21844000D02*
X21488400Y-21844000D01*
%TO.N,D3*%
X21183600Y-23114000D02*
X20370800Y-22301200D01*
X20370800Y-22301200D02*
X18278000Y-22301200D01*
X24130000Y-23114000D02*
X21183600Y-23114000D01*
X18278000Y-22301200D02*
X18251200Y-22274400D01*
%TO.N,D4*%
X18277800Y-23301000D02*
X19948200Y-23301000D01*
X21082000Y-24434800D02*
X24079200Y-24434800D01*
X19948200Y-23301000D02*
X21082000Y-24434800D01*
X24079200Y-24434800D02*
X24130000Y-24384000D01*
X18251200Y-23274400D02*
X18277800Y-23301000D01*
%TO.N,D5*%
X18251200Y-24274400D02*
X19651600Y-24274400D01*
X20980400Y-25603200D02*
X24079200Y-25603200D01*
X24079200Y-25603200D02*
X24130000Y-25654000D01*
X19651600Y-24274400D02*
X20980400Y-25603200D01*
%TO.N,D6*%
X24130000Y-26924000D02*
X20421600Y-26924000D01*
X20421600Y-26924000D02*
X18772000Y-25274400D01*
X18772000Y-25274400D02*
X18251200Y-25274400D01*
%TO.N,{slash}DRESET*%
X22609736Y-29464000D02*
X22430236Y-29284500D01*
X24130000Y-29464000D02*
X22609736Y-29464000D01*
X21461300Y-29284500D02*
X19456400Y-27279600D01*
X18256400Y-27279600D02*
X18251200Y-27274400D01*
X19456400Y-27279600D02*
X18256400Y-27279600D01*
X22430236Y-29284500D02*
X21461300Y-29284500D01*
%TO.N,CLK*%
X24028400Y-30835600D02*
X20421600Y-30835600D01*
X18860400Y-29274400D02*
X18251200Y-29274400D01*
X24130000Y-30734000D02*
X24028400Y-30835600D01*
X20421600Y-30835600D02*
X18860400Y-29274400D01*
%TO.N,RED*%
X34010903Y-23779034D02*
X34010903Y-24053497D01*
X37402000Y-28384000D02*
X37236400Y-28549600D01*
X34010903Y-23616760D02*
X34121583Y-23506080D01*
X34010903Y-23779034D02*
X34010903Y-23616760D01*
X35080383Y-23506080D02*
X35123263Y-23463200D01*
X34010903Y-24053497D02*
X32918400Y-25146000D01*
X38862000Y-28384000D02*
X37402000Y-28384000D01*
X32918400Y-25146000D02*
X32918400Y-26619200D01*
X34121583Y-23506080D02*
X35080383Y-23506080D01*
X32918400Y-26619200D02*
X32613600Y-26924000D01*
X32613600Y-26924000D02*
X31410600Y-26924000D01*
%TO.N,GREEN*%
X35008863Y-22707600D02*
X35123263Y-22593200D01*
X34028761Y-22707600D02*
X35008863Y-22707600D01*
X39605200Y-26384000D02*
X39471600Y-26517600D01*
X32918400Y-24282400D02*
X32918400Y-23114000D01*
X41212000Y-26384000D02*
X39605200Y-26384000D01*
X32918400Y-23114000D02*
X33251320Y-22781080D01*
X32816800Y-24384000D02*
X32918400Y-24282400D01*
X33955281Y-22781080D02*
X34028761Y-22707600D01*
X31410600Y-24384000D02*
X32816800Y-24384000D01*
X33955281Y-22781080D02*
X33881383Y-22781080D01*
X33251320Y-22781080D02*
X33955281Y-22781080D01*
%TO.N,BLUE*%
X37998400Y-23368000D02*
X37998400Y-23520400D01*
X31461400Y-21793200D02*
X31410600Y-21844000D01*
X35123263Y-21793200D02*
X34107263Y-21793200D01*
X34107263Y-21793200D02*
X31461400Y-21793200D01*
X37998400Y-23520400D02*
X38862000Y-24384000D01*
%TO.N,{slash}CSYNC*%
X41212000Y-22384000D02*
X40284400Y-21456400D01*
X40284400Y-21336000D02*
X40164000Y-21336000D01*
X40164000Y-21336000D02*
X40113200Y-21285200D01*
X28397200Y-20726400D02*
X28397200Y-30276800D01*
X28397200Y-30276800D02*
X28854400Y-30734000D01*
X40284400Y-21456400D02*
X40284400Y-21336000D01*
X28854400Y-30734000D02*
X31410600Y-30734000D01*
%TO.N,Net-(U1-10K_PDN)*%
X31664600Y-19558000D02*
X31410600Y-19304000D01*
X33363400Y-19558000D02*
X31664600Y-19558000D01*
%TD*%
%TA.AperFunction,Conductor*%
%TO.N,GND*%
G36*
X34232085Y-20257483D02*
G01*
X34276434Y-20285984D01*
X34279442Y-20288992D01*
X34312927Y-20350315D01*
X34307943Y-20420006D01*
X34279666Y-20495820D01*
X34279664Y-20495827D01*
X34273263Y-20555355D01*
X34273263Y-20768700D01*
X34253578Y-20835739D01*
X34200774Y-20881494D01*
X34149263Y-20892700D01*
X34012617Y-20892700D01*
X33980160Y-20899598D01*
X33827460Y-20932055D01*
X33827455Y-20932057D01*
X33654533Y-21009048D01*
X33654528Y-21009051D01*
X33501393Y-21120310D01*
X33501389Y-21120314D01*
X33495663Y-21126674D01*
X33436176Y-21163321D01*
X33403515Y-21167700D01*
X32958254Y-21167700D01*
X32891215Y-21148015D01*
X32845460Y-21095211D01*
X32835516Y-21026053D01*
X32847538Y-20991896D01*
X32846285Y-20991354D01*
X32849380Y-20984200D01*
X32895200Y-20826486D01*
X32895395Y-20824001D01*
X32895395Y-20824000D01*
X31284600Y-20824000D01*
X31217561Y-20804315D01*
X31171806Y-20751511D01*
X31160600Y-20700000D01*
X31160600Y-20448000D01*
X31180285Y-20380961D01*
X31233089Y-20335206D01*
X31284600Y-20324000D01*
X32612380Y-20324000D01*
X32679419Y-20343685D01*
X32700061Y-20360319D01*
X32728211Y-20388469D01*
X32728213Y-20388470D01*
X32728215Y-20388472D01*
X32873794Y-20476478D01*
X33036204Y-20527086D01*
X33106784Y-20533500D01*
X33106787Y-20533500D01*
X33620013Y-20533500D01*
X33620016Y-20533500D01*
X33690596Y-20527086D01*
X33853006Y-20476478D01*
X33998585Y-20388472D01*
X34101073Y-20285983D01*
X34162394Y-20252499D01*
X34232085Y-20257483D01*
G37*
%TD.AperFunction*%
%TA.AperFunction,Conductor*%
G36*
X14472531Y-13990185D02*
G01*
X14518286Y-14042989D01*
X14528230Y-14112147D01*
X14504759Y-14168811D01*
X14457404Y-14232069D01*
X14457402Y-14232071D01*
X14407108Y-14366917D01*
X14400701Y-14426516D01*
X14400701Y-14426523D01*
X14400700Y-14426535D01*
X14400700Y-16522270D01*
X14400701Y-16522276D01*
X14407108Y-16581883D01*
X14457402Y-16716728D01*
X14457406Y-16716735D01*
X14543652Y-16831944D01*
X14543655Y-16831947D01*
X14658864Y-16918193D01*
X14658871Y-16918197D01*
X14793717Y-16968491D01*
X14793716Y-16968491D01*
X14800644Y-16969235D01*
X14853327Y-16974900D01*
X16249072Y-16974899D01*
X16308683Y-16968491D01*
X16443531Y-16918196D01*
X16558746Y-16831946D01*
X16644996Y-16716731D01*
X16695291Y-16581883D01*
X16701700Y-16522273D01*
X16701700Y-15782400D01*
X21025400Y-15782400D01*
X22000400Y-15782400D01*
X22000400Y-15032400D01*
X22500400Y-15032400D01*
X22500400Y-15782400D01*
X23475399Y-15782400D01*
X23475399Y-15732428D01*
X23475398Y-15732413D01*
X23464905Y-15629702D01*
X23409758Y-15463280D01*
X23409756Y-15463275D01*
X23317715Y-15314054D01*
X23193745Y-15190084D01*
X23044524Y-15098043D01*
X23044519Y-15098041D01*
X22878097Y-15042894D01*
X22878090Y-15042893D01*
X22775386Y-15032400D01*
X22500400Y-15032400D01*
X22000400Y-15032400D01*
X21725429Y-15032400D01*
X21725412Y-15032401D01*
X21622702Y-15042894D01*
X21456280Y-15098041D01*
X21456275Y-15098043D01*
X21307054Y-15190084D01*
X21183084Y-15314054D01*
X21091043Y-15463275D01*
X21091041Y-15463280D01*
X21035894Y-15629702D01*
X21035893Y-15629709D01*
X21025400Y-15732413D01*
X21025400Y-15782400D01*
X16701700Y-15782400D01*
X16701699Y-14426528D01*
X16695291Y-14366917D01*
X16644996Y-14232069D01*
X16597640Y-14168810D01*
X16573224Y-14103347D01*
X16588075Y-14035074D01*
X16637480Y-13985668D01*
X16696908Y-13970500D01*
X42852300Y-13970500D01*
X42919339Y-13990185D01*
X42965094Y-14042989D01*
X42976300Y-14094500D01*
X42976300Y-21538480D01*
X42956615Y-21605519D01*
X42903811Y-21651274D01*
X42834653Y-21661218D01*
X42771097Y-21632193D01*
X42753035Y-21612794D01*
X42744546Y-21601454D01*
X42718403Y-21581883D01*
X42629335Y-21515206D01*
X42629328Y-21515202D01*
X42494482Y-21464908D01*
X42494483Y-21464908D01*
X42434883Y-21458501D01*
X42434881Y-21458500D01*
X42434873Y-21458500D01*
X42434865Y-21458500D01*
X41313860Y-21458500D01*
X41246821Y-21438815D01*
X41201066Y-21386011D01*
X41191568Y-21342354D01*
X41190539Y-21342463D01*
X41187774Y-21316155D01*
X41170074Y-21147744D01*
X41111579Y-20967716D01*
X41016933Y-20803784D01*
X40890271Y-20663112D01*
X40890270Y-20663111D01*
X40737134Y-20551851D01*
X40737129Y-20551848D01*
X40564207Y-20474857D01*
X40564202Y-20474855D01*
X40418401Y-20443865D01*
X40379046Y-20435500D01*
X40189754Y-20435500D01*
X40157297Y-20442398D01*
X40004597Y-20474855D01*
X40004592Y-20474857D01*
X39831670Y-20551848D01*
X39831665Y-20551851D01*
X39678529Y-20663111D01*
X39551866Y-20803785D01*
X39457221Y-20967715D01*
X39457218Y-20967722D01*
X39398727Y-21147740D01*
X39398726Y-21147744D01*
X39378940Y-21336000D01*
X39398726Y-21524256D01*
X39398727Y-21524259D01*
X39457221Y-21704285D01*
X39522574Y-21817480D01*
X39539047Y-21885380D01*
X39538477Y-21892732D01*
X39536500Y-21911120D01*
X39536500Y-22856870D01*
X39536501Y-22856876D01*
X39542908Y-22916483D01*
X39593202Y-23051328D01*
X39593206Y-23051335D01*
X39679452Y-23166544D01*
X39679455Y-23166547D01*
X39771208Y-23235234D01*
X39813079Y-23291168D01*
X39818063Y-23360859D01*
X39784577Y-23422182D01*
X39723254Y-23455666D01*
X39696897Y-23458500D01*
X39025022Y-23458500D01*
X38957983Y-23438815D01*
X38912228Y-23386011D01*
X38901701Y-23347461D01*
X38884074Y-23179744D01*
X38825579Y-22999716D01*
X38730933Y-22835784D01*
X38604271Y-22695112D01*
X38581594Y-22678636D01*
X38451134Y-22583851D01*
X38451129Y-22583848D01*
X38278207Y-22506857D01*
X38278202Y-22506855D01*
X38102455Y-22469500D01*
X38093046Y-22467500D01*
X37903754Y-22467500D01*
X37894345Y-22469500D01*
X37718597Y-22506855D01*
X37718592Y-22506857D01*
X37547699Y-22582945D01*
X37478449Y-22592230D01*
X37415172Y-22562602D01*
X37377959Y-22503467D01*
X37373263Y-22469666D01*
X37373263Y-22295372D01*
X37373262Y-22295355D01*
X37366860Y-22235822D01*
X37365076Y-22228267D01*
X37366513Y-22227927D01*
X37362137Y-22166858D01*
X37366627Y-22151566D01*
X37366860Y-22150577D01*
X37373262Y-22091044D01*
X37373263Y-22091027D01*
X37373263Y-22043200D01*
X36773263Y-22043200D01*
X36773263Y-24283200D01*
X36921091Y-24283200D01*
X36921107Y-24283199D01*
X36980635Y-24276798D01*
X36980640Y-24276797D01*
X37019164Y-24262428D01*
X37088856Y-24257442D01*
X37150180Y-24290926D01*
X37183666Y-24352249D01*
X37186500Y-24378609D01*
X37186500Y-24856870D01*
X37186501Y-24856876D01*
X37192908Y-24916483D01*
X37243202Y-25051328D01*
X37243206Y-25051335D01*
X37329452Y-25166544D01*
X37329455Y-25166547D01*
X37444664Y-25252793D01*
X37444671Y-25252797D01*
X37579517Y-25303091D01*
X37579516Y-25303091D01*
X37586444Y-25303835D01*
X37639127Y-25309500D01*
X39696898Y-25309499D01*
X39763937Y-25329184D01*
X39809692Y-25381987D01*
X39819636Y-25451146D01*
X39790611Y-25514702D01*
X39771208Y-25532766D01*
X39683188Y-25598657D01*
X39617724Y-25623074D01*
X39583102Y-25620681D01*
X39566251Y-25617100D01*
X39566246Y-25617100D01*
X39376954Y-25617100D01*
X39360107Y-25620681D01*
X39191797Y-25656455D01*
X39191792Y-25656457D01*
X39018870Y-25733448D01*
X39018865Y-25733451D01*
X38865729Y-25844711D01*
X38739066Y-25985385D01*
X38644421Y-26149315D01*
X38644418Y-26149322D01*
X38590450Y-26315421D01*
X38585926Y-26329344D01*
X38566140Y-26517600D01*
X38585926Y-26705856D01*
X38585927Y-26705859D01*
X38644418Y-26885877D01*
X38644421Y-26885884D01*
X38739067Y-27049816D01*
X38853196Y-27176569D01*
X38865729Y-27190488D01*
X38925869Y-27234182D01*
X38968535Y-27289511D01*
X38974514Y-27359125D01*
X38941909Y-27420920D01*
X38881070Y-27455277D01*
X38852984Y-27458500D01*
X37639129Y-27458500D01*
X37639123Y-27458501D01*
X37579516Y-27464908D01*
X37444671Y-27515202D01*
X37444664Y-27515206D01*
X37329457Y-27601451D01*
X37323180Y-27607728D01*
X37321764Y-27606312D01*
X37275044Y-27641284D01*
X37231716Y-27649100D01*
X37141754Y-27649100D01*
X37109297Y-27655998D01*
X36956597Y-27688455D01*
X36956592Y-27688457D01*
X36783670Y-27765448D01*
X36783665Y-27765451D01*
X36630529Y-27876711D01*
X36503866Y-28017385D01*
X36409221Y-28181315D01*
X36409218Y-28181322D01*
X36350727Y-28361340D01*
X36350726Y-28361344D01*
X36330940Y-28549600D01*
X36350726Y-28737856D01*
X36350727Y-28737859D01*
X36409218Y-28917877D01*
X36409221Y-28917884D01*
X36503867Y-29081816D01*
X36620569Y-29211426D01*
X36630529Y-29222488D01*
X36783665Y-29333748D01*
X36783670Y-29333751D01*
X36956592Y-29410742D01*
X36956597Y-29410744D01*
X37141754Y-29450100D01*
X37141755Y-29450100D01*
X37331044Y-29450100D01*
X37331046Y-29450100D01*
X37516203Y-29410744D01*
X37689130Y-29333751D01*
X37689911Y-29333183D01*
X37690440Y-29332994D01*
X37694755Y-29330503D01*
X37695210Y-29331292D01*
X37755714Y-29309702D01*
X37762799Y-29309499D01*
X40084871Y-29309499D01*
X40084872Y-29309499D01*
X40144483Y-29303091D01*
X40279331Y-29252796D01*
X40394546Y-29166546D01*
X40480796Y-29051331D01*
X40531091Y-28916483D01*
X40537500Y-28856873D01*
X40537499Y-27911128D01*
X40531091Y-27851517D01*
X40523791Y-27831946D01*
X40480797Y-27716671D01*
X40480793Y-27716664D01*
X40394547Y-27601455D01*
X40368402Y-27581883D01*
X40325567Y-27549816D01*
X40302790Y-27532765D01*
X40260920Y-27476831D01*
X40255936Y-27407139D01*
X40289422Y-27345817D01*
X40350745Y-27312332D01*
X40377094Y-27309499D01*
X42434872Y-27309499D01*
X42494483Y-27303091D01*
X42629331Y-27252796D01*
X42744546Y-27166546D01*
X42753034Y-27155206D01*
X42808967Y-27113337D01*
X42878659Y-27108353D01*
X42939982Y-27141838D01*
X42973466Y-27203162D01*
X42976300Y-27229519D01*
X42976300Y-33454300D01*
X42956615Y-33521339D01*
X42903811Y-33567094D01*
X42852300Y-33578300D01*
X16696908Y-33578300D01*
X16629869Y-33558615D01*
X16584114Y-33505811D01*
X16574170Y-33436653D01*
X16597641Y-33379989D01*
X16644996Y-33316731D01*
X16695291Y-33181883D01*
X16701700Y-33122273D01*
X16701700Y-32254001D01*
X23000804Y-32254001D01*
X23000999Y-32256486D01*
X23046818Y-32414198D01*
X23130414Y-32555552D01*
X23130421Y-32555561D01*
X23246538Y-32671678D01*
X23246547Y-32671685D01*
X23387903Y-32755282D01*
X23387906Y-32755283D01*
X23545604Y-32801099D01*
X23545610Y-32801100D01*
X23582456Y-32804000D01*
X24235600Y-32804000D01*
X24235600Y-32254000D01*
X24735600Y-32254000D01*
X24735600Y-32804000D01*
X25388744Y-32804000D01*
X25425589Y-32801100D01*
X25425595Y-32801099D01*
X25583293Y-32755283D01*
X25583296Y-32755282D01*
X25724652Y-32671685D01*
X25724661Y-32671678D01*
X25840778Y-32555561D01*
X25840785Y-32555552D01*
X25924381Y-32414198D01*
X25970200Y-32256486D01*
X25970395Y-32254001D01*
X25970395Y-32254000D01*
X24735600Y-32254000D01*
X24235600Y-32254000D01*
X23000805Y-32254000D01*
X23000804Y-32254001D01*
X16701700Y-32254001D01*
X16701699Y-31026528D01*
X16695291Y-30966917D01*
X16688867Y-30949694D01*
X16644997Y-30832071D01*
X16644993Y-30832064D01*
X16558747Y-30716855D01*
X16558744Y-30716852D01*
X16443535Y-30630606D01*
X16443528Y-30630602D01*
X16308682Y-30580308D01*
X16308683Y-30580308D01*
X16249083Y-30573901D01*
X16249081Y-30573900D01*
X16249073Y-30573900D01*
X16249064Y-30573900D01*
X14853329Y-30573900D01*
X14853323Y-30573901D01*
X14793716Y-30580308D01*
X14658871Y-30630602D01*
X14658864Y-30630606D01*
X14543655Y-30716852D01*
X14543652Y-30716855D01*
X14457406Y-30832064D01*
X14457402Y-30832071D01*
X14407108Y-30966917D01*
X14400701Y-31026516D01*
X14400701Y-31026523D01*
X14400700Y-31026535D01*
X14400700Y-33122270D01*
X14400701Y-33122276D01*
X14407108Y-33181883D01*
X14457402Y-33316728D01*
X14457403Y-33316729D01*
X14457404Y-33316731D01*
X14504759Y-33379989D01*
X14529176Y-33445453D01*
X14514325Y-33513726D01*
X14464920Y-33563132D01*
X14405492Y-33578300D01*
X12722900Y-33578300D01*
X12655861Y-33558615D01*
X12610106Y-33505811D01*
X12598900Y-33454300D01*
X12598900Y-26274400D01*
X16203340Y-26274400D01*
X16223126Y-26462656D01*
X16223127Y-26462659D01*
X16281618Y-26642677D01*
X16281621Y-26642684D01*
X16376267Y-26806616D01*
X16453253Y-26892117D01*
X16502929Y-26947288D01*
X16656065Y-27058548D01*
X16656070Y-27058551D01*
X16828992Y-27135542D01*
X16828997Y-27135544D01*
X17014154Y-27174900D01*
X17014155Y-27174900D01*
X17126700Y-27174900D01*
X17193739Y-27194585D01*
X17239494Y-27247389D01*
X17250700Y-27298899D01*
X17250700Y-27522269D01*
X17250701Y-27522276D01*
X17257108Y-27581883D01*
X17310503Y-27725041D01*
X17308933Y-27725626D01*
X17321583Y-27783767D01*
X17309887Y-27823606D01*
X17310946Y-27824001D01*
X17257603Y-27967020D01*
X17257601Y-27967027D01*
X17251200Y-28026555D01*
X17251200Y-28074400D01*
X19276121Y-28074400D01*
X19282547Y-28070891D01*
X19352239Y-28075875D01*
X19396586Y-28104376D01*
X20960494Y-29668284D01*
X20970319Y-29680548D01*
X20970540Y-29680366D01*
X20975510Y-29686373D01*
X20975513Y-29686376D01*
X20975514Y-29686377D01*
X21025951Y-29733741D01*
X21046830Y-29754620D01*
X21052304Y-29758866D01*
X21056742Y-29762656D01*
X21090718Y-29794562D01*
X21090722Y-29794564D01*
X21108273Y-29804213D01*
X21124531Y-29814892D01*
X21140364Y-29827174D01*
X21162315Y-29836672D01*
X21183137Y-29845683D01*
X21188381Y-29848252D01*
X21229208Y-29870697D01*
X21248612Y-29875679D01*
X21267010Y-29881978D01*
X21285405Y-29889938D01*
X21331429Y-29897226D01*
X21337132Y-29898407D01*
X21382281Y-29910000D01*
X21402316Y-29910000D01*
X21421713Y-29911526D01*
X21441496Y-29914660D01*
X21487884Y-29910275D01*
X21493722Y-29910000D01*
X22121715Y-29910000D01*
X22188754Y-29929685D01*
X22197682Y-29935995D01*
X22200735Y-29938363D01*
X22205169Y-29942148D01*
X22239154Y-29974062D01*
X22245294Y-29977437D01*
X22294559Y-30026983D01*
X22309216Y-30095298D01*
X22284613Y-30160693D01*
X22228561Y-30202405D01*
X22185558Y-30210100D01*
X20732053Y-30210100D01*
X20665014Y-30190415D01*
X20644372Y-30173781D01*
X19361203Y-28890612D01*
X19351380Y-28878350D01*
X19351159Y-28878534D01*
X19346186Y-28872523D01*
X19329531Y-28856883D01*
X19295764Y-28825173D01*
X19280708Y-28810117D01*
X19274875Y-28804283D01*
X19269385Y-28800024D01*
X19264960Y-28796245D01*
X19250900Y-28783042D01*
X19215507Y-28722800D01*
X19218303Y-28652986D01*
X19219606Y-28649319D01*
X19244795Y-28581783D01*
X19244798Y-28581772D01*
X19251199Y-28522244D01*
X19251200Y-28522227D01*
X19251200Y-28474400D01*
X17251200Y-28474400D01*
X17251200Y-28522244D01*
X17257601Y-28581772D01*
X17257603Y-28581779D01*
X17310946Y-28724799D01*
X17309130Y-28725476D01*
X17321583Y-28782716D01*
X17309628Y-28823433D01*
X17310503Y-28823759D01*
X17275400Y-28917877D01*
X17257109Y-28966917D01*
X17250700Y-29026527D01*
X17250700Y-29026534D01*
X17250700Y-29026535D01*
X17250700Y-29522270D01*
X17250701Y-29522276D01*
X17257108Y-29581883D01*
X17307402Y-29716728D01*
X17307406Y-29716735D01*
X17393652Y-29831944D01*
X17393655Y-29831947D01*
X17508864Y-29918193D01*
X17508871Y-29918197D01*
X17643717Y-29968491D01*
X17643716Y-29968491D01*
X17650644Y-29969235D01*
X17703327Y-29974900D01*
X18624946Y-29974899D01*
X18691985Y-29994583D01*
X18712627Y-30011218D01*
X19920797Y-31219388D01*
X19930622Y-31231651D01*
X19930843Y-31231469D01*
X19935814Y-31237478D01*
X19953101Y-31253711D01*
X19986235Y-31284826D01*
X20007129Y-31305720D01*
X20012611Y-31309973D01*
X20017043Y-31313757D01*
X20051018Y-31345662D01*
X20068576Y-31355314D01*
X20084835Y-31365995D01*
X20100664Y-31378273D01*
X20143438Y-31396782D01*
X20148656Y-31399338D01*
X20189508Y-31421797D01*
X20208916Y-31426780D01*
X20227317Y-31433080D01*
X20245704Y-31441037D01*
X20289088Y-31447908D01*
X20291719Y-31448325D01*
X20297439Y-31449509D01*
X20342581Y-31461100D01*
X20362616Y-31461100D01*
X20382014Y-31462626D01*
X20401794Y-31465759D01*
X20401795Y-31465760D01*
X20401795Y-31465759D01*
X20401796Y-31465760D01*
X20448184Y-31461375D01*
X20454022Y-31461100D01*
X22920219Y-31461100D01*
X22987258Y-31480785D01*
X23033013Y-31533589D01*
X23042957Y-31602747D01*
X23039296Y-31619695D01*
X23000999Y-31751513D01*
X23000804Y-31753998D01*
X23000805Y-31754000D01*
X25970395Y-31754000D01*
X25970395Y-31753998D01*
X25970200Y-31751513D01*
X25924381Y-31593801D01*
X25840785Y-31452447D01*
X25836000Y-31446278D01*
X25838466Y-31444364D01*
X25811902Y-31395776D01*
X25816849Y-31326082D01*
X25837956Y-31293232D01*
X25836401Y-31292026D01*
X25841177Y-31285868D01*
X25841181Y-31285865D01*
X25924844Y-31144398D01*
X25970698Y-30986569D01*
X25973600Y-30949694D01*
X25973600Y-30518306D01*
X25970698Y-30481431D01*
X25969387Y-30476919D01*
X25924845Y-30323606D01*
X25924844Y-30323603D01*
X25924844Y-30323602D01*
X25841181Y-30182135D01*
X25841178Y-30182132D01*
X25836398Y-30175969D01*
X25838850Y-30174066D01*
X25812255Y-30125421D01*
X25817204Y-30055726D01*
X25838040Y-30023304D01*
X25836398Y-30022031D01*
X25841175Y-30015870D01*
X25841181Y-30015865D01*
X25924844Y-29874398D01*
X25970698Y-29716569D01*
X25973600Y-29679694D01*
X25973600Y-29248306D01*
X25970698Y-29211431D01*
X25924844Y-29053602D01*
X25841181Y-28912135D01*
X25841178Y-28912132D01*
X25836398Y-28905969D01*
X25838735Y-28904155D01*
X25811898Y-28855050D01*
X25816856Y-28785356D01*
X25837654Y-28752998D01*
X25836003Y-28751717D01*
X25840786Y-28745550D01*
X25924381Y-28604198D01*
X25970200Y-28446486D01*
X25970395Y-28444001D01*
X25970395Y-28444000D01*
X23000805Y-28444000D01*
X23000804Y-28444001D01*
X23000999Y-28446486D01*
X23046818Y-28604198D01*
X23074721Y-28651379D01*
X23091904Y-28719103D01*
X23069744Y-28785365D01*
X23015278Y-28829129D01*
X22967989Y-28838500D01*
X22918257Y-28838500D01*
X22851218Y-28818815D01*
X22842241Y-28812467D01*
X22839213Y-28810117D01*
X22834792Y-28806342D01*
X22800818Y-28774438D01*
X22783265Y-28764788D01*
X22766999Y-28754104D01*
X22751172Y-28741827D01*
X22751171Y-28741826D01*
X22751169Y-28741825D01*
X22708404Y-28723318D01*
X22703158Y-28720748D01*
X22662329Y-28698303D01*
X22662328Y-28698302D01*
X22642929Y-28693322D01*
X22624517Y-28687018D01*
X22606134Y-28679062D01*
X22606128Y-28679060D01*
X22560110Y-28671772D01*
X22554388Y-28670587D01*
X22509257Y-28659000D01*
X22509255Y-28659000D01*
X22489220Y-28659000D01*
X22469822Y-28657473D01*
X22462398Y-28656297D01*
X22450041Y-28654340D01*
X22450040Y-28654340D01*
X22403652Y-28658725D01*
X22397814Y-28659000D01*
X21771752Y-28659000D01*
X21704713Y-28639315D01*
X21684071Y-28622681D01*
X20822572Y-27761181D01*
X20789087Y-27699858D01*
X20794071Y-27630166D01*
X20835943Y-27574233D01*
X20901407Y-27549816D01*
X20910253Y-27549500D01*
X22967989Y-27549500D01*
X23035028Y-27569185D01*
X23080783Y-27621989D01*
X23090727Y-27691147D01*
X23074721Y-27736621D01*
X23046818Y-27783801D01*
X23000999Y-27941513D01*
X23000804Y-27943998D01*
X23000805Y-27944000D01*
X25970395Y-27944000D01*
X25970395Y-27943998D01*
X25970200Y-27941513D01*
X25924381Y-27783801D01*
X25840785Y-27642447D01*
X25836000Y-27636278D01*
X25838466Y-27634364D01*
X25811902Y-27585776D01*
X25816849Y-27516082D01*
X25837956Y-27483232D01*
X25836401Y-27482026D01*
X25841177Y-27475868D01*
X25841181Y-27475865D01*
X25924844Y-27334398D01*
X25970698Y-27176569D01*
X25973600Y-27139694D01*
X25973600Y-26708306D01*
X25973407Y-26705859D01*
X25970698Y-26671432D01*
X25970697Y-26671426D01*
X25935700Y-26550968D01*
X25924844Y-26513602D01*
X25841181Y-26372135D01*
X25841178Y-26372132D01*
X25836398Y-26365969D01*
X25838850Y-26364066D01*
X25812255Y-26315421D01*
X25817204Y-26245726D01*
X25838040Y-26213304D01*
X25836398Y-26212031D01*
X25841175Y-26205870D01*
X25841181Y-26205865D01*
X25924844Y-26064398D01*
X25958605Y-25948191D01*
X25970697Y-25906573D01*
X25970698Y-25906567D01*
X25970734Y-25906116D01*
X25973600Y-25869694D01*
X25973600Y-25438306D01*
X25970698Y-25401431D01*
X25967206Y-25389412D01*
X25924845Y-25243606D01*
X25924844Y-25243603D01*
X25924844Y-25243602D01*
X25841181Y-25102135D01*
X25841178Y-25102132D01*
X25836398Y-25095969D01*
X25838850Y-25094066D01*
X25812255Y-25045421D01*
X25817204Y-24975726D01*
X25838040Y-24943304D01*
X25836398Y-24942031D01*
X25841175Y-24935870D01*
X25841181Y-24935865D01*
X25924844Y-24794398D01*
X25970698Y-24636569D01*
X25973600Y-24599694D01*
X25973600Y-24168306D01*
X25970698Y-24131431D01*
X25924844Y-23973602D01*
X25841181Y-23832135D01*
X25841178Y-23832132D01*
X25836398Y-23825969D01*
X25838850Y-23824066D01*
X25812255Y-23775421D01*
X25817204Y-23705726D01*
X25838040Y-23673304D01*
X25836398Y-23672031D01*
X25841175Y-23665870D01*
X25841181Y-23665865D01*
X25924844Y-23524398D01*
X25970698Y-23366569D01*
X25973600Y-23329694D01*
X25973600Y-22898306D01*
X25970698Y-22861431D01*
X25969373Y-22856872D01*
X25924845Y-22703606D01*
X25924844Y-22703603D01*
X25924844Y-22703602D01*
X25841181Y-22562135D01*
X25841178Y-22562132D01*
X25836398Y-22555969D01*
X25838850Y-22554066D01*
X25812255Y-22505421D01*
X25817204Y-22435726D01*
X25838040Y-22403304D01*
X25836398Y-22402031D01*
X25841175Y-22395870D01*
X25841181Y-22395865D01*
X25924844Y-22254398D01*
X25970698Y-22096569D01*
X25973600Y-22059694D01*
X25973600Y-21628306D01*
X25970698Y-21591431D01*
X25956685Y-21543200D01*
X25932078Y-21458500D01*
X25924844Y-21433602D01*
X25841181Y-21292135D01*
X25841178Y-21292132D01*
X25836398Y-21285969D01*
X25838850Y-21284066D01*
X25812255Y-21235421D01*
X25817204Y-21165726D01*
X25838040Y-21133304D01*
X25836398Y-21132031D01*
X25841175Y-21125870D01*
X25841181Y-21125865D01*
X25924844Y-20984398D01*
X25970698Y-20826569D01*
X25973600Y-20789694D01*
X25973600Y-20358306D01*
X25970698Y-20321431D01*
X25955228Y-20268185D01*
X25930625Y-20183500D01*
X25924844Y-20163602D01*
X25841181Y-20022135D01*
X25841178Y-20022132D01*
X25836398Y-20015969D01*
X25838850Y-20014066D01*
X25812255Y-19965421D01*
X25817204Y-19895726D01*
X25838040Y-19863304D01*
X25836398Y-19862031D01*
X25841175Y-19855870D01*
X25841181Y-19855865D01*
X25924844Y-19714398D01*
X25970698Y-19556569D01*
X25973600Y-19519694D01*
X25973600Y-19088306D01*
X25970698Y-19051431D01*
X25924844Y-18893602D01*
X25841181Y-18752135D01*
X25841178Y-18752132D01*
X25836398Y-18745969D01*
X25838850Y-18744066D01*
X25812255Y-18695421D01*
X25817204Y-18625726D01*
X25838040Y-18593304D01*
X25836398Y-18592031D01*
X25841175Y-18585870D01*
X25841181Y-18585865D01*
X25924844Y-18444398D01*
X25970698Y-18286569D01*
X25973600Y-18249694D01*
X25973600Y-17818306D01*
X25972209Y-17800627D01*
X25986574Y-17732250D01*
X26035626Y-17682494D01*
X26095827Y-17666900D01*
X28335500Y-17666900D01*
X28402539Y-17686585D01*
X28448294Y-17739389D01*
X28459500Y-17790900D01*
X28459500Y-19701900D01*
X28439815Y-19768939D01*
X28387011Y-19814694D01*
X28335500Y-19825900D01*
X28302554Y-19825900D01*
X28273531Y-19832069D01*
X28117397Y-19865255D01*
X28117392Y-19865257D01*
X27944470Y-19942248D01*
X27944465Y-19942251D01*
X27791329Y-20053511D01*
X27664666Y-20194185D01*
X27570021Y-20358115D01*
X27570018Y-20358122D01*
X27515119Y-20527086D01*
X27511526Y-20538144D01*
X27491740Y-20726400D01*
X27511526Y-20914656D01*
X27511527Y-20914659D01*
X27570018Y-21094677D01*
X27570021Y-21094684D01*
X27664667Y-21258616D01*
X27693866Y-21291044D01*
X27739850Y-21342115D01*
X27770080Y-21405106D01*
X27771700Y-21425087D01*
X27771700Y-30194055D01*
X27769975Y-30209672D01*
X27770261Y-30209699D01*
X27769526Y-30217465D01*
X27771700Y-30286614D01*
X27771700Y-30316143D01*
X27771701Y-30316160D01*
X27772568Y-30323031D01*
X27773026Y-30328850D01*
X27774490Y-30375424D01*
X27774491Y-30375427D01*
X27780080Y-30394667D01*
X27784024Y-30413711D01*
X27786536Y-30433591D01*
X27803690Y-30476919D01*
X27805582Y-30482447D01*
X27818581Y-30527188D01*
X27828780Y-30544434D01*
X27837336Y-30561900D01*
X27844625Y-30580308D01*
X27844714Y-30580532D01*
X27872098Y-30618223D01*
X27875306Y-30623107D01*
X27899027Y-30663216D01*
X27899033Y-30663224D01*
X27913190Y-30677380D01*
X27925828Y-30692176D01*
X27937605Y-30708386D01*
X27937606Y-30708387D01*
X27973509Y-30738088D01*
X27977820Y-30742010D01*
X28185504Y-30949694D01*
X28353594Y-31117784D01*
X28363417Y-31130045D01*
X28363639Y-31129863D01*
X28368612Y-31135875D01*
X28419036Y-31183227D01*
X28439923Y-31204115D01*
X28439927Y-31204118D01*
X28439929Y-31204120D01*
X28445411Y-31208373D01*
X28449843Y-31212157D01*
X28483818Y-31244062D01*
X28501376Y-31253714D01*
X28517635Y-31264395D01*
X28533464Y-31276673D01*
X28576238Y-31295182D01*
X28581456Y-31297738D01*
X28622308Y-31320197D01*
X28641716Y-31325180D01*
X28660117Y-31331480D01*
X28678504Y-31339437D01*
X28717789Y-31345659D01*
X28724519Y-31346725D01*
X28730239Y-31347909D01*
X28775381Y-31359500D01*
X28795416Y-31359500D01*
X28814814Y-31361026D01*
X28834594Y-31364159D01*
X28834595Y-31364160D01*
X28834595Y-31364159D01*
X28834596Y-31364160D01*
X28880984Y-31359775D01*
X28886822Y-31359500D01*
X29892408Y-31359500D01*
X29959447Y-31379185D01*
X30005202Y-31431989D01*
X30015146Y-31501147D01*
X29999141Y-31546620D01*
X29971354Y-31593605D01*
X29971354Y-31593606D01*
X29925502Y-31751426D01*
X29925501Y-31751432D01*
X29922600Y-31788304D01*
X29922600Y-32219696D01*
X29925501Y-32256567D01*
X29925502Y-32256573D01*
X29971354Y-32414393D01*
X29971355Y-32414396D01*
X30055017Y-32555862D01*
X30055023Y-32555870D01*
X30171229Y-32672076D01*
X30171233Y-32672079D01*
X30171235Y-32672081D01*
X30312702Y-32755744D01*
X30354324Y-32767836D01*
X30470526Y-32801597D01*
X30470529Y-32801597D01*
X30470531Y-32801598D01*
X30482822Y-32802565D01*
X30507404Y-32804500D01*
X30507406Y-32804500D01*
X32313796Y-32804500D01*
X32332231Y-32803049D01*
X32350669Y-32801598D01*
X32350671Y-32801597D01*
X32350673Y-32801597D01*
X32392291Y-32789505D01*
X32508498Y-32755744D01*
X32649965Y-32672081D01*
X32766181Y-32555865D01*
X32849844Y-32414398D01*
X32895698Y-32256569D01*
X32898600Y-32219694D01*
X32898600Y-31788306D01*
X32895698Y-31751431D01*
X32849844Y-31593602D01*
X32766181Y-31452135D01*
X32766178Y-31452132D01*
X32761398Y-31445969D01*
X32763850Y-31444066D01*
X32737255Y-31395421D01*
X32742204Y-31325726D01*
X32763040Y-31293304D01*
X32761398Y-31292031D01*
X32766175Y-31285870D01*
X32766181Y-31285865D01*
X32849844Y-31144398D01*
X32895698Y-30986569D01*
X32898600Y-30949694D01*
X32898600Y-30518306D01*
X32895698Y-30481431D01*
X32894387Y-30476919D01*
X32849845Y-30323606D01*
X32849844Y-30323603D01*
X32849844Y-30323602D01*
X32766181Y-30182135D01*
X32766178Y-30182132D01*
X32761398Y-30175969D01*
X32763850Y-30174066D01*
X32737255Y-30125421D01*
X32742204Y-30055726D01*
X32763040Y-30023304D01*
X32761398Y-30022031D01*
X32766175Y-30015870D01*
X32766181Y-30015865D01*
X32849844Y-29874398D01*
X32895698Y-29716569D01*
X32898600Y-29679694D01*
X32898600Y-29248306D01*
X32895698Y-29211431D01*
X32849844Y-29053602D01*
X32766181Y-28912135D01*
X32766178Y-28912132D01*
X32761398Y-28905969D01*
X32763735Y-28904155D01*
X32736898Y-28855050D01*
X32741856Y-28785356D01*
X32762654Y-28752998D01*
X32761003Y-28751717D01*
X32765786Y-28745550D01*
X32849381Y-28604198D01*
X32895200Y-28446486D01*
X32895395Y-28444001D01*
X32895395Y-28444000D01*
X31284600Y-28444000D01*
X31217561Y-28424315D01*
X31171806Y-28371511D01*
X31160600Y-28320000D01*
X31160600Y-28068000D01*
X31180285Y-28000961D01*
X31233089Y-27955206D01*
X31284600Y-27944000D01*
X32895395Y-27944000D01*
X32895395Y-27943998D01*
X32895200Y-27941513D01*
X32849381Y-27783801D01*
X32790989Y-27685066D01*
X32773806Y-27617343D01*
X32795966Y-27551080D01*
X32850432Y-27507316D01*
X32863121Y-27502870D01*
X32863990Y-27502618D01*
X32881229Y-27492422D01*
X32898703Y-27483862D01*
X32917327Y-27476488D01*
X32917327Y-27476487D01*
X32917332Y-27476486D01*
X32955049Y-27449082D01*
X32959905Y-27445892D01*
X33000020Y-27422170D01*
X33014189Y-27407999D01*
X33028979Y-27395368D01*
X33045187Y-27383594D01*
X33074889Y-27347688D01*
X33078811Y-27343377D01*
X33302188Y-27120001D01*
X33314450Y-27110179D01*
X33314267Y-27109958D01*
X33320276Y-27104987D01*
X33367627Y-27054563D01*
X33388515Y-27033676D01*
X33388515Y-27033675D01*
X33388520Y-27033671D01*
X33392779Y-27028178D01*
X33396552Y-27023761D01*
X33428462Y-26989782D01*
X33438113Y-26972224D01*
X33448796Y-26955961D01*
X33461073Y-26940136D01*
X33479585Y-26897353D01*
X33482138Y-26892141D01*
X33504597Y-26851292D01*
X33509580Y-26831880D01*
X33515881Y-26813480D01*
X33523837Y-26795096D01*
X33531129Y-26749052D01*
X33532306Y-26743371D01*
X33543900Y-26698219D01*
X33543900Y-26678183D01*
X33545427Y-26658782D01*
X33548560Y-26639004D01*
X33544175Y-26592615D01*
X33543900Y-26586777D01*
X33543900Y-25456451D01*
X33563585Y-25389412D01*
X33580215Y-25368774D01*
X34307094Y-24641894D01*
X34344333Y-24616300D01*
X34463633Y-24563185D01*
X34616774Y-24451922D01*
X34731301Y-24324726D01*
X34790788Y-24288078D01*
X34823451Y-24283699D01*
X35521134Y-24283699D01*
X35521135Y-24283699D01*
X35580746Y-24277291D01*
X35633964Y-24257442D01*
X35715592Y-24226997D01*
X35715592Y-24226996D01*
X35715594Y-24226996D01*
X35749369Y-24201711D01*
X35814829Y-24177294D01*
X35883103Y-24192144D01*
X35897991Y-24201712D01*
X35931173Y-24226552D01*
X35931176Y-24226554D01*
X36065883Y-24276796D01*
X36065890Y-24276798D01*
X36125418Y-24283199D01*
X36125435Y-24283200D01*
X36273263Y-24283200D01*
X36273263Y-21173200D01*
X36773263Y-21173200D01*
X36773263Y-21543200D01*
X37373263Y-21543200D01*
X37373263Y-21495372D01*
X37373262Y-21495355D01*
X37366860Y-21435822D01*
X37365076Y-21428267D01*
X37366513Y-21427927D01*
X37362137Y-21366858D01*
X37366627Y-21351566D01*
X37366860Y-21350577D01*
X37373262Y-21291044D01*
X37373263Y-21291027D01*
X37373263Y-21173200D01*
X36773263Y-21173200D01*
X36273263Y-21173200D01*
X35855445Y-21173200D01*
X35788406Y-21153515D01*
X35781134Y-21148467D01*
X35715594Y-21099404D01*
X35715591Y-21099402D01*
X35580745Y-21049108D01*
X35580746Y-21049108D01*
X35521146Y-21042701D01*
X35521144Y-21042700D01*
X35521136Y-21042700D01*
X35521128Y-21042700D01*
X34997263Y-21042700D01*
X34930224Y-21023015D01*
X34884469Y-20970211D01*
X34873263Y-20918700D01*
X34873263Y-20573000D01*
X34867386Y-20567123D01*
X34820361Y-20553315D01*
X34774606Y-20500511D01*
X34763400Y-20449000D01*
X34763400Y-19808000D01*
X35263400Y-19808000D01*
X35263400Y-20063200D01*
X35269276Y-20069076D01*
X35316302Y-20082885D01*
X35362057Y-20135689D01*
X35373263Y-20187200D01*
X35373263Y-20673200D01*
X36273263Y-20673200D01*
X36273263Y-20103200D01*
X36773263Y-20103200D01*
X36773263Y-20673200D01*
X37373263Y-20673200D01*
X37373263Y-20555372D01*
X37373262Y-20555355D01*
X37366861Y-20495827D01*
X37366859Y-20495820D01*
X37316617Y-20361113D01*
X37316613Y-20361106D01*
X37230453Y-20246012D01*
X37230450Y-20246009D01*
X37115356Y-20159849D01*
X37115349Y-20159845D01*
X36980642Y-20109603D01*
X36980635Y-20109601D01*
X36921107Y-20103200D01*
X36773263Y-20103200D01*
X36273263Y-20103200D01*
X36125418Y-20103200D01*
X36065890Y-20109601D01*
X36058333Y-20111387D01*
X36057733Y-20108847D01*
X36000613Y-20112916D01*
X35939300Y-20079414D01*
X35905833Y-20018081D01*
X35908108Y-19967016D01*
X35905711Y-19966540D01*
X35906990Y-19960106D01*
X35913400Y-19889572D01*
X35913400Y-19808000D01*
X35263400Y-19808000D01*
X34763400Y-19808000D01*
X34763400Y-19432000D01*
X34783085Y-19364961D01*
X34835889Y-19319206D01*
X34887400Y-19308000D01*
X35913399Y-19308000D01*
X35913399Y-19226417D01*
X35906991Y-19155897D01*
X35906990Y-19155892D01*
X35856418Y-18993603D01*
X35770216Y-18851007D01*
X35752380Y-18783453D01*
X35770794Y-18721762D01*
X35850403Y-18592697D01*
X35903749Y-18431708D01*
X35913900Y-18332345D01*
X35913899Y-17735656D01*
X35908886Y-17686585D01*
X35903749Y-17636292D01*
X35903748Y-17636289D01*
X35859178Y-17501785D01*
X35850403Y-17475303D01*
X35850399Y-17475297D01*
X35850398Y-17475294D01*
X35761370Y-17330959D01*
X35761367Y-17330955D01*
X35641444Y-17211032D01*
X35641440Y-17211029D01*
X35497105Y-17122001D01*
X35497099Y-17121998D01*
X35497097Y-17121997D01*
X35476485Y-17115167D01*
X35336109Y-17068651D01*
X35236752Y-17058500D01*
X35236745Y-17058500D01*
X35100630Y-17058500D01*
X35033591Y-17038815D01*
X35012949Y-17022181D01*
X34421529Y-16430761D01*
X34409749Y-16417130D01*
X34402282Y-16407101D01*
X34395412Y-16397872D01*
X34390122Y-16393433D01*
X34355387Y-16364286D01*
X34351412Y-16360644D01*
X34348490Y-16357722D01*
X34345580Y-16354811D01*
X34319840Y-16334459D01*
X34317963Y-16332884D01*
X34261014Y-16285098D01*
X34261013Y-16285097D01*
X34261009Y-16285094D01*
X34254980Y-16281129D01*
X34255012Y-16281080D01*
X34248653Y-16277028D01*
X34248622Y-16277079D01*
X34242480Y-16273291D01*
X34242478Y-16273290D01*
X34242477Y-16273289D01*
X34203274Y-16255008D01*
X34172858Y-16240824D01*
X34138694Y-16223667D01*
X34104233Y-16206360D01*
X34104231Y-16206359D01*
X34104230Y-16206359D01*
X34097445Y-16203889D01*
X34097465Y-16203833D01*
X34090349Y-16201359D01*
X34090331Y-16201415D01*
X34083471Y-16199142D01*
X34055641Y-16193396D01*
X34008234Y-16183607D01*
X33959272Y-16172003D01*
X33933519Y-16165899D01*
X33926347Y-16165061D01*
X33926353Y-16165001D01*
X33918855Y-16164235D01*
X33918850Y-16164295D01*
X33911660Y-16163665D01*
X33834883Y-16165900D01*
X29934105Y-16165900D01*
X29916135Y-16164591D01*
X29892372Y-16161110D01*
X29847912Y-16165001D01*
X29840331Y-16165664D01*
X29834930Y-16165900D01*
X24650905Y-16165900D01*
X24632935Y-16164591D01*
X24609172Y-16161110D01*
X24564090Y-16165055D01*
X24557133Y-16165664D01*
X24551732Y-16165900D01*
X24543488Y-16165900D01*
X24510907Y-16169708D01*
X24434399Y-16176401D01*
X24427333Y-16177861D01*
X24427321Y-16177804D01*
X24419954Y-16179438D01*
X24419968Y-16179494D01*
X24412951Y-16181156D01*
X24340773Y-16207426D01*
X24267862Y-16231587D01*
X24261319Y-16234638D01*
X24261294Y-16234586D01*
X24254514Y-16237868D01*
X24254540Y-16237920D01*
X24248081Y-16241164D01*
X24183909Y-16283370D01*
X24118545Y-16323688D01*
X24112877Y-16328170D01*
X24112841Y-16328124D01*
X24106998Y-16332884D01*
X24107035Y-16332928D01*
X24101510Y-16337564D01*
X24101504Y-16337569D01*
X24101504Y-16337570D01*
X24076292Y-16364293D01*
X24048799Y-16393433D01*
X23644358Y-16797872D01*
X23630729Y-16809651D01*
X23611468Y-16823990D01*
X23577898Y-16863997D01*
X23574253Y-16867976D01*
X23568409Y-16873822D01*
X23548059Y-16899559D01*
X23498695Y-16958389D01*
X23494729Y-16964419D01*
X23494682Y-16964388D01*
X23490630Y-16970747D01*
X23490679Y-16970777D01*
X23486889Y-16976921D01*
X23454424Y-17046542D01*
X23430022Y-17095131D01*
X23382345Y-17146206D01*
X23314623Y-17163396D01*
X23248358Y-17141244D01*
X23231530Y-17127162D01*
X23194057Y-17089689D01*
X23194056Y-17089688D01*
X23190742Y-17087643D01*
X23188946Y-17085648D01*
X23188389Y-17085207D01*
X23188464Y-17085111D01*
X23144018Y-17035697D01*
X23132797Y-16966734D01*
X23160640Y-16902652D01*
X23190748Y-16876565D01*
X23193742Y-16874718D01*
X23317715Y-16750745D01*
X23409756Y-16601524D01*
X23409758Y-16601519D01*
X23464905Y-16435097D01*
X23464906Y-16435090D01*
X23475399Y-16332386D01*
X23475400Y-16332373D01*
X23475400Y-16282400D01*
X21025401Y-16282400D01*
X21025401Y-16332386D01*
X21035894Y-16435097D01*
X21091041Y-16601519D01*
X21091043Y-16601524D01*
X21183084Y-16750745D01*
X21307057Y-16874718D01*
X21310052Y-16876565D01*
X21311675Y-16878369D01*
X21312723Y-16879198D01*
X21312581Y-16879376D01*
X21356779Y-16928510D01*
X21368004Y-16997473D01*
X21340164Y-17061556D01*
X21310062Y-17087641D01*
X21306747Y-17089685D01*
X21306746Y-17089686D01*
X21248170Y-17148261D01*
X21186846Y-17181745D01*
X21117155Y-17176759D01*
X21110061Y-17173860D01*
X21107811Y-17172858D01*
X21107802Y-17172855D01*
X20934064Y-17135927D01*
X20922646Y-17133500D01*
X20733354Y-17133500D01*
X20721936Y-17135927D01*
X20548197Y-17172855D01*
X20548192Y-17172857D01*
X20375270Y-17249848D01*
X20375265Y-17249851D01*
X20222129Y-17361111D01*
X20095466Y-17501785D01*
X20000821Y-17665715D01*
X20000818Y-17665722D01*
X19956985Y-17800627D01*
X19942326Y-17845744D01*
X19922540Y-18034000D01*
X19942326Y-18222256D01*
X19942327Y-18222259D01*
X20000818Y-18402277D01*
X20000821Y-18402284D01*
X20025135Y-18444398D01*
X20035818Y-18462900D01*
X20052291Y-18530800D01*
X20029438Y-18596827D01*
X19974517Y-18640018D01*
X19928431Y-18648900D01*
X19375200Y-18648900D01*
X19308161Y-18629215D01*
X19262406Y-18576411D01*
X19251200Y-18524900D01*
X19251200Y-18474400D01*
X17251200Y-18474400D01*
X17251200Y-18522244D01*
X17257601Y-18581772D01*
X17257603Y-18581779D01*
X17310946Y-18724799D01*
X17309130Y-18725476D01*
X17321583Y-18782716D01*
X17309628Y-18823433D01*
X17310503Y-18823759D01*
X17284454Y-18893602D01*
X17257109Y-18966917D01*
X17250700Y-19026527D01*
X17250700Y-19026534D01*
X17250700Y-19026535D01*
X17250700Y-19522270D01*
X17250701Y-19522276D01*
X17257108Y-19581883D01*
X17310503Y-19725041D01*
X17308775Y-19725685D01*
X17321295Y-19783253D01*
X17309510Y-19823388D01*
X17310503Y-19823759D01*
X17257250Y-19966540D01*
X17257109Y-19966917D01*
X17250700Y-20026527D01*
X17250700Y-20026534D01*
X17250700Y-20026535D01*
X17250700Y-20522270D01*
X17250701Y-20522276D01*
X17257108Y-20581883D01*
X17310503Y-20725041D01*
X17308775Y-20725685D01*
X17321295Y-20783253D01*
X17309510Y-20823388D01*
X17310503Y-20823759D01*
X17270111Y-20932057D01*
X17257109Y-20966917D01*
X17250700Y-21026527D01*
X17250700Y-21026534D01*
X17250700Y-21026535D01*
X17250700Y-21522270D01*
X17250701Y-21522276D01*
X17257108Y-21581883D01*
X17310503Y-21725041D01*
X17308775Y-21725685D01*
X17321295Y-21783253D01*
X17309510Y-21823388D01*
X17310503Y-21823759D01*
X17277917Y-21911128D01*
X17257109Y-21966917D01*
X17250700Y-22026527D01*
X17250700Y-22026534D01*
X17250700Y-22026535D01*
X17250700Y-22522270D01*
X17250701Y-22522276D01*
X17257108Y-22581883D01*
X17310503Y-22725041D01*
X17308775Y-22725685D01*
X17321295Y-22783253D01*
X17309510Y-22823388D01*
X17310503Y-22823759D01*
X17263164Y-22950683D01*
X17257109Y-22966917D01*
X17250700Y-23026527D01*
X17250700Y-23026534D01*
X17250700Y-23026535D01*
X17250700Y-23522270D01*
X17250701Y-23522276D01*
X17257108Y-23581883D01*
X17310503Y-23725041D01*
X17308775Y-23725685D01*
X17321295Y-23783253D01*
X17309510Y-23823388D01*
X17310503Y-23823759D01*
X17277917Y-23911129D01*
X17257109Y-23966917D01*
X17250700Y-24026527D01*
X17250700Y-24026534D01*
X17250700Y-24026535D01*
X17250700Y-24522270D01*
X17250701Y-24522276D01*
X17257108Y-24581883D01*
X17310503Y-24725041D01*
X17308775Y-24725685D01*
X17321295Y-24783253D01*
X17309510Y-24823388D01*
X17310503Y-24823759D01*
X17257108Y-24966917D01*
X17250701Y-25026516D01*
X17250700Y-25026535D01*
X17250700Y-25249900D01*
X17231015Y-25316939D01*
X17178211Y-25362694D01*
X17126700Y-25373900D01*
X17014154Y-25373900D01*
X16981697Y-25380798D01*
X16828997Y-25413255D01*
X16828992Y-25413257D01*
X16656070Y-25490248D01*
X16656065Y-25490251D01*
X16502929Y-25601511D01*
X16376266Y-25742185D01*
X16281621Y-25906115D01*
X16281618Y-25906122D01*
X16225329Y-26079363D01*
X16223126Y-26086144D01*
X16203340Y-26274400D01*
X12598900Y-26274400D01*
X12598900Y-18074400D01*
X17251200Y-18074400D01*
X18051200Y-18074400D01*
X18051200Y-17574400D01*
X18451200Y-17574400D01*
X18451200Y-18074400D01*
X19251200Y-18074400D01*
X19251200Y-18026572D01*
X19251199Y-18026555D01*
X19244798Y-17967027D01*
X19244796Y-17967020D01*
X19194554Y-17832313D01*
X19194550Y-17832306D01*
X19108390Y-17717212D01*
X19108387Y-17717209D01*
X18993293Y-17631049D01*
X18993286Y-17631045D01*
X18858579Y-17580803D01*
X18858572Y-17580801D01*
X18799044Y-17574400D01*
X18451200Y-17574400D01*
X18051200Y-17574400D01*
X17703355Y-17574400D01*
X17643827Y-17580801D01*
X17643820Y-17580803D01*
X17509113Y-17631045D01*
X17509106Y-17631049D01*
X17394012Y-17717209D01*
X17394009Y-17717212D01*
X17307849Y-17832306D01*
X17307845Y-17832313D01*
X17257603Y-17967020D01*
X17257601Y-17967027D01*
X17251200Y-18026555D01*
X17251200Y-18074400D01*
X12598900Y-18074400D01*
X12598900Y-14094500D01*
X12618585Y-14027461D01*
X12671389Y-13981706D01*
X12722900Y-13970500D01*
X14405492Y-13970500D01*
X14472531Y-13990185D01*
G37*
%TD.AperFunction*%
%TA.AperFunction,Conductor*%
G36*
X42939982Y-23141838D02*
G01*
X42973466Y-23203162D01*
X42976300Y-23229519D01*
X42976300Y-25538480D01*
X42956615Y-25605519D01*
X42903811Y-25651274D01*
X42834653Y-25661218D01*
X42771097Y-25632193D01*
X42753035Y-25612794D01*
X42744546Y-25601454D01*
X42721709Y-25584358D01*
X42629335Y-25515206D01*
X42629328Y-25515202D01*
X42494482Y-25464908D01*
X42494483Y-25464908D01*
X42434883Y-25458501D01*
X42434881Y-25458500D01*
X42434873Y-25458500D01*
X42434865Y-25458500D01*
X40377101Y-25458500D01*
X40310062Y-25438815D01*
X40264307Y-25386011D01*
X40254363Y-25316853D01*
X40283388Y-25253297D01*
X40302786Y-25235237D01*
X40394546Y-25166546D01*
X40480796Y-25051331D01*
X40531091Y-24916483D01*
X40537500Y-24856873D01*
X40537499Y-23911128D01*
X40531091Y-23851517D01*
X40523837Y-23832069D01*
X40480797Y-23716671D01*
X40480793Y-23716664D01*
X40394547Y-23601455D01*
X40370562Y-23583500D01*
X40360075Y-23575649D01*
X40302790Y-23532765D01*
X40260920Y-23476831D01*
X40255936Y-23407139D01*
X40289422Y-23345817D01*
X40350745Y-23312332D01*
X40377094Y-23309499D01*
X42434872Y-23309499D01*
X42494483Y-23303091D01*
X42629331Y-23252796D01*
X42744546Y-23166546D01*
X42753034Y-23155206D01*
X42808967Y-23113337D01*
X42878659Y-23108353D01*
X42939982Y-23141838D01*
G37*
%TD.AperFunction*%
%TD*%
M02*
